{
  "accessors": [
    {
      "bufferView": 2,
      "componentType": 5126,
      "count": 15992,
      "max": [
        4.464794158935547,
        0.08033671230077744,
        6.688124179840088
      ],
      "min": [
        -8.914953231811523,
        -15.262277603149414,
        -6.161707401275635
      ],
      "type": "VEC3"
    },
    {
      "bufferView": 2,
      "byteOffset": 191904,
      "componentType": 5126,
      "count": 15992,
      "max": [
        0.9997915029525757,
        1.0,
        0.9975671172142029
      ],
      "min": [
        -0.9999997615814209,
        -1.0,
        -0.9975363612174988
      ],
      "type": "VEC3"
    },
    {
      "bufferView": 1,
      "componentType": 5126,
      "count": 15992,
      "max": [
        1.0,
        1.0
      ],
      "min": [
        0.0,
        0.0
      ],
      "type": "VEC2"
    },
    {
      "bufferView": 0,
      "componentType": 5125,
      "count": 81408,
      "type": "SCALAR"
    },
    {
      "bufferView": 2,
      "byteOffset": 383808,
      "componentType": 5126,
      "count": 19896,
      "max": [
        4.881132125854492,
        0.015203304588794708,
        4.4318060874938965
      ],
      "min": [
        -7.558468341827393,
        -13.338027000427246,
        -0.27454328536987305
      ],
      "type": "VEC3"
    },
    {
      "bufferView": 2,
      "byteOffset": 622560,
      "componentType": 5126,
      "count": 19896,
      "max": [
        0.9999819397926331,
        0.9999918937683105,
        0.9997234344482422
      ],
      "min": [
        -0.99991375207901,
        -0.999955415725708,
        -0.9999560117721558
      ],
      "type": "VEC3"
    },
    {
      "bufferView": 1,
      "byteOffset": 127936,
      "componentType": 5126,
      "count": 19896,
      "max": [
        1.0,
        1.0
      ],
      "min": [
        0.0,
        0.0
      ],
      "type": "VEC2"
    },
    {
      "bufferView": 0,
      "byteOffset": 325632,
      "componentType": 5125,
      "count": 110592,
      "type": "SCALAR"
    },
    {
      "bufferView": 2,
      "byteOffset": 861312,
      "componentType": 5126,
      "count": 13585,
      "max": [
        7.989638328552246,
        22.720603942871094,
        6.70544958114624
      ],
      "min": [
        -7.989638328552246,
        11.628124237060547,
        -3.413971185684204
      ],
      "type": "VEC3"
    },
    {
      "bufferView": 2,
      "byteOffset": 1024332,
      "componentType": 5126,
      "count": 13585,
      "max": [
        0.9988657832145691,
        0.9986231923103333,
        0.9996837973594666
      ],
      "min": [
        -0.9988657236099243,
        -0.9984303712844849,
        -0.9996330738067627
      ],
      "type": "VEC3"
    },
    {
      "bufferView": 1,
      "byteOffset": 287104,
      "componentType": 5126,
      "count": 13585,
      "max": [
        1.0,
        1.0
      ],
      "min": [
        0.0,
        0.0
      ],
      "type": "VEC2"
    },
    {
      "bufferView": 0,
      "byteOffset": 768000,
      "componentType": 5125,
      "count": 79488,
      "type": "SCALAR"
    },
    {
      "bufferView": 2,
      "byteOffset": 1187352,
      "componentType": 5126,
      "count": 10205,
      "max": [
        6.71078634262085,
        0.44944822788238525,
        4.935860633850098
      ],
      "min": [
        -6.71078634262085,
        -8.462589263916016,
        -4.428328514099121
      ],
      "type": "VEC3"
    },
    {
      "bufferView": 2,
      "byteOffset": 1309812,
      "componentType": 5126,
      "count": 10205,
      "max": [
        0.9991729855537415,
        0.9997339248657227,
        1.0
      ],
      "min": [
        -0.9991731643676758,
        -0.5190242528915405,
        -1.0
      ],
      "type": "VEC3"
    },
    {
      "bufferView": 1,
      "byteOffset": 395784,
      "componentType": 5126,
      "count": 10205,
      "max": [
        0.8500722646713257,
        0.7610373497009277
      ],
      "min": [
        0.14992773532867432,
        0.29584431648254395
      ],
      "type": "VEC2"
    },
    {
      "bufferView": 0,
      "byteOffset": 1085952,
      "componentType": 5125,
      "count": 58368,
      "type": "SCALAR"
    },
    {
      "bufferView": 2,
      "byteOffset": 1432272,
      "componentType": 5126,
      "count": 10205,
      "max": [
        6.71078634262085,
        0.44944822788238525,
        4.935860633850098
      ],
      "min": [
        -6.71078634262085,
        -8.462589263916016,
        -4.428328514099121
      ],
      "type": "VEC3"
    },
    {
      "bufferView": 2,
      "byteOffset": 1554732,
      "componentType": 5126,
      "count": 10205,
      "max": [
        0.9991729855537415,
        0.9997339248657227,
        1.0
      ],
      "min": [
        -0.9991731643676758,
        -0.5190242528915405,
        -1.0
      ],
      "type": "VEC3"
    },
    {
      "bufferView": 1,
      "byteOffset": 477424,
      "componentType": 5126,
      "count": 10205,
      "max": [
        0.8500722646713257,
        0.7610373497009277
      ],
      "min": [
        0.14992773532867432,
        0.29584431648254395
      ],
      "type": "VEC2"
    },
    {
      "bufferView": 0,
      "byteOffset": 1319424,
      "componentType": 5125,
      "count": 58368,
      "type": "SCALAR"
    }
  ],
  "asset": {
    "extras": {
      "author": "galina86 (https://sketchfab.com/galina86)",
      "license": "CC-BY-4.0 (http://creativecommons.org/licenses/by/4.0/)",
      "source": "https://sketchfab.com/3d-models/mask-cc12b9d9922d46d6817927b2075f0f75",
      "title": "Mask"
    },
    "generator": "Sketchfab-12.66.0",
    "version": "2.0"
  },
  "bufferViews": [
    {
      "buffer": 0,
      "byteLength": 1552896,
      "name": "floatBufferViews",
      "target": 34963
    },
    {
      "buffer": 0,
      "byteLength": 559064,
      "byteOffset": 1552896,
      "byteStride": 8,
      "name": "floatBufferViews",
      "target": 34962
    },
    {
      "buffer": 0,
      "byteLength": 1677192,
      "byteOffset": 2111960,
      "byteStride": 12,
      "name": "floatBufferViews",
      "target": 34962
    }
  ],
  "buffers": [
    {
      "byteLength": 3789152,
      "uri": "scene.bin"
    }
  ],
  "materials": [
    {
      "doubleSided": true,
      "name": "Scene_-_Root",
      "pbrMetallicRoughness": {
        "metallicFactor": 0.0,
        "roughnessFactor": 0.6
      }
    }
  ],
  "meshes": [
    {
      "name": "1__0",
      "primitives": [
        {
          "attributes": {
            "NORMAL": 1,
            "POSITION": 0,
            "TEXCOORD_0": 2
          },
          "indices": 3,
          "material": 0,
          "mode": 4
        }
      ]
    },
    {
      "name": "1_2__0",
      "primitives": [
        {
          "attributes": {
            "NORMAL": 5,
            "POSITION": 4,
            "TEXCOORD_0": 6
          },
          "indices": 7,
          "material": 0,
          "mode": 4
        }
      ]
    },
    {
      "name": "1_3__0",
      "primitives": [
        {
          "attributes": {
            "NORMAL": 9,
            "POSITION": 8,
            "TEXCOORD_0": 10
          },
          "indices": 11,
          "material": 0,
          "mode": 4
        }
      ]
    },
    {
      "name": "Mask__0",
      "primitives": [
        {
          "attributes": {
            "NORMAL": 13,
            "POSITION": 12,
            "TEXCOORD_0": 14
          },
          "indices": 15,
          "material": 0,
          "mode": 4
        }
      ]
    },
    {
      "name": "Mask_2__0",
      "primitives": [
        {
          "attributes": {
            "NORMAL": 17,
            "POSITION": 16,
            "TEXCOORD_0": 18
          },
          "indices": 19,
          "material": 0,
          "mode": 4
        }
      ]
    }
  ],
  "nodes": [
    {
      "children": [
        1
      ],
      "matrix": [
        1.0,
        0.0,
        0.0,
        0.0,
        0.0,
        2.220446049250313e-16,
        -1.0,
        0.0,
        0.0,
        1.0,
        2.220446049250313e-16,
        0.0,
        0.0,
        0.0,
        0.0,
        1.0
      ],
      "name": "Sketchfab_model"
    },
    {
      "children": [
        2
      ],
      "matrix": [
        1.0,
        0.0,
        0.0,
        0.0,
        0.0,
        0.0,
        1.0,
        0.0,
        0.0,
        -1.0,
        0.0,
        0.0,
        0.0,
        0.0,
        0.0,
        1.0
      ],
      "name": "5725866502be42d1b38e55f6aa77454d.fbx"
    },
    {
      "children": [
        3,
        5,
        7,
        9,
        11,
        13
      ],
      "name": "RootNode"
    },
    {
      "children": [
        4
      ],
      "matrix": [
        0.07323694808423142,
        -0.5338057999309089,
        -0.8424296513035556,
        0.0,
        0.04623225159666727,
        0.8456071002304335,
        -0.5317999726891495,
        0.0,
        0.9962424044115017,
        -1.2600527732331557e-08,
        0.0866087273453997,
        0.0,
        -11.324270248413086,
        184.34405517578125,
        37.004154205322266,
        1.0
      ],
      "name": "CINEMA_4D_Editor"
    },
    {
      "name": "Object_4"
    },
    {
      "children": [
        6
      ],
      "matrix": [
        0.33318429902732793,
        -0.04122145755142953,
        0.9419601978422464,
        0.0,
        -0.9176997267293223,
        0.21508355228239007,
        0.33401538452370044,
        0.0,
        -0.21636874645520143,
        -0.9757252979066005,
        0.03383354226918456,
        0.0,
        -23.328943252563477,
        169.68968200683594,
        7.933602333068848,
        1.0
      ],
      "name": "1"
    },
    {
      "mesh": 0,
      "name": "1__0"
    },
    {
      "children": [
        8
      ],
      "matrix": [
        -0.46588233479448027,
        -0.7954497693833763,
        -0.3875736246371489,
        0.0,
        0.8291959634521074,
        -0.5453581292220895,
        0.12255025534903685,
        0.0,
        -0.308848999223205,
        -0.2642804859979571,
        0.9136564564427421,
        0.0,
        5.134591102600098,
        162.597412109375,
        5.250973701477051,
        1.0
      ],
      "name": "1_2"
    },
    {
      "mesh": 1,
      "name": "1_2__0"
    },
    {
      "children": [
        10
      ],
      "matrix": [
        1.0,
        0.0,
        0.0,
        0.0,
        0.0,
        1.0,
        0.0,
        0.0,
        0.0,
        0.0,
        1.0,
        0.0,
        0.0,
        150.9467010498047,
        1.3073891401290894,
        1.0
      ],
      "name": "1_3"
    },
    {
      "mesh": 2,
      "name": "1_3__0"
    },
    {
      "children": [
        12
      ],
      "matrix": [
        1.0,
        0.0,
        0.0,
        0.0,
        0.0,
        2.220446049250313e-16,
        1.0,
        0.0,
        0.0,
        -1.0,
        2.220446049250313e-16,
        0.0,
        -17.118104934692383,
        166.03860473632813,
        13.067145347595215,
        1.0
      ],
      "name": "Mask"
    },
    {
      "mesh": 3,
      "name": "Mask__0"
    },
    {
      "children": [
        14
      ],
      "matrix": [
        1.0,
        0.0,
        0.0,
        0.0,
        0.0,
        2.220446049250313e-16,
        1.0,
        0.0,
        0.0,
        -1.0,
        2.220446049250313e-16,
        0.0,
        0.0,
        166.03860473632813,
        13.067145347595215,
        1.0
      ],
      "name": "Mask_2"
    },
    {
      "mesh": 4,
      "name": "Mask_2__0"
    }
  ],
  "scene": 0,
  "scenes": [
    {
      "name": "Sketchfab_Scene",
      "nodes": [
        0
      ]
    }
  ]
}
