{
  "accessors": [
    {
      "bufferView": 2,
      "componentType": 5126,
      "count": 8085,
      "max": [
        1.3037678003311157,
        0.8118779063224792,
        3.1947336196899414
      ],
      "min": [
        -1.592933177947998,
        -0.8852183222770691,
        -0.5070421695709229
      ],
      "type": "VEC3"
    },
    {
      "bufferView": 2,
      "byteOffset": 97020,
      "componentType": 5126,
      "count": 8085,
      "max": [
        0.9999643564224243,
        0.9997439384460449,
        0.9988582730293274
      ],
      "min": [
        -0.9997933506965637,
        -0.9999532699584961,
        -0.9999843835830688
      ],
      "type": "VEC3"
    },
    {
      "bufferView": 1,
      "componentType": 5126,
      "count": 8085,
      "max": [
        0.6666667461395264,
        0.8802084922790527
      ],
      "min": [
        0.0,
        0.0
      ],
      "type": "VEC2"
    },
    {
      "bufferView": 1,
      "byteOffset": 64680,
      "componentType": 5126,
      "count": 8085,
      "max": [
        1.0,
        1.0
      ],
      "min": [
        0.0,
        0.0
      ],
      "type": "VEC2"
    },
    {
      "bufferView": 1,
      "byteOffset": 129360,
      "componentType": 5126,
      "count": 8085,
      "max": [
        0.5255777835845947,
        0.8215442299842834
      ],
      "min": [
        0.0,
        0.0
      ],
      "type": "VEC2"
    },
    {
      "bufferView": 0,
      "componentType": 5125,
      "count": 36246,
      "type": "SCALAR"
    },
    {
      "bufferView": 2,
      "byteOffset": 194040,
      "componentType": 5126,
      "count": 199,
      "max": [
        0.8201409578323364,
        0.8201410174369812,
        -0.7295233011245728
      ],
      "min": [
        -0.8201409578323364,
        -0.8201409578323364,
        -0.8901745080947876
      ],
      "type": "VEC3"
    },
    {
      "bufferView": 2,
      "byteOffset": 196428,
      "componentType": 5126,
      "count": 199,
      "max": [
        0.9990481734275818,
        0.9990482330322266,
        0.9939243197441101
      ],
      "min": [
        -0.9990482926368713,
        -0.9990482330322266,
        -0.0
      ],
      "type": "VEC3"
    },
    {
      "bufferView": 1,
      "byteOffset": 194040,
      "componentType": 5126,
      "count": 199,
      "max": [
        0.31049829721450806,
        0.23273539543151855
      ],
      "min": [
        0.0,
        0.0
      ],
      "type": "VEC2"
    },
    {
      "bufferView": 1,
      "byteOffset": 195632,
      "componentType": 5126,
      "count": 199,
      "max": [
        0.0,
        0.0
      ],
      "min": [
        0.0,
        0.0
      ],
      "type": "VEC2"
    },
    {
      "bufferView": 1,
      "byteOffset": 197224,
      "componentType": 5126,
      "count": 199,
      "max": [
        0.0,
        0.0
      ],
      "min": [
        0.0,
        0.0
      ],
      "type": "VEC2"
    },
    {
      "bufferView": 0,
      "byteOffset": 144984,
      "componentType": 5125,
      "count": 768,
      "type": "SCALAR"
    },
    {
      "bufferView": 2,
      "byteOffset": 198816,
      "componentType": 5126,
      "count": 56,
      "max": [
        0.009081370197236538,
        0.10417953878641129,
        0.4821924567222595
      ],
      "min": [
        -0.09697086364030838,
        -0.003950170241296291,
        -0.9998376369476318
      ],
      "type": "VEC3"
    },
    {
      "bufferView": 2,
      "byteOffset": 199488,
      "componentType": 5126,
      "count": 56,
      "max": [
        0.9331389665603638,
        0.9973203539848328,
        1.4981384310885915e-07
      ],
      "min": [
        -0.9756128191947937,
        -0.9973204135894775,
        -1.663144360009028e-07
      ],
      "type": "VEC3"
    },
    {
      "bufferView": 1,
      "byteOffset": 198816,
      "componentType": 5126,
      "count": 56,
      "max": [
        0.0,
        0.0
      ],
      "min": [
        0.0,
        0.0
      ],
      "type": "VEC2"
    },
    {
      "bufferView": 1,
      "byteOffset": 199264,
      "componentType": 5126,
      "count": 56,
      "max": [
        0.0,
        0.0
      ],
      "min": [
        0.0,
        0.0
      ],
      "type": "VEC2"
    },
    {
      "bufferView": 1,
      "byteOffset": 199712,
      "componentType": 5126,
      "count": 56,
      "max": [
        0.0,
        0.0
      ],
      "min": [
        0.0,
        0.0
      ],
      "type": "VEC2"
    },
    {
      "bufferView": 1,
      "byteOffset": 200160,
      "componentType": 5126,
      "count": 56,
      "max": [
        0.0,
        0.0
      ],
      "min": [
        0.0,
        0.0
      ],
      "type": "VEC2"
    },
    {
      "bufferView": 0,
      "byteOffset": 148056,
      "componentType": 5125,
      "count": 156,
      "type": "SCALAR"
    },
    {
      "bufferView": 2,
      "byteOffset": 200160,
      "componentType": 5126,
      "count": 305,
      "max": [
        47.61280822753906,
        30.609169006347656,
        25.372404098510742
      ],
      "min": [
        -47.61280822753906,
        -29.96332550048828,
        -21.117725372314453
      ],
      "type": "VEC3"
    },
    {
      "bufferView": 2,
      "byteOffset": 203820,
      "componentType": 5126,
      "count": 305,
      "max": [
        0.8853289484977722,
        0.44130346179008484,
        0.9999786615371704
      ],
      "min": [
        -0.9088873267173767,
        -0.5774615406990051,
        0.18386338651180267
      ],
      "type": "VEC3"
    },
    {
      "bufferView": 1,
      "byteOffset": 200608,
      "componentType": 5126,
      "count": 305,
      "max": [
        0.9626122713088989,
        0.755066990852356
      ],
      "min": [
        0.06823591887950897,
        0.27722370624542236
      ],
      "type": "VEC2"
    },
    {
      "bufferView": 0,
      "byteOffset": 148680,
      "componentType": 5125,
      "count": 1440,
      "type": "SCALAR"
    },
    {
      "bufferView": 2,
      "byteOffset": 207480,
      "componentType": 5126,
      "count": 4548,
      "max": [
        51.81596755981445,
        1.3378645181655884,
        38.932518005371094
      ],
      "min": [
        -51.81596755981445,
        -40.514949798583984,
        -14.337780952453613
      ],
      "type": "VEC3"
    },
    {
      "bufferView": 2,
      "byteOffset": 262056,
      "componentType": 5126,
      "count": 4548,
      "max": [
        0.9997091889381409,
        0.9936008453369141,
        0.9985811114311218
      ],
      "min": [
        -0.9997091889381409,
        -0.9987229704856873,
        -0.9443826079368591
      ],
      "type": "VEC3"
    },
    {
      "bufferView": 1,
      "byteOffset": 203048,
      "componentType": 5126,
      "count": 4548,
      "max": [
        0.970015287399292,
        0.4309957027435303
      ],
      "min": [
        0.9196597337722778,
        0.3326181173324585
      ],
      "type": "VEC2"
    },
    {
      "bufferView": 0,
      "byteOffset": 154440,
      "componentType": 5125,
      "count": 27264,
      "type": "SCALAR"
    }
  ],
  "asset": {
    "extras": {
      "author": "eeelabvisual (https://sketchfab.com/eeelabvisual)",
      "license": "CC-BY-4.0 (http://creativecommons.org/licenses/by/4.0/)",
      "source": "https://sketchfab.com/3d-models/face-mask-fc0164e464634fe0a28cb664c2ec97e2",
      "title": "FACE MASK"
    },
    "generator": "Sketchfab-12.64.0",
    "version": "2.0"
  },
  "bufferViews": [
    {
      "buffer": 0,
      "byteLength": 263496,
      "name": "floatBufferViews",
      "target": 34963
    },
    {
      "buffer": 0,
      "byteLength": 239432,
      "byteOffset": 263496,
      "byteStride": 8,
      "name": "floatBufferViews",
      "target": 34962
    },
    {
      "buffer": 0,
      "byteLength": 316632,
      "byteOffset": 502928,
      "byteStride": 12,
      "name": "floatBufferViews",
      "target": 34962
    }
  ],
  "buffers": [
    {
      "byteLength": 819560,
      "uri": "scene.bin"
    }
  ],
  "images": [
    {
      "uri": "textures/Besi.003_baseColor.jpeg"
    },
    {
      "uri": "textures/lambert2_baseColor.jpeg"
    }
  ],
  "materials": [
    {
      "doubleSided": true,
      "name": "Mannequin",
      "pbrMetallicRoughness": {
        "metallicFactor": 0.0,
        "roughnessFactor": 0.7763932022500211
      }
    },
    {
      "doubleSided": true,
      "name": "Patung.004",
      "pbrMetallicRoughness": {
        "baseColorFactor": [
          0.8,
          0.8,
          0.8,
          1.0
        ],
        "metallicFactor": 0.0,
        "roughnessFactor": 0.7587909448405632
      }
    },
    {
      "doubleSided": true,
      "name": "Besi.003",
      "pbrMetallicRoughness": {
        "baseColorTexture": {
          "index": 0
        },
        "metallicFactor": 0.0,
        "roughnessFactor": 0.8211145618000169
      }
    },
    {
      "doubleSided": true,
      "name": "lambert2",
      "pbrMetallicRoughness": {
        "baseColorTexture": {
          "index": 1
        },
        "metallicFactor": 0.0,
        "roughnessFactor": 0.6
      }
    },
    {
      "doubleSided": true,
      "name": "lambert4",
      "pbrMetallicRoughness": {
        "baseColorFactor": [
          0.0,
          0.0,
          0.0,
          1.0
        ],
        "metallicFactor": 0.0,
        "roughnessFactor": 0.6
      }
    }
  ],
  "meshes": [
    {
      "name": "Circle_032_Mannequin_0",
      "primitives": [
        {
          "attributes": {
            "NORMAL": 1,
            "POSITION": 0,
            "TEXCOORD_0": 2,
            "TEXCOORD_1": 3,
            "TEXCOORD_2": 4
          },
          "indices": 5,
          "material": 0,
          "mode": 4
        }
      ]
    },
    {
      "name": "Circle_032_Patung.004_0",
      "primitives": [
        {
          "attributes": {
            "NORMAL": 7,
            "POSITION": 6,
            "TEXCOORD_0": 8,
            "TEXCOORD_1": 9,
            "TEXCOORD_2": 10
          },
          "indices": 11,
          "material": 1,
          "mode": 4
        }
      ]
    },
    {
      "name": "Circle_032_Besi.003_0",
      "primitives": [
        {
          "attributes": {
            "NORMAL": 13,
            "POSITION": 12,
            "TEXCOORD_0": 14,
            "TEXCOORD_1": 15,
            "TEXCOORD_2": 16,
            "TEXCOORD_3": 17
          },
          "indices": 18,
          "material": 2,
          "mode": 4
        }
      ]
    },
    {
      "name": "Mask1_lambert2_0",
      "primitives": [
        {
          "attributes": {
            "NORMAL": 20,
            "POSITION": 19,
            "TEXCOORD_0": 21
          },
          "indices": 22,
          "material": 3,
          "mode": 4
        }
      ]
    },
    {
      "name": "Tali1_lambert4_0",
      "primitives": [
        {
          "attributes": {
            "NORMAL": 24,
            "POSITION": 23,
            "TEXCOORD_0": 25
          },
          "indices": 26,
          "material": 4,
          "mode": 4
        }
      ]
    }
  ],
  "nodes": [
    {
      "children": [
        1
      ],
      "matrix": [
        1.0,
        0.0,
        0.0,
        0.0,
        0.0,
        2.220446049250313e-16,
        -1.0,
        0.0,
        0.0,
        1.0,
        2.220446049250313e-16,
        0.0,
        0.0,
        0.0,
        0.0,
        1.0
      ],
      "name": "Sketchfab_model"
    },
    {
      "children": [
        2
      ],
      "matrix": [
        1.0,
        0.0,
        0.0,
        0.0,
        0.0,
        0.0,
        1.0,
        0.0,
        0.0,
        -1.0,
        0.0,
        0.0,
        0.0,
        0.0,
        0.0,
        1.0
      ],
      "name": "FACE MASK.fbx"
    },
    {
      "children": [
        3,
        5,
        9
      ],
      "name": "RootNode"
    },
    {
      "children": [
        4
      ],
      "matrix": [
        -0.048983554480610536,
        -0.004131193010920557,
        -0.9987910415270812,
        0.0,
        -0.00020236224476141706,
        0.9999914665857437,
        -0.004126233780988903,
        0.0,
        0.9987995646975257,
        2.0816681711721685e-16,
        -0.048983972481139615,
        0.0,
        9.033727645874023,
        104.799072265625,
        969.9241943359375,
        1.0
      ],
      "name": "CINEMA_4D_Editor"
    },
    {
      "name": "Object_4"
    },
    {
      "children": [
        6,
        7,
        8
      ],
      "matrix": [
        77.58709529679223,
        0.0,
        16.69145673767797,
        0.0,
        16.69145673767797,
        8.810976477775529e-15,
        -77.58709529679223,
        0.0,
        0.0,
        79.36222839355467,
        8.810977324808476e-15,
        0.0,
        39.37055969238281,
        -61.15074157714844,
        -15.033295631408691,
        1.0
      ],
      "name": "Circle_032"
    },
    {
      "mesh": 0,
      "name": "Circle_032_Mannequin_0"
    },
    {
      "mesh": 1,
      "name": "Circle_032_Patung.004_0"
    },
    {
      "mesh": 2,
      "name": "Circle_032_Besi.003_0"
    },
    {
      "children": [
        10,
        12
      ],
      "name": "Mask"
    },
    {
      "children": [
        11
      ],
      "matrix": [
        1.0149999856948853,
        0.0,
        0.0,
        0.0,
        0.0,
        1.1050000190734863,
        0.0,
        0.0,
        0.0,
        0.0,
        1.1050000190734863,
        0.0,
        28.9335880279541,
        56.83219909667969,
        26.816730499267578,
        1.0
      ],
      "name": "Mask1"
    },
    {
      "mesh": 3,
      "name": "Mask1_lambert2_0"
    },
    {
      "children": [
        13
      ],
      "matrix": [
        1.0149999856948853,
        0.0,
        0.0,
        0.0,
        0.0,
        1.1050000190734863,
        0.0,
        0.0,
        0.0,
        0.0,
        1.1050000190734863,
        0.0,
        28.9335880279541,
        89.75646209716797,
        -24.887420654296875,
        1.0
      ],
      "name": "Tali1"
    },
    {
      "mesh": 4,
      "name": "Tali1_lambert4_0"
    }
  ],
  "samplers": [
    {
      "magFilter": 9729,
      "minFilter": 9987,
      "wrapS": 10497,
      "wrapT": 10497
    }
  ],
  "scene": 0,
  "scenes": [
    {
      "name": "Sketchfab_Scene",
      "nodes": [
        0
      ]
    }
  ],
  "textures": [
    {
      "sampler": 0,
      "source": 0
    },
    {
      "sampler": 0,
      "source": 1
    }
  ]
}
