<?xml version="1.0" encoding="UTF-8"?> <svg xmlns="http://www.w3.org/2000/svg" width="266" height="176" viewBox="0 0 266 176" fill="none"><path d="M99.2748 72.9447C98.9439 73.6066 97.6203 73.9375 96.9585 73.6066L37.3959 36.8731C36.7341 36.5422 36.4032 35.2184 36.7341 34.5566C37.065 33.8947 38.3886 33.5638 39.0504 33.8947L98.613 70.6282C99.6057 71.2901 99.9366 72.2828 99.2748 72.9447Z" fill="black"></path><path d="M97.9508 75.261C97.289 75.261 96.6272 75.261 96.2963 74.93L36.7336 38.1966C36.0718 37.8656 35.41 36.8728 35.41 36.2109C35.0791 35.2181 35.41 34.5563 35.7409 33.5635C36.0718 32.9016 37.0645 32.2397 37.7263 31.9088C38.7191 31.5779 39.3809 31.9088 40.3736 32.2398L99.9362 68.9733C100.598 69.3042 101.26 70.297 101.591 70.9589C101.922 71.9517 101.591 72.6135 101.26 73.6063C100.929 74.2682 99.9362 74.93 99.2744 74.93C98.6126 75.261 98.2817 75.261 97.9508 75.261ZM97.9508 71.9517L99.2744 72.9445L97.9508 71.9517Z" fill="black"></path><path d="M82.0673 77.9086L81.4055 74.5993L96.958 71.29L92.6562 56.067L95.6344 55.0742L100.929 73.9374L82.0673 77.9086Z" fill="black"></path><path d="M80.7435 79.563L79.4199 73.2752L94.9724 70.2969L90.6706 54.743L96.9578 53.0884L102.914 75.2609L80.7435 79.563Z" fill="black"></path><path d="M24.1593 0.13916H241.894C255.13 0.13916 265.719 10.729 265.719 23.9663V152.037C265.719 165.274 255.13 175.864 241.894 175.864H24.1593C10.9231 175.864 0.334229 165.274 0.334229 152.037V23.9663C0.665132 10.729 11.254 0.13916 24.1593 0.13916ZM242.225 165.605C249.835 165.605 256.123 159.318 256.123 151.706V23.9663C256.123 16.3548 249.835 10.0671 242.225 10.0671H24.1593C16.5485 10.0671 10.2613 16.3548 10.2613 23.9663V152.037C10.2613 159.649 16.5485 165.936 24.1593 165.936H242.225V165.605Z" fill="black"></path><path d="M190.273 90.8149C189.28 89.4912 187.956 88.8293 186.302 88.8293C184.647 88.8293 183.324 89.4912 182.331 90.8149L167.109 113.649L158.837 104.383C157.844 103.39 156.521 102.728 154.866 102.728C153.542 102.728 152.219 103.721 151.226 104.714L137.328 125.894H213.105L190.273 90.8149Z" fill="#4C4B4C"></path><path d="M158.837 95.4478C164.132 95.4478 168.433 91.1456 168.433 85.8507C168.433 80.5558 164.132 76.2537 158.837 76.2537C153.543 76.2537 149.241 80.5558 149.241 85.8507C149.241 91.1456 153.543 95.4478 158.837 95.4478Z" fill="#4C4B4C"></path></svg> 