<?xml version="1.0" encoding="UTF-8"?> <svg xmlns="http://www.w3.org/2000/svg" width="353" height="201" viewBox="0 0 353 201" fill="none"><path d="M287.514 175.646H69.7791C56.543 175.646 45.9541 165.056 45.9541 151.818V24.0786C45.9541 10.8413 56.543 0.251465 69.7791 0.251465H287.514C300.75 0.251465 311.339 10.8413 311.339 24.0786V152.149C311.339 165.056 300.75 175.646 287.514 175.646ZM69.7791 10.1794C62.1684 10.1794 55.8812 16.4672 55.8812 24.0786V152.149C55.8812 159.761 62.1684 166.049 69.7791 166.049H287.514C295.124 166.049 301.412 159.761 301.412 152.149V24.0786C301.412 16.4672 295.124 10.1794 287.514 10.1794H69.7791Z" fill="black"></path><path d="M191.325 77.0708C190.333 75.7471 189.009 75.0852 187.355 75.0852C185.7 75.0852 184.376 75.7471 183.384 77.0708L168.162 99.9051L159.89 90.639C158.897 89.6462 157.573 88.9844 155.919 88.9844C154.595 88.9844 153.272 89.9772 152.279 90.97L138.381 112.15H214.158L191.325 77.0708Z" fill="#BABABA"></path><path d="M159.89 82.0349C165.185 82.0349 169.486 77.7328 169.486 72.4379C169.486 67.1429 165.185 62.8408 159.89 62.8408C154.596 62.8408 150.294 67.1429 150.294 72.4379C150.625 77.7328 154.596 82.0349 159.89 82.0349Z" fill="#BABABA"></path><path d="M15.8419 104.826C15.1801 104.826 14.1874 104.495 13.5256 103.833L1.28218 92.5816C-0.0414303 91.2578 -0.0414506 89.2722 0.951261 87.9485L13.1947 74.7112C14.5184 73.3875 16.5038 73.3875 17.8274 74.3803C19.151 75.704 19.151 77.6896 18.1583 79.0133L8.23118 89.9341L17.8274 99.2002C19.151 100.524 19.151 102.51 17.8274 103.833C17.4965 104.495 16.8346 104.826 15.8419 104.826Z" fill="#4C4B4C"></path><path d="M336.488 104.826C335.826 104.826 334.833 104.495 334.171 103.833C332.848 102.509 332.848 100.524 333.84 99.2002L343.768 88.2794L334.171 79.0133C332.848 77.6896 332.848 75.704 334.171 74.3802C335.495 73.0565 337.48 73.0565 338.804 74.3802L351.047 85.6319C352.371 86.9557 352.371 88.9413 351.378 90.265L339.135 103.502C338.142 104.164 337.48 104.826 336.488 104.826Z" fill="#4C4B4C"></path><path d="M157.799 200.465C161.272 200.465 164.087 197.65 164.087 194.178C164.087 190.705 161.272 187.89 157.799 187.89C154.327 187.89 151.512 190.705 151.512 194.178C151.512 197.65 154.327 200.465 157.799 200.465Z" fill="#4C4B4C"></path><path d="M177.653 200.796C174.013 200.796 171.366 197.818 171.366 194.508C171.366 191.199 174.344 188.221 177.653 188.221C180.962 188.221 183.941 191.199 183.941 194.508C183.941 197.818 180.962 200.796 177.653 200.796ZM177.653 191.199C175.999 191.199 174.675 192.523 174.675 194.178C174.675 195.832 175.999 197.156 177.653 197.156C179.308 197.156 180.632 195.832 180.632 194.178C180.632 192.523 179.308 191.199 177.653 191.199Z" fill="#4C4B4C"></path><path d="M198.501 200.796C194.861 200.796 192.214 197.818 192.214 194.508C192.214 191.199 195.192 188.221 198.501 188.221C201.81 188.221 204.788 191.199 204.788 194.508C204.788 197.818 201.81 200.796 198.501 200.796ZM198.501 191.199C196.847 191.199 195.523 192.523 195.523 194.178C195.523 195.832 196.847 197.156 198.501 197.156C200.156 197.156 201.479 195.832 201.479 194.178C201.479 192.523 200.156 191.199 198.501 191.199Z" fill="#4C4B4C"></path></svg> 