<?xml version="1.0" encoding="UTF-8"?> <svg xmlns="http://www.w3.org/2000/svg" width="396" height="127" viewBox="0 0 396 127" fill="none"><path d="M80.41 46.5091C80.0791 46.1781 79.4173 45.8472 79.0864 45.8472C78.4246 45.8472 78.0937 46.1781 77.7628 46.5091L72.4683 54.7824L69.4902 51.4731C69.1593 51.1421 68.4975 50.8112 68.1666 50.8112C67.5048 50.8112 67.1739 51.1421 66.8429 51.4731L61.8794 59.0845H89.0135L80.41 46.5091Z" fill="#4C4B4C"></path><path d="M69.1599 48.1637C71.1453 48.1637 72.4689 46.509 72.4689 44.8543C72.4689 42.8687 70.8144 41.5449 69.1599 41.5449C67.1744 41.5449 65.8508 43.1996 65.8508 44.8543C65.8508 46.8399 67.1744 48.1637 69.1599 48.1637Z" fill="#4C4B4C"></path><path d="M95.9618 82.2495H50.9589C48.3117 82.2495 45.9954 78.2783 45.9954 73.6453V27.6457C45.9954 23.0126 48.3117 19.0415 50.9589 19.0415H95.9618C98.609 19.0415 100.925 23.0126 100.925 27.6457V73.6453C100.925 78.2783 98.609 82.2495 95.9618 82.2495ZM50.9589 22.6817C49.3044 22.6817 47.9808 24.9982 47.9808 27.6457V73.6453C47.9808 76.2928 49.3044 78.6093 50.9589 78.6093H95.9618C97.6163 78.6093 98.9399 76.2928 98.9399 73.6453V27.6457C98.9399 24.9982 97.6163 22.6817 95.9618 22.6817H50.9589Z" fill="black"></path><path d="M95.9618 83.904H50.9589C47.319 83.904 44.3408 79.271 44.3408 73.6452V27.6455C44.3408 22.0197 47.319 17.3867 50.9589 17.3867H95.9618C99.6017 17.3867 102.58 22.0197 102.58 27.6455V73.6452C102.58 79.271 99.6017 83.904 95.9618 83.904ZM49.9662 80.2638C50.2971 80.5948 50.628 80.5947 50.9589 80.5947H95.9618C96.2927 80.5947 96.6236 80.5948 96.9545 80.2638C96.6236 80.2638 96.2927 80.2638 95.9618 80.2638H50.9589C50.628 80.2638 50.2971 80.2638 49.9662 80.2638ZM50.9589 24.3362C50.628 24.3362 49.6353 25.6599 49.6353 27.6455V73.6452C49.6353 75.9617 50.628 76.9545 50.9589 76.9545H95.9618C96.2927 76.9545 97.2854 75.9617 97.2854 73.6452V27.6455C97.2854 25.329 96.2927 24.3362 95.9618 24.3362H50.9589ZM50.9589 20.696C50.628 20.696 50.2971 20.696 49.9662 21.0269C50.2971 21.0269 50.628 21.027 50.9589 20.696L95.9618 21.0269C96.2927 21.0269 96.6236 21.0269 96.9545 21.0269C96.6236 20.696 96.2927 20.696 95.9618 20.696H50.9589Z" fill="black"></path><path d="M326.602 46.5091C326.271 46.1781 325.609 45.8472 325.278 45.8472C324.616 45.8472 324.286 46.1781 323.955 46.5091L318.66 54.7824L315.682 51.4731C315.351 51.1421 314.689 50.8112 314.358 50.8112C313.697 50.8112 313.366 51.1421 313.035 51.4731L308.071 59.0845H335.205L326.602 46.5091Z" fill="#4C4B4C"></path><path d="M315.351 48.1637C317.336 48.1637 318.66 46.509 318.66 44.8543C318.66 42.8687 317.005 41.5449 315.351 41.5449C313.365 41.5449 312.042 43.1996 312.042 44.8543C311.711 46.8399 313.365 48.1637 315.351 48.1637Z" fill="#4C4B4C"></path><path d="M342.154 82.2495H297.151C294.504 82.2495 292.188 78.2783 292.188 73.6453V27.6457C292.188 23.0126 294.504 19.0415 297.151 19.0415H342.154C344.801 19.0415 347.117 23.0126 347.117 27.6457V73.6453C347.117 78.2783 344.801 82.2495 342.154 82.2495ZM297.151 22.6817C295.497 22.6817 294.173 24.9982 294.173 27.6457V73.6453C294.173 76.2928 295.497 78.6093 297.151 78.6093H342.154C343.808 78.6093 345.132 76.2928 345.132 73.6453V27.6457C345.132 24.9982 343.808 22.6817 342.154 22.6817H297.151Z" fill="black"></path><path d="M342.154 83.904H297.151C293.511 83.904 290.533 79.271 290.533 73.6452V27.6455C290.533 22.0197 293.511 17.3867 297.151 17.3867H342.154C345.794 17.3867 348.772 22.0197 348.772 27.6455V73.6452C348.772 79.271 345.794 83.904 342.154 83.904ZM296.158 80.2638C296.489 80.5948 296.82 80.5947 297.151 80.5947H342.154C342.485 80.5947 342.815 80.5948 343.146 80.2638C342.815 80.2638 342.485 80.2638 342.154 80.2638H297.151C296.82 80.2638 296.489 80.2638 296.158 80.2638ZM297.151 24.3362C296.82 24.3362 295.827 25.6599 295.827 27.6455V73.6452C295.827 75.9617 296.82 76.9545 297.151 76.9545H342.154C342.485 76.9545 343.477 75.9617 343.477 73.6452V27.6455C343.477 25.329 342.485 24.3362 342.154 24.3362H297.151ZM297.151 20.696C296.82 20.696 296.489 20.696 296.158 21.0269C296.489 21.0269 296.82 21.027 297.151 20.696L342.154 21.0269C342.485 21.0269 342.815 21.0269 343.146 21.0269C342.815 20.696 342.485 20.696 342.154 20.696H297.151Z" fill="black"></path><path d="M203.837 46.5091C203.506 46.1781 202.844 45.8472 202.513 45.8472C201.851 45.8472 201.52 46.1781 201.189 46.5091L195.895 54.7824L192.917 51.4731C192.586 51.1421 191.924 50.8112 191.593 50.8112C190.931 50.8112 190.6 51.1421 190.269 51.4731L185.306 59.0845H212.44L203.837 46.5091Z" fill="#4C4B4C"></path><path d="M192.586 48.1637C194.572 48.1637 195.895 46.509 195.895 44.8543C195.895 42.8687 194.241 41.5449 192.586 41.5449C190.601 41.5449 189.277 43.1996 189.277 44.8543C189.277 46.8399 190.601 48.1637 192.586 48.1637Z" fill="#4C4B4C"></path><path d="M259.429 100.781H135.34C128.06 100.781 121.773 94.8246 121.773 87.2131V14.408C121.773 7.12748 127.729 0.839844 135.34 0.839844H259.429C266.709 0.839844 272.996 6.79655 272.996 14.408V87.2131C272.665 94.4936 266.709 100.781 259.429 100.781ZM135.34 6.46563C131.038 6.46563 127.399 10.1059 127.399 14.408V87.2131C127.399 91.5152 131.038 95.1556 135.34 95.1556H259.429C263.731 95.1556 267.371 91.5152 267.371 87.2131V14.408C267.371 10.1059 263.731 6.46563 259.429 6.46563H135.34Z" fill="black"></path><path d="M259.428 101.443H135.34C127.398 101.443 121.111 95.1557 121.111 87.2133V14.4083C121.111 6.46589 127.398 0.178223 135.34 0.178223H259.428C267.37 0.178223 273.657 6.46589 273.657 14.4083V87.2133C273.657 95.1557 267.039 101.443 259.428 101.443ZM135.34 1.50193C128.391 1.50193 122.765 7.12784 122.765 14.0774V86.8825C122.765 93.8321 128.391 99.4579 135.34 99.4579H259.428C266.377 99.4579 272.003 93.8321 272.003 86.8825V14.0774C272.003 7.12784 266.377 1.50193 259.428 1.50193H135.34ZM259.428 95.8176H135.34C130.707 95.8176 126.736 91.8464 126.736 87.2133V14.4083C126.736 9.77521 130.707 5.80411 135.34 5.80411H259.428C264.061 5.80411 268.032 9.77521 268.032 14.4083V87.2133C268.032 91.8464 264.061 95.8176 259.428 95.8176ZM135.34 7.12782C131.369 7.12782 128.391 10.4372 128.391 14.0774V86.8825C128.391 90.8537 131.7 93.832 135.34 93.832H259.428C263.399 93.832 266.377 90.5227 266.377 86.8825V14.0774C266.377 10.1062 263.068 7.12782 259.428 7.12782H135.34Z" fill="black"></path><path d="M15.8829 67.0267C15.2211 67.0267 14.2284 66.6957 13.5666 66.0338L1.32319 54.7821C-0.000425665 53.4583 -0.000425665 51.4728 0.992285 50.149L13.2357 36.9117C14.5593 35.5879 16.5447 35.5879 17.8684 36.5807C19.192 37.9045 19.192 39.89 18.1993 41.2138L8.27216 52.1346L17.8684 61.4008C19.192 62.7245 19.192 64.7101 17.8684 66.0338C17.5375 66.6957 16.5447 67.0267 15.8829 67.0267Z" fill="#4C4B4C"></path><path d="M379.546 67.0266C378.884 67.0266 377.891 66.6956 377.229 66.0338C375.906 64.71 375.906 62.7244 376.899 61.4007L386.826 50.4799L377.229 41.2137C375.906 39.89 375.906 37.9044 377.229 36.5807C378.553 35.257 380.538 35.257 381.862 36.5807L394.106 47.8324C395.429 49.1561 395.429 51.1417 394.436 52.4655L382.193 65.7028C381.531 66.6956 380.538 67.0266 379.546 67.0266Z" fill="#4C4B4C"></path><path d="M177.034 126.926C180.506 126.926 183.321 124.11 183.321 120.638C183.321 117.165 180.506 114.35 177.034 114.35C173.561 114.35 170.746 117.165 170.746 120.638C170.746 124.11 173.561 126.926 177.034 126.926Z" fill="#4C4B4C"></path><path d="M196.888 126.926C193.248 126.926 190.601 123.947 190.601 120.638C190.601 117.328 193.579 114.35 196.888 114.35C200.197 114.35 203.175 117.328 203.175 120.638C203.175 123.947 200.197 126.926 196.888 126.926ZM196.888 117.659C195.233 117.659 193.91 118.983 193.91 120.638C193.91 122.292 195.233 123.616 196.888 123.616C198.542 123.616 199.866 122.292 199.866 120.638C199.866 118.983 198.542 117.659 196.888 117.659Z" fill="#4C4B4C"></path><path d="M217.734 126.926C214.094 126.926 211.447 123.947 211.447 120.638C211.447 117.328 214.425 114.35 217.734 114.35C221.043 114.35 224.021 117.328 224.021 120.638C224.021 123.947 221.043 126.926 217.734 126.926ZM217.734 117.659C216.08 117.659 214.756 118.983 214.756 120.638C214.756 122.292 216.08 123.616 217.734 123.616C219.389 123.616 220.712 122.292 220.712 120.638C220.712 118.983 219.389 117.659 217.734 117.659Z" fill="#4C4B4C"></path></svg> 