<?xml version="1.0" encoding="UTF-8"?> <svg xmlns="http://www.w3.org/2000/svg" width="338" height="225" viewBox="0 0 338 225" fill="none"><path d="M4.75781 56.6968C4.75781 55.7041 5.41962 55.0422 6.41233 55.0422H133.148C134.141 55.0422 134.803 55.7041 134.803 56.6968C134.803 57.6896 134.141 58.3514 133.148 58.3514H6.41233C5.41962 58.3514 4.75781 57.6896 4.75781 56.6968Z" fill="black"></path><path d="M132.817 60.006H6.08101C4.09559 60.006 2.77197 58.6823 2.77197 56.6967C2.77197 54.7112 4.09559 53.3875 6.08101 53.3875H132.817C134.802 53.3875 136.126 54.7112 136.126 56.6967C136.126 58.6823 134.802 60.006 132.817 60.006ZM4.75731 56.6967H6.41183H4.75731Z" fill="black"></path><path d="M17.0007 43.4595L19.317 45.776L7.40456 56.6968L19.317 67.6176L17.0007 69.9341L2.77197 56.6968L17.0007 43.4595Z" fill="black"></path><path d="M17.0003 72.2506L0.455078 56.6968L17.0003 41.1431L21.6329 46.107L10.0513 56.6968L21.6329 67.6176L17.0003 72.2506Z" fill="black"></path><path d="M333.344 170.868C333.344 171.861 332.682 172.523 331.689 172.523H204.953C203.961 172.523 203.299 171.861 203.299 170.868C203.299 169.875 203.961 169.213 204.953 169.213H331.689C332.351 169.213 333.344 169.875 333.344 170.868Z" fill="black"></path><path d="M331.689 174.177H204.953C202.968 174.177 201.644 172.854 201.644 170.868C201.644 168.882 202.968 167.559 204.953 167.559H331.689C333.674 167.559 334.998 168.882 334.998 170.868C334.998 172.854 333.344 174.177 331.689 174.177ZM331.689 170.868H333.344H331.689Z" fill="black"></path><path d="M320.77 184.106L318.454 181.789L330.366 170.868L318.454 159.947L320.77 157.631L334.999 170.868L320.77 184.106Z" fill="black"></path><path d="M320.769 186.422L316.137 181.789L327.718 170.868L316.137 159.947L320.769 155.314L337.645 170.868L320.769 186.422Z" fill="black"></path><path d="M278.414 106.667H60.6796C47.4434 106.667 36.8545 96.0776 36.8545 82.8403V24.2652C36.8545 11.0279 47.4434 0.437988 60.6796 0.437988H278.414C291.65 0.437988 302.239 11.0279 302.239 24.2652V82.8403C302.239 96.0776 291.319 106.667 278.414 106.667ZM60.6796 10.6969C53.0688 10.6969 46.7816 16.9847 46.7816 24.5961V83.1712C46.7816 90.7826 53.0688 97.0704 60.6796 97.0704H278.414C286.025 97.0704 292.312 90.7826 292.312 83.1712V24.5961C292.312 16.9847 286.025 10.6969 278.414 10.6969H60.6796Z" fill="black"></path><path d="M60.3485 118.25H278.083C291.319 118.25 301.908 128.84 301.908 142.077V200.652C301.908 213.889 291.319 224.479 278.083 224.479H60.3485C47.1124 224.479 36.5234 213.889 36.5234 200.652V141.746C36.8543 128.84 47.4433 118.25 60.3485 118.25ZM278.083 214.22C285.694 214.22 291.981 207.933 291.981 200.321V141.746C291.981 134.135 285.694 127.847 278.083 127.847H60.3485C52.7377 127.847 46.4505 134.135 46.4505 141.746V200.321C46.4505 207.933 52.7377 214.22 60.3485 214.22H278.083Z" fill="black"></path><path d="M180.467 44.121C179.805 43.1282 178.812 42.4663 177.489 42.4663C176.165 42.4663 175.172 43.1282 174.51 44.121L163.26 61.3295L156.973 54.3799C156.311 53.7181 155.318 53.0562 153.994 53.0562C153.002 53.0562 152.009 53.7181 151.347 54.7109L140.758 70.5956H197.674L180.467 44.121Z" fill="#4C4B4C"></path><path d="M156.642 47.7612C160.613 47.7612 163.922 44.4518 163.922 40.4806C163.922 36.5095 160.613 33.2002 156.642 33.2002C152.671 33.2002 149.362 36.5095 149.362 40.4806C149.693 44.4518 152.671 47.7612 156.642 47.7612Z" fill="#4C4B4C"></path><path d="M180.467 159.617C179.805 158.624 178.812 157.962 177.489 157.962C176.165 157.962 175.172 158.624 174.51 159.617L163.26 176.825L156.973 169.875C156.311 169.214 155.318 168.552 153.994 168.552C153.002 168.552 152.009 169.214 151.347 170.206L140.758 186.091H197.674L180.467 159.617Z" fill="#4C4B4C"></path><path d="M156.642 163.257C160.613 163.257 163.922 159.947 163.922 155.976C163.922 152.005 160.613 148.696 156.642 148.696C152.671 148.696 149.362 152.005 149.362 155.976C149.693 159.947 152.671 163.257 156.642 163.257Z" fill="#4C4B4C"></path></svg> 