<?xml version="1.0" encoding="UTF-8"?> <svg xmlns="http://www.w3.org/2000/svg" width="353" height="201" viewBox="0 0 353 201" fill="none"><path d="M53.2495 171.927H110.827L110.827 6.4606H53.2495L53.2495 171.927Z" fill="#C3B68F"></path><path d="M91.0051 86.2933C91.0051 85.3005 91.6669 84.6387 92.6596 84.6387H162.811C163.804 84.6387 164.466 85.3005 164.466 86.2933C164.466 87.2861 163.804 87.948 162.811 87.948H92.6596C91.6669 87.948 91.0051 87.2861 91.0051 86.2933Z" fill="black"></path><path d="M162.811 89.6028H92.6596C90.6742 89.6028 89.3506 88.2791 89.3506 86.2935C89.3506 84.3079 90.6742 82.9841 92.6596 82.9841H162.811C164.797 82.9841 166.12 84.3079 166.12 86.2935C166.12 88.2791 164.466 89.6028 162.811 89.6028ZM91.0051 86.2935H92.6596H91.0051Z" fill="black"></path><path d="M103.25 73.0562L105.566 75.3727L93.9843 86.2934L105.566 97.2142L103.25 99.5307L89.0208 86.2934L103.25 73.0562Z" fill="black"></path><path d="M103.58 101.847L86.7039 86.2936L103.58 70.7397L107.882 75.3728L96.3001 86.2936L107.882 96.8834L103.58 101.847Z" fill="black"></path><path d="M288.225 175.646H70.1593C56.9231 175.646 46.3342 165.056 46.3342 151.818V24.0786C46.3342 10.8413 56.9231 0.251465 70.1593 0.251465H287.894C301.13 0.251465 311.719 10.8413 311.719 24.0786V152.149C311.719 165.056 301.13 175.646 288.225 175.646ZM70.1593 10.1794C62.5485 10.1794 56.2613 16.4672 56.2613 24.0786V152.149C56.2613 159.761 62.5485 166.049 70.1593 166.049H287.894C295.505 166.049 301.792 159.761 301.792 152.149V24.0786C301.792 16.4672 295.505 10.1794 287.894 10.1794H70.1593Z" fill="black"></path><path d="M225.352 77.0276C224.359 75.7039 223.036 75.042 221.381 75.042C219.727 75.042 218.403 75.7039 217.41 77.0276L202.189 99.8619L193.916 90.5958C192.923 89.603 191.6 88.9411 189.945 88.9411C188.622 88.9411 187.298 89.9339 186.305 90.9267L172.407 112.106H248.184L225.352 77.0276Z" fill="#4C4B4C"></path><path d="M193.917 81.6606C199.211 81.6606 203.513 77.3585 203.513 72.0636C203.513 66.7687 199.211 62.4666 193.917 62.4666C188.622 62.4666 184.32 66.7687 184.32 72.0636C184.32 77.3585 188.622 81.6606 193.917 81.6606Z" fill="#4C4B4C"></path><path d="M16.5529 104.826C15.8911 104.826 14.8983 104.495 14.2365 103.833L1.99311 92.5816C0.669496 91.2578 0.669496 89.2722 1.66221 87.9485L13.9056 74.7112C15.2292 73.3875 17.2147 73.3875 18.5383 74.3803C19.8619 75.704 19.8619 77.6896 18.8692 79.0133L8.94208 89.9341L18.5383 99.2002C19.8619 100.524 19.8619 102.51 18.5383 103.833C18.2074 104.495 17.2147 104.826 16.5529 104.826Z" fill="#4C4B4C"></path><path d="M336.868 104.826C336.206 104.826 335.213 104.495 334.551 103.833C333.228 102.509 333.228 100.524 334.22 99.2002L344.147 88.2794L334.551 79.0133C333.228 77.6896 333.228 75.704 334.551 74.3802C335.875 73.0565 337.86 73.0565 339.184 74.3802L351.427 85.6319C352.751 86.9557 352.751 88.9413 351.758 90.265L339.515 103.502C338.853 104.164 337.86 104.826 336.868 104.826Z" fill="#4C4B4C"></path><path d="M158.18 200.465C161.652 200.465 164.467 197.65 164.467 194.178C164.467 190.705 161.652 187.89 158.18 187.89C154.707 187.89 151.892 190.705 151.892 194.178C151.892 197.65 154.707 200.465 158.18 200.465Z" fill="#4C4B4C"></path><path d="M178.034 200.796C174.394 200.796 171.746 197.818 171.746 194.508C171.746 191.199 174.724 188.221 178.034 188.221C181.343 188.221 184.321 191.199 184.321 194.508C184.321 197.818 181.673 200.796 178.034 200.796ZM178.034 191.199C176.379 191.199 175.055 192.523 175.055 194.178C175.055 195.832 176.379 197.156 178.034 197.156C179.688 197.156 181.012 195.832 181.012 194.178C181.012 192.523 179.688 191.199 178.034 191.199Z" fill="#4C4B4C"></path><path d="M198.88 200.796C195.24 200.796 192.593 197.818 192.593 194.508C192.593 191.199 195.571 188.221 198.88 188.221C202.189 188.221 205.167 191.199 205.167 194.508C205.167 197.818 202.52 200.796 198.88 200.796ZM198.88 191.199C197.225 191.199 195.902 192.523 195.902 194.178C195.902 195.832 197.225 197.156 198.88 197.156C200.534 197.156 201.858 195.832 201.858 194.178C201.858 192.523 200.534 191.199 198.88 191.199Z" fill="#4C4B4C"></path></svg> 