<?xml version="1.0" encoding="UTF-8"?> <svg xmlns="http://www.w3.org/2000/svg" width="396" height="111" viewBox="0 0 396 111" fill="none"><path d="M96.8113 30.1028C96.4804 29.7719 95.8186 29.4409 95.4877 29.4409C94.8259 29.4409 94.495 29.7719 94.1641 30.1028L88.8696 38.3761L85.8915 35.0668C85.5606 34.7359 84.8988 34.4049 84.5679 34.4049C83.9061 34.4049 83.5752 34.7359 83.2443 35.0668L78.2808 42.6782H105.415L96.8113 30.1028Z" fill="#4C4B4C"></path><path d="M85.5609 31.7573C87.5463 31.7573 88.8699 30.1026 88.8699 28.448C88.8699 26.4624 87.2154 25.1387 85.5609 25.1387C83.5755 25.1387 82.252 26.7933 82.252 28.448C82.252 30.1026 83.5755 31.7573 85.5609 31.7573Z" fill="#4C4B4C"></path><path d="M129.57 65.8433H51.1455C46.5129 65.8433 42.542 61.8722 42.542 57.2391V11.2395C42.542 6.60641 46.5129 2.63525 51.1455 2.63525H129.57C134.202 2.63525 138.173 6.60641 138.173 11.2395V57.2391C138.173 61.8722 134.202 65.8433 129.57 65.8433ZM51.1455 6.27548C48.4983 6.27548 46.182 8.59201 46.182 11.2395V57.2391C46.182 59.8866 48.4983 62.2031 51.1455 62.2031H129.57C132.217 62.2031 134.533 59.8866 134.533 57.2391V11.2395C134.533 8.59201 132.217 6.27548 129.57 6.27548H51.1455Z" fill="black"></path><path d="M129.57 67.4979H51.1457C45.5204 67.4979 40.8877 62.8648 40.8877 57.239V11.2393C40.8877 5.61349 45.5204 0.980469 51.1457 0.980469H129.57C135.195 0.980469 139.828 5.61349 139.828 11.2393V57.239C139.828 62.8648 135.195 67.4979 129.57 67.4979ZM51.1457 4.28979C47.5058 4.28979 44.1967 7.26816 44.1967 11.2393V57.239C44.1967 60.8792 47.1749 64.1885 51.1457 64.1885H129.57C133.21 64.1885 136.519 61.2102 136.519 57.239V11.2393C136.519 7.59909 133.541 4.28979 129.57 4.28979H51.1457ZM129.57 63.8576H51.1457C47.5058 63.8576 44.5277 60.8792 44.5277 57.239V11.2393C44.5277 7.59909 47.5058 4.6207 51.1457 4.6207H129.57C133.21 4.6207 136.188 7.59909 136.188 11.2393V57.239C136.188 60.8792 133.21 63.8576 129.57 63.8576ZM51.1457 7.93002C49.1603 7.93002 47.8367 9.25375 47.8367 11.2393V57.239C47.8367 59.2246 49.1603 60.5483 51.1457 60.5483H129.57C131.555 60.5483 132.879 59.2246 132.879 57.239V11.2393C132.879 9.25375 131.555 7.93002 129.57 7.93002H51.1457Z" fill="black"></path><path d="M203.693 30.1028C203.362 29.7719 202.7 29.4409 202.369 29.4409C201.707 29.4409 201.376 29.7719 201.045 30.1028L195.751 38.3761L192.773 35.0668C192.442 34.7359 191.78 34.4049 191.449 34.4049C190.787 34.4049 190.457 34.7359 190.126 35.0668L185.162 42.6782H212.296L203.693 30.1028Z" fill="#4C4B4C"></path><path d="M192.442 31.7573C194.428 31.7573 195.751 30.1026 195.751 28.448C195.751 26.4624 194.097 25.1387 192.442 25.1387C190.457 25.1387 189.133 26.7933 189.133 28.448C189.133 30.1026 190.457 31.7573 192.442 31.7573Z" fill="#4C4B4C"></path><path d="M236.452 65.8433H158.028C153.396 65.8433 149.425 61.8722 149.425 57.2391V11.2395C149.425 6.60641 153.396 2.63525 158.028 2.63525H236.452C241.085 2.63525 245.056 6.60641 245.056 11.2395V57.2391C244.725 61.8722 241.085 65.8433 236.452 65.8433ZM158.028 6.27548C155.381 6.27548 153.065 8.59201 153.065 11.2395V57.2391C153.065 59.8866 155.381 62.2031 158.028 62.2031H236.452C239.1 62.2031 241.416 59.8866 241.416 57.2391V11.2395C241.416 8.59201 239.1 6.27548 236.452 6.27548H158.028Z" fill="black"></path><path d="M236.453 67.4979H158.028C152.403 67.4979 147.771 62.8648 147.771 57.239V11.2393C147.771 5.61349 152.403 0.980469 158.028 0.980469H236.453C242.078 0.980469 246.711 5.61349 246.711 11.2393V57.239C246.38 62.8648 242.078 67.4979 236.453 67.4979ZM158.028 4.28979C154.388 4.28979 151.08 7.26816 151.08 11.2393V57.239C151.08 60.8792 154.058 64.1885 158.028 64.1885H236.453C240.092 64.1885 243.402 61.2102 243.402 57.239V11.2393C243.402 7.59909 240.423 4.28979 236.453 4.28979H158.028ZM236.453 63.8576H158.028C154.388 63.8576 151.41 60.8792 151.41 57.239V11.2393C151.41 7.59909 154.388 4.6207 158.028 4.6207H236.453C240.092 4.6207 243.071 7.59909 243.071 11.2393V57.239C243.071 60.8792 240.092 63.8576 236.453 63.8576ZM158.028 7.93002C156.043 7.93002 154.719 9.25375 154.719 11.2393V57.239C154.719 59.2246 156.043 60.5483 158.028 60.5483H236.453C238.438 60.5483 239.762 59.2246 239.762 57.239V11.2393C239.762 9.25375 238.438 7.93002 236.453 7.93002H158.028Z" fill="black"></path><path d="M313.222 30.1028C312.891 29.7719 312.229 29.4409 311.898 29.4409C311.237 29.4409 310.906 29.7719 310.575 30.1028L305.28 38.3761L302.302 35.0668C301.971 34.7359 301.309 34.4049 300.979 34.4049C300.317 34.4049 299.986 34.7359 299.655 35.0668L294.691 42.6782H321.825L313.222 30.1028Z" fill="#4C4B4C"></path><path d="M301.971 31.7573C303.956 31.7573 305.28 30.1026 305.28 28.448C305.28 26.4624 303.625 25.1387 301.971 25.1387C299.985 25.1387 298.662 26.7933 298.662 28.448C298.331 30.1026 299.985 31.7573 301.971 31.7573Z" fill="#4C4B4C"></path><path d="M345.981 65.8433H267.557C262.924 65.8433 258.953 61.8722 258.953 57.2391V11.2395C258.953 6.60641 262.924 2.63525 267.557 2.63525H345.981C350.613 2.63525 354.584 6.60641 354.584 11.2395V57.2391C354.253 61.8722 350.613 65.8433 345.981 65.8433ZM267.557 6.27548C264.909 6.27548 262.593 8.59201 262.593 11.2395V57.2391C262.593 59.8866 264.909 62.2031 267.557 62.2031H345.981C348.628 62.2031 350.944 59.8866 350.944 57.2391V11.2395C350.944 8.59201 348.628 6.27548 345.981 6.27548H267.557Z" fill="black"></path><path d="M345.981 67.4979H267.557C261.931 67.4979 257.299 62.8648 257.299 57.239V11.2393C257.299 5.61349 261.931 0.980469 267.557 0.980469H345.981C351.606 0.980469 356.239 5.61349 356.239 11.2393V57.239C355.908 62.8648 351.606 67.4979 345.981 67.4979ZM267.557 4.28979C263.917 4.28979 260.608 7.26816 260.608 11.2393V57.239C260.608 60.8792 263.586 64.1885 267.557 64.1885H345.981C349.621 64.1885 352.93 61.2102 352.93 57.239V11.2393C352.93 7.59909 349.952 4.28979 345.981 4.28979H267.557ZM345.981 63.8576H267.557C263.917 63.8576 260.939 60.8792 260.939 57.239V11.2393C260.939 7.59909 263.917 4.6207 267.557 4.6207H345.981C349.621 4.6207 352.599 7.59909 352.599 11.2393V57.239C352.599 60.8792 349.621 63.8576 345.981 63.8576ZM267.557 7.93002C265.571 7.93002 264.248 9.25375 264.248 11.2393V57.239C264.248 59.2246 265.571 60.5483 267.557 60.5483H345.981C347.966 60.5483 349.29 59.2246 349.29 57.239V11.2393C349.29 9.25375 347.966 7.93002 345.981 7.93002H267.557Z" fill="black"></path><path d="M15.7387 50.6202C15.0769 50.6202 14.0843 50.2893 13.4225 49.6274L1.17915 38.3758C-0.144455 37.052 -0.144475 35.0664 0.848226 33.7427L13.0916 20.5054C14.4152 19.1817 16.4006 19.1817 17.7242 20.1745C19.0478 21.4982 19.0478 23.4838 18.0551 24.8075L8.12808 35.7283L17.7242 44.9944C19.0478 46.3181 19.0478 48.3037 17.7242 49.6274C17.3933 50.2893 16.4005 50.6202 15.7387 50.6202Z" fill="#4C4B4C"></path><path d="M379.733 50.6202C379.071 50.6202 378.079 50.2893 377.417 49.6274C376.093 48.3037 376.093 46.3181 377.086 44.9944L387.013 34.0736L377.417 24.8075C376.093 23.4837 376.093 21.4982 377.417 20.1744C378.741 18.8507 380.726 18.8507 382.05 20.1744L394.293 31.4261C395.617 32.7499 395.617 34.7354 394.624 36.0592L382.381 49.2965C381.388 50.2893 380.395 50.6202 379.733 50.6202Z" fill="#4C4B4C"></path><path d="M176.89 110.519C180.362 110.519 183.177 107.704 183.177 104.232C183.177 100.759 180.362 97.9438 176.89 97.9438C173.417 97.9438 170.603 100.759 170.603 104.232C170.603 107.704 173.417 110.519 176.89 110.519Z" fill="#4C4B4C"></path><path d="M196.744 110.519C193.104 110.519 190.457 107.541 190.457 104.232C190.457 100.922 193.435 97.9438 196.744 97.9438C200.384 97.9438 203.031 100.922 203.031 104.232C203.031 107.541 200.053 110.519 196.744 110.519ZM196.744 101.253C195.09 101.253 193.766 102.577 193.766 104.232C193.766 105.886 195.09 107.21 196.744 107.21C198.399 107.21 199.722 105.886 199.722 104.232C199.722 102.577 198.399 101.253 196.744 101.253Z" fill="#4C4B4C"></path><path d="M217.59 110.519C213.95 110.519 211.303 107.541 211.303 104.232C211.303 100.922 214.281 97.9438 217.59 97.9438C220.899 97.9438 223.878 100.922 223.878 104.232C223.878 107.541 220.899 110.519 217.59 110.519ZM217.59 101.253C215.936 101.253 214.612 102.577 214.612 104.232C214.612 105.886 215.936 107.21 217.59 107.21C219.245 107.21 220.569 105.886 220.569 104.232C220.569 102.577 219.245 101.253 217.59 101.253Z" fill="#4C4B4C"></path></svg> 