<?xml version="1.0" encoding="UTF-8"?> <svg xmlns="http://www.w3.org/2000/svg" width="357" height="67" viewBox="0 0 357 67" fill="none"><path d="M97.0917 29.5091C96.7608 29.1781 96.099 28.8472 95.7681 28.8472C95.1062 28.8472 94.7754 29.1781 94.4445 29.5091L89.15 37.7824L86.1718 34.4731C85.8409 34.1421 85.1792 33.8112 84.8483 33.8112C84.1864 33.8112 83.8555 34.1421 83.5246 34.4731L78.561 42.0845H105.695L97.0917 29.5091Z" fill="#4C4B4C"></path><path d="M85.8406 31.1637C87.8261 31.1637 89.1497 29.509 89.1497 27.8543C89.1497 25.8687 87.4952 24.5449 85.8406 24.5449C83.8552 24.5449 82.5316 26.1996 82.5316 27.8543C82.2007 29.8399 83.8552 31.1637 85.8406 31.1637Z" fill="#4C4B4C"></path><path d="M129.519 65.2495H51.0947C46.462 65.2495 42.4912 61.2783 42.4912 56.6453V10.6457C42.4912 6.01261 46.462 2.0415 51.0947 2.0415H129.519C134.151 2.0415 138.122 6.01261 138.122 10.6457V56.6453C138.122 61.2783 134.151 65.2495 129.519 65.2495ZM51.4256 5.68168C48.7784 5.68168 46.462 7.9982 46.462 10.6457V56.6453C46.462 59.2928 48.7784 61.6093 51.4256 61.6093H129.85C132.497 61.6093 134.813 59.2928 134.813 56.6453V10.6457C134.813 7.9982 132.497 5.68168 129.85 5.68168H51.4256Z" fill="black"></path><path d="M129.519 66.904H51.0949C45.4695 66.904 40.8369 62.271 40.8369 56.6452V10.6455C40.8369 5.01969 45.4695 0.386719 51.0949 0.386719H129.519C135.144 0.386719 139.777 5.01969 139.777 10.6455V56.6452C139.777 62.271 135.144 66.904 129.519 66.904ZM51.4258 3.69604C47.7859 3.69604 44.4768 6.67435 44.4768 10.6455V56.6452C44.4768 60.2854 47.455 63.5947 51.4258 63.5947H129.85C133.49 63.5947 136.799 60.6164 136.799 56.6452V10.6455C136.799 7.00528 133.821 3.69604 129.85 3.69604H51.4258ZM129.519 63.2638H51.0949C47.455 63.2638 44.4768 60.2854 44.4768 56.6452V10.6455C44.4768 7.00528 47.455 4.02689 51.0949 4.02689H129.519C133.159 4.02689 136.137 7.00528 136.137 10.6455V56.6452C136.137 60.2854 133.159 63.2638 129.519 63.2638ZM51.4258 7.33621C49.4404 7.33621 48.1168 8.65994 48.1168 10.6455V56.6452C48.1168 58.6308 49.4404 59.9545 51.4258 59.9545H129.85C131.835 59.9545 133.159 58.6308 133.159 56.6452V10.6455C133.159 8.65994 131.835 7.33621 129.85 7.33621H51.4258Z" fill="black"></path><path d="M203.642 29.5091C203.311 29.1781 202.649 28.8472 202.318 28.8472C201.657 28.8472 201.326 29.1781 200.995 29.5091L195.7 37.7824L192.722 34.4731C192.391 34.1421 191.729 33.8112 191.399 33.8112C190.737 33.8112 190.406 34.1421 190.075 34.4731L185.111 42.0845H212.245L203.642 29.5091Z" fill="#4C4B4C"></path><path d="M192.392 31.1637C194.377 31.1637 195.701 29.509 195.701 27.8543C195.701 25.8687 194.046 24.5449 192.392 24.5449C190.406 24.5449 189.083 26.1996 189.083 27.8543C189.083 29.8399 190.737 31.1637 192.392 31.1637Z" fill="#4C4B4C"></path><path d="M236.402 65.2495H157.977C153.345 65.2495 149.374 61.2783 149.374 56.6453V10.6457C149.374 6.01261 153.345 2.0415 157.977 2.0415H236.402C241.034 2.0415 245.005 6.01261 245.005 10.6457V56.6453C245.005 61.2783 241.034 65.2495 236.402 65.2495ZM157.977 5.68168C155.33 5.68168 153.014 7.9982 153.014 10.6457V56.6453C153.014 59.2928 155.33 61.6093 157.977 61.6093H236.402C239.049 61.6093 241.365 59.2928 241.365 56.6453V10.6457C241.365 7.9982 239.049 5.68168 236.402 5.68168H157.977Z" fill="black"></path><path d="M236.402 66.904H157.978C152.352 66.904 147.72 62.271 147.72 56.6452V10.6455C147.72 5.01969 152.352 0.386719 157.978 0.386719H236.402C242.027 0.386719 246.66 5.01969 246.66 10.6455V56.6452C246.66 62.271 242.027 66.904 236.402 66.904ZM157.978 3.69604C154.338 3.69604 151.029 6.67435 151.029 10.6455V56.6452C151.029 60.2854 154.007 63.5947 157.978 63.5947H236.402C240.042 63.5947 243.351 60.6164 243.351 56.6452V10.6455C243.351 7.00528 240.373 3.69604 236.402 3.69604H157.978ZM236.402 63.2638H157.978C154.338 63.2638 151.36 60.2854 151.36 56.6452V10.6455C151.36 7.00528 154.338 4.02689 157.978 4.02689H236.402C240.042 4.02689 243.02 7.00528 243.02 10.6455V56.6452C243.02 60.2854 240.042 63.2638 236.402 63.2638ZM157.978 7.33621C155.992 7.33621 154.669 8.65994 154.669 10.6455V56.6452C154.669 58.6308 155.992 59.9545 157.978 59.9545H236.402C238.387 59.9545 239.711 58.6308 239.711 56.6452V10.6455C239.711 8.65994 238.387 7.33621 236.402 7.33621H157.978Z" fill="black"></path><path d="M313.171 29.5091C312.84 29.1781 312.178 28.8472 311.848 28.8472C311.186 28.8472 310.855 29.1781 310.524 29.5091L305.23 37.7824L302.251 34.4731C301.921 34.1421 301.259 33.8112 300.928 33.8112C300.266 33.8112 299.935 34.1421 299.604 34.4731L294.641 42.0845H321.775L313.171 29.5091Z" fill="#4C4B4C"></path><path d="M301.921 31.1637C303.906 31.1637 305.23 29.509 305.23 27.8543C305.23 25.8687 303.575 24.5449 301.921 24.5449C299.935 24.5449 298.612 26.1996 298.612 27.8543C298.612 29.8399 299.935 31.1637 301.921 31.1637Z" fill="#4C4B4C"></path><path d="M345.931 65.2495H267.507C262.874 65.2495 258.903 61.2783 258.903 56.6453V10.6457C258.903 6.01261 262.874 2.0415 267.507 2.0415H345.931C350.564 2.0415 354.534 6.01261 354.534 10.6457V56.6453C354.534 61.2783 350.564 65.2495 345.931 65.2495ZM267.507 5.68168C264.86 5.68168 262.543 7.9982 262.543 10.6457V56.6453C262.543 59.2928 264.86 61.6093 267.507 61.6093H345.931C348.578 61.6093 350.895 59.2928 350.895 56.6453V10.6457C350.895 7.9982 348.578 5.68168 345.931 5.68168H267.507Z" fill="black"></path><path d="M345.931 66.904H267.507C261.882 66.904 257.249 62.271 257.249 56.6452V10.6455C257.249 5.01969 261.882 0.386719 267.507 0.386719H345.931C351.557 0.386719 356.189 5.01969 356.189 10.6455V56.6452C356.189 62.271 351.557 66.904 345.931 66.904ZM267.507 3.69604C263.867 3.69604 260.558 6.67435 260.558 10.6455V56.6452C260.558 60.2854 263.536 63.5947 267.507 63.5947H345.931C349.571 63.5947 352.88 60.6164 352.88 56.6452V10.6455C352.88 7.00528 349.902 3.69604 345.931 3.69604H267.507ZM345.931 63.2638H267.507C263.867 63.2638 260.889 60.2854 260.889 56.6452V10.6455C260.889 7.00528 263.867 4.02689 267.507 4.02689H345.931C349.571 4.02689 352.549 7.00528 352.549 10.6455V56.6452C352.549 60.2854 349.571 63.2638 345.931 63.2638ZM267.507 7.33621C265.522 7.33621 264.198 8.65994 264.198 10.6455V56.6452C264.198 58.6308 265.522 59.9545 267.507 59.9545H345.931C347.917 59.9545 349.24 58.6308 349.24 56.6452V10.6455C349.24 8.65994 347.917 7.33621 345.931 7.33621H267.507Z" fill="black"></path><path d="M4.4375 33.8114C4.4375 32.8186 5.09931 32.1567 6.09202 32.1567H285.044C286.036 32.1567 286.698 32.8186 286.698 33.8114C286.698 34.8042 286.036 35.4661 285.044 35.4661H6.09202C5.09931 35.4661 4.4375 34.4733 4.4375 33.8114Z" fill="black"></path><path d="M285.044 37.1207H6.09224C4.10682 37.1207 2.7832 35.797 2.7832 33.8113C2.7832 31.8257 4.10682 30.502 6.09224 30.502H285.044C287.029 30.502 288.353 31.8257 288.353 33.8113C288.353 35.797 287.029 37.1207 285.044 37.1207ZM4.43772 33.8113H6.09224H4.43772Z" fill="black"></path><path d="M16.6825 20.5737L18.9988 22.8903L7.08629 33.8111L18.9988 44.7319L16.6825 47.0484L2.45361 33.8111L16.6825 20.5737Z" fill="black"></path><path d="M16.6819 49.365L0.136719 33.8111L16.6819 18.2573L21.3145 22.8904L9.7329 33.8111L21.3145 44.401L16.6819 49.365Z" fill="black"></path></svg> 