<?xml version="1.0" encoding="UTF-8"?> <svg xmlns="http://www.w3.org/2000/svg" width="266" height="177" viewBox="0 0 266 177" fill="none"><path d="M68.9003 56.855C68.2384 57.5169 67.2458 57.5169 66.584 57.186L28.1992 27.0711C27.5373 26.4093 27.5373 25.4165 27.8682 24.7546C28.53 24.0927 29.5228 24.0927 30.1846 24.4237L68.9003 54.5385C69.5621 55.2004 69.5621 56.1932 68.9003 56.855Z" fill="black"></path><path d="M67.908 59.1716C67.2462 59.1716 66.2535 58.8407 65.9226 58.5097L27.207 28.3949C26.5452 27.733 26.2142 27.0712 25.8833 26.0784C25.8833 25.0856 26.2142 24.4237 26.5451 23.7618C26.876 23.1 27.8688 22.769 28.8615 22.769C29.8542 22.769 30.516 23.1 31.1778 23.4309L69.8934 53.5458C70.5553 54.2076 70.8861 54.8695 71.217 55.8623C71.217 56.8551 70.8861 57.517 70.5552 58.1788C69.5625 58.8407 68.5698 59.1716 67.908 59.1716ZM67.5771 55.8623L68.9007 56.8551L67.5771 55.8623C67.908 55.8623 67.908 55.8623 67.5771 55.8623Z" fill="black"></path><path d="M51.0321 58.8409L50.7012 55.5316L66.9155 54.8698L64.93 38.985L68.239 38.6541L70.5553 58.1791L51.0321 58.8409Z" fill="black"></path><path d="M49.3773 60.8264L49.0464 54.2077L64.9299 53.5459L62.9444 37.6611L69.5625 36.9993L72.2097 59.5027L49.3773 60.8264Z" fill="black"></path><path d="M196.96 56.5243C196.299 55.8625 196.629 54.8697 197.291 54.2078L236.007 24.0929C236.669 23.4311 237.661 23.762 238.323 24.4239C238.985 25.0857 238.654 26.0785 237.992 26.7404L199.277 56.8553C198.615 57.5171 197.622 57.1862 196.96 56.5243Z" fill="black"></path><path d="M198.284 58.8409C197.953 58.8409 197.953 58.8409 197.622 58.8409C196.63 58.8409 195.968 58.1791 195.637 57.5172C194.644 56.1935 194.975 53.8769 196.299 52.8841L235.014 22.7693C235.676 22.1074 236.669 22.1074 237.662 22.1074C238.654 22.1074 239.316 22.7693 239.647 23.4312C240.309 24.093 240.309 25.0858 240.309 25.7477C240.309 26.7405 239.647 27.4023 238.985 27.7333L200.269 58.1791C199.608 58.51 198.946 58.8409 198.284 58.8409ZM237 25.4167L196.96 56.5244L198.284 55.5316L237 25.4167Z" fill="black"></path><path d="M199.278 38.3232L202.587 38.9851L199.278 54.8699L215.161 56.8554L214.83 60.1648L195.307 57.5173L199.278 38.3232Z" fill="black"></path><path d="M216.153 61.8194L193.321 58.8411L197.953 36.3376L204.571 37.6614L201.262 53.2152L217.146 55.5317L216.153 61.8194Z" fill="black"></path><path d="M196.961 117.747C197.623 117.085 198.616 117.085 199.278 117.416L237.993 147.53C238.655 148.192 238.655 149.185 238.324 149.847C237.662 150.509 236.67 150.509 236.008 150.178L197.292 120.063C196.63 119.401 196.3 118.408 196.961 117.747Z" fill="black"></path><path d="M237 152.164C236.338 152.164 235.345 151.833 235.014 151.502L196.299 121.387C195.637 120.725 195.306 120.063 194.975 119.07C194.975 118.078 195.306 117.416 195.637 116.754C195.968 116.092 196.96 115.761 197.953 115.761C198.946 115.761 199.608 116.092 200.27 116.423L238.985 146.538C240.309 147.861 240.64 149.847 239.316 151.171C238.654 151.502 237.993 152.164 237 152.164ZM196.961 117.747L198.284 118.739L196.961 117.747Z" fill="black"></path><path d="M215.161 115.43V118.739L199.278 119.401L201.263 135.286L197.954 135.617L195.638 116.423L215.161 115.43Z" fill="black"></path><path d="M196.63 137.603L193.652 114.768L216.484 113.775L216.815 120.394L201.263 121.056L202.917 136.941L196.63 137.603Z" fill="black"></path><path d="M69.2324 118.078C69.8942 118.74 69.5633 119.733 68.9015 120.394L30.1859 150.509C29.5241 151.171 28.5313 150.84 27.8695 150.178C27.2077 149.516 27.5386 148.524 28.2004 147.862L66.9161 117.747C67.578 117.085 68.5706 117.416 69.2324 118.078Z" fill="black"></path><path d="M29.1923 152.495C28.8614 152.495 28.8615 152.495 28.5306 152.495C27.5379 152.495 26.8761 151.833 26.5451 151.171C25.8833 150.509 25.8833 149.516 25.8833 148.854C25.8833 147.862 26.5452 147.2 27.207 146.869L65.9227 116.754C67.5772 115.761 69.5626 116.092 70.5553 117.416C71.5481 118.74 71.2172 121.056 69.8936 122.049L31.1778 152.164C30.516 152.164 29.8541 152.495 29.1923 152.495Z" fill="black"></path><path d="M66.5847 135.948L63.6066 135.286L66.9156 119.732L51.0322 117.747L51.3631 114.437L70.5554 117.085L66.5847 135.948Z" fill="black"></path><path d="M67.9079 137.933L61.6208 136.61L64.9298 121.056L49.0464 119.07L50.0392 112.452L72.5405 115.43L67.9079 137.933Z" fill="black"></path><path d="M23.8983 0.59668H241.633C254.869 0.59668 265.458 11.1865 265.458 24.4238V152.495C265.458 165.732 254.869 176.322 241.633 176.322H23.8983C10.6622 176.322 0.0732422 165.732 0.0732422 152.495V24.0929C0.0732422 11.1865 10.9931 0.59668 23.8983 0.59668ZM241.633 166.063C249.244 166.063 255.531 159.775 255.531 152.164V24.0929C255.531 16.4814 249.244 10.1937 241.633 10.1937H23.8983C16.2876 10.1937 10.0003 16.4814 10.0003 24.0929V152.164C10.0003 159.775 16.2876 166.063 23.8983 166.063H241.633Z" fill="black"></path><path d="M147.325 73.0708C146.333 71.7471 145.009 71.0852 143.355 71.0852C141.7 71.0852 140.376 71.7471 139.384 73.0708L124.162 95.9051L115.89 86.639C114.897 85.6462 113.573 84.9844 111.919 84.9844C110.595 84.9844 109.272 85.9772 108.279 86.97L94.3809 108.15H170.158L147.325 73.0708Z" fill="#4C4B4C"></path><path d="M115.89 78.0349C121.185 78.0349 125.486 73.7328 125.486 68.4379C125.486 63.1429 121.185 58.8408 115.89 58.8408C110.596 58.8408 106.294 63.1429 106.294 68.4379C106.625 73.7328 110.596 78.0349 115.89 78.0349Z" fill="#4C4B4C"></path></svg> 