<?xml version="1.0" encoding="UTF-8"?> <svg xmlns="http://www.w3.org/2000/svg" width="266" height="176" viewBox="0 0 266 176" fill="none"><path d="M152.522 91.8216C152.522 92.8144 151.861 93.4763 150.868 93.4763H116.785C115.792 93.4763 115.13 92.8144 115.13 91.8216C115.13 90.8288 115.792 90.167 116.785 90.167H150.868C151.53 90.167 152.522 90.8288 152.522 91.8216Z" fill="black"></path><path d="M150.868 95.1308H116.785C114.799 95.1308 113.476 93.8071 113.476 91.8215C113.476 89.8359 114.799 88.5122 116.785 88.5122H150.868C152.853 88.5122 154.177 89.8359 154.177 91.8215C154.177 93.8071 152.522 95.1308 150.868 95.1308ZM150.868 91.8215H152.522H150.868Z" fill="black"></path><path d="M139.947 105.059L137.962 102.742L149.544 91.8213L137.962 80.9006L139.947 78.584L154.176 91.8213L139.947 105.059Z" fill="black"></path><path d="M139.948 107.375L135.315 102.412L147.228 91.8216L135.315 80.9009L139.948 76.2678L156.824 91.8216L139.948 107.375Z" fill="black"></path><path d="M24.1327 0.153564H241.867C255.103 0.153564 265.692 10.7434 265.692 23.9807V152.052C265.692 165.289 255.103 175.879 241.867 175.879H24.1327C10.8965 175.879 0.307617 165.289 0.307617 152.052V23.9807C0.638521 10.7434 11.2274 0.153564 24.1327 0.153564ZM242.198 165.951C249.809 165.951 256.096 159.663 256.096 152.052V23.9807C256.096 16.3692 249.809 10.0815 242.198 10.0815H24.4636C16.8528 10.0815 10.5656 16.3692 10.5656 23.9807V152.052C10.5656 159.663 16.8528 165.951 24.4636 165.951H242.198Z" fill="black"></path><path d="M201.827 116.31C185.943 116.31 173.038 103.404 173.038 87.5194C173.038 71.6347 185.943 58.7283 201.827 58.7283C217.71 58.7283 230.615 71.6347 230.615 87.5194C230.615 103.404 217.71 116.31 201.827 116.31ZM201.827 65.3469C189.583 65.3469 179.656 75.2749 179.656 87.5194C179.656 99.7639 189.583 109.692 201.827 109.692C214.07 109.692 223.997 99.7639 223.997 87.5194C223.997 75.2749 214.07 65.3469 201.827 65.3469Z" fill="#4C4B4C"></path><path d="M46.6328 70.3115V109.362H93.952V70.3115H46.6328ZM90.3121 105.721H50.2728V73.9518H90.3121V105.721Z" fill="#4C4B4C"></path><path d="M76.7453 85.2034C76.4144 84.5416 75.7526 84.2107 75.0908 84.2107C74.4289 84.2107 73.7671 84.5416 73.4362 85.2034L66.8182 95.4624L63.1782 91.1602C62.8473 90.8293 62.1855 90.4984 61.5237 90.4984C60.8619 90.4984 60.2001 90.8293 59.8692 91.4912L53.582 101.088H87.3342L76.7453 85.2034Z" fill="#4C4B4C"></path><path d="M62.8472 87.5198C65.1635 87.5198 67.1489 85.5342 67.1489 83.2177C67.1489 80.9011 65.1635 78.9155 62.8472 78.9155C60.5309 78.9155 58.5454 80.9011 58.5454 83.2177C58.5454 85.5342 60.5309 87.5198 62.8472 87.5198Z" fill="#4C4B4C"></path><path d="M86.6726 66.6711V62.7H39.0225V102.081H42.6624V98.1097V66.6711H82.7018H86.6726Z" fill="#4C4B4C"></path><path d="M199.18 80.5698C197.856 79.908 196.864 80.2389 196.864 81.8936V93.1453C196.864 94.7999 197.856 95.4618 199.18 94.469L208.776 89.505C210.1 88.8431 210.1 87.5194 208.776 86.5266L199.18 80.5698Z" fill="#4C4B4C"></path></svg> 