<?xml version="1.0" encoding="UTF-8"?> <svg xmlns="http://www.w3.org/2000/svg" width="366" height="209" viewBox="0 0 366 209" fill="none"><path d="M316.049 176.078C316.049 164.472 316.049 153.241 316.049 142.384C316.049 133.773 320.537 128.532 327.644 128.532C334.75 128.532 339.238 133.773 339.238 142.01C339.238 152.866 339.238 163.349 339.238 174.58C342.978 173.831 345.222 171.211 347.84 169.713C353.45 165.969 359.06 167.467 363.174 173.083C367.288 179.072 366.54 184.688 360.93 188.806C352.328 194.796 343.726 200.786 335.124 206.776C331.01 209.397 327.27 209.397 323.155 207.15C313.805 201.535 304.829 196.294 295.479 190.678C289.121 186.934 287.625 181.319 290.991 174.954C294.731 168.216 300.341 166.718 306.699 170.088C309.317 172.708 312.309 174.206 316.049 176.078Z" fill="black"></path><path d="M229.279 176.078C229.279 164.098 229.279 152.866 229.279 142.01C229.279 133.773 234.141 128.532 241.247 128.532C247.979 128.532 252.842 133.773 252.842 141.635C252.842 159.605 252.842 177.201 252.842 195.17C252.842 205.653 243.491 210.894 234.515 206.027C225.913 201.16 216.937 196.294 208.335 191.052C202.351 187.683 200.855 181.693 204.595 175.703C208.335 169.339 213.945 167.467 219.929 170.836C222.547 172.334 225.539 174.206 229.279 176.078Z" fill="black"></path><path d="M138.021 162.974C138.021 155.861 138.021 148.374 138.021 141.261C138.021 133.773 142.884 128.532 149.242 128.532C155.974 128.532 161.21 133.773 161.21 141.261C161.21 156.236 161.21 170.836 161.21 185.811C161.21 193.299 156.348 198.165 149.99 198.54C143.258 198.54 138.395 193.673 138.021 185.811C138.021 178.324 138.021 170.462 138.021 162.974Z" fill="black"></path><path d="M95.0118 150.246C95.0118 153.241 95.0118 156.61 95.0118 159.605C94.6378 165.969 89.4017 170.836 83.4177 170.836C77.4336 170.836 72.1975 165.969 72.1975 159.98C71.8235 153.241 71.8235 146.128 72.1975 139.389C72.5715 133.399 77.8076 128.532 83.7917 128.532C89.7758 128.532 94.6379 133.399 95.3859 139.389C95.0119 143.133 95.0118 146.502 95.0118 150.246Z" fill="black"></path><path d="M14.2258 157.359C21.6619 157.359 27.69 151.325 27.69 143.881C27.69 136.438 21.6619 130.404 14.2258 130.404C6.78982 130.404 0.761719 136.438 0.761719 143.881C0.761719 151.325 6.78982 157.359 14.2258 157.359Z" fill="black"></path><path d="M16.8435 82.1101C15.7215 82.1101 14.5994 81.3614 14.5994 79.8639C14.5994 76.1201 14.5994 68.2583 14.5994 63.0171C14.5994 57.7759 14.2254 57.4015 13.1034 57.4015H12.7294C12.7294 57.4015 12.7294 57.4015 12.3554 57.4015C11.2334 57.4015 10.4854 56.2784 10.4854 55.5297C10.4854 54.4066 11.2334 53.2834 12.3554 53.2834C13.1034 53.2834 13.4774 53.2834 14.2254 53.2834C16.8434 53.2834 18.7135 54.7809 18.7135 57.4015C18.7135 57.7759 18.7135 58.5247 18.7135 59.2734C18.7135 62.2684 18.7135 67.5096 18.7135 73.1252C18.7135 75.3714 18.7135 77.992 18.7135 80.2382C19.0875 81.3614 17.9655 82.1101 16.8435 82.1101Z" fill="black"></path><path d="M75.5623 81.7356C74.0663 81.7356 73.3184 80.6125 73.3184 79.4894C73.3184 78.7406 73.6923 77.6175 74.4403 76.8688C77.0583 73.8738 81.5463 69.3813 84.9124 65.2632C86.4084 63.3914 87.1564 61.8939 87.1564 60.3964C87.1564 58.1501 85.2864 56.6527 83.0423 56.6527C81.5463 56.6527 79.6764 57.4014 78.1803 59.6476C77.8063 60.3964 77.0583 60.7707 76.3103 60.7707C75.1883 60.7707 74.0663 60.022 74.0663 58.8989C74.0663 57.4014 77.0583 52.9089 83.0423 52.9089C87.5304 52.9089 91.6445 55.5295 91.6445 60.3964C91.6445 62.6426 90.8965 65.2632 88.2785 67.8838C85.2864 71.6276 81.5464 74.9969 78.5544 78.3663C81.9204 78.3663 86.0344 77.9919 89.4004 77.9919C90.8964 77.9919 91.6445 79.115 91.6445 79.8637C91.6445 80.9868 90.8964 82.11 89.4004 82.11H75.5623V81.7356Z" fill="black"></path><path d="M160.462 63.7658C162.706 63.7658 163.828 62.2683 163.828 60.0221C163.828 58.1503 162.332 56.6528 159.714 56.6528C157.844 56.6528 156.722 57.7759 155.6 58.5246C155.226 58.899 154.852 59.2734 154.104 59.2734C152.982 59.2734 151.86 58.1503 151.86 57.0271C151.86 54.7809 156.348 52.5347 159.714 52.5347C164.576 52.5347 167.568 55.5296 167.568 60.0221C167.568 62.6427 166.447 64.5146 164.576 65.6377C169.065 67.8839 169.064 72.3764 169.064 73.1251C169.064 78.3663 164.95 82.4844 158.966 82.4844C153.356 82.4844 149.616 79.1151 149.616 77.2432C149.616 76.1201 150.738 74.997 151.86 74.997C152.234 74.997 152.982 75.3714 153.356 75.7457C155.226 77.6176 156.348 78.3664 158.966 78.3664C161.584 78.3664 164.576 76.4945 164.576 73.1251C164.576 69.3814 162.332 67.8839 159.34 67.8839H158.966C158.592 67.8839 158.592 67.8839 158.218 67.8839C157.096 67.8839 156.348 66.7608 156.348 66.0121C156.348 64.889 157.096 64.1402 158.218 64.1402H160.462V63.7658Z" fill="black"></path><path d="M244.239 79.8638C244.239 81.3613 243.117 81.7357 242.369 81.7357C241.621 81.7357 240.125 80.9869 240.125 79.8638C240.125 78.3663 240.125 76.8688 240.125 75.3714C236.385 75.3714 232.271 75.3714 231.897 75.3714C229.279 75.3714 228.157 74.2482 228.157 72.3764C228.157 71.6276 228.531 70.5045 229.279 69.3814C231.523 66.0121 237.881 57.4015 240.499 53.2834C240.873 52.5347 241.621 52.5347 241.995 52.5347C243.117 52.5347 244.239 53.6578 244.239 54.7809C244.239 55.1553 244.239 55.904 243.865 56.2784C232.645 70.8789 232.645 70.8789 232.645 71.2533C232.645 71.6276 233.393 71.6276 234.141 71.6276C235.263 71.6276 237.881 71.6276 240.125 71.6276C240.125 70.1302 240.125 68.6327 240.125 67.5095C240.125 66.7608 240.125 66.0121 240.125 65.6377C240.125 64.1402 241.247 63.3915 242.369 63.3915C243.491 63.3915 244.239 64.1402 244.239 65.6377C244.239 67.5095 244.239 69.007 244.239 71.6276C245.735 71.6276 246.857 71.6276 246.857 71.6276C247.979 71.6276 248.728 72.3764 248.728 73.4995C248.728 74.6226 247.979 75.3714 246.483 75.3714C246.109 75.3714 244.987 75.3714 243.865 75.3714C244.239 76.4945 244.239 77.992 244.239 79.8638Z" fill="black"></path><path d="M325.398 82.11C322.032 82.11 317.17 80.2382 317.17 77.6176C317.17 76.4945 317.918 75.3713 319.04 75.3713C319.414 75.3713 319.788 75.7457 320.536 76.1201C322.032 77.6176 323.902 77.9919 325.772 77.9919C329.886 77.9919 331.756 74.997 331.756 72.002C331.756 70.5045 331.008 66.7608 326.52 66.7608C325.398 66.7608 324.276 67.1352 323.528 67.1352C323.154 67.5095 322.78 67.5095 322.032 67.5095C321.658 67.5095 321.658 67.5095 321.284 67.5095C319.414 67.5095 318.666 66.7608 318.666 64.8889C318.666 64.5145 319.414 58.5246 320.162 55.1553C320.536 52.909 321.284 52.1603 323.902 52.1603C323.902 52.1603 323.902 52.1603 324.276 52.1603C325.398 52.1603 326.146 52.1603 332.13 52.1603C333.626 52.1603 334 53.2834 334 54.4065C334 55.5296 333.252 56.2784 332.13 56.2784C331.008 56.2784 325.772 56.2784 324.65 56.2784C323.902 56.2784 323.528 56.6527 323.528 57.4015C323.154 58.899 322.78 61.8939 322.78 62.6427V63.0171C322.78 63.3914 322.78 63.3914 323.154 63.3914C323.528 63.3914 323.528 63.3914 323.902 63.0171C324.65 63.0171 325.772 62.6427 326.894 62.6427C333.626 62.6427 336.244 67.1352 336.244 71.6276C335.87 77.6176 331.756 82.11 325.398 82.11Z" fill="black"></path><path d="M1.13477 19.2156H329.138" stroke="#999899" stroke-width="6" stroke-miterlimit="10"></path><path d="M323.528 37.5598L355.319 19.2156L323.528 0.871338V37.5598Z" fill="#999899"></path></svg> 