<?xml version="1.0" encoding="UTF-8"?> <svg xmlns="http://www.w3.org/2000/svg" width="367" height="348" viewBox="0 0 367 348" fill="none"><path d="M353.693 263.485V116.569L14.4266 116.569V263.485L353.693 263.485Z" fill="#C3B68F"></path><path d="M183.823 72.8065C185.017 72.8065 186.212 74.0011 186.212 75.1956V138.899C186.212 140.093 185.017 141.288 183.823 141.288C182.628 141.288 181.434 140.093 181.434 138.899V75.1956C181.832 74.0011 182.628 72.8065 183.823 72.8065Z" fill="black"></path><path d="M183.823 143.677C181.433 143.677 179.442 141.686 179.442 139.297V75.5937C179.442 73.2048 181.433 71.2142 183.823 71.2142C186.212 71.2142 188.203 73.2048 188.203 75.5937V139.297C188.601 141.288 186.61 143.677 183.823 143.677ZM183.823 72.8066V75.1956V72.8066Z" fill="black"></path><path d="M202.14 89.9273L198.955 93.1124L183.823 77.1866L169.09 93.1124L165.506 89.9273L183.823 70.4182L202.14 89.9273Z" fill="black"></path><path d="M198.955 96.2971L183.823 80.3714L169.09 96.2971L162.32 90.325L183.823 67.2327L205.326 90.325L198.955 96.2971Z" fill="black"></path><path d="M353.48 341.706V227.836L14.2136 227.836V341.706L353.48 341.706Z" fill="#727171"></path><path d="M353.454 117.399H14.1874C10.2054 117.399 7.41797 114.213 7.41797 110.63C7.41797 106.649 10.6036 103.862 14.1874 103.862H353.454C357.436 103.862 360.224 107.047 360.224 110.63C360.224 114.213 357.436 117.399 353.454 117.399Z" fill="black"></path><path d="M353.454 234.852H14.1874C10.2054 234.852 7.41797 231.666 7.41797 228.083C7.41797 224.102 10.6036 221.315 14.1874 221.315H353.454C357.436 221.315 360.224 224.5 360.224 228.083C360.224 231.666 357.436 234.852 353.454 234.852Z" fill="black"></path><path d="M334.341 347.527H33.3009C15.3818 347.527 0.648438 332.795 0.648438 314.879V32.9923C0.648438 15.0758 15.3818 0.344604 33.3009 0.344604H334.341C352.26 0.344604 366.993 15.0758 366.993 32.9923V314.879C367.391 332.795 352.658 347.527 334.341 347.527ZM33.3009 13.8814C22.9477 13.8814 14.1872 22.2424 14.1872 32.9923V314.879C14.1872 325.231 22.5495 333.99 33.3009 333.99H334.341C344.694 333.99 353.454 325.629 353.454 314.879V32.9923C353.454 22.6405 345.092 13.8814 334.341 13.8814H33.3009Z" fill="black"></path><path d="M183.823 179.908C185.017 179.908 186.212 181.102 186.212 182.297V246C186.212 247.194 185.017 248.389 183.823 248.389C182.628 248.389 181.434 247.194 181.434 246V182.297C181.832 181.102 182.628 179.908 183.823 179.908Z" fill="black"></path><path d="M183.823 250.38C181.433 250.38 179.442 248.389 179.442 246V182.297C179.442 179.908 181.433 177.917 183.823 177.917C186.212 177.917 188.203 179.908 188.203 182.297V246C188.601 248.389 186.61 250.38 183.823 250.38ZM183.823 179.908V182.297V179.908Z" fill="black"></path><path d="M202.14 197.028L198.955 200.213L183.823 183.889L169.09 200.213L165.506 197.028L183.823 177.519L202.14 197.028Z" fill="black"></path><path d="M198.955 203.398L183.823 187.473L169.09 203.398L162.32 197.028L183.823 173.936L205.326 197.028L198.955 203.398Z" fill="black"></path></svg> 