<?xml version="1.0" encoding="UTF-8"?> <svg xmlns="http://www.w3.org/2000/svg" width="526" height="189" viewBox="0 0 526 189" fill="none"><path opacity="0.5" d="M0.0253906 103.593V40.2326C0.0253906 40.2326 22.8017 -18.5726 120.119 6.27464C217.021 31.1219 178.509 67.5646 292.804 65.0799C374.799 63.4234 362.376 38.9902 436.502 15.7994C504.417 -5.73492 525.123 30.2936 525.123 30.2936C525.123 69.221 525.123 107.32 525.123 107.32L0.0253906 103.593Z" fill="#727171"></path><path opacity="0.5" d="M0.0250458 54.3129C0.0250458 54.3129 -3.28786 12.0726 129.643 2.13367C262.574 -7.80525 249.322 50.9999 369.415 54.3129C489.508 57.6259 525.122 0.891357 525.122 0.891357V106.078H0.0250458V54.3129Z" fill="#727171"></path><path opacity="0.5" d="M525.123 54.3129C525.123 54.3129 528.436 12.0726 395.505 2.13367C262.574 -7.80525 276.24 50.9999 155.732 54.3129C35.2251 57.6259 0.0253906 0.891357 0.0253906 0.891357V106.078H525.123V54.3129Z" fill="#727171"></path><path opacity="0.72" d="M0.445312 184.762V121.401C0.445312 121.401 23.2216 62.5955 120.539 87.4429C217.441 112.29 178.929 148.733 293.224 146.248C375.219 144.592 362.795 120.158 436.922 96.9676C504.837 75.4333 525.543 111.462 525.543 111.462C525.543 150.389 525.543 188.489 525.543 188.489L0.445312 184.762Z" fill="#040000"></path><path opacity="0.72" d="M0.0250458 135.067C0.0250458 135.067 -3.28786 92.8265 129.643 82.8876C262.574 72.9487 249.322 131.754 369.415 135.067C489.508 138.38 525.122 81.6453 525.122 81.6453V186.832H0.0250458V135.067Z" fill="#040000"></path><path opacity="0.72" d="M525.123 135.067C525.123 135.067 528.436 92.8265 395.505 82.8876C262.574 72.9487 275.826 131.754 155.732 135.067C35.6392 138.38 0.0253906 81.6453 0.0253906 81.6453V186.832H525.123V135.067Z" fill="#040000"></path></svg> 