<?xml version="1.0" encoding="UTF-8"?> <svg xmlns="http://www.w3.org/2000/svg" width="104" height="98" viewBox="0 0 104 98" fill="none"><path d="M99.955 98H4.15149C1.91607 98 0.10645 96.1911 0.10645 93.9566V4.04343C1.62423e-06 1.8089 1.80962 0 4.04504 0H99.8485C102.084 0 103.894 1.8089 103.894 4.04343V93.9566C104 96.1911 102.19 98 99.955 98ZM4.04504 2.12812C2.98055 2.12812 2.12897 2.97937 2.12897 4.04343V93.9566C2.12897 95.0206 2.98055 95.8719 4.04504 95.8719H99.8485C100.913 95.8719 101.765 95.0206 101.765 93.9566V4.04343C101.765 2.97937 100.913 2.12812 99.8485 2.12812H4.04504Z" fill="black"></path><path d="M28.2088 11.7048C28.2088 11.8112 28.1024 11.8112 28.1024 11.8112C27.9959 11.8112 27.9959 11.8112 27.9959 11.7048V8.40617H26.825C26.6121 8.40617 26.6121 8.40617 26.6121 8.29977C26.6121 8.19336 26.6121 8.19336 26.7185 8.19336H29.3797C29.4862 8.19336 29.4862 8.29977 29.4862 8.29977C29.4862 8.40617 29.4862 8.40617 29.3797 8.40617H28.2088V11.7048Z" fill="black"></path><path d="M28.1024 12.024C27.8895 12.024 27.783 11.9176 27.783 11.7048V8.51258H26.7185C26.5056 8.51258 26.3992 8.40618 26.3992 8.19336C26.3992 7.98055 26.5056 7.87415 26.7185 7.87415H29.3797C29.5926 7.87415 29.6991 7.98055 29.6991 8.19336C29.6991 8.29977 29.5926 8.51258 29.3797 8.51258H28.3153V11.7048C28.4217 11.9176 28.2088 12.024 28.1024 12.024ZM26.7185 8.29977H27.9959V11.7048V8.29977H29.2733H26.7185Z" fill="black"></path><path d="M32.6796 8.08691C33.7441 8.08691 34.5957 8.83176 34.5957 10.0022C34.5957 11.0663 33.7441 11.9175 32.6796 11.9175C31.6151 11.9175 30.7636 11.1727 30.7636 10.0022C30.7636 8.93816 31.6151 8.08691 32.6796 8.08691ZM32.6796 11.5983C33.5312 11.5983 34.2764 10.8535 34.2764 10.0022C34.2764 9.15097 33.6377 8.40613 32.6796 8.40613C31.828 8.40613 31.0829 9.15097 31.0829 10.0022C31.0829 10.8535 31.828 11.5983 32.6796 11.5983Z" fill="black"></path><path d="M32.6796 12.0239C31.5087 12.0239 30.6571 11.1727 30.6571 10.0022C30.6571 8.83172 31.5087 7.98047 32.6796 7.98047C33.8506 7.98047 34.7021 8.83172 34.7021 10.0022C34.7021 11.1727 33.8506 12.0239 32.6796 12.0239ZM32.6796 8.19328C31.6151 8.19328 30.87 8.93812 30.87 10.0022C30.87 10.9598 31.6151 11.8111 32.6796 11.8111C33.7441 11.8111 34.4893 11.0662 34.4893 10.0022C34.4893 8.93812 33.7441 8.19328 32.6796 8.19328ZM32.6796 11.7047C31.7216 11.7047 30.9765 10.9598 30.9765 10.0022C30.9765 9.04453 31.7216 8.29969 32.6796 8.29969C33.6377 8.29969 34.3828 9.04453 34.3828 10.0022C34.3828 10.9598 33.6377 11.7047 32.6796 11.7047ZM32.6796 8.5125C31.828 8.5125 31.1894 9.15094 31.1894 10.0022C31.1894 10.8534 31.828 11.4919 32.6796 11.4919C33.5312 11.4919 34.1699 10.8534 34.1699 10.0022C34.1699 9.15094 33.5312 8.5125 32.6796 8.5125Z" fill="black"></path><path d="M36.4053 11.7046C36.4053 11.811 36.2989 11.811 36.2989 11.811C36.1924 11.811 36.1924 11.811 36.1924 11.7046V8.61886C36.1924 8.51246 36.1924 8.19324 36.6182 8.19324H37.1505C37.4698 8.19324 37.6827 8.19324 37.8956 8.29964C38.2149 8.51246 38.3214 9.04449 38.3214 9.2573C38.3214 9.57652 38.2149 10.0021 37.7891 10.215C37.5763 10.3214 37.3634 10.3214 37.044 10.3214H36.4053V11.7046ZM36.9376 10.0021C37.2569 10.0021 37.8956 10.0021 37.8956 9.2573C37.8956 8.51246 37.2569 8.51246 36.9376 8.51246H36.6182C36.5118 8.51246 36.4053 8.51246 36.4053 8.72527V10.1085H36.9376V10.0021Z" fill="black"></path><path d="M36.2989 12.0239C36.086 12.0239 35.9795 11.9175 35.9795 11.7047V8.61891C35.9795 8.19328 36.1924 7.98047 36.5118 7.98047H37.044C37.3634 7.98047 37.5763 7.98047 37.8956 8.19328C38.4278 8.5125 38.4278 9.04453 38.4278 9.25734C38.4278 9.78937 38.2149 10.1086 37.8956 10.3214C37.6827 10.4278 37.3634 10.4278 37.044 10.4278H36.6182V11.7047C36.5118 11.9175 36.4053 12.0239 36.2989 12.0239ZM36.5118 8.29969C36.2989 8.29969 36.1924 8.40609 36.1924 8.61891V11.7047V10.1086H36.9376C37.1505 10.1086 37.3634 10.1086 37.5763 10.0022C37.8956 9.89578 38.002 9.57656 38.002 9.15094C38.002 8.93812 37.8956 8.5125 37.5763 8.40609C37.3634 8.29969 37.1505 8.29969 36.9376 8.29969H36.5118ZM36.9376 10.1086H36.2989V8.61891C36.2989 8.40609 36.4053 8.29969 36.6182 8.29969H36.9376C37.2569 8.29969 38.1085 8.29969 38.1085 9.25734C38.1085 10.1086 37.3634 10.1086 36.9376 10.1086ZM36.5118 9.89578H36.9376C37.3634 9.89578 37.7892 9.89578 37.7892 9.25734C37.7892 8.61891 37.3634 8.61891 36.9376 8.61891H36.6182V9.89578H36.5118Z" fill="black"></path><path d="M42.5793 10.6406L42.1535 11.7047C42.1535 11.8111 42.1535 11.8111 42.0471 11.8111C41.9406 11.8111 41.8342 11.8111 41.8342 11.7047V11.5983L43.218 8.19328C43.218 8.08687 43.3245 7.98047 43.4309 7.98047C43.6438 7.98047 43.6438 8.08687 43.6438 8.19328L44.9212 11.5983V11.7047C44.9212 11.8111 44.8147 11.8111 44.7083 11.8111C44.6018 11.8111 44.6018 11.7047 44.6018 11.7047L44.1761 10.6406H42.5793ZM44.2825 10.4278L43.5374 8.5125L42.7922 10.4278H44.2825Z" fill="black"></path><path d="M44.9212 12.0239C44.7083 12.0239 44.7083 11.9175 44.6018 11.8111L44.1761 10.7471H42.5793L42.1535 11.7047C42.1535 11.8111 42.0471 11.9175 41.8342 11.9175C41.7277 11.9175 41.5148 11.8111 41.5148 11.5983V11.4919L42.8987 8.08692C43.0051 7.87411 43.1116 7.7677 43.218 7.7677C43.4309 7.7677 43.5374 7.87411 43.5374 8.08692L44.8147 11.4919C44.8147 11.5983 44.8147 11.5983 44.8147 11.7047C45.2405 11.9175 45.1341 12.0239 44.9212 12.0239ZM42.5793 10.5343H44.4954L44.9212 11.7047L43.6438 8.29973C43.6438 8.29973 43.6438 8.19332 43.5374 8.19332L44.3889 10.5343H42.5793L43.4309 8.19332C43.4309 8.19332 43.4309 8.19332 43.3245 8.29973L42.0471 11.7047V11.8111L42.5793 10.5343ZM42.8987 10.3214H44.0696L43.5374 8.83176L42.8987 10.3214Z" fill="black"></path><path d="M46.9437 11.811C46.5179 11.811 46.5179 11.4918 46.5179 11.3854V8.61886C46.5179 8.51246 46.5179 8.19324 46.9437 8.19324H47.5824C47.9017 8.19324 48.7533 8.19324 48.7533 9.04449C48.7533 9.57652 48.434 9.78933 48.2211 9.89574C48.434 10.0021 48.8598 10.1085 48.8598 10.8534C48.8598 11.811 47.9017 11.811 47.5824 11.811H46.9437ZM47.5824 9.78933C47.7953 9.78933 48.434 9.78933 48.434 9.15089C48.434 8.51246 47.9017 8.51246 47.4759 8.51246H46.9437C46.8373 8.40605 46.8373 8.51246 46.8373 8.61886V9.78933H47.5824ZM46.8373 11.3854C46.8373 11.4918 46.9437 11.5982 47.0502 11.5982H47.6888C48.0082 11.5982 48.7533 11.5982 48.7533 10.8534C48.7533 10.1085 48.0082 10.1085 47.7953 10.1085H46.8373V11.3854Z" fill="black"></path><path d="M47.5824 11.9175H46.8373C46.5179 11.9175 46.305 11.7047 46.305 11.2791V8.61891C46.305 8.19328 46.5179 7.98047 46.8373 7.98047H47.4759C47.7953 7.98047 48.8598 7.98047 48.8598 9.04453C48.8598 9.47015 48.6469 9.68297 48.434 9.89578C48.6469 10.0022 48.9662 10.3214 48.9662 10.8534C49.0727 11.5983 48.5404 11.9175 47.5824 11.9175ZM46.9437 8.29969C46.7308 8.29969 46.6244 8.40609 46.6244 8.61891V11.3855C46.6244 11.5983 46.6244 11.7047 46.9437 11.7047H47.6888C48.2211 11.7047 48.8598 11.5983 48.8598 10.8534C48.8598 10.5342 48.7533 10.3214 48.6469 10.215C48.7533 10.3214 48.8598 10.5342 48.8598 10.8534C48.8598 11.7047 48.0082 11.7047 47.6888 11.7047H47.0502C46.9437 11.7047 46.7308 11.7047 46.7308 11.3855V8.61891C46.6244 8.40609 46.7308 8.29969 46.9437 8.29969H47.5824C48.0082 8.29969 48.6469 8.29969 48.6469 9.04453C48.6469 9.15094 48.6469 9.36375 48.5404 9.47015C48.6469 9.36375 48.6469 9.25734 48.6469 8.93812C48.6469 8.29969 48.1146 8.19328 47.5824 8.19328H46.9437V8.29969ZM46.9437 11.3855H47.5824C48.0082 11.3855 48.5404 11.3855 48.5404 10.8534C48.5404 10.3214 48.1146 10.215 47.6888 10.215H46.9437V11.3855ZM47.6888 9.89578C47.7953 9.89578 47.9017 9.89578 47.9017 9.89578L48.0082 9.78937C47.9017 9.89578 47.7953 9.89578 47.6888 9.89578ZM46.9437 9.68297H47.5824C47.9017 9.68297 48.3275 9.57656 48.3275 9.15094C48.3275 8.72531 48.0082 8.61891 47.4759 8.61891H46.9437V9.68297Z" fill="black"></path><path d="M52.1597 8.08691C53.2242 8.08691 54.0757 8.83176 54.0757 10.0022C54.0757 11.0663 53.2242 11.9175 52.1597 11.9175C51.0952 11.9175 50.2436 11.1727 50.2436 10.0022C50.2436 8.93816 51.0952 8.08691 52.1597 8.08691ZM52.1597 11.5983C53.0113 11.5983 53.7564 10.8535 53.7564 10.0022C53.7564 9.15097 53.1177 8.40613 52.1597 8.40613C51.3081 8.40613 50.563 9.15097 50.563 10.0022C50.563 10.8535 51.3081 11.5983 52.1597 11.5983Z" fill="black"></path><path d="M52.1597 12.0239C50.9887 12.0239 50.1372 11.1727 50.1372 10.0022C50.1372 8.83172 50.9887 7.98047 52.1597 7.98047C53.3306 7.98047 54.1822 8.83172 54.1822 10.0022C54.1822 11.1727 53.3306 12.0239 52.1597 12.0239ZM52.1597 8.19328C51.0952 8.19328 50.35 8.93812 50.35 10.0022C50.35 10.9598 51.0952 11.8111 52.1597 11.8111C53.2242 11.8111 53.9693 11.0662 53.9693 10.0022C53.9693 8.93812 53.2242 8.19328 52.1597 8.19328ZM52.1597 11.7047C51.2016 11.7047 50.4565 10.9598 50.4565 10.0022C50.4565 9.04453 51.2016 8.29969 52.1597 8.29969C53.1177 8.29969 53.8628 9.04453 53.8628 10.0022C53.8628 10.9598 53.1177 11.7047 52.1597 11.7047ZM52.1597 8.5125C51.3081 8.5125 50.6694 9.15094 50.6694 10.0022C50.6694 10.8534 51.3081 11.4919 52.1597 11.4919C53.0113 11.4919 53.65 10.8534 53.65 10.0022C53.65 9.15094 53.0113 8.5125 52.1597 8.5125Z" fill="black"></path><path d="M55.566 8.29964C55.566 8.19324 55.6725 8.19324 55.6725 8.19324C55.7789 8.19324 55.7789 8.19324 55.7789 8.29964V10.3214C55.7789 10.8534 55.7789 11.7046 56.9498 11.7046C58.1208 11.7046 58.1208 10.8534 58.1208 10.3214V8.29964C58.1208 8.19324 58.2272 8.19324 58.2272 8.19324C58.3337 8.19324 58.3337 8.19324 58.3337 8.29964V10.3214C58.3337 10.8534 58.3337 12.0239 56.8434 12.0239C55.3531 12.0239 55.3531 10.9598 55.3531 10.3214V8.29964H55.566Z" fill="black"></path><path d="M57.0563 12.0239C55.4596 12.0239 55.4596 10.747 55.4596 10.215V8.29969C55.4596 8.08688 55.566 7.98047 55.7789 7.98047C55.9918 7.98047 56.0983 8.08688 56.0983 8.29969V10.3214C56.0983 10.9598 56.2047 11.5983 57.1627 11.5983C58.1208 11.5983 58.2272 10.9598 58.2272 10.3214V8.29969C58.2272 8.08688 58.3337 7.98047 58.5466 7.98047C58.7595 7.98047 58.8659 8.08688 58.8659 8.29969V10.3214C58.7595 10.747 58.7595 12.0239 57.0563 12.0239ZM55.6725 8.19328V10.215C55.6725 10.9598 55.8854 11.7047 57.0563 11.7047C58.2272 11.7047 58.4401 10.9598 58.4401 10.215V8.29969V10.3214C58.4401 10.8534 58.4401 11.8111 57.0563 11.8111C55.6725 11.8111 55.6725 10.747 55.6725 10.3214V8.19328Z" fill="black"></path><path d="M61.6336 11.7048C61.6336 11.8112 61.5271 11.8112 61.5271 11.8112C61.4207 11.8112 61.4207 11.8112 61.4207 11.7048V8.40617H60.2497C60.1433 8.40617 60.1433 8.29977 60.1433 8.29977C60.1433 8.19336 60.1433 8.19336 60.2497 8.19336H62.8045C62.9109 8.19336 62.9109 8.29977 62.9109 8.29977C62.9109 8.40617 62.9109 8.40617 62.8045 8.40617H61.6336V11.7048Z" fill="black"></path><path d="M61.4207 12.024C61.2078 12.024 61.1013 11.9176 61.1013 11.7048V8.51258H60.0368C59.824 8.51258 59.7175 8.40618 59.7175 8.19336C59.7175 7.98055 59.824 7.87415 60.0368 7.87415H62.8045C63.0174 7.87415 63.1238 7.98055 63.1238 8.19336C63.1238 8.29977 63.0174 8.51258 62.8045 8.51258H61.74V11.7048C61.74 11.9176 61.6336 12.024 61.4207 12.024ZM60.1433 8.29977H61.4207V11.7048V8.29977H62.8045H60.1433Z" fill="black"></path><path d="M66.7431 11.4919C66.956 11.5984 67.1689 11.5984 67.3818 11.5984C67.8076 11.5984 68.3398 11.3855 68.3398 10.8535C68.3398 10.3215 67.914 10.2151 67.5947 10.1087C67.1689 10.0023 66.6366 9.78945 66.6366 9.15101C66.6366 8.61898 67.0624 8.19336 67.7011 8.19336C67.914 8.19336 68.1269 8.29977 68.3398 8.29977C68.3398 8.29977 68.4463 8.29977 68.4463 8.40617C68.4463 8.51258 68.4463 8.51258 68.3398 8.51258H68.2334C68.1269 8.51258 67.914 8.40617 67.7011 8.40617C67.1689 8.40617 66.956 8.72539 66.956 9.15101C66.956 9.57664 67.3818 9.78945 67.7011 9.89586C68.1269 10.0023 68.6592 10.2151 68.6592 10.9599C68.6592 11.5984 68.1269 12.024 67.3818 12.024C66.956 12.024 66.6366 11.9176 66.5302 11.8112C66.4237 11.8112 66.4237 11.7048 66.4237 11.7048C66.4237 11.5984 66.5302 11.5984 66.5302 11.5984C66.6366 11.3855 66.6366 11.3855 66.7431 11.4919Z" fill="black"></path><path d="M67.4882 12.024C67.0624 12.024 66.7431 11.9176 66.6366 11.8112C66.5302 11.8112 66.4237 11.7048 66.4237 11.492C66.4237 11.3855 66.5302 11.1727 66.7431 11.1727C66.7431 11.1727 66.8495 11.1727 66.956 11.2791C67.1689 11.3855 67.3818 11.3855 67.5947 11.3855C67.8076 11.3855 68.4463 11.3855 68.4463 10.7471C68.4463 10.3215 68.2334 10.2151 67.7011 10.1087C67.2753 10.0023 66.6366 9.78945 66.6366 9.04461C66.6366 8.51258 67.0624 7.87415 67.8076 7.87415C68.0205 7.87415 68.3398 7.98055 68.5527 8.08696C68.5527 8.08696 68.7656 8.19336 68.7656 8.29977C68.7656 8.40618 68.6592 8.61899 68.4463 8.61899C68.3398 8.61899 68.3398 8.61899 68.2334 8.51258C68.1269 8.51258 68.0205 8.40618 67.8076 8.40618C67.2753 8.51258 67.0624 8.8318 67.0624 9.04461C67.0624 9.36383 67.2753 9.47024 67.7011 9.68305C68.1269 9.89586 68.7656 10.1087 68.7656 10.8535C68.8721 11.5984 68.2334 12.024 67.4882 12.024ZM66.6366 11.492C66.6366 11.5984 66.6366 11.5984 66.6366 11.492C66.8495 11.5984 67.0624 11.7048 67.4882 11.7048C68.0205 11.7048 68.5527 11.492 68.5527 10.8535C68.5527 10.2151 68.1269 10.1087 67.7011 9.89586C67.2753 9.78945 66.8495 9.57664 66.8495 9.04461C66.8495 8.61899 67.1689 8.19336 67.7011 8.19336C67.914 8.19336 68.1269 8.29977 68.2334 8.29977C68.3398 8.29977 68.3398 8.29977 68.3398 8.29977C68.1269 8.19336 67.914 8.19336 67.7011 8.19336C67.0624 8.19336 66.7431 8.61899 66.7431 9.04461C66.7431 9.57664 67.1689 9.78945 67.5947 9.89586C68.0205 10.0023 68.4463 10.2151 68.4463 10.8535C68.4463 11.492 67.914 11.7048 67.3818 11.7048C67.1689 11.7048 66.8495 11.5984 66.6366 11.492C66.6366 11.5984 66.6366 11.5984 66.6366 11.492Z" fill="black"></path><path d="M72.172 9.78933C72.2784 9.78933 72.2784 9.89574 72.2784 9.89574C72.2784 10.0021 72.2784 10.0021 72.172 10.0021H70.5752V11.279C70.5752 11.3854 70.6817 11.4918 70.7881 11.4918H72.3849C72.4913 11.4918 72.4913 11.5982 72.4913 11.5982C72.4913 11.7046 72.4913 11.7046 72.3849 11.7046H70.6817C70.2559 11.7046 70.2559 11.3854 70.2559 11.279V8.61886C70.2559 8.51246 70.2559 8.19324 70.6817 8.19324H72.2784C72.3849 8.19324 72.3849 8.29964 72.3849 8.29964C72.3849 8.40605 72.3849 8.40605 72.2784 8.40605H70.6817C70.5752 8.40605 70.4688 8.40605 70.4688 8.61886V9.78933H72.172Z" fill="black"></path><path d="M72.3849 11.9175H70.6817C70.3623 11.9175 70.1494 11.7047 70.1494 11.2791V8.61891C70.1494 8.19328 70.3623 7.98047 70.6817 7.98047H72.2784C72.4913 7.98047 72.5977 8.08688 72.5977 8.29969C72.5977 8.40609 72.4913 8.61891 72.2784 8.61891H70.6817V9.68297H72.172C72.3849 9.68297 72.3849 9.78937 72.3849 10.0022C72.3849 10.215 72.2784 10.3214 72.172 10.3214H70.6817V11.4919H72.3849C72.5977 11.4919 72.7042 11.5983 72.7042 11.8111C72.5978 11.8111 72.4913 11.9175 72.3849 11.9175ZM70.6817 8.29969C70.4688 8.29969 70.3623 8.40609 70.3623 8.61891V11.3855C70.3623 11.5983 70.3623 11.7047 70.6817 11.7047H72.3849H70.7881C70.6817 11.7047 70.4688 11.7047 70.4688 11.3855V9.89578H72.172H70.4688V8.61891C70.4688 8.40609 70.4688 8.29969 70.6817 8.29969H72.2784H70.6817Z" fill="black"></path><path d="M76.1105 11.5982C76.1105 11.7046 76.217 11.7046 76.217 11.7046C76.217 11.811 76.1105 11.811 76.1105 11.811C76.0041 11.811 76.0041 11.811 76.0041 11.7046L74.7267 10.1085H74.3009V11.7046C74.3009 11.811 74.1945 11.811 74.1945 11.811C74.088 11.811 74.088 11.811 74.088 11.7046V8.61886C74.088 8.51246 74.088 8.19324 74.5138 8.19324H75.1525C75.8976 8.19324 76.217 8.61886 76.217 9.15089C76.217 9.57652 76.0041 10.1085 75.1525 10.1085L76.1105 11.5982ZM74.8332 9.89574C75.0461 9.89574 75.7912 9.89574 75.7912 9.15089C75.7912 8.40605 75.1525 8.40605 74.8332 8.40605H74.4074C74.3009 8.40605 74.1945 8.40605 74.1945 8.61886V9.89574H74.8332Z" fill="black"></path><path d="M76.0041 12.0239C75.8977 12.0239 75.7912 11.9175 75.7912 11.9175L74.6203 10.3214H74.4074V11.7047C74.4074 11.9175 74.3009 12.0239 74.088 12.0239C73.8751 12.0239 73.7687 11.9175 73.7687 11.7047V8.61891C73.7687 8.19328 73.9816 7.98047 74.3009 7.98047H74.9396C75.7912 7.98047 76.1106 8.5125 76.1106 9.15094C76.1106 9.68297 75.8977 10.1086 75.1525 10.215L76.1106 11.4919L76.0041 11.5983L76.1106 11.4919C76.1106 11.5983 76.217 11.5983 76.217 11.7047C76.3234 11.9175 76.217 12.0239 76.0041 12.0239ZM74.088 10.0022H74.7267L76.0041 11.7047L76.1106 11.5983L76.0041 11.7047L74.7267 10.0022H74.9396C75.7912 10.0022 75.8977 9.36375 75.8977 9.15094C75.8977 8.61891 75.5783 8.29969 74.9396 8.29969H74.3009C74.088 8.29969 73.9816 8.40609 73.9816 8.61891V11.7047L74.088 10.0022ZM74.8332 10.0022H74.088V8.61891C74.088 8.40609 74.1945 8.29969 74.4074 8.29969H74.8332C75.0461 8.29969 75.8977 8.29969 75.8977 9.15094C75.8977 9.68297 75.5783 10.0022 74.8332 10.0022ZM74.4074 9.78937H74.9396C75.3654 9.78937 75.7912 9.68297 75.7912 9.15094C75.7912 8.61891 75.3654 8.61891 74.9396 8.61891H74.5138V9.78937H74.4074Z" fill="black"></path><path d="M80.262 8.19332C80.262 8.19332 80.262 8.08691 80.3685 8.08691C80.4749 8.08691 80.5814 8.19332 80.5814 8.19332V8.29973L79.1975 11.7047C79.1975 11.8111 79.0911 11.9175 78.9846 11.9175C78.8782 11.9175 78.7718 11.8111 78.7718 11.7047L77.3879 8.29973V8.19332C77.3879 8.08691 77.4944 8.08691 77.6008 8.08691C77.7073 8.08691 77.7073 8.08691 77.7073 8.19332L79.0911 11.5983L80.262 8.19332Z" fill="black"></path><path d="M78.9846 12.0239C78.7718 12.0239 78.6653 11.8111 78.6653 11.8111L77.2815 8.40614C77.2815 8.40614 77.2815 8.29973 77.2815 8.19332C77.2815 7.98051 77.3879 7.87411 77.6008 7.87411C77.8137 7.87411 77.8137 7.98051 77.8137 8.08692L78.9846 11.1727L80.1556 8.08692H80.262L80.1556 7.98051C80.1556 7.98051 80.262 7.7677 80.3685 7.7677C80.4749 7.7677 80.6878 7.87411 80.6878 8.08692C80.6878 8.19332 80.6878 8.19332 80.6878 8.29973L79.304 11.5983C79.304 11.8111 79.1975 12.0239 78.9846 12.0239ZM80.262 8.19332H80.3685L78.9846 11.7047C78.9846 11.7047 78.9847 11.7047 79.0911 11.5983L80.4749 8.19332C80.4749 8.19332 80.4749 8.19332 80.4749 8.08692L80.262 8.19332ZM77.4944 8.19332C77.4944 8.19332 77.3879 8.29973 77.4944 8.19332C77.3879 8.29973 77.4944 8.29973 77.4944 8.19332L78.7718 11.7047C78.7718 11.7047 78.7718 11.8111 78.8782 11.8111L77.4944 8.19332C77.4944 8.29973 77.4944 8.19332 77.4944 8.19332Z" fill="black"></path><path d="M82.0716 8.29964C82.0716 8.19324 82.1781 8.19324 82.1781 8.19324C82.2845 8.19324 82.2845 8.29964 82.2845 8.29964V11.7046C82.2845 11.811 82.1781 11.811 82.1781 11.811C82.0716 11.811 82.0716 11.7046 82.0716 11.7046V8.29964Z" fill="black"></path><path d="M82.1781 12.0239C81.9652 12.0239 81.8588 11.9175 81.8588 11.7047V8.29969C81.8588 8.08688 81.9652 7.98047 82.1781 7.98047C82.391 7.98047 82.4974 8.08688 82.4974 8.29969V11.7047C82.4974 11.9175 82.391 12.0239 82.1781 12.0239ZM82.1781 8.19328V11.7047V8.19328Z" fill="black"></path><path d="M83.9877 10.0022C83.9877 8.93816 84.7329 8.08691 85.9038 8.08691C86.3296 8.08691 86.6489 8.19332 86.8618 8.29973C86.9683 8.29973 86.9683 8.40613 86.9683 8.40613C86.9683 8.51254 86.8618 8.51254 86.8618 8.51254C86.8618 8.51254 86.7554 8.51254 86.7554 8.40613C86.436 8.19332 86.1167 8.19332 86.0102 8.19332C85.0522 8.19332 84.4135 8.93816 84.4135 9.78941C84.4135 10.5343 84.9458 11.3855 86.1167 11.3855C86.436 11.3855 86.6489 11.2791 86.8618 11.2791C86.8618 11.2791 86.9683 11.1727 87.0747 11.1727C87.0747 11.1727 87.1812 11.1727 87.1812 11.2791C87.1812 11.3855 87.0747 11.3855 87.0747 11.3855C86.7554 11.5983 86.3296 11.5983 86.0102 11.5983C84.6264 11.9175 83.9877 11.0663 83.9877 10.0022Z" fill="black"></path><path d="M85.9038 12.0239C84.6264 12.0239 83.7748 11.1727 83.7748 10.0022C83.7748 8.83172 84.6264 7.98047 85.7973 7.98047C86.2231 7.98047 86.5425 8.08687 86.8618 8.19328C86.9683 8.29969 86.9683 8.40609 86.9683 8.40609C86.9683 8.5125 86.8618 8.72531 86.6489 8.72531C86.5425 8.72531 86.5425 8.72531 86.436 8.61891C86.3296 8.5125 86.0102 8.5125 85.9038 8.5125C85.0522 8.5125 84.4135 9.15094 84.4135 10.0022C84.4135 10.747 84.8393 11.4919 85.9038 11.4919C86.2231 11.4919 86.436 11.3855 86.6489 11.3855C86.7554 11.2791 86.8618 11.2791 86.8618 11.2791C86.9683 11.2791 87.0747 11.3855 87.0747 11.5983C87.0747 11.7047 87.0747 11.8111 86.8618 11.8111C86.5425 12.0239 86.1167 12.0239 85.9038 12.0239ZM85.9038 8.19328C84.8393 8.19328 84.0942 8.93812 84.0942 10.0022C84.0942 10.8534 84.6264 11.8111 85.9038 11.8111C86.1167 11.8111 86.5425 11.8111 86.8618 11.5983H86.7554C86.5425 11.7047 86.3296 11.7047 85.9038 11.7047C84.6264 11.7047 84.0942 10.747 84.0942 10.0022C84.0942 8.93812 84.8393 8.29969 85.9038 8.19328C86.1167 8.19328 86.436 8.19328 86.7554 8.40609C86.5425 8.29969 86.2231 8.19328 85.9038 8.19328Z" fill="black"></path><path d="M90.3746 9.78933C90.4811 9.78933 90.4811 9.89574 90.4811 9.89574C90.4811 10.0021 90.4811 10.0021 90.3746 10.0021H88.7779V11.279C88.7779 11.3854 88.8843 11.4918 88.9908 11.4918H90.5875C90.694 11.4918 90.694 11.5982 90.694 11.5982C90.694 11.7046 90.694 11.7046 90.5875 11.7046H88.8843C88.4585 11.7046 88.4585 11.3854 88.4585 11.279V8.61886C88.4585 8.51246 88.4585 8.19324 88.8843 8.19324H90.4811C90.5875 8.19324 90.5875 8.29964 90.5875 8.29964C90.5875 8.40605 90.5875 8.40605 90.4811 8.40605H88.8843C88.7779 8.40605 88.6714 8.40605 88.6714 8.61886V9.78933H90.3746Z" fill="black"></path><path d="M90.5875 11.9175H88.8843C88.565 11.9175 88.3521 11.7047 88.3521 11.2791V8.61891C88.3521 8.19328 88.565 7.98047 88.8843 7.98047H90.4811C90.694 7.98047 90.8004 8.08688 90.8004 8.29969C90.8004 8.40609 90.694 8.61891 90.4811 8.61891H88.8843V9.68297H90.3746C90.5875 9.68297 90.5875 9.78937 90.5875 10.0022C90.5875 10.215 90.4811 10.3214 90.3746 10.3214H88.8843V11.4919H90.4811C90.694 11.4919 90.8004 11.5983 90.8004 11.8111C90.9069 11.8111 90.694 11.9175 90.5875 11.9175ZM88.8843 8.29969C88.6714 8.29969 88.565 8.40609 88.565 8.61891V11.3855C88.565 11.5983 88.565 11.7047 88.8843 11.7047H90.5875H88.9908C88.8843 11.7047 88.6714 11.7047 88.6714 11.3855V9.89578H90.3746H88.6714V8.61891C88.6714 8.40609 88.7779 8.29969 88.8843 8.29969H90.4811H88.8843Z" fill="black"></path><path d="M20.2252 6.49084H8.09007V12.8752H20.2252V6.49084Z" fill="black"></path><path d="M102.936 16.7057H1.27738V18.8338H102.936V16.7057Z" fill="black"></path><path d="M67.5947 45.2225H38.9601V16.7057H67.4882V45.2225H67.5947ZM41.089 43.0944H65.3593V18.8338H41.089V43.0944Z" fill="black"></path><path d="M66.4237 25.2183H40.0246V27.3464H66.4237V25.2183Z" fill="black"></path><path d="M66.4237 33.8372H40.0246V35.9653H66.4237V33.8372Z" fill="black"></path><path d="M93.9939 62.4604H65.4657V33.8372H93.9939V62.4604ZM67.5947 60.3323H91.8649V35.9653H67.5947V60.3323Z" fill="black"></path><path d="M92.9294 42.4561H66.5302V44.5842H92.9294V42.4561Z" fill="black"></path><path d="M92.9294 51.075H66.5302V53.2031H92.9294V51.075Z" fill="black"></path></svg> 