<?xml version="1.0" encoding="UTF-8"?> <svg xmlns="http://www.w3.org/2000/svg" width="82" height="95" viewBox="0 0 82 95" fill="none"><path d="M76.5809 95H5.41913C2.42435 95 0 92.5751 0 89.5796V5.42042C0 2.42492 2.42435 0 5.41913 0H76.4383C79.433 0 81.8574 2.42492 81.8574 5.42042V89.5796C82 92.5751 79.5757 95 76.5809 95ZM5.41913 2.85285C3.99304 2.85285 2.85217 3.99399 2.85217 5.42042V89.5796C2.85217 91.006 3.99304 92.1471 5.41913 92.1471H76.4383C77.8643 92.1471 79.0052 91.006 79.0052 89.5796V5.42042C79.0052 3.99399 77.8643 2.85285 76.4383 2.85285H5.41913Z" fill="black"></path><path d="M67.0261 13.2657C67.3113 13.2657 67.5965 13.551 67.5965 13.8363V67.042C67.5965 67.3273 67.3113 67.6126 67.0261 67.6126C66.7409 67.6126 66.4557 67.3273 66.4557 67.042V13.8363C66.4557 13.551 66.7409 13.2657 67.0261 13.2657Z" fill="black"></path><path d="M67.0261 68.3258C66.3131 68.3258 65.7426 67.7553 65.7426 67.042V13.8363C65.7426 13.1231 66.3131 12.5526 67.0261 12.5526C67.7391 12.5526 68.3096 13.1231 68.3096 13.8363V67.042C68.3096 67.7553 67.7391 68.3258 67.0261 68.3258Z" fill="black"></path><path d="M71.7322 17.6877L70.8766 18.401L67.0261 14.2643L63.3183 18.401L62.4626 17.6877L67.0261 12.6953L71.7322 17.6877Z" fill="black"></path><path d="M70.8765 19.3994L67.0261 15.4054L63.3183 19.3994L61.4644 17.6877L67.0261 11.5541L72.7304 17.6877L70.8765 19.3994Z" fill="black"></path><path d="M71.7322 88.2958C71.4469 88.2958 71.0191 88.1532 70.7339 87.8679L66.7409 84.3018L63.4609 87.8679C62.8904 88.4384 62.0348 88.4384 61.4643 87.8679C60.8939 87.2973 60.8939 86.4414 61.4643 85.8709L65.7426 81.3063C66.313 80.7357 67.1687 80.7357 67.7391 81.1637L72.7304 85.7282C73.3009 86.2988 73.3009 87.1547 72.873 87.7252C72.4452 88.1532 72.16 88.2958 71.7322 88.2958Z" fill="#040000"></path><path d="M80.4313 74.3168H1.99652V77.1697H80.4313V74.3168Z" fill="black"></path></svg> 