<?xml version="1.0" encoding="UTF-8"?> <svg xmlns="http://www.w3.org/2000/svg" width="148" height="64" viewBox="0 0 148 64" fill="none"><g clip-path="url(#clip0)"><path d="M77.6116 14.1539C77.1506 14.1539 76.8432 13.6923 76.8432 13.3847C76.8432 13.3847 76.8432 13.077 76.9969 12.4616C77.1506 12 77.4579 11.8462 77.919 11.8462C78.3801 12 78.5337 12.3077 78.5337 12.7693C78.3801 13.2308 78.3801 13.3847 78.3801 13.3847C78.3801 13.8462 78.0727 14.1539 77.6116 14.1539Z" fill="black"></path><path d="M79.9169 9.38459C79.7632 9.38459 79.6096 9.38459 79.4559 9.23074C79.1485 8.92305 79.1485 8.46151 79.4559 8.15382C79.7632 7.69228 80.2243 7.38459 80.6854 7.0769C80.9927 6.76921 81.4538 6.92305 81.7612 7.23074C82.0685 7.53844 81.9149 7.99998 81.6075 8.30767C81.3001 8.61536 80.8391 8.92305 80.5317 9.23074C80.378 9.38459 80.0706 9.38459 79.9169 9.38459Z" fill="black"></path><path d="M112.806 15.8461C112.498 15.8461 112.191 15.6923 112.037 15.3846C111.884 14.923 111.73 14.4615 111.423 14C111.269 13.6923 111.423 13.2307 111.73 12.923C112.037 12.7692 112.498 12.923 112.806 13.2307C113.113 13.6923 113.267 14.1538 113.421 14.6153C113.574 15.0769 113.421 15.3846 112.959 15.5384C112.959 15.8461 112.959 15.8461 112.806 15.8461ZM109.425 10.7692C109.271 10.7692 108.964 10.7692 108.964 10.6153C108.656 10.3076 108.195 9.99995 107.888 9.69226C107.58 9.38457 107.427 8.92303 107.734 8.61534C108.042 8.30765 108.503 8.1538 108.81 8.46149C109.271 8.76918 109.578 9.23072 110.039 9.53841C110.347 9.84611 110.347 10.3076 110.039 10.6153C109.886 10.7692 109.732 10.7692 109.425 10.7692ZM104.353 7.53841C104.199 7.53841 104.199 7.53841 104.046 7.53841C103.585 7.38457 103.124 7.23072 102.663 7.07688C102.201 6.92303 102.048 6.46149 102.201 6.1538C102.355 5.69226 102.816 5.53841 103.124 5.69226C103.585 5.84611 104.199 5.99995 104.66 6.30765C105.121 6.46149 105.275 6.92303 105.121 7.38457C104.968 7.23072 104.66 7.53841 104.353 7.53841ZM84.9886 6.1538C84.6812 6.1538 84.3738 5.99995 84.2201 5.69226C84.0665 5.23072 84.3738 4.92303 84.6812 4.76918C85.1423 4.61534 85.6033 4.46149 86.2181 4.30765C86.6791 4.1538 86.9865 4.46149 87.1402 4.92303C87.2939 5.38457 86.9865 5.69226 86.5254 5.84611C86.0644 5.99995 85.6033 6.1538 85.1423 6.30765C85.1423 6.1538 85.1423 6.1538 84.9886 6.1538ZM98.513 5.84611C98.2056 5.84611 97.8982 5.69226 97.7445 5.69226L96.9761 5.53841C96.515 5.53841 96.2077 5.07688 96.3614 4.61534C96.3614 4.1538 96.8224 3.84611 97.2835 3.99995L98.0519 4.1538C98.3593 4.1538 98.513 4.1538 98.8203 4.30765C99.2814 4.30765 99.5888 4.76918 99.4351 5.23072C99.2814 5.53841 98.974 5.84611 98.513 5.84611ZM90.9823 5.23072C90.5213 5.23072 90.2139 4.92303 90.2139 4.46149C90.2139 3.99995 90.5213 3.69226 90.9823 3.69226C91.2897 3.69226 91.7508 3.69226 92.0581 3.69226H92.5192C92.9803 3.69226 93.2876 3.99995 93.2876 4.46149C93.2876 4.92303 92.9803 5.23072 92.5192 5.23072H92.0581C91.7508 5.23072 91.2897 5.23072 90.9823 5.23072Z" fill="black"></path><path d="M113.882 21.0769C113.421 21.0769 113.113 20.7692 113.113 20.3077C113.113 20 113.113 19.8461 113.113 19.5384C113.113 19.0769 113.421 18.7692 113.728 18.6154C114.189 18.6154 114.496 18.923 114.65 19.2307C114.65 19.5384 114.65 19.6923 114.65 20C114.804 20.6154 114.496 21.0769 113.882 21.0769C114.035 21.0769 114.035 21.0769 113.882 21.0769Z" fill="black"></path><path d="M108.81 18.4614L113.267 27.5383L118.953 19.0768L108.81 18.4614Z" fill="black"></path><path d="M9.0675 6.46155V1.07693C9.0675 0.615394 9.37487 0.461548 9.68224 0.461548C9.98962 0.461548 10.297 0.615394 10.297 1.07693V13.8462C10.297 14.3077 9.98962 14.4615 9.68224 14.4615C9.22118 14.3077 9.0675 14.1539 9.0675 13.8462V7.53847H1.69055V13.8462C1.69055 14.3077 1.38318 14.4615 1.07581 14.4615C0.768432 14.3077 0.614746 14.1539 0.614746 13.8462V1.07693C0.614746 0.615394 0.922119 0.461548 1.22949 0.461548C1.53686 0.461548 1.84424 0.615394 1.84424 1.07693V6.46155H9.0675Z" fill="black"></path><path d="M9.68224 14.9231C8.91381 14.9231 8.45275 14.4615 8.45275 13.8462V8.15385H2.3053V13.8462C2.3053 14.6154 1.69055 14.9231 1.22949 14.9231C0.461059 14.9231 0 14.4615 0 13.8462V1.07692C0 0.461538 0.614746 0 1.0758 0C1.69055 0 2.15161 0.461538 2.15161 1.07692V5.84615H8.29907V1.07692C8.45275 0.461538 9.0675 0 9.52856 0C10.297 0 10.758 0.461538 10.758 1.07692V13.8462C10.758 14.6154 10.1433 14.9231 9.68224 14.9231Z" fill="black"></path><path d="M21.2087 0.615356C25.0509 0.615356 28.1246 3.53843 28.1246 7.53843C28.1246 11.5384 25.2046 14.4615 21.2087 14.4615C17.3666 14.4615 14.2928 11.5384 14.2928 7.53843C14.2928 3.53843 17.3666 0.615356 21.2087 0.615356ZM21.2087 13.3846C24.4361 13.3846 27.0488 10.7692 27.0488 7.53843C27.0488 4.30766 24.5898 1.69228 21.2087 1.69228C17.9813 1.53843 15.3687 4.15382 15.3687 7.53843C15.3687 10.923 17.9813 13.3846 21.2087 13.3846Z" fill="black"></path><path d="M21.2087 14.9231C16.9055 14.9231 13.8318 11.6923 13.8318 7.38462C13.8318 3.07692 16.9055 0 21.2087 0C25.512 0 28.5857 3.23077 28.5857 7.53846C28.5857 11.8462 25.3583 14.9231 21.2087 14.9231ZM21.2087 2.15385C18.2887 2.15385 15.9834 4.46154 15.9834 7.53846C15.9834 10.6154 18.2887 12.9231 21.2087 12.9231C24.1288 12.9231 26.4341 10.6154 26.4341 7.53846C26.4341 4.46154 24.1288 2.15385 21.2087 2.15385Z" fill="black"></path><path d="M42.8785 1.69232C43.1859 0.76924 43.3396 0.615394 44.108 0.615394C45.0301 0.615394 45.0301 1.38462 45.1838 1.84616L46.8743 13.6923C46.8743 14 46.8743 14 46.8743 14C46.8743 14.3077 46.7207 14.4615 46.2596 14.4615C45.7985 14.4615 45.7985 14.1539 45.6449 13.8462L44.108 1.53847L40.1121 13.5385C39.9585 13.8462 39.8048 14.3077 39.19 14.3077C38.5753 14.3077 38.4216 14 38.1142 13.5385L34.1184 1.53847L32.2741 13.6923C32.2741 14 32.1205 14.3077 31.6594 14.3077C31.352 14.3077 31.0446 14 31.0446 13.8462C31.0446 13.8462 31.0446 13.6923 31.0446 13.5385L32.7352 1.69232C32.7352 1.23078 32.8889 0.461548 33.811 0.461548C34.5794 0.461548 34.7331 0.76924 35.0405 1.53847L38.8827 13.2308L42.8785 1.69232Z" fill="black"></path><path d="M39.0363 15.2308L38.8827 14.9231C37.9605 14.9231 37.6532 14.3077 37.4995 13.6923L34.2721 4.00004L32.8889 13.8462C32.7352 14.6154 32.4278 14.9231 31.8131 14.9231C31.0446 14.9231 30.7373 14.4616 30.7373 13.8462C30.7373 13.6923 30.7373 13.6923 30.7373 13.3847L32.4278 1.5385C32.4278 1.07696 32.7352 -0.153809 34.1184 -0.153809C35.1942 -0.153809 35.5016 0.461576 35.8089 1.38465L39.19 11.3847L42.4174 1.5385C42.7248 0.615422 43.0322 3.75658e-05 44.108 3.75658e-05C45.4912 3.75658e-05 45.6449 1.23081 45.7985 1.69235L47.4891 13.5385C47.4891 13.8462 47.4891 13.8462 47.4891 14C47.4891 14.4616 47.028 15.077 46.4133 15.077C45.7985 15.077 45.3375 14.7693 45.3375 14L43.9543 4.30773L40.7269 14C40.5732 14.3077 40.4195 15.2308 39.3437 15.2308H39.0363ZM43.6469 1.38465L44.5691 1.5385C44.4154 1.23081 44.4154 1.23081 44.108 1.23081C43.8006 1.23081 43.8006 1.23081 43.6469 1.38465ZM33.9647 1.23081C33.811 1.23081 33.6573 1.23081 33.5036 1.5385H34.4257C34.4257 1.23081 34.2721 1.23081 33.9647 1.23081Z" fill="black"></path><path d="M57.4787 6.76917C57.9398 6.76917 57.9398 7.07686 57.9398 7.2307C57.9398 7.5384 57.7861 7.69224 57.4787 7.69224H51.7923V12.4615C51.7923 13.0769 51.946 13.0769 52.407 13.0769H58.2471C58.7082 13.0769 58.7082 13.3846 58.7082 13.5384C58.7082 13.8461 58.5545 13.9999 58.2471 13.9999H52.0997C50.5628 13.9999 50.5628 12.923 50.5628 12.3076V2.46147C50.5628 1.84609 50.5628 0.769165 52.0997 0.769165H57.9398C58.4008 0.769165 58.4008 1.07686 58.4008 1.2307C58.4008 1.5384 58.2471 1.69224 57.9398 1.69224H52.2534C51.7923 1.69224 51.6386 1.84609 51.6386 2.30763V6.46147H57.4787V6.76917Z" fill="black"></path><path d="M58.2471 14.6153H52.0997C51.1776 14.6153 49.9481 14.1538 49.9481 12.3077V2.4615C49.9481 0.923039 50.7165 0.153809 52.0997 0.153809H57.9398C58.7082 0.153809 59.0156 0.769193 59.0156 1.23073C59.0156 1.84612 58.5545 2.30765 57.9398 2.30765H52.2534C52.2534 2.30765 52.2534 2.30765 52.0997 2.30765C52.0997 2.30765 52.0997 2.30765 52.0997 2.4615V6.15381H57.325C57.9397 6.15381 58.4008 6.61535 58.4008 7.23073C58.4008 7.84612 57.9397 8.30766 57.325 8.30766H52.2534V12.4615C52.2534 12.4615 52.2534 12.4615 52.2534 12.6153C52.2534 12.6153 52.2534 12.6153 52.407 12.6153H58.2471C59.0156 12.6153 59.3229 13.0769 59.3229 13.6923C59.3229 14.1538 58.8619 14.6153 58.2471 14.6153ZM51.4849 1.53842C51.3312 1.53842 51.3312 1.69227 51.3312 1.84612C51.3312 1.69227 51.3312 1.69227 51.4849 1.53842Z" fill="black"></path><path d="M96.6688 46.923V41.5384C96.6688 41.0768 96.9761 40.923 97.2835 40.923C97.5909 40.923 97.8982 41.0768 97.8982 41.5384V54.3076C97.8982 54.7691 97.5909 54.923 97.2835 54.923C96.9761 54.923 96.6688 54.7691 96.6688 54.3076V47.9999H89.2918V54.3076C89.2918 54.7691 88.9844 54.923 88.6771 54.923C88.3697 54.923 88.0623 54.7691 88.0623 54.3076V41.5384C88.0623 41.0768 88.3697 40.923 88.6771 40.923C88.9844 40.923 89.2918 41.0768 89.2918 41.5384V46.923H96.6688Z" fill="black"></path><path d="M97.2835 55.3845C96.6687 55.3845 96.2077 54.923 96.2077 54.3076V48.6153H90.0602V54.3076C90.0602 55.0768 89.4455 55.3845 88.9844 55.3845C88.3697 55.3845 87.9086 54.923 87.9086 54.3076V41.5383C87.9086 40.7691 88.5234 40.4614 88.9844 40.4614C89.5992 40.4614 90.0602 40.923 90.0602 41.5383V46.3076H96.2077V41.5383C96.2077 40.7691 96.8224 40.4614 97.2835 40.4614C97.8982 40.4614 98.3593 40.923 98.3593 41.5383V54.3076C98.3593 54.923 97.7446 55.3845 97.2835 55.3845Z" fill="black"></path><path d="M108.81 40.923C112.652 40.923 115.726 43.8461 115.726 47.8461C115.726 51.8461 112.806 54.7691 108.81 54.7691C104.968 54.7691 101.894 51.8461 101.894 47.8461C101.894 43.8461 104.968 40.923 108.81 40.923ZM108.81 53.6922C112.037 53.6922 114.65 51.0768 114.65 47.8461C114.65 44.6153 112.191 41.9999 108.81 41.9999C105.583 41.9999 102.97 44.6153 102.97 47.8461C102.97 51.0768 105.583 53.6922 108.81 53.6922Z" fill="black"></path><path d="M108.81 55.3845C104.507 55.3845 101.433 52.1538 101.433 47.8461C101.433 43.5384 104.66 40.3076 108.81 40.3076C112.959 40.3076 116.187 43.5384 116.187 47.8461C116.187 52.1538 113.113 55.3845 108.81 55.3845ZM108.81 42.6153C105.89 42.6153 103.585 44.923 103.585 47.9999C103.585 51.0768 105.89 53.3845 108.81 53.3845C111.73 53.3845 114.035 51.0768 114.035 47.9999C114.035 44.923 111.73 42.6153 108.81 42.6153Z" fill="black"></path><path d="M130.633 42.1538C130.941 41.3846 131.094 41.0769 131.863 41.0769C132.785 41.0769 132.785 41.8461 132.939 42.3077L134.629 54.1538C134.629 54.4615 134.629 54.4615 134.629 54.4615C134.629 54.7692 134.476 54.9231 134.015 54.9231C133.553 54.9231 133.553 54.6154 133.4 54.3077L131.709 42.1538L127.713 54.1538C127.56 54.4615 127.406 54.9231 126.791 54.9231C126.023 54.9231 126.023 54.6154 125.715 54.1538L121.72 42.1538L120.029 54.3077C120.029 54.6154 119.875 54.9231 119.414 54.9231C119.107 54.9231 118.8 54.6154 118.8 54.4615C118.8 54.4615 118.8 54.3077 118.8 54.1538L120.49 42.3077C120.49 41.8461 120.644 41.0769 121.566 41.0769C122.334 41.0769 122.488 41.3846 122.795 42.1538L126.638 53.8461L130.633 42.1538Z" fill="black"></path><path d="M126.791 55.5384L126.638 55.3845C125.715 55.3845 125.408 54.7692 125.254 54.1538L122.027 44.4615L120.644 54.3076C120.49 55.0768 120.183 55.3845 119.568 55.3845C118.8 55.3845 118.492 54.923 118.492 54.3076C118.492 54.1538 118.492 54.1538 118.492 53.8461L120.183 41.9999C120.183 41.5384 120.49 40.3076 121.873 40.3076C122.949 40.3076 123.256 40.923 123.564 41.8461L126.945 51.8461L130.326 41.8461C130.633 40.923 130.941 40.3076 132.017 40.3076C133.4 40.3076 133.553 41.5384 133.707 41.9999L135.398 53.8461C135.398 54.1538 135.398 54.1538 135.398 54.3076C135.398 54.7691 134.937 55.3845 134.322 55.3845C133.707 55.3845 133.246 55.0768 133.246 54.3076L131.863 44.6153L128.635 54.3076C128.482 54.6153 128.328 55.5384 127.252 55.5384H126.791ZM131.248 41.8461H132.17C132.17 41.5384 132.017 41.5384 131.709 41.5384C131.556 41.5384 131.402 41.5384 131.248 41.8461ZM121.72 41.5384C121.566 41.5384 121.412 41.5384 121.259 41.8461H122.181C122.027 41.5384 121.873 41.5384 121.72 41.5384Z" fill="black"></path><path d="M145.08 47.0768C145.541 47.0768 145.541 47.3845 145.541 47.5383C145.541 47.846 145.387 47.9999 145.08 47.9999H139.394V52.7691C139.394 53.3845 139.547 53.3845 140.008 53.3845H145.848C146.309 53.3845 146.309 53.6922 146.309 53.846C146.309 54.1537 146.156 54.3075 145.848 54.3075H139.701C138.164 54.3075 138.164 53.2306 138.164 52.6152V42.7691C138.164 42.1537 138.164 41.0768 139.701 41.0768H145.695C146.156 41.0768 146.156 41.3845 146.156 41.5383C146.156 41.846 146.002 41.9999 145.695 41.9999H140.008C139.547 41.9999 139.394 42.1537 139.394 42.6152V46.7691H145.08V47.0768Z" fill="black"></path><path d="M145.848 55.0768H139.701C138.779 55.0768 137.549 54.6152 137.549 52.7691V42.9229C137.549 41.3845 138.318 40.6152 139.701 40.6152H145.695C146.463 40.6152 146.77 41.2306 146.77 41.6922C146.77 42.3075 146.309 42.7691 145.695 42.7691H140.008C140.008 42.7691 140.008 42.7691 139.855 42.7691C139.855 42.7691 139.855 42.7691 139.855 42.9229V46.6152H145.08C145.695 46.6152 146.156 47.0768 146.156 47.6922C146.156 48.3075 145.695 48.7691 145.08 48.7691H139.855V52.9229C139.855 52.9229 139.855 52.9229 139.855 53.0768C139.855 53.0768 139.855 53.0768 140.008 53.0768H145.848C146.617 53.0768 146.924 53.5383 146.924 54.1537C146.924 54.6152 146.617 55.0768 145.848 55.0768ZM138.932 53.5383C138.932 53.6922 138.932 53.6922 138.932 53.5383C138.932 53.6922 138.932 53.6922 138.932 53.5383ZM139.086 41.9998C138.932 41.9998 138.932 42.1537 138.932 42.3075C138.932 42.1537 138.932 41.9998 139.086 41.9998Z" fill="black"></path><path d="M147.846 61.3846H83.6054V64H147.846V61.3846Z" fill="black"></path><path d="M35.0405 22.1538H26.4341V24.7692H35.0405V22.1538Z" fill="black"></path></g><defs><clipPath id="clip0"><rect width="148" height="64" fill="white"></rect></clipPath></defs></svg> 