<?xml version="1.0" encoding="UTF-8"?> <svg xmlns="http://www.w3.org/2000/svg" width="101" height="83" viewBox="0 0 101 83" fill="none"><path d="M38.88 42.9197H4.40567C1.98255 42.9197 0 40.9539 0 38.5513V4.36842C0 1.96579 1.98255 0 4.40567 0H38.88C41.3032 0 43.2857 1.96579 43.2857 4.36842V38.5513C43.2857 40.9539 41.3032 42.9197 38.88 42.9197Z" fill="black"></path><path d="M33.2628 12.6685H10.0229C9.25192 12.6685 8.59106 12.0132 8.59106 11.2487C8.59106 10.4842 9.25192 9.82898 10.0229 9.82898H33.2628C34.0338 9.82898 34.6947 10.4842 34.6947 11.2487C34.6947 11.904 34.0338 12.6685 33.2628 12.6685Z" fill="white"></path><path d="M33.2628 21.4053H10.0229C9.25192 21.4053 8.59106 20.75 8.59106 19.9855C8.59106 19.2211 9.25192 18.5658 10.0229 18.5658H33.2628C34.0338 18.5658 34.6947 19.2211 34.6947 19.9855C34.6947 20.75 34.0338 21.4053 33.2628 21.4053Z" fill="white"></path><path d="M33.2628 30.2513H10.0229C9.25192 30.2513 8.59106 29.5961 8.59106 28.8316C8.59106 28.0671 9.25192 27.4119 10.0229 27.4119H33.2628C34.0338 27.4119 34.6947 28.0671 34.6947 28.8316C34.6947 29.5961 34.0338 30.2513 33.2628 30.2513Z" fill="white"></path><path d="M96.5943 82.9999H62.12C59.6968 82.9999 57.7143 81.0341 57.7143 78.6315V44.4486C57.7143 42.046 59.6968 40.0802 62.12 40.0802H96.5943C99.0175 40.0802 101 42.046 101 44.4486V78.6315C101 81.0341 99.0175 82.9999 96.5943 82.9999Z" fill="black"></path><path d="M88.6641 53.6224L72.1429 69.8947C71.5922 70.4408 70.6009 70.4408 70.0502 69.8947C69.4995 69.3487 69.4995 68.3658 70.0502 67.8197L86.4613 51.5474C87.012 51.0013 88.0033 51.0013 88.554 51.5474C89.2148 52.0934 89.2148 52.9671 88.6641 53.6224Z" fill="white"></path><path d="M70.0502 53.6224L86.5714 69.8947C87.1222 70.4408 88.1134 70.4408 88.6641 69.8947C89.2148 69.3487 89.2148 68.3658 88.6641 67.8197L72.1429 51.5474C71.5922 51.0013 70.6009 51.0013 70.0502 51.5474C69.4995 52.0934 69.4995 52.9671 70.0502 53.6224Z" fill="white"></path><path d="M52.9782 24.2448C52.9782 24.2448 52.8681 24.2448 52.9782 24.2448C52.6478 24.2448 52.4275 23.9172 52.4275 23.6988C52.4275 23.6988 52.4275 23.4804 52.5376 23.0435C52.6478 22.7159 52.8681 22.6067 53.1985 22.6067C53.5289 22.7159 53.6391 22.9343 53.6391 23.262C53.5289 23.4804 53.5289 23.6988 53.5289 23.6988C53.4188 24.0264 53.1985 24.2448 52.9782 24.2448Z" fill="black"></path><path d="M54.5202 20.8593C54.4101 20.8593 54.2999 20.8593 54.1898 20.7501C53.9695 20.5316 53.9695 20.204 54.1898 19.9856C54.4101 19.6579 54.7405 19.4395 55.0709 19.2211C55.2912 19.0027 55.6216 19.1119 55.8419 19.3303C56.0622 19.5487 55.952 19.8764 55.7318 20.0948C55.5115 20.3132 55.181 20.5316 54.9608 20.7501C54.8506 20.7501 54.7405 20.8593 54.5202 20.8593Z" fill="black"></path><path d="M78.2007 25.4461C77.9804 25.4461 77.7601 25.3369 77.65 25.1185C77.5398 24.7908 77.4297 24.4632 77.2094 24.1356C77.0992 23.9172 77.2094 23.5895 77.4297 23.3711C77.65 23.2619 77.9804 23.3711 78.2007 23.5895C78.4209 23.9172 78.5311 24.2448 78.6412 24.5724C78.7514 24.9001 78.6412 25.1185 78.3108 25.2277C78.3108 25.4461 78.2007 25.4461 78.2007 25.4461ZM75.7775 21.8422C75.6674 21.8422 75.4471 21.8422 75.4471 21.733C75.2268 21.5145 74.8964 21.2961 74.6761 21.0777C74.4558 20.8593 74.3457 20.5316 74.566 20.3132C74.7863 20.0948 75.1167 19.9856 75.337 20.204C75.6674 20.4224 75.8877 20.7501 76.2181 20.9685C76.4384 21.1869 76.4384 21.5145 76.2181 21.733C75.9978 21.733 75.8877 21.8422 75.7775 21.8422ZM72.1429 19.4395C72.0327 19.4395 72.0327 19.4395 71.9226 19.4395C71.5922 19.3303 71.2617 19.2211 70.9313 19.1119C70.6009 19.0027 70.4907 18.6751 70.6009 18.4566C70.711 18.129 71.0414 18.0198 71.2617 18.129C71.5922 18.2382 72.0327 18.3474 72.3631 18.5659C72.6936 18.6751 72.8037 19.0027 72.6936 19.3303C72.5834 19.3303 72.3631 19.4395 72.1429 19.4395ZM58.265 18.5659C58.0447 18.5659 57.8244 18.4566 57.7143 18.2382C57.6042 17.9106 57.8244 17.6922 58.0447 17.583C58.3751 17.4737 58.7056 17.3645 59.1461 17.2553C59.4766 17.1461 59.6968 17.3645 59.807 17.6922C59.9171 18.0198 59.6968 18.2382 59.3664 18.3474C59.036 18.4566 58.7056 18.5659 58.3751 18.6751C58.3751 18.5659 58.265 18.5659 58.265 18.5659ZM67.9575 18.2382C67.9575 18.2382 67.8473 18.2382 67.9575 18.2382C67.7372 18.2382 67.5169 18.129 67.4068 18.129L66.8561 18.0198C66.5256 18.0198 66.3053 17.6922 66.4155 17.3645C66.4155 17.0369 66.7459 16.8185 67.0763 16.9277L67.6271 17.0369C67.8473 17.0369 67.9575 17.0369 68.1778 17.1461C68.5082 17.1461 68.7285 17.4737 68.6183 17.8014C68.398 18.129 68.1778 18.2382 67.9575 18.2382ZM62.5605 17.9106C62.2301 17.9106 62.0098 17.6922 62.0098 17.3645C62.0098 17.0369 62.2301 16.8185 62.5605 16.8185C62.7808 16.8185 63.1112 16.8185 63.3315 16.8185H63.6619C63.9924 16.8185 64.2127 17.0369 64.2127 17.3645C64.2127 17.6922 63.9924 17.9106 63.6619 17.9106H63.3315C63.0011 17.9106 62.7808 17.9106 62.5605 17.9106Z" fill="black"></path><path d="M78.9717 29.1592C78.6412 29.1592 78.421 28.9408 78.421 28.6132C78.421 28.3948 78.421 28.2856 78.421 28.0671C78.421 27.7395 78.6412 27.5211 78.8615 27.4119C79.192 27.4119 79.4122 27.6303 79.5224 27.8487C79.5224 28.0671 79.5224 28.1763 79.5224 28.3948C79.5224 28.8316 79.3021 29.05 78.9717 29.1592Z" fill="black"></path><path d="M75.2268 27.3027L78.4209 33.7462L82.4962 27.7396L75.2268 27.3027Z" fill="black"></path></svg> 