<?xml version="1.0" encoding="UTF-8"?> <svg xmlns="http://www.w3.org/2000/svg" width="163" height="89" viewBox="0 0 163 89" fill="none"><path d="M124.833 88.3101H18.4632C8.95606 88.3101 1.37787 80.721 1.37787 71.2C1.37787 61.8171 8.95606 54.09 18.4632 54.09H124.833C134.203 54.09 141.919 61.6791 141.919 71.2C141.781 80.721 134.203 88.3101 124.833 88.3101Z" fill="#999899"></path><path d="M124.833 89H18.4632C8.68048 89 0.688934 80.9969 0.688934 71.2C0.688934 61.4031 8.68048 53.4 18.4632 53.4H124.833C134.616 53.4 142.608 61.4031 142.608 71.2C142.608 80.9969 134.616 89 124.833 89ZM18.4632 54.7799C9.36941 54.7799 2.06679 62.093 2.06679 71.2C2.06679 80.307 9.36941 87.6202 18.4632 87.6202H124.833C133.927 87.6202 141.23 80.307 141.23 71.2C141.23 62.093 133.927 54.7799 124.833 54.7799H18.4632Z" fill="#999899"></path><path d="M152.528 22.9054C152.528 22.4914 152.804 22.2155 153.217 22.2155C153.217 22.2155 153.493 22.2155 154.044 22.3534C154.457 22.3534 154.733 22.7674 154.595 23.1813C154.595 23.5953 154.182 23.8713 153.768 23.7333C153.493 23.7333 153.217 23.7333 153.217 23.7333C152.804 23.5953 152.528 23.3193 152.528 22.9054Z" fill="black"></path><path d="M156.937 24.5612C156.937 24.4233 156.937 24.2853 157.075 24.1473C157.351 23.8713 157.764 23.7333 158.04 24.0093C158.453 24.2853 158.729 24.6992 159.142 24.9752C159.418 25.2512 159.418 25.6651 159.142 25.9411C158.866 26.2171 158.453 26.2171 158.178 25.9411C157.902 25.6651 157.626 25.3892 157.213 25.1132C156.937 24.9752 156.937 24.8372 156.937 24.5612Z" fill="black"></path><path d="M153.493 54.5038C153.493 54.2278 153.631 53.9518 153.906 53.8139C154.32 53.6759 154.733 53.3999 155.008 53.1239C155.284 52.986 155.697 52.986 155.973 53.3999C156.111 53.6759 156.111 54.0898 155.697 54.3658C155.284 54.6418 154.871 54.9177 154.457 55.0557C154.182 55.1937 153.768 55.0557 153.493 54.7798C153.631 54.6418 153.493 54.5038 153.493 54.5038ZM157.764 51.1922C157.764 51.0542 157.764 50.7782 157.902 50.6402C158.178 50.3643 158.453 49.9503 158.729 49.5363C159.004 49.2604 159.418 49.1224 159.693 49.3984C159.969 49.6743 160.107 50.0883 159.831 50.3642C159.555 50.7782 159.28 51.1922 159.004 51.4681C158.729 51.7441 158.315 51.7441 158.04 51.6061C157.902 51.4681 157.764 51.3301 157.764 51.1922ZM160.382 46.3627C160.382 46.2247 160.382 46.2247 160.382 46.0867C160.52 45.6728 160.658 45.2588 160.795 44.8449C160.933 44.4309 161.209 44.2929 161.622 44.2929C162.036 44.4309 162.173 44.7069 162.173 45.1208C162.036 45.5348 161.898 46.0867 161.76 46.5007C161.622 46.9146 161.209 47.0526 160.933 46.9146C160.658 46.9146 160.382 46.6387 160.382 46.3627ZM160.107 28.9767C160.107 28.7007 160.244 28.4247 160.52 28.2867C160.933 28.1487 161.209 28.2867 161.484 28.7007C161.622 29.1146 161.898 29.5286 162.036 30.0805C162.173 30.4945 161.898 30.7705 161.622 30.9084C161.209 31.0464 160.933 30.7705 160.795 30.4945C160.658 30.0805 160.52 29.6666 160.382 29.2526C160.107 29.1146 160.107 28.9767 160.107 28.9767ZM161.484 40.9813C161.484 40.7053 161.484 40.4294 161.484 40.1534V39.4635C161.484 39.0495 161.76 38.7736 162.173 38.7736C162.587 38.7736 162.862 39.1875 162.862 39.4635V40.1534C162.862 40.4294 162.862 40.5674 162.862 40.8433C162.862 41.2573 162.449 41.5332 162.173 41.5332C161.76 41.6712 161.484 41.3953 161.484 40.9813ZM161.484 34.2201C161.484 33.8061 161.76 33.5301 162.036 33.5301C162.449 33.5301 162.724 33.8061 162.862 34.0821C162.862 34.358 162.862 34.634 163 35.048V35.4619C163 35.8759 162.724 36.1518 162.311 36.1518C161.898 36.1518 161.622 35.8759 161.622 35.4619V35.048C161.484 34.772 161.484 34.496 161.484 34.2201Z" fill="black"></path><path d="M148.946 55.8837C148.946 55.4697 149.221 55.1938 149.497 55.1938C149.773 55.1938 149.91 55.1938 150.186 55.0558C150.599 54.9178 150.875 55.1938 151.013 55.6077C151.15 56.0217 150.875 56.2977 150.462 56.4356C150.186 56.4356 150.048 56.5736 149.773 56.5736C149.359 56.5736 149.084 56.2977 148.946 55.8837Z" fill="black"></path><path d="M150.875 51.0542L143.159 55.7457L151.013 60.1612L150.875 51.0542Z" fill="black"></path><path d="M26.0414 69.6822H27.6948C27.8326 69.6822 27.9704 69.6822 27.9704 69.9582C27.9704 70.2342 27.6948 70.2342 27.6948 70.2342H26.0414V70.3721C26.4548 71.0621 26.8681 71.89 27.557 72.7179C27.6948 72.8559 27.6948 72.8559 27.6948 72.9938C27.6948 73.1318 27.557 73.2698 27.4193 73.2698C27.2815 73.2698 27.2815 73.1318 27.1437 72.9938C26.7303 72.4419 26.4548 71.89 26.0414 71.338V76.7194C26.0414 76.8574 26.0414 76.9954 25.7658 76.9954C25.4903 76.9954 25.4903 76.8574 25.4903 76.7194V71.476C24.9391 72.7179 24.2502 73.6838 23.9746 74.0977C23.6991 74.5117 23.5613 74.5117 23.4235 74.5117C23.1479 74.5117 23.1479 74.2357 23.1479 74.0977C23.1479 73.9597 23.1479 73.9597 23.2857 73.8217C24.5258 72.4419 24.9391 71.338 25.3525 70.2342H23.4235C23.2857 70.2342 23.1479 70.2342 23.1479 69.9582C23.1479 69.6822 23.4235 69.6822 23.4235 69.6822H25.3525V67.8884C24.8013 68.0264 23.9746 68.0264 23.5613 68.0264C23.2857 68.0264 23.2857 67.8884 23.2857 67.7504C23.2857 67.4745 23.4235 67.4745 23.5613 67.4745C24.6636 67.4745 25.4903 67.3365 26.5926 67.0605C26.7303 67.0605 27.2815 66.7845 27.4193 66.7845C27.557 66.7845 27.6948 66.9225 27.6948 67.0605C27.6948 67.1985 27.6948 67.3365 27.4193 67.3365C27.1437 67.4745 26.7303 67.6124 26.0414 67.7504V69.6822ZM32.3795 75.2016C31.9662 73.8217 31.5528 73.1318 31.1395 72.0279C31.1395 71.89 31.0017 71.89 31.0017 71.752C31.0017 71.614 31.1395 71.476 31.415 71.476C31.5528 71.476 31.6906 71.476 31.9662 72.1659C32.7929 73.9597 33.4818 76.3055 33.4818 76.5814C33.4818 76.8574 33.2062 76.8574 33.0685 76.8574C32.9307 76.8574 32.7929 76.7194 32.7929 76.7194C32.7929 76.5814 32.5173 75.7535 32.5173 75.6155C31.2773 75.7535 30.0372 75.8915 28.9349 76.1675C28.7971 76.1675 27.2815 76.3055 27.2815 76.3055C27.0059 76.3055 27.0059 76.0295 27.0059 76.0295C27.0059 75.7535 27.1437 75.7535 27.8326 75.6155C28.3838 73.9597 28.5215 73.2698 28.9349 71.338C29.3483 69.1303 29.486 68.3024 29.6238 67.0605C29.6238 66.9225 29.7616 66.7845 29.8994 66.7845C29.8994 66.7845 30.175 66.7845 30.175 67.0605C30.175 67.4745 29.2105 72.8559 28.3838 75.6155C29.7616 75.4776 31.2773 75.2016 32.3795 75.2016Z" fill="black"></path><path d="M25.7659 77.4093C25.6281 77.4093 25.0769 77.4093 25.0769 76.7194V72.9938C24.6636 73.6837 24.388 74.0977 24.2502 74.2356C23.9746 74.6496 23.8369 74.7876 23.4235 74.7876C23.0101 74.7876 22.7346 74.3736 22.7346 74.0977C22.7346 73.8217 22.8724 73.6837 23.0101 73.5457C24.1124 72.4418 24.5258 71.338 24.9391 70.5101H23.5613C23.0101 70.5101 22.8724 70.2341 22.8724 69.9581C22.8724 69.6822 23.0101 69.2682 23.5613 69.2682H25.0769V68.1643C24.6636 68.1643 23.9746 68.3023 23.5613 68.3023C23.1479 68.3023 22.8724 68.0263 22.8724 67.6124C22.8724 67.3364 23.0101 67.0604 23.4235 67.0604C24.5258 67.0604 25.2147 66.9225 26.4548 66.6465C26.4548 66.6465 26.5926 66.6465 26.7303 66.5085C27.1437 66.3705 27.2815 66.3705 27.2815 66.3705C27.5571 66.3705 27.8326 66.6465 27.8326 67.0604C27.8326 67.3364 27.6948 67.4744 27.4193 67.6124C27.1437 67.7504 26.7303 67.8884 26.1792 67.8884V69.1302H27.4193C27.9704 69.1302 28.1082 69.4062 28.1082 69.8201C28.1082 70.0961 27.9704 70.5101 27.4193 70.5101H26.317C26.5926 71.062 27.1437 71.7519 27.6948 72.4418C27.8326 72.5798 27.8326 72.7178 27.8326 72.8558C27.8326 73.2697 27.5571 73.5457 27.1437 73.5457C26.8681 73.5457 26.7303 73.2697 26.5926 73.1318C26.4548 72.9938 26.317 72.7178 26.1792 72.4418V76.5814C26.4548 77.1333 26.0414 77.4093 25.7659 77.4093ZM25.4903 71.062C25.6281 71.062 25.6281 71.062 25.7659 71.2C25.7659 71.062 25.9036 71.062 26.0414 70.924C25.9036 70.786 25.9036 70.648 25.7659 70.3721C25.7659 70.3721 25.7659 70.3721 25.7659 70.2341C25.6281 70.648 25.6281 70.786 25.4903 71.062ZM25.6281 69.9581C25.6281 69.9581 25.7658 69.9581 25.6281 69.9581C25.7658 69.9581 25.7658 70.0961 25.6281 69.9581C25.7658 70.0961 25.7658 69.9581 25.9036 69.9581C25.9036 69.8201 25.7658 69.8201 25.6281 69.9581C25.7658 69.8201 25.7658 69.9581 25.6281 69.9581ZM33.0685 77.2713C32.9307 77.2713 32.6551 77.2713 32.5173 76.8573C32.5173 76.7194 32.3795 76.4434 32.3795 76.1674V76.0294C31.2773 76.1674 30.175 76.3054 29.0727 76.4434L27.4193 76.5814C27.0059 76.5814 26.7303 76.1674 26.7303 75.8915C26.7303 75.3395 27.0059 75.3395 27.6948 75.2015C28.1082 73.6837 28.3838 72.9938 28.6593 71.2C29.0727 69.1302 29.2105 68.3023 29.3483 67.0604V66.9225C29.3483 66.3705 29.7616 66.2325 30.0372 66.2325C30.4505 66.2325 30.7261 66.5085 30.7261 66.9225C30.7261 67.4744 29.8994 72.1659 29.0727 75.0635C30.0372 74.9256 31.1395 74.7876 31.9662 74.7876H32.104C31.6906 73.5457 31.415 72.9938 31.0017 72.0279C31.0017 71.8899 30.8639 71.7519 30.8639 71.6139C30.8639 71.338 31.1395 71.062 31.5528 71.062C31.9662 71.062 32.104 71.338 32.3795 71.8899C33.2063 73.5457 33.8952 76.0294 33.8952 76.4434C33.7574 77.1333 33.344 77.2713 33.0685 77.2713ZM28.1082 75.7535C28.1082 75.8915 27.9704 75.8914 27.9704 76.0294C28.1082 76.0294 28.1082 76.0294 28.246 76.0294C28.246 75.8914 28.1082 75.8915 28.1082 75.7535Z" fill="black"></path><path d="M37.4776 75.4775C37.202 76.1674 37.202 76.1674 36.9265 76.1674C36.7887 76.1674 36.6509 76.0294 36.6509 75.8914C36.6509 75.7534 36.7887 75.3395 36.9265 75.2015C38.1665 72.5798 38.7177 70.3721 38.8555 69.5441C38.3043 69.5441 37.891 69.5441 37.202 69.5441C36.7887 69.5441 36.5131 69.5441 36.5131 69.2682C36.5131 68.9922 36.7887 68.9922 36.7887 68.9922C38.1665 68.9922 38.3043 68.9922 38.8555 68.9922C38.8555 68.7162 39.131 67.4744 39.131 67.3364C39.131 67.1984 39.2688 67.0604 39.4066 67.0604C39.5444 67.0604 39.82 67.0604 39.82 67.3364C39.82 67.6124 39.5444 68.9922 39.4066 68.9922C40.2333 68.8542 40.9222 68.8542 41.7489 68.5783C42.0245 68.5783 42.0245 68.4403 42.1623 68.4403C42.4379 68.4403 42.4379 68.5783 42.4379 68.7162C42.4379 68.9922 42.1623 68.9922 42.0245 68.9922C41.06 69.2682 40.2333 69.2682 39.2688 69.4062C39.131 71.062 38.4421 73.2697 37.4776 75.4775ZM40.7845 73.1317C40.9222 73.1317 41.06 73.2697 41.06 73.4077C41.06 73.5457 41.06 73.6837 40.7845 73.8217C40.6467 73.9597 40.3711 74.3736 40.3711 74.6496C40.3711 75.2015 40.7845 75.3395 40.9222 75.3395C41.6112 75.6155 42.5757 75.6155 42.989 75.6155C43.4024 75.6155 43.9535 75.6155 44.6424 75.4775C44.7802 75.4775 45.0558 75.4775 45.0558 75.4775C45.1936 75.4775 45.3314 75.6155 45.3314 75.7535C45.3314 75.8914 45.1936 76.0294 45.0558 76.0294C44.7802 76.0294 43.8157 76.1674 42.989 76.1674C41.4734 76.1674 39.5444 76.0294 39.5444 74.6496C39.9577 73.9596 40.6467 73.1317 40.7845 73.1317ZM41.6112 70.3721C42.0245 70.3721 42.8512 70.2341 43.5402 70.2341C44.3669 70.2341 45.0558 70.2341 45.1936 70.3721C45.3314 70.3721 45.4692 70.51 45.4692 70.648C45.4692 70.648 45.4692 70.924 45.1936 70.924C45.1936 70.924 44.918 70.924 44.7802 70.924C44.5047 70.924 43.9535 70.924 43.4024 70.924C42.5757 70.924 42.4379 70.924 41.7489 71.062C41.6112 71.062 41.4734 71.062 41.3356 71.062C41.06 71.062 41.06 70.786 41.06 70.786C41.06 70.3721 41.3356 70.3721 41.6112 70.3721Z" fill="black"></path><path d="M43.2646 76.7194C42.3001 76.7194 39.5444 76.7194 39.5444 74.7876C39.5444 73.9597 40.3711 72.8558 40.7844 72.8558C41.1978 72.8558 41.4734 73.1318 41.4734 73.4078C41.4734 73.6837 41.3356 73.8217 41.1978 74.0977C41.06 74.2357 40.9222 74.5116 40.9222 74.6496C40.9222 74.7876 41.06 74.9256 41.1978 75.0636C41.7489 75.3395 42.7134 75.3395 43.1268 75.3395C43.5402 75.3395 44.2291 75.3395 44.7802 75.2016H44.918C45.0558 75.2016 45.1936 75.2016 45.1936 75.2016C45.6069 75.2016 45.8825 75.4775 45.8825 75.8915C45.8825 76.1674 45.7447 76.4434 45.3314 76.5814C45.1936 76.5814 44.0913 76.7194 43.2646 76.7194ZM36.9265 76.4434C36.5131 76.4434 36.2375 76.1674 36.2375 75.7535C36.2375 75.6155 36.2375 75.4775 36.5131 75.0636V74.9256C37.4776 72.7178 38.0287 70.7861 38.3043 69.8202C37.891 69.8202 37.6154 69.8202 37.0642 69.8202C36.6509 69.8202 36.0997 69.8202 36.0997 69.1302C36.0997 68.8543 36.2375 68.4403 36.7887 68.4403C37.891 68.4403 38.1665 68.4403 38.5799 68.4403C38.5799 68.3023 38.5799 68.1644 38.7177 68.0264C38.8555 67.6124 38.8555 67.1985 38.8555 67.0605C38.9932 66.6465 39.131 66.5085 39.5444 66.5085C39.9577 66.5085 40.2333 66.7845 40.2333 67.1985C40.2333 67.3365 40.0955 68.0264 39.9577 68.5783C40.5089 68.5783 41.06 68.4403 41.7489 68.3023H41.8867C42.0245 68.3023 42.1623 68.3023 42.1623 68.3023C42.5757 68.3023 42.8512 68.5783 42.8512 68.9923C42.8512 69.4062 42.4379 69.5442 42.3001 69.6822C41.3356 69.9582 40.6467 69.9582 39.6822 70.0961C39.4066 71.338 38.7177 73.5457 37.7532 75.8915C37.6154 76.3054 37.4776 76.4434 36.9265 76.4434ZM39.131 69.2682C39.131 69.4062 39.131 69.4062 39.131 69.2682C39.2688 69.2682 39.4066 69.1302 39.5444 69.1302C39.5444 69.1302 39.5444 69.1302 39.5444 68.9923C39.2688 69.1302 39.2688 69.2682 39.131 69.2682ZM41.3356 71.338C40.9222 71.338 40.7844 71.062 40.7844 70.7861C40.7844 70.2341 41.3356 70.0961 41.6112 70.0961C42.0245 70.0961 42.8512 69.9582 43.6779 69.9582C44.3669 69.9582 45.1936 69.9582 45.3314 70.0961C45.7447 70.2341 45.7447 70.5101 45.7447 70.6481C45.7447 71.062 45.4691 71.338 45.0558 71.338C44.918 71.338 44.6424 71.338 44.6424 71.338C44.3669 71.338 43.9535 71.338 43.4024 71.338C42.5757 71.338 42.4379 71.338 41.7489 71.476C41.4734 71.338 41.4734 71.338 41.3356 71.338Z" fill="black"></path><path d="M51.2561 72.7178C52.634 71.8899 54.0118 71.476 55.1141 71.476C57.0431 71.476 58.0076 72.5798 58.0076 73.8217C58.0076 74.2357 57.8698 75.4775 56.492 76.0294C55.5275 76.4434 54.563 76.5814 53.5985 76.5814C53.1851 76.5814 52.3584 76.5814 51.5317 76.4434C51.2561 76.4434 50.9806 76.4434 50.9806 76.1674C50.9806 76.0295 51.1183 75.8915 51.2561 75.8915C51.3939 75.8915 51.3939 75.8915 51.5317 75.8915C52.3584 76.0295 52.9096 76.0294 53.4607 76.0294C54.0118 76.0294 57.3187 76.0295 57.3187 73.8217C57.3187 72.8558 56.492 72.1659 54.9763 72.1659C54.1496 72.1659 52.7718 72.4419 51.1183 73.4077C50.8428 73.6837 50.705 73.6837 50.705 73.6837C50.5672 73.6837 50.2916 73.5457 50.2916 73.4077C50.2916 73.2698 50.2916 73.2698 50.5672 72.8558C51.1183 71.476 51.3939 70.3721 51.6695 69.8201C51.1183 69.8201 50.2916 69.8201 49.7405 69.8201C49.4649 69.8201 49.3271 69.8202 49.3271 69.5442C49.3271 69.4062 49.3271 69.2682 49.6027 69.2682C49.7405 69.2682 51.2561 69.2682 51.5317 69.2682H51.9451C52.0828 68.5783 52.2206 68.4403 52.3584 67.7504C52.3584 67.4744 52.4962 67.3364 52.634 67.3364C52.634 67.3364 53.0473 67.3364 53.0473 67.6124C53.0473 67.8884 52.634 69.2682 52.634 69.2682C54.4252 69.2682 55.6653 68.9922 56.2164 68.8543C56.492 68.8543 57.4565 68.5783 57.5943 68.5783C57.8698 68.5783 57.8698 68.8543 57.8698 68.8543C57.8698 69.1302 57.732 69.1302 56.9053 69.2682C56.492 69.2682 54.563 69.6822 52.4962 69.6822C51.8073 71.2 51.5317 71.7519 51.2561 72.7178Z" fill="black"></path><path d="M53.5985 76.8573C53.0473 76.8573 52.3584 76.8573 51.5317 76.7194C51.2561 76.7194 50.705 76.5814 50.705 76.0294C50.705 75.7535 50.9806 75.3395 51.3939 75.3395C51.5317 75.3395 51.5317 75.3395 51.8073 75.3395C52.634 75.4775 53.1851 75.4775 53.7363 75.4775C54.9763 75.4775 57.1809 75.2015 57.1809 73.6837C57.1809 72.8558 56.3542 72.3039 55.2519 72.3039C54.563 72.3039 53.1851 72.4418 51.6695 73.5457C51.2561 73.8217 51.2561 73.8217 50.9806 73.8217C50.705 73.8217 50.2916 73.5457 50.2916 73.1318C50.2916 72.9938 50.2916 72.9938 50.4294 72.5798V72.4418C50.8428 71.4759 51.1183 70.5101 51.2561 69.9581C50.705 69.9581 50.1538 69.9581 49.7405 69.9581C49.4649 69.9581 48.9138 69.9581 48.9138 69.2682C48.9138 68.8542 49.1893 68.5783 49.6027 68.5783C49.6027 68.5783 49.8783 68.5783 50.1538 68.5783C50.705 68.5783 51.3939 68.5783 51.5317 68.5783H51.6695C51.8073 68.0263 51.8073 67.8883 51.9451 67.3364C51.9451 67.0604 52.0828 66.6465 52.634 66.6465C52.9095 66.6465 53.3229 66.7845 53.3229 67.3364C53.3229 67.4744 53.1851 67.8883 53.0473 68.7163C54.563 68.5783 55.6653 68.4403 56.0786 68.4403H56.2164C57.4565 68.1643 57.4565 68.1643 57.4565 68.1643C57.8698 68.1643 58.1454 68.4403 58.1454 68.8542C58.1454 69.4062 57.732 69.5442 56.9053 69.6821C55.3897 69.9581 54.0118 70.0961 52.7718 70.0961C52.4962 71.062 52.2206 71.6139 52.0828 72.0279C53.1851 71.4759 54.2874 71.2 55.2519 71.2C57.4565 71.2 58.5587 72.5798 58.5587 73.8217C58.5587 74.3736 58.421 75.6155 56.7675 76.4434C55.803 76.7194 54.8385 76.8573 53.5985 76.8573ZM50.9806 72.8558C50.8428 73.1318 50.8428 73.1318 50.8428 73.2697C50.8428 73.2697 50.9806 73.1318 51.1183 73.1318C51.1183 72.9938 51.1183 72.9938 50.9806 72.8558ZM51.9451 69.2682C51.9451 69.2682 51.9451 69.4062 51.9451 69.2682C51.9451 69.4062 51.9451 69.4062 51.9451 69.2682C52.0828 69.2682 52.2206 69.1302 52.3584 69.1302C52.3584 69.1302 52.3584 69.1302 52.3584 68.9922C52.0828 69.2682 52.0828 69.2682 51.9451 69.2682Z" fill="black"></path><path d="M63.1057 67.7505C63.1057 67.6125 63.2434 67.4745 63.3812 67.4745C63.519 67.4745 63.6568 67.4745 63.6568 67.7505C63.6568 67.8884 63.6568 68.0264 63.6568 68.0264C63.2434 69.5443 63.1057 71.0621 63.1057 72.5799C63.1057 73.2698 63.1057 74.3737 63.3812 75.3396C63.3812 75.3396 63.519 75.8915 63.519 76.0295C63.519 76.1675 63.3812 76.3055 63.2434 76.3055C62.9679 76.3055 62.9679 76.1675 62.9679 76.0295C62.8301 75.7536 62.5545 74.5117 62.5545 72.4419C62.5545 70.9241 62.8301 68.4404 63.1057 67.7505ZM66.2747 72.4419C66.4125 72.4419 66.5503 72.5799 66.5503 72.7179C66.5503 72.8559 66.5503 72.8559 66.4125 72.9939C66.2747 73.2698 65.8614 73.5458 65.8614 73.9598C65.8614 74.7877 66.6881 75.0636 68.4793 75.0636C69.0304 75.0636 69.5816 75.0636 70.1327 74.9257C70.2705 74.9257 70.8216 74.7877 70.8216 74.7877C70.8216 74.7877 71.235 74.7877 71.235 75.0636C71.235 75.2016 71.235 75.3396 70.9594 75.3396C70.6838 75.4776 69.5816 75.4776 68.6171 75.4776C67.1014 75.4776 65.3102 75.3396 65.3102 73.8218C65.3102 73.2698 65.9991 72.4419 66.2747 72.4419ZM70.4083 69.1303C70.4083 69.1303 69.0304 69.1303 68.7549 69.1303C67.7904 69.1303 67.1014 69.1303 66.6881 69.2683C66.5503 69.2683 66.1369 69.2683 65.9992 69.2683C65.7236 69.2683 65.7236 68.9923 65.7236 68.9923C65.7236 68.8543 65.7236 68.7163 65.9992 68.7163C66.1369 68.7163 67.6526 68.5784 68.4793 68.5784C68.7549 68.5784 70.2705 68.5784 70.4083 68.7163C70.5461 68.7163 70.5461 68.8543 70.5461 68.9923C70.6838 68.9923 70.6838 69.1303 70.4083 69.1303Z" fill="black"></path><path d="M63.2434 76.7194C62.9679 76.7194 62.6923 76.5814 62.5545 76.1675C62.5545 76.0295 62.1412 74.7876 62.1412 72.4419C62.1412 70.9241 62.5545 68.3024 62.6923 67.6124C62.8301 67.1985 63.1057 67.1985 63.3812 67.1985C63.6568 67.1985 64.0702 67.4745 64.0702 67.8884C64.0702 68.0264 64.0702 68.1644 64.0702 68.3024C63.6568 69.8202 63.519 71.2 63.519 72.7179C63.519 73.6838 63.6568 74.6496 63.7946 75.3396C63.7946 75.3396 63.9324 75.8915 63.9324 76.0295C63.9324 76.4434 63.6568 76.7194 63.2434 76.7194ZM68.7549 76.1675C67.6526 76.1675 65.0347 76.1675 65.0347 74.0977C65.0347 73.2698 65.7236 72.1659 66.2747 72.1659C66.5503 72.1659 66.9636 72.4419 66.9636 72.7179C66.9636 72.8558 66.9636 72.9938 66.8259 73.1318C66.6881 73.4078 66.4125 73.6837 66.4125 73.9597C66.4125 74.2357 66.4125 74.6496 68.7549 74.6496C69.306 74.6496 69.8571 74.6496 70.2705 74.5117H70.4083C70.6838 74.5117 70.9594 74.5117 70.9594 74.5117C71.3728 74.5117 71.6483 74.7876 71.6483 75.2016C71.6483 75.4775 71.5106 75.7535 71.235 75.8915C70.8216 76.0295 69.7194 76.1675 68.7549 76.1675ZM66.1369 69.5442C65.7236 69.5442 65.448 69.2683 65.448 68.8543C65.448 68.4403 65.7236 68.3024 65.9992 68.1644C66.2747 68.1644 67.6526 68.0264 68.4793 68.0264C70.2705 68.0264 70.5461 68.1644 70.5461 68.1644C70.6839 68.1644 70.9594 68.3024 70.9594 68.7163C70.9594 69.1303 70.6838 69.4062 70.2705 69.4062C70.2705 69.4062 70.1327 69.4062 69.9949 69.4062C69.5816 69.4062 68.7549 69.4062 68.6171 69.4062C67.7904 69.4062 67.2392 69.4062 66.6881 69.5442H66.4125H66.1369ZM70.4083 68.8543V69.1303V68.8543ZM70.4083 68.8543C70.4083 68.7163 70.4083 68.7163 70.4083 68.8543V68.8543Z" fill="black"></path><path d="M77.7109 68.7162C78.3998 68.5782 79.5021 68.3022 80.4666 68.3022C83.0845 68.3022 84.1868 69.9581 84.1868 71.7519C84.1868 74.9255 81.1555 75.4774 80.4666 75.6154C79.2265 75.8914 77.8487 75.8914 77.8487 75.8914C77.7109 75.8914 77.4353 75.8914 77.4353 75.4774C77.4353 75.2015 77.7109 75.2015 77.8487 75.2015C78.3998 75.2015 78.8132 75.2015 79.3643 75.2015C80.0533 75.0635 83.4979 74.7875 83.4979 71.7519C83.4979 70.786 82.9467 68.9922 80.4666 68.9922C79.5021 68.9922 78.262 69.2681 76.3331 69.8201C76.1953 69.8201 75.2308 70.096 75.093 70.096C74.8174 70.096 74.8174 69.8201 74.8174 69.6821C74.8174 69.4061 75.093 69.4061 75.2308 69.2681L77.7109 68.7162Z" fill="black"></path><path d="M77.8487 76.1674C77.1598 76.1674 77.022 75.7535 77.022 75.4775C77.022 75.3395 77.022 74.7876 77.8487 74.7876C78.262 74.7876 78.8132 74.7876 79.2265 74.7876C80.88 74.6496 82.9467 73.9597 82.9467 71.7519C82.9467 71.2 82.809 69.4062 80.191 69.4062C79.2265 69.4062 77.9865 69.6821 76.1953 70.2341C76.1953 70.2341 75.093 70.648 74.9552 70.648C74.5418 70.648 74.2663 70.3721 74.2663 69.9581C74.2663 69.4062 74.8174 69.2682 74.9552 69.2682L77.5731 68.5783C78.5376 68.3023 79.5021 68.1643 80.3288 68.1643C83.0845 68.1643 84.4624 70.0961 84.4624 71.8899C84.4624 74.0976 83.0845 75.6155 80.4666 76.1674C79.2265 76.1674 77.9865 76.1674 77.8487 76.1674ZM78.1243 75.4775C77.9865 75.4775 77.7109 75.4775 77.7109 75.4775H77.8487C77.8487 75.4775 77.9865 75.4775 78.1243 75.4775ZM83.6357 72.8558C83.3601 73.5457 82.9467 74.2356 82.12 74.6496C82.809 74.2356 83.3601 73.6837 83.6357 72.8558ZM75.9197 69.5442L75.093 69.6821C75.093 69.6821 74.9552 69.6821 74.9552 69.8201C75.093 69.8201 75.6441 69.5442 75.9197 69.5442Z" fill="black"></path><path d="M89.0093 68.1644C89.0093 68.4404 88.8715 68.7163 88.8715 68.9923C88.7337 69.9582 88.7337 70.6481 88.7337 71.0621C88.7337 73.8218 89.5604 75.4776 90.3871 75.4776C90.9383 75.4776 91.6272 74.2357 91.9028 73.2698C92.0406 72.8559 92.0406 72.7179 92.3161 72.7179C92.4539 72.7179 92.5917 72.8559 92.5917 72.9939C92.5917 73.1318 91.6272 76.1675 90.2494 76.1675C89.2849 76.1675 88.0448 74.5117 88.0448 71.0621C88.0448 69.6822 88.1826 68.4404 88.3204 68.1644C88.3204 68.0264 88.4582 67.8884 88.5959 67.8884C88.7337 67.8884 89.0093 67.8884 89.0093 68.1644ZM96.1741 70.3721C96.5875 71.476 97.0009 72.7179 97.0009 73.9597C97.0009 74.2357 97.0009 74.5117 96.5875 74.5117C96.3119 74.5117 96.3119 74.2357 96.3119 73.9597C96.3119 73.4078 96.1741 71.338 94.9341 69.5442C94.6585 68.9923 94.5207 68.9923 94.5207 68.9923C94.5207 68.8543 94.6585 68.7163 94.7963 68.7163C95.2096 68.5783 96.0364 69.9582 96.1741 70.3721Z" fill="black"></path><path d="M90.2494 76.5814C89.0093 76.5814 87.6314 74.6496 87.6314 71.062C87.6314 69.6822 87.7692 68.4403 87.907 68.1644C88.0448 67.6124 88.4582 67.6124 88.5959 67.6124C89.0093 67.6124 89.2849 67.8884 89.2849 68.3023C89.2849 68.4403 89.2849 68.7163 89.1471 68.9923C89.1471 69.1303 89.1471 69.1303 89.1471 69.2682C89.0093 69.9582 89.0093 70.6481 89.0093 71.338C89.0093 74.0977 89.836 75.3396 90.2494 75.3396C90.3871 75.3396 90.9383 74.9256 91.4894 73.4078C91.6272 72.9938 91.765 72.7179 92.1784 72.7179C92.5917 72.7179 92.8673 72.9938 92.8673 73.2698C92.8673 73.2698 92.0406 76.5814 90.2494 76.5814ZM89.836 75.6155C90.1116 75.8915 90.3872 75.8915 90.6627 75.7535C90.5249 75.7535 90.3871 75.7535 90.3871 75.7535C90.1116 75.7535 89.9738 75.7535 89.836 75.6155ZM88.5959 68.1644C88.5959 68.3024 88.5959 68.4403 88.4581 68.7163C88.4581 68.7163 88.4581 68.7163 88.4581 68.5783C88.5959 68.4403 88.5959 68.3024 88.5959 68.1644ZM96.5875 74.7876C96.0363 74.7876 95.8986 74.2357 95.8986 73.9597C95.7608 72.3039 95.3474 70.7861 94.6585 69.6822L94.5207 69.4062C94.3829 69.1303 94.2451 68.9923 94.2451 68.8543C94.2451 68.4403 94.5207 68.1644 94.9341 68.1644C95.623 68.1644 96.4497 69.8202 96.5875 70.2341C97.1386 71.338 97.4142 72.7179 97.4142 73.9597C97.2764 74.6496 96.8631 74.7876 96.5875 74.7876ZM96.4497 72.1659C96.5875 72.5799 96.5875 72.8558 96.5875 73.2698C96.5875 72.9938 96.4497 72.5799 96.4497 72.1659Z" fill="black"></path><path d="M100.859 68.9923C100.721 68.9923 100.583 68.9923 100.583 68.9923C100.308 68.9923 100.308 68.8543 100.308 68.5783C100.308 68.3023 100.445 68.3023 100.583 68.3023C100.583 68.3023 101.686 68.1644 101.823 68.1644L109.264 67.6124H109.677C109.815 67.6124 109.953 67.6124 109.953 68.0264C109.953 68.3023 109.815 68.3023 109.264 68.4403C106.921 68.7163 104.166 70.3721 104.166 72.7178C104.166 74.2357 105.268 75.2016 107.197 75.6155C107.886 75.7535 107.886 75.7535 107.886 76.0295C107.886 76.0295 107.886 76.4434 107.473 76.4434C107.197 76.4434 106.232 76.1675 105.544 75.8915C104.992 75.6155 103.339 74.7876 103.339 72.7178C103.339 70.7861 104.717 69.2682 107.059 68.3023L100.859 68.9923Z" fill="black"></path><path d="M107.335 76.7194C106.921 76.7194 105.957 76.4434 105.268 76.1675C103.339 75.3396 102.926 73.8217 102.926 72.7179C102.926 71.2 103.752 69.9582 105.268 68.8543L100.997 69.2683C100.859 69.2683 100.721 69.2683 100.583 69.2683C100.17 69.2683 99.8943 68.9923 99.8943 68.5783C99.8943 68.4403 99.8944 68.0264 100.308 67.8884C100.445 67.8884 101.686 67.7504 101.686 67.7504L108.988 67.1985H109.402C109.953 67.1985 110.09 67.6124 110.09 67.8884C110.09 68.4403 109.677 68.5783 108.988 68.5783C106.646 68.8543 104.303 70.5101 104.303 72.4419C104.303 73.8217 105.13 74.6496 107.059 75.0636C107.748 75.2016 108.024 75.3396 108.024 75.7535C108.161 76.3055 107.886 76.7194 107.335 76.7194ZM106.232 75.7535C106.646 75.8915 107.059 76.0295 107.335 76.0295C107.197 76.0295 107.197 76.0295 107.059 76.0295C106.646 75.8915 106.37 75.8915 106.232 75.7535ZM100.583 68.7163C100.583 68.7163 100.721 68.7163 100.859 68.7163H101.548C101.272 68.7163 100.859 68.7163 100.583 68.7163ZM107.335 68.1644C107.335 68.3024 107.473 68.3024 107.335 68.1644C107.335 68.3024 107.335 68.3024 107.335 68.4403C107.886 68.3024 108.299 68.1644 108.85 68.0264L107.335 68.1644Z" fill="black"></path><path d="M121.94 78.2372C121.664 78.2372 121.251 78.0992 120.975 77.8232C120.424 77.2713 120.424 76.4434 120.838 75.8915L124.971 71.338L120.975 67.4744C120.424 66.9225 120.424 66.0946 120.975 65.5426C121.527 64.9907 122.353 64.9907 122.904 65.5426L128.003 70.2341C128.554 70.786 128.554 71.6139 128.14 72.1659L123.042 77.6853C122.629 77.9612 122.216 78.2372 121.94 78.2372Z" fill="#4C4B4C"></path><path d="M124.833 36.9798H18.4632C8.26712 36.9798 0 28.7008 0 18.4899C0 8.27907 8.26712 0 18.4632 0H124.833C135.03 0 143.297 8.27907 143.297 18.4899C143.297 28.7008 134.892 36.9798 124.833 36.9798ZM18.4632 2.75969C9.78275 2.75969 2.75571 9.7969 2.75571 18.4899C2.75571 27.1829 9.78275 34.2202 18.4632 34.2202H124.833C133.514 34.2202 140.541 27.1829 140.541 18.4899C140.541 9.7969 133.376 2.75969 124.833 2.75969H18.4632Z" fill="#040000"></path><path d="M31.8284 20.5597L30.8639 23.1814C30.8639 23.3194 30.7261 23.4574 30.4506 23.4574C30.3128 23.4574 30.0372 23.3194 30.0372 23.1814C30.0372 23.0434 30.0372 23.0434 30.0372 22.9055L33.2063 14.9024C33.344 14.7644 33.4818 14.4884 33.7574 14.4884C34.1708 14.4884 34.3085 14.7644 34.3085 14.9024L37.4776 22.9055C37.4776 23.0434 37.6154 23.0434 37.6154 23.1814C37.6154 23.3194 37.3398 23.4574 37.202 23.4574C36.9265 23.4574 36.9265 23.3194 36.9265 23.1814L35.962 20.5597H31.8284ZM35.6864 20.0078L33.8952 15.3163L32.104 20.0078H35.6864Z" fill="black"></path><path d="M37.202 23.8714C36.7887 23.8714 36.6509 23.4574 36.5131 23.3194L35.5486 20.9737H31.9662L31.0017 23.3194C31.0017 23.4574 30.7261 23.8714 30.3128 23.8714C29.8994 23.8714 29.6238 23.5954 29.6238 23.1814C29.6238 23.0435 29.6238 22.9055 29.6238 22.9055V22.7675L32.7929 14.7644C33.0685 14.2124 33.344 14.0745 33.7574 14.0745C34.1708 14.0745 34.4463 14.2124 34.7219 14.7644L37.891 22.7675C37.891 22.9055 38.0287 23.0435 38.0287 23.1814C38.0287 23.5954 37.6154 23.8714 37.202 23.8714ZM35.8242 20.2838C36.0997 20.2838 36.2375 20.4217 36.2375 20.5597L37.202 23.1814V23.3194V23.1814L34.5841 16.4202L35.962 20.0078C35.962 19.8698 35.962 20.0078 35.8242 20.2838C35.962 20.1458 35.8242 20.1458 35.8242 20.2838ZM33.344 15.8683L30.4506 23.0435C30.4506 23.1814 30.4506 23.1814 30.4506 23.1814C30.4506 23.1814 30.4506 23.1814 30.5883 23.0435L31.5528 20.4218C31.5528 20.2838 31.6906 20.1458 31.8284 20.1458H31.9662C31.9662 20.1458 31.8284 20.1458 31.8284 20.0078C31.8284 19.8698 31.6906 19.7318 31.8284 19.7318L33.344 15.8683ZM32.5173 19.5938H35.1353L33.8952 16.2822L32.5173 19.5938ZM33.8952 14.9024C33.7574 14.9024 33.7574 14.9024 33.6196 15.1783V15.3163C33.6196 15.0404 33.7574 14.9024 33.8952 14.9024C34.033 15.0404 34.1708 15.0404 34.1708 15.1783V15.0404C34.033 14.9024 34.033 14.9024 33.8952 14.9024Z" fill="black"></path><path d="M41.749 23.3195C40.7845 23.3195 40.7845 22.6296 40.7845 22.2156V15.7303C40.7845 15.3164 40.7845 14.6265 41.749 14.6265H43.4024C44.2291 14.6265 46.2959 14.6265 46.2959 16.6962C46.2959 18.0761 45.4692 18.49 44.918 18.766C45.4692 18.904 46.5714 19.3179 46.5714 20.9738C46.5714 23.3195 44.2291 23.3195 43.5402 23.3195H41.749ZM43.4024 18.49C43.9535 18.49 45.4692 18.49 45.4692 16.8342C45.4692 15.3164 44.2291 15.3164 43.2646 15.3164H41.8867C41.6112 15.3164 41.4734 15.4544 41.4734 15.7303V18.49H43.4024ZM41.4734 22.2156C41.4734 22.6296 41.6112 22.6296 41.8867 22.6296H43.2646C44.0913 22.6296 45.7447 22.6296 45.7447 20.9738C45.7447 19.18 44.0913 19.18 43.4024 19.18H41.4734V22.2156Z" fill="black"></path><path d="M43.4024 23.5954H41.7489C40.9222 23.5954 40.3711 23.0435 40.3711 22.2156V15.7303C40.3711 14.7644 40.7844 14.3505 41.7489 14.3505H43.4024C44.2291 14.3505 46.5714 14.3505 46.5714 16.8342C46.5714 17.9381 46.1581 18.49 45.6069 18.766C46.1581 19.0419 46.847 19.7319 46.847 20.9737C46.847 22.7675 45.7447 23.5954 43.4024 23.5954ZM41.4734 15.0404C41.06 15.0404 41.06 15.3164 41.06 15.7303V22.2156C41.06 22.6295 41.1978 22.9055 41.4734 22.9055C41.1978 22.7675 41.06 22.6295 41.06 22.2156V19.1799C41.06 19.0419 41.1978 18.904 41.1978 18.904C41.06 18.904 41.06 18.766 41.06 18.628V15.8683C41.06 15.3164 41.1978 15.1784 41.4734 15.0404ZM45.8825 20.0078C46.0203 20.2838 46.0203 20.5598 46.0203 20.9737C46.0203 21.6636 45.8825 22.0776 45.6069 22.3536C45.8825 22.0776 46.1581 21.6636 46.1581 20.9737C46.1581 20.5598 46.0203 20.2838 45.8825 20.0078ZM41.7489 22.3536C41.8867 22.3536 41.8867 22.3536 41.7489 22.3536H43.2646C44.3669 22.3536 45.3314 22.2156 45.3314 20.9737C45.3314 19.5939 44.3669 19.4559 43.2646 19.4559H41.6112L41.7489 22.3536C41.7489 22.2156 41.7489 22.2156 41.7489 22.3536ZM43.9535 18.766C44.2291 18.766 44.3669 18.766 44.5046 18.904C44.5046 18.904 44.5046 18.904 44.5046 18.766V18.628C44.3669 18.766 44.2291 18.766 43.9535 18.766ZM41.7489 18.076H43.2646C44.5046 18.076 45.0558 17.6621 45.0558 16.8342C45.0558 15.7303 44.3669 15.5923 43.1268 15.5923H41.7489H41.6112C41.6112 15.5923 41.6112 15.5923 41.6112 15.7303V18.076H41.7489ZM45.1936 15.3164C45.6069 15.5923 45.8825 16.0063 45.8825 16.8342C45.8825 16.9722 45.8825 17.1102 45.8825 17.3861C45.8825 17.2481 46.0203 16.9722 46.0203 16.8342C45.8825 16.0063 45.6069 15.5923 45.1936 15.3164Z" fill="black"></path><path d="M53.8741 14.4884C56.3542 14.4884 58.2832 16.4202 58.2832 19.0419C58.2832 21.6636 56.492 23.4574 53.8741 23.4574C51.3939 23.4574 49.4649 21.5256 49.4649 18.9039C49.4649 16.2822 51.3939 14.4884 53.8741 14.4884ZM53.8741 22.7675C56.0786 22.7675 57.5943 21.1117 57.5943 18.9039C57.5943 16.6962 56.0786 15.1783 53.8741 15.1783C51.8073 15.1783 50.1539 16.8341 50.1539 19.0419C50.1539 21.2496 51.8073 22.7675 53.8741 22.7675Z" fill="black"></path><path d="M53.8741 23.8713C51.1184 23.8713 49.0516 21.8016 49.0516 19.0419C49.0516 16.2822 51.1184 14.2124 53.8741 14.2124C56.6298 14.2124 58.6965 16.2822 58.6965 19.0419C58.6965 21.8016 56.6298 23.8713 53.8741 23.8713ZM55.6653 15.1783C57.0431 15.8682 57.8698 17.2481 57.8698 18.9039C57.8698 20.5597 56.9053 21.9395 55.6653 22.6295C57.0431 21.9395 58.0076 20.5597 58.0076 18.9039C58.0076 17.2481 57.1809 15.8682 55.6653 15.1783ZM52.0829 15.1783C50.705 15.8682 49.7405 17.2481 49.7405 18.9039C49.7405 20.5597 50.705 22.0775 52.0829 22.6295C50.705 21.9395 49.8783 20.5597 49.8783 18.9039C49.8783 17.2481 50.705 15.8682 52.0829 15.1783ZM53.8741 15.4543C51.9451 15.4543 50.4294 16.9721 50.4294 18.9039C50.4294 20.8357 51.9451 22.3535 53.8741 22.3535C55.8031 22.3535 57.3187 20.8357 57.3187 18.9039C57.3187 16.9721 55.8031 15.4543 53.8741 15.4543Z" fill="black"></path><path d="M61.7278 14.9024C61.7278 14.6264 62.0034 14.4884 62.1412 14.4884C62.4167 14.4884 62.5545 14.6264 62.5545 14.9024V19.5938C62.5545 20.9737 62.6923 22.9055 65.448 22.9055C68.2037 22.9055 68.3415 20.9737 68.3415 19.5938V14.9024C68.3415 14.6264 68.6171 14.4884 68.7549 14.4884C69.0304 14.4884 69.1682 14.6264 69.1682 14.9024V19.5938C69.1682 20.8357 69.0304 23.4574 65.5858 23.4574C62.1412 23.4574 62.0034 20.8357 62.0034 19.5938V14.9024H61.7278Z" fill="black"></path><path d="M65.3102 23.8713C61.4522 23.8713 61.4522 20.8357 61.4522 19.5938V14.9023C61.4522 14.4884 61.8656 14.2124 62.1412 14.2124C62.5545 14.2124 62.8301 14.4884 62.8301 14.9023V19.5938C62.8301 21.1116 62.9679 22.4915 65.3102 22.4915C67.6526 22.4915 67.7904 21.1116 67.7904 19.5938V14.9023C67.7904 14.4884 68.2037 14.2124 68.4793 14.2124C68.8926 14.2124 69.1682 14.4884 69.1682 14.9023V19.5938C69.306 20.6977 69.306 23.8713 65.3102 23.8713ZM62.1412 14.9023V19.5938C62.1412 20.8357 62.279 22.0775 63.3812 22.6295C62.1412 21.8016 62.1412 20.2837 62.1412 19.4558V14.9023ZM68.6171 14.9023V19.5938C68.6171 20.4217 68.6171 21.8016 67.5148 22.6295C68.6171 21.8016 68.6171 20.4217 68.6171 19.5938V14.9023Z" fill="black"></path><path d="M75.7819 23.1815C75.7819 23.4574 75.5063 23.5954 75.3685 23.5954C75.093 23.5954 74.9552 23.4574 74.9552 23.1815V15.3163H72.1995C71.9239 15.3163 71.9239 15.1784 71.9239 15.0404C71.9239 14.9024 72.0617 14.7644 72.1995 14.7644H78.5376C78.8132 14.7644 78.8132 15.0404 78.8132 15.0404C78.8132 15.1784 78.6754 15.3163 78.5376 15.3163H75.7819V23.1815Z" fill="black"></path><path d="M75.3685 23.8714C74.9552 23.8714 74.6796 23.5954 74.6796 23.1815V15.7303H72.1995C71.7861 15.7303 71.5106 15.3164 71.5106 15.0404C71.5106 14.6264 71.7861 14.3505 72.1995 14.3505H78.5376C78.951 14.3505 79.2265 14.7644 79.2265 15.0404C79.2265 15.4543 78.951 15.7303 78.5376 15.7303H76.0575V23.1815C76.0575 23.5954 75.7819 23.8714 75.3685 23.8714ZM75.093 15.0404C75.2308 15.0404 75.3685 15.1784 75.3685 15.3164V23.1815V15.3164C75.3685 15.1784 75.5063 15.0404 75.6441 15.0404H75.093Z" fill="black"></path><path d="M87.3559 14.9024C87.3559 14.6264 87.6315 14.4884 87.7693 14.4884C88.0448 14.4884 88.1826 14.6264 88.1826 14.9024V19.5938C88.1826 20.9737 88.3204 22.9055 91.0761 22.9055C93.8318 22.9055 93.9696 20.9737 93.9696 19.5938V14.9024C93.9696 14.6264 94.2452 14.4884 94.3829 14.4884C94.6585 14.4884 94.7963 14.6264 94.7963 14.9024V19.5938C94.7963 20.8357 94.6585 23.4574 91.2139 23.4574C87.7692 23.4574 87.6315 20.8357 87.6315 19.5938V14.9024H87.3559Z" fill="black"></path><path d="M90.9383 23.8713C87.0803 23.8713 87.0803 20.8357 87.0803 19.5938V14.9023C87.0803 14.4884 87.4937 14.2124 87.7692 14.2124C88.1826 14.2124 88.4582 14.4884 88.4582 14.9023V19.5938C88.4582 21.1116 88.596 22.4915 90.9383 22.4915C93.2807 22.4915 93.4184 21.1116 93.4184 19.5938V14.9023C93.4184 14.4884 93.8318 14.2124 94.1074 14.2124C94.5207 14.2124 94.7963 14.4884 94.7963 14.9023V19.5938C94.7963 20.6977 94.7963 23.8713 90.9383 23.8713ZM87.6315 14.9023V19.5938C87.6315 20.8357 87.7692 22.0775 88.8715 22.6295C87.6315 21.8016 87.6315 20.2837 87.6315 19.4558V14.9023ZM94.1074 14.9023V19.5938C94.1074 20.4217 94.1074 21.8016 93.0051 22.6295C94.1074 21.8016 94.1074 20.4217 94.1074 19.5938V14.9023Z" fill="black"></path><path d="M98.3787 22.4915C98.9299 22.7675 99.481 22.9055 100.032 22.9055C100.997 22.9055 102.237 22.4915 102.237 21.1117C102.237 19.8698 101.272 19.5938 100.308 19.1799C99.3432 18.7659 97.9654 18.352 97.9654 16.8341C97.9654 15.5923 98.9299 14.4884 100.445 14.4884C100.997 14.4884 101.548 14.6264 102.099 14.9024C102.237 14.9024 102.374 15.0403 102.374 15.1783C102.374 15.3163 102.237 15.4543 102.099 15.4543C102.099 15.4543 101.961 15.4543 101.686 15.3163C101.41 15.1783 100.997 15.0403 100.445 15.0403C99.2054 15.0403 98.6543 15.8682 98.6543 16.6962C98.6543 17.8 99.481 18.076 100.583 18.49C101.686 18.9039 102.926 19.3179 102.926 20.9737C102.926 22.6295 101.548 23.4574 100.032 23.4574C98.9299 23.4574 98.2409 23.1814 98.1031 23.0434C97.9654 22.9055 97.8276 22.9055 97.8276 22.6295C97.8276 22.4915 97.9654 22.3535 98.1031 22.3535C97.9654 22.3535 98.1031 22.3535 98.3787 22.4915Z" fill="black"></path><path d="M99.8943 23.8714C98.7921 23.8714 98.1031 23.5954 97.8276 23.4574C97.6898 23.3195 97.2764 23.1815 97.2764 22.7675C97.2764 22.3536 97.552 22.0776 97.9654 22.0776C98.1031 22.0776 98.2409 22.0776 98.3787 22.2156H98.5165C98.9299 22.4916 99.481 22.4916 99.8943 22.4916C100.308 22.4916 101.823 22.3536 101.823 21.1117C101.823 20.1458 101.272 19.8698 100.17 19.5939C99.0676 19.1799 97.552 18.766 97.552 16.9722C97.552 15.5923 98.5165 14.3505 100.445 14.3505C100.997 14.3505 101.548 14.4884 102.237 14.7644C102.512 14.9024 102.65 15.1784 102.65 15.4543C102.65 15.8683 102.374 16.1443 101.961 16.1443C101.823 16.1443 101.686 16.1443 101.41 16.0063C101.272 15.8683 100.859 15.7303 100.308 15.7303C99.3432 15.7303 98.7921 16.4202 98.7921 17.1102C98.7921 17.9381 99.3432 18.214 100.445 18.49C101.548 18.904 103.063 19.4559 103.063 21.2497C103.201 22.6295 101.823 23.8714 99.8943 23.8714ZM101.823 19.4559C102.237 19.7319 102.512 20.2838 102.512 20.9737C102.512 21.5257 102.237 22.0776 101.961 22.3536C102.374 22.0776 102.512 21.5257 102.512 20.9737C102.512 20.2838 102.237 19.8698 101.823 19.4559ZM98.9299 15.3164C98.5165 15.7303 98.2409 16.2822 98.2409 16.8342C98.2409 17.5241 98.5165 17.9381 99.0676 18.214C98.6543 17.9381 98.2409 17.5241 98.2409 16.6962C98.2409 16.2822 98.5165 15.7303 98.9299 15.3164ZM101.961 15.1784L102.099 14.9024L101.961 15.1784Z" fill="black"></path><path d="M121.94 25.3892C121.664 25.3892 121.251 25.2512 120.975 24.9752C120.424 24.4233 120.424 23.5954 120.838 23.0434L124.971 18.4899L120.975 14.6264C120.424 14.0744 120.424 13.2465 120.975 12.6946C121.527 12.1427 122.353 12.1427 122.904 12.6946L128.003 17.3861C128.554 17.938 128.554 18.7659 128.14 19.3179L123.042 24.8372C122.629 25.2512 122.216 25.3892 121.94 25.3892Z" fill="#4C4B4C"></path></svg> 