<?xml version="1.0" encoding="UTF-8"?> <svg xmlns="http://www.w3.org/2000/svg" width="208" height="35" viewBox="0 0 208 35" fill="none"><g clip-path="url(#clip0)"><path d="M50.9103 15.3234C50.736 15.1492 50.3873 14.9751 50.2129 14.9751C49.8642 14.9751 49.6899 15.1492 49.5155 15.3234L46.7259 19.6766L45.1568 17.9353C44.9824 17.7612 44.6337 17.587 44.4594 17.587C44.1107 17.587 43.9363 17.7612 43.762 17.9353L41.1467 21.9403H55.4434L50.9103 15.3234Z" fill="#4C4B4C"></path><path d="M44.9824 16.194C46.0285 16.194 46.7259 15.3234 46.7259 14.4527C46.7259 13.4079 45.8541 12.7114 44.9824 12.7114C43.9363 12.7114 43.2389 13.5821 43.2389 14.4527C43.2389 15.3234 43.9363 16.194 44.9824 16.194Z" fill="#4C4B4C"></path><path d="M68.171 34.1293H26.85C24.4091 34.1293 22.3169 32.0398 22.3169 29.602V5.39797C22.3169 2.96016 24.4091 0.870605 26.85 0.870605H68.171C70.6119 0.870605 72.7041 2.96016 72.7041 5.39797V29.602C72.7041 32.0398 70.6119 34.1293 68.171 34.1293ZM26.85 2.78603C25.4552 2.78603 24.2347 4.00493 24.2347 5.39797V29.602C24.2347 30.995 25.4552 32.2139 26.85 32.2139H68.171C69.5658 32.2139 70.7863 30.995 70.7863 29.602V5.39797C70.7863 4.00493 69.5658 2.78603 68.171 2.78603H26.85Z" fill="black"></path><path d="M68.171 35H26.85C23.886 35 21.4451 32.5622 21.4451 29.602V5.39801C21.4451 2.43781 23.886 0 26.85 0H68.171C71.135 0 73.5759 2.43781 73.5759 5.39801V29.602C73.5759 32.5622 71.135 35 68.171 35ZM26.85 1.74129C24.9321 1.74129 23.1886 3.30846 23.1886 5.39801V29.602C23.1886 31.5174 24.7578 33.2587 26.85 33.2587H68.171C70.0889 33.2587 71.8324 31.6915 71.8324 29.602V5.39801C71.8324 3.48259 70.2632 1.74129 68.171 1.74129H26.85ZM68.171 33.0846H26.85C24.9321 33.0846 23.363 31.5174 23.363 29.602V5.39801C23.363 3.48259 24.9321 1.91542 26.85 1.91542H68.171C70.0889 1.91542 71.658 3.48259 71.658 5.39801V29.602C71.658 31.5174 70.0889 33.0846 68.171 33.0846ZM26.85 3.65672C25.8039 3.65672 25.1065 4.35323 25.1065 5.39801V29.602C25.1065 30.6468 25.8039 31.3433 26.85 31.3433H68.171C69.2171 31.3433 69.9145 30.6468 69.9145 29.602V5.39801C69.9145 4.35323 69.2171 3.65672 68.171 3.65672H26.85Z" fill="black"></path><path d="M107.225 15.3234C107.051 15.1492 106.702 14.9751 106.528 14.9751C106.179 14.9751 106.005 15.1492 105.831 15.3234L102.867 19.5025L101.298 17.7612C101.123 17.587 100.775 17.4129 100.6 17.4129C100.251 17.4129 100.077 17.587 99.9028 17.7612L97.2875 21.7661H111.584L107.225 15.3234Z" fill="#4C4B4C"></path><path d="M101.298 16.194C102.344 16.194 103.041 15.3234 103.041 14.4527C103.041 13.4079 102.169 12.7114 101.298 12.7114C100.251 12.7114 99.554 13.5821 99.554 14.4527C99.554 15.3234 100.251 16.194 101.298 16.194Z" fill="#4C4B4C"></path><path d="M124.486 34.1293H83.1651C80.7242 34.1293 78.632 32.0398 78.632 29.602V5.39797C78.632 2.96016 80.7242 0.870605 83.1651 0.870605H124.486C126.927 0.870605 129.019 2.96016 129.019 5.39797V29.602C128.845 32.0398 126.927 34.1293 124.486 34.1293ZM83.1651 2.78603C81.7703 2.78603 80.5499 4.00493 80.5499 5.39797V29.602C80.5499 30.995 81.7703 32.2139 83.1651 32.2139H124.486C125.881 32.2139 127.101 30.995 127.101 29.602V5.39797C127.101 4.00493 125.881 2.78603 124.486 2.78603H83.1651Z" fill="black"></path><path d="M124.486 35H83.1651C80.2012 35 77.7603 32.5622 77.7603 29.602V5.39801C77.7603 2.43781 80.2012 0 83.1651 0H124.486C127.45 0 129.891 2.43781 129.891 5.39801V29.602C129.717 32.5622 127.45 35 124.486 35ZM83.1651 1.74129C81.2473 1.74129 79.5038 3.30846 79.5038 5.39801V29.602C79.5038 31.5174 81.0729 33.2587 83.1651 33.2587H124.486C126.404 33.2587 128.148 31.6915 128.148 29.602V5.39801C128.148 3.48259 126.578 1.74129 124.486 1.74129H83.1651ZM124.486 33.0846H83.1651C81.2473 33.0846 79.6781 31.5174 79.6781 29.602V5.39801C79.6781 3.48259 81.2473 1.91542 83.1651 1.91542H124.486C126.404 1.91542 127.973 3.48259 127.973 5.39801V29.602C127.973 31.5174 126.404 33.0846 124.486 33.0846ZM83.1651 3.65672C82.119 3.65672 81.4216 4.35323 81.4216 5.39801V29.602C81.4216 30.6468 82.119 31.3433 83.1651 31.3433H124.486C125.532 31.3433 126.23 30.6468 126.23 29.602V5.39801C126.23 4.35323 125.532 3.65672 124.486 3.65672H83.1651Z" fill="black"></path><path d="M164.935 15.3234C164.761 15.1492 164.412 14.9751 164.238 14.9751C163.889 14.9751 163.715 15.1492 163.541 15.3234L160.751 19.6766L159.182 17.9353C159.008 17.7612 158.659 17.587 158.484 17.587C158.136 17.587 157.961 17.7612 157.787 17.9353L155.172 21.9403H169.469L164.935 15.3234Z" fill="#4C4B4C"></path><path d="M159.008 16.194C160.054 16.194 160.751 15.3234 160.751 14.4527C160.751 13.4079 159.879 12.7114 159.008 12.7114C157.961 12.7114 157.264 13.5821 157.264 14.4527C157.09 15.3234 157.961 16.194 159.008 16.194Z" fill="#4C4B4C"></path><path d="M182.196 34.1293H140.875C138.434 34.1293 136.342 32.0398 136.342 29.602V5.39797C136.342 2.96016 138.434 0.870605 140.875 0.870605H182.196C184.637 0.870605 186.729 2.96016 186.729 5.39797V29.602C186.555 32.0398 184.637 34.1293 182.196 34.1293ZM140.875 2.78603C139.48 2.78603 138.26 4.00493 138.26 5.39797V29.602C138.26 30.995 139.48 32.2139 140.875 32.2139H182.196C183.591 32.2139 184.811 30.995 184.811 29.602V5.39797C184.811 4.00493 183.591 2.78603 182.196 2.78603H140.875Z" fill="black"></path><path d="M182.196 35H140.875C137.911 35 135.47 32.5622 135.47 29.602V5.39801C135.47 2.43781 137.911 0 140.875 0H182.196C185.16 0 187.601 2.43781 187.601 5.39801V29.602C187.427 32.5622 184.986 35 182.196 35ZM140.875 1.74129C138.957 1.74129 137.214 3.30846 137.214 5.39801V29.602C137.214 31.5174 138.783 33.2587 140.875 33.2587H182.196C184.114 33.2587 185.858 31.6915 185.858 29.602V5.39801C185.858 3.48259 184.288 1.74129 182.196 1.74129H140.875ZM182.196 33.0846H140.875C138.957 33.0846 137.388 31.5174 137.388 29.602V5.39801C137.388 3.48259 138.957 1.91542 140.875 1.91542H182.196C184.114 1.91542 185.683 3.48259 185.683 5.39801V29.602C185.683 31.5174 184.114 33.0846 182.196 33.0846ZM140.875 3.65672C139.829 3.65672 139.132 4.35323 139.132 5.39801V29.602C139.132 30.6468 139.829 31.3433 140.875 31.3433H182.196C183.242 31.3433 183.94 30.6468 183.94 29.602V5.39801C183.94 4.35323 183.242 3.65672 182.196 3.65672H140.875Z" fill="black"></path><path d="M8.19447 26.1194C7.84576 26.1194 7.32271 25.9453 6.97401 25.597L0.523049 19.6767C-0.174353 18.9801 -0.174353 17.9354 0.348698 17.2388L6.79966 10.2737C7.49706 9.57715 8.54317 9.57715 9.24057 10.0995C9.93797 10.7961 9.93797 11.8408 9.41492 12.5373L4.18441 18.2836L9.24057 23.1592C9.93797 23.8558 9.93797 24.9005 9.24057 25.597C9.06622 25.9453 8.54317 26.1194 8.19447 26.1194Z" fill="#4C4B4C"></path><path d="M199.98 26.1194C199.631 26.1194 199.108 25.9452 198.759 25.597C198.062 24.9005 198.062 23.8557 198.585 23.1592L203.816 17.4129L198.759 12.7114C198.062 12.0149 198.062 10.9701 198.759 10.2736C199.457 9.57709 200.503 9.57709 201.2 10.2736L207.651 16.194C208.349 16.8905 208.349 17.9353 207.826 18.6318L201.375 25.597C200.852 25.9452 200.329 26.1194 199.98 26.1194Z" fill="#4C4B4C"></path></g><defs><clipPath id="clip0"><rect width="208" height="35" fill="white"></rect></clipPath></defs></svg> 