<?xml version="1.0" encoding="UTF-8"?> <svg xmlns="http://www.w3.org/2000/svg" width="192" height="30" viewBox="0 0 192 30" fill="none"><g clip-path="url(#clip0)"><path d="M18.8088 22.01C18.8088 22.4623 18.5079 22.4623 18.3574 22.4623C18.0564 22.4623 17.906 22.3115 17.906 22.01V11.4573H14.1442C13.8433 11.4573 13.6928 11.1557 13.6928 11.005C13.6928 10.8542 13.8433 10.5527 14.1442 10.5527H22.5706C22.8715 10.5527 23.022 10.8542 23.022 11.005C23.022 11.3065 22.8715 11.4573 22.5706 11.4573H18.8088V22.01Z" fill="black"></path><path d="M18.3574 23.0653C17.7555 23.0653 17.3041 22.613 17.3041 22.01V12.0603H14.1442C13.5424 12.0603 13.0909 11.608 13.0909 11.005C13.0909 10.402 13.5424 9.94971 14.1442 9.94971H22.5706C23.1724 9.94971 23.6239 10.402 23.6239 11.005C23.6239 11.608 23.1724 12.0603 22.5706 12.0603H19.4107V22.01C19.4107 22.613 18.8088 23.0653 18.3574 23.0653Z" fill="black"></path><path d="M27.6866 18.5427L26.3323 22.01C26.3323 22.1608 26.1819 22.4623 25.8809 22.4623C25.7304 22.4623 25.4295 22.3115 25.4295 22.01C25.4295 21.8593 25.4295 21.7085 25.58 21.7085L29.7931 11.005C29.9436 10.7035 30.0941 10.402 30.5455 10.402C31.1474 10.402 31.2978 10.8542 31.2978 11.005L35.511 21.7085C35.511 21.8593 35.6615 22.01 35.6615 22.01C35.6615 22.3115 35.3605 22.4623 35.0596 22.4623C34.7587 22.4623 34.6082 22.1608 34.6082 22.01L33.254 18.5427H27.6866ZM32.953 17.7889L30.5455 11.608L28.138 17.7889H32.953Z" fill="black"></path><path d="M35.0596 23.0653C34.4577 23.0653 34.1568 22.4623 34.1568 22.3115L32.953 19.1457H28.138L26.9342 22.3115C26.7837 22.4623 26.6333 23.0653 25.8809 23.0653C25.4295 23.0653 24.8276 22.613 24.8276 22.01C24.8276 21.8593 24.8276 21.7085 24.9781 21.5577L29.1913 10.7035C29.4922 9.9497 30.0941 9.79895 30.5455 9.79895C30.9969 9.79895 31.5988 9.9497 31.8997 10.7035L36.1129 21.407C36.1129 21.5577 36.2634 21.7085 36.2634 22.01C36.1129 22.613 35.6615 23.0653 35.0596 23.0653ZM28.8903 17.1859H32.0502L30.395 13.1155L28.8903 17.1859Z" fill="black"></path><path d="M40.1756 22.3115C38.8214 22.3115 38.8214 21.2563 38.8214 20.804V12.0603C38.8214 11.608 38.8214 10.5527 40.1756 10.5527H42.2822C43.3355 10.5527 46.1944 10.5527 46.1944 13.4171C46.1944 15.2261 44.9906 15.8291 44.3888 16.1306C45.1411 16.4321 46.6458 16.8844 46.6458 18.9949C46.6458 22.1608 43.4859 22.1608 42.4326 22.1608H40.1756V22.3115ZM42.4326 15.8291C43.185 15.8291 45.2916 15.8291 45.2916 13.5678C45.2916 11.4573 43.4859 11.4573 42.2822 11.4573H40.4765C40.0251 11.4573 39.8746 11.608 39.8746 12.0603V15.6784H42.4326V15.8291ZM39.8746 20.804C39.8746 21.2563 40.0251 21.407 40.4765 21.407H42.4326C43.6364 21.407 45.743 21.407 45.743 19.1457C45.743 16.7336 43.4859 16.5829 42.5831 16.5829H39.8746V20.804Z" fill="black"></path><path d="M42.4327 22.7638H40.1756C39.2728 22.7638 38.2195 22.4623 38.2195 20.6532V12.0603C38.2195 10.402 39.2728 9.94971 40.1756 9.94971H42.2822C43.3355 9.94971 46.6458 9.94971 46.6458 13.2663C46.6458 14.6231 46.0439 15.3768 45.4421 15.8291C46.1944 16.2814 46.9468 17.1859 46.9468 18.8442C47.2477 20.804 46.3449 22.7638 42.4327 22.7638ZM40.3261 20.804C40.3261 20.804 40.4765 20.804 40.3261 20.804H42.2822C44.0878 20.804 44.9906 20.5025 44.9906 19.1457C44.9906 17.7889 44.2383 17.1859 42.4327 17.1859H40.3261V20.804ZM40.3261 15.2261H42.2822C43.9374 15.2261 44.5392 14.7738 44.5392 13.5678C44.5392 12.211 43.7869 12.0603 42.1317 12.0603H40.3261V15.2261Z" fill="black"></path><path d="M78.8463 22.01C78.8463 22.4623 78.5454 22.4623 78.3949 22.4623C78.094 22.4623 77.9435 22.3115 77.9435 22.01V11.4573H74.1818C73.8808 11.4573 73.7304 11.1557 73.7304 11.005C73.5799 10.8542 73.7304 10.5527 74.0313 10.5527H82.4576C82.7586 10.5527 82.909 10.8542 82.909 11.005C82.909 11.3065 82.7586 11.4573 82.4576 11.4573H78.6959V22.01H78.8463Z" fill="#727171"></path><path d="M78.2445 23.0653C77.6426 23.0653 77.1912 22.613 77.1912 22.01V12.0603H74.0313C73.4294 12.0603 72.978 11.608 72.978 11.005C72.978 10.402 73.4294 9.94971 74.0313 9.94971H82.4576C83.0595 9.94971 83.5109 10.402 83.5109 11.005C83.5109 11.608 83.0595 12.0603 82.4576 12.0603H79.2978V22.01C79.2978 22.613 78.8464 23.0653 78.2445 23.0653Z" fill="#727171"></path><path d="M87.7241 18.5427L86.3699 22.01C86.3699 22.1608 86.2194 22.4623 85.9185 22.4623C85.768 22.4623 85.467 22.3115 85.467 22.01C85.467 21.8593 85.467 21.7085 85.6175 21.7085L89.8307 11.005C89.9811 10.7035 90.1316 10.402 90.583 10.402C91.1849 10.402 91.3354 10.8542 91.3354 11.005L95.5485 21.7085C95.5485 21.8593 95.699 22.01 95.699 22.01C95.699 22.3115 95.3981 22.4623 95.0971 22.4623C94.7962 22.4623 94.6457 22.1608 94.6457 22.01L93.2915 18.5427H87.7241ZM92.8401 17.7889L90.4326 11.608L88.025 17.7889H92.8401Z" fill="#727171"></path><path d="M95.0971 23.0653C94.4953 23.0653 94.1943 22.4623 94.1943 22.3115L92.9906 19.1457H88.1755L86.9718 22.3115C86.8213 22.4623 86.6708 23.0653 85.9185 23.0653C85.467 23.0653 84.8652 22.613 84.8652 22.01C84.8652 21.8593 84.8652 21.7085 85.0156 21.5577L89.2288 10.7035C89.5297 9.9497 90.1316 9.79895 90.583 9.79895C91.0345 9.79895 91.6363 9.9497 91.9373 10.7035L96.1504 21.407C96.1504 21.5577 96.3009 21.7085 96.3009 22.01C96.1504 22.613 95.5486 23.0653 95.0971 23.0653ZM88.7774 17.1859H91.9373L90.2821 13.1155L88.7774 17.1859Z" fill="#727171"></path><path d="M100.063 22.3115C98.7084 22.3115 98.7084 21.2563 98.7084 20.804V12.0603C98.7084 11.608 98.7084 10.5527 100.063 10.5527H102.32C103.373 10.5527 106.232 10.5527 106.232 13.4171C106.232 15.2261 105.028 15.8291 104.426 16.1306C105.179 16.4321 106.683 16.8844 106.683 18.9949C106.683 22.1608 103.523 22.1608 102.47 22.1608H100.063V22.3115ZM102.32 15.8291C103.072 15.8291 105.179 15.8291 105.179 13.5678C105.179 11.4573 103.373 11.4573 102.169 11.4573H100.364C99.9122 11.4573 99.7617 11.608 99.7617 12.0603V15.6784H102.32V15.8291ZM99.7617 20.804C99.7617 21.2563 99.9122 21.407 100.364 21.407H102.32C103.523 21.407 105.63 21.407 105.63 19.1457C105.63 16.7336 103.373 16.5829 102.47 16.5829H99.7617V20.804Z" fill="#727171"></path><path d="M102.32 22.7638H100.063C99.1599 22.7638 98.1066 22.4623 98.1066 20.6532V12.0603C98.1066 10.402 99.1599 9.94971 100.063 9.94971H102.32C103.373 9.94971 106.683 9.94971 106.683 13.2663C106.683 14.6231 106.081 15.3768 105.48 15.8291C106.232 16.2814 106.984 17.1859 106.984 18.8442C107.135 20.804 106.232 22.7638 102.32 22.7638ZM100.364 20.804H102.32C104.125 20.804 105.028 20.5025 105.028 19.1457C105.028 17.7889 104.276 17.1859 102.47 17.1859H100.364V20.804ZM100.364 15.2261H102.32C103.975 15.2261 104.577 14.7738 104.577 13.5678C104.577 12.211 103.824 12.0603 102.169 12.0603H100.364V15.2261Z" fill="#727171"></path><path d="M142.947 22.01C142.947 22.4623 142.646 22.4623 142.495 22.4623C142.194 22.4623 142.044 22.3115 142.044 22.01V11.4573H138.282C137.981 11.4573 137.831 11.1557 137.831 11.005C137.831 10.7035 137.981 10.5527 138.282 10.5527H146.708C147.009 10.5527 147.16 10.8542 147.16 11.005C147.16 11.3065 147.009 11.4573 146.708 11.4573H142.947V22.01Z" fill="#727171"></path><path d="M142.345 23.0653C141.743 23.0653 141.292 22.613 141.292 22.01V12.0603H138.132C137.53 12.0603 137.078 11.608 137.078 11.005C137.078 10.402 137.53 9.94971 138.132 9.94971H146.558C147.16 9.94971 147.611 10.402 147.611 11.005C147.611 11.608 147.16 12.0603 146.558 12.0603H143.398V22.01C143.398 22.613 142.947 23.0653 142.345 23.0653Z" fill="#727171"></path><path d="M151.824 18.5427L150.47 22.01C150.47 22.1608 150.32 22.4623 150.019 22.4623C149.868 22.4623 149.567 22.3115 149.567 22.01C149.567 21.8593 149.567 21.7085 149.718 21.7085L153.931 11.005C154.082 10.7035 154.232 10.402 154.683 10.402C155.285 10.402 155.436 10.8542 155.436 11.005L159.649 21.7085C159.649 21.8593 159.799 22.01 159.799 22.01C159.799 22.3115 159.498 22.4623 159.198 22.4623C158.897 22.4623 158.746 22.1608 158.746 22.01L157.392 18.5427H151.824ZM156.94 17.7889L154.533 11.608L152.125 17.7889H156.94Z" fill="#727171"></path><path d="M159.197 23.0653C158.596 23.0653 158.295 22.4623 158.295 22.3115L157.091 19.1457H152.276L151.072 22.3115C150.922 22.4623 150.771 23.0653 150.019 23.0653C149.567 23.0653 148.966 22.613 148.966 22.01C148.966 21.8593 148.966 21.7085 149.116 21.5577L153.329 10.7035C153.63 9.9497 154.232 9.79895 154.683 9.79895C155.135 9.79895 155.737 9.9497 156.038 10.7035L160.251 21.407C160.251 21.5577 160.401 21.7085 160.401 22.01C160.251 22.613 159.649 23.0653 159.197 23.0653ZM152.878 17.1859H156.038L154.382 13.1155L152.878 17.1859Z" fill="#727171"></path><path d="M164.163 22.3115C162.809 22.3115 162.809 21.2563 162.809 20.804V12.0603C162.809 11.608 162.809 10.5527 164.163 10.5527H166.27C167.323 10.5527 170.182 10.5527 170.182 13.4171C170.182 15.2261 168.978 15.8291 168.376 16.1306C169.129 16.4321 170.633 16.8844 170.633 18.9949C170.633 22.1608 167.473 22.1608 166.42 22.1608H164.163V22.3115ZM166.42 15.8291C167.172 15.8291 169.279 15.8291 169.279 13.5678C169.279 11.4573 167.473 11.4573 166.27 11.4573H164.464C164.013 11.4573 163.862 11.608 163.862 12.0603V15.6784H166.42V15.8291ZM163.862 20.804C163.862 21.2563 164.013 21.407 164.464 21.407H166.42C167.624 21.407 169.73 21.407 169.73 19.1457C169.73 16.7336 167.473 16.5829 166.571 16.5829H163.862V20.804Z" fill="#727171"></path><path d="M166.571 22.7638H164.313C163.411 22.7638 162.357 22.4623 162.357 20.6532V12.0603C162.357 10.402 163.411 9.94971 164.313 9.94971H166.42C167.473 9.94971 170.784 9.94971 170.784 13.2663C170.784 14.6231 170.182 15.3768 169.58 15.8291C170.332 16.2814 171.085 17.1859 171.085 18.8442C171.235 20.804 170.332 22.7638 166.571 22.7638ZM164.464 20.804H166.42C168.226 20.804 169.129 20.5025 169.129 19.1457C169.129 17.7889 168.376 17.1859 166.571 17.1859H164.464V20.804ZM164.464 15.2261H166.42C168.075 15.2261 168.677 14.7738 168.677 13.5678C168.677 12.211 167.925 12.0603 166.27 12.0603H164.464V15.2261Z" fill="#727171"></path><path d="M61.5423 0H0V2.41206H61.5423V0Z" fill="black"></path><path d="M61.6928 1.20605H58.6834V28.9447H61.6928V1.20605Z" fill="black"></path><path d="M124.288 0H63.9498V2.41206H124.288V0Z" fill="#727171"></path><path d="M124.439 1.20605H121.429V28.9447H124.439V1.20605Z" fill="#727171"></path><path d="M186.734 0H126.395V2.41206H186.734V0Z" fill="#727171"></path><path d="M186.734 1.20605H183.724V28.9447H186.734V1.20605Z" fill="#727171"></path><path d="M3.0094 1.20605H0V28.9447H3.0094V1.20605Z" fill="black"></path><path d="M192 27.7386H58.6834V30.1507H192V27.7386Z" fill="black"></path></g><defs><clipPath id="clip0"><rect width="192" height="30" fill="white"></rect></clipPath></defs></svg> 