<?xml version="1.0" encoding="UTF-8"?> <svg xmlns="http://www.w3.org/2000/svg" width="114" height="82" viewBox="0 0 114 82" fill="none"><g clip-path="url(#clip0)"><path d="M31.5887 61.4296H2.52709C1.12315 61.4296 0 60.3024 0 58.7526V2.67698C0 1.12715 1.12315 0 2.52709 0H31.5887C32.9926 0 34.1158 1.12715 34.1158 2.67698V58.8935C34.2562 60.3024 32.9926 61.4296 31.5887 61.4296ZM2.80788 58.6117H31.4483V2.81787H2.80788V58.6117Z" fill="black"></path><path d="M73.0049 61.5705H44.2241C42.8202 61.5705 41.5566 60.4433 41.5566 58.8935V25.0791C41.5566 23.6701 42.6798 22.4021 44.2241 22.4021H73.0049C74.4089 22.4021 75.6724 23.5292 75.6724 25.0791V58.8935C75.532 60.4433 74.4089 61.5705 73.0049 61.5705ZM44.3645 58.7526H72.7241V25.3609H44.3645V58.7526Z" fill="black"></path><path d="M111.333 61.5705H83.3941C81.9902 61.5705 80.7266 60.4433 80.7266 58.8935V43.2543C80.7266 41.8454 81.8498 40.5773 83.3941 40.5773H111.333C112.736 40.5773 114 41.7045 114 43.2543V58.8935C114 60.4433 112.736 61.5705 111.333 61.5705ZM83.6749 58.7526H111.192V43.5361H83.6749V58.7526Z" fill="black"></path><path d="M13.4778 77.4914L12.0739 81.1547C11.9335 81.2956 11.9335 81.5774 11.5123 81.5774C11.2315 81.5774 10.9507 81.4365 10.9507 81.1547C10.9507 81.0138 10.9507 80.8729 11.0911 80.732L15.4434 69.6014C15.5837 69.3196 15.7241 69.0378 16.2857 69.0378C16.8473 69.0378 16.9877 69.4605 17.1281 69.6014L21.4803 80.732C21.4803 80.8729 21.6207 81.0138 21.6207 81.1547C21.6207 81.4365 21.3399 81.5774 21.0591 81.5774C20.7783 81.5774 20.6379 81.2956 20.6379 81.1547L19.234 77.4914H13.4778ZM18.8128 76.6461L16.2857 70.165L13.7586 76.6461H18.8128Z" fill="black"></path><path d="M21.0591 82C20.4975 82 20.3571 81.5773 20.2168 81.2955L18.9532 77.9141H13.6182L12.3547 81.2955C12.2143 81.5773 12.0739 82 11.5123 82C11.0911 82 10.67 81.7182 10.67 81.1546C10.67 81.0137 10.67 80.8728 10.8103 80.7319V80.5911L15.1626 69.4605C15.4434 68.8969 15.7241 68.6151 16.2857 68.6151C16.8473 68.6151 17.2685 68.8969 17.4089 69.4605L21.7611 80.5911C21.9015 80.732 21.9015 80.8728 21.9015 81.1546C22.0419 81.5773 21.4803 82 21.0591 82ZM13.4778 77.2096H19.234C19.3744 77.2096 19.5148 77.3505 19.5148 77.4914L20.9187 81.1546C21.0591 81.2955 21.0591 81.2955 21.0591 81.2955C21.1995 81.2955 21.1995 81.1546 21.1995 81.1546V81.0137L16.7069 69.7423C16.5665 69.6014 16.5665 69.3196 16.1453 69.3196C15.8645 69.3196 15.7241 69.4605 15.5837 69.7423L11.0911 81.0137V81.1546C11.0911 81.2955 11.2315 81.2955 11.2315 81.2955C11.2315 81.2955 11.3719 81.2955 11.3719 81.1546L12.7759 77.4914C13.197 77.3505 13.3374 77.2096 13.4778 77.2096ZM18.8128 77.0687H13.7586C13.6182 77.0687 13.4778 77.0687 13.4778 76.9278C13.4778 76.7869 13.3374 76.646 13.4778 76.646L16.0049 70.1649C16.0049 70.024 16.1453 69.8832 16.2857 69.8832C16.4261 69.8832 16.5665 70.024 16.5665 70.1649L19.0936 76.646C19.0936 76.7869 19.0936 76.9278 19.0936 76.9278C19.0936 76.9278 18.9532 77.0687 18.8128 77.0687ZM14.3202 76.3643H18.3916L16.4261 71.1512L14.3202 76.3643Z" fill="black"></path><path d="M54.7537 81.2956C53.3498 81.2956 53.3498 80.3093 53.3498 79.7457V70.7285C53.3498 70.165 53.3498 69.1787 54.7537 69.1787H57C58.1232 69.1787 61.0714 69.1787 61.0714 72.1375C61.0714 73.9691 59.9483 74.5327 59.2463 74.9553C59.9483 75.2371 61.4926 75.8007 61.4926 77.9141C61.4926 81.2956 58.2636 81.2956 57.1404 81.2956H54.7537ZM57 74.5327C57.702 74.5327 59.9483 74.5327 59.9483 72.2784C59.9483 70.165 58.1232 70.165 56.8596 70.165H54.8941C54.4729 70.165 54.3325 70.3059 54.3325 70.7285V74.5327H57ZM54.3325 79.8866C54.3325 80.4502 54.4729 80.4502 54.8941 80.4502H56.8596C57.9828 80.4502 60.3695 80.4502 60.3695 78.055C60.3695 75.5189 57.9828 75.5189 57 75.5189H54.1921V79.8866H54.3325Z" fill="black"></path><path d="M57 81.7182H54.7537C53.069 81.7182 53.069 80.3093 53.069 79.8866V70.8695C53.069 70.4468 53.069 69.0378 54.7537 69.0378H57C58.1232 69.0378 61.3522 69.0378 61.3522 72.2784C61.3522 73.8282 60.6503 74.5327 59.9483 75.0963C60.7906 75.5189 61.7734 76.3643 61.7734 78.1959C61.7734 80.4502 60.2291 81.7182 57 81.7182ZM54.7537 69.6014C53.7709 69.6014 53.7709 70.165 53.7709 70.7286V79.7457C53.7709 80.3093 53.9113 80.8729 54.7537 80.8729H57.1404C58.8251 80.8729 61.0714 80.5911 61.0714 77.9141C61.0714 75.9416 59.6675 75.5189 58.9655 75.2372C58.8251 75.2372 58.6847 75.0963 58.6847 74.9554C58.6847 74.8145 58.6847 74.6736 58.8251 74.6736C59.5271 74.2509 60.5099 73.8282 60.5099 72.1375C60.5099 69.8832 58.6847 69.6014 56.8596 69.6014H54.7537ZM56.8596 80.732H54.8941C54.4729 80.732 53.9113 80.5911 53.9113 79.7457V75.378C53.9113 75.2372 54.0517 74.9554 54.3325 74.9554H57.1404C59.5271 74.9554 60.7906 75.9416 60.7906 77.9141C60.7906 80.732 58.1232 80.732 56.8596 80.732ZM54.7537 80.0275C54.7537 80.0275 54.7537 80.0275 55.0345 80.0275H57C58.5443 80.0275 60.0887 79.8866 60.0887 78.055C60.0887 76.0825 58.5443 75.8007 57.1404 75.8007H54.7537V79.7457C54.6133 80.0275 54.7537 80.0275 54.7537 80.0275ZM57 74.9554H54.3325C54.1921 74.9554 53.9113 74.8145 53.9113 74.5327V70.7286C53.9113 69.8832 54.4729 69.7423 54.8941 69.7423H56.8596C58.1232 69.7423 60.3695 69.7423 60.3695 72.2784C60.3695 74.11 59.2463 74.9554 57 74.9554ZM54.6133 74.2509H57C58.2636 74.2509 59.6675 73.9691 59.6675 72.2784C59.6675 70.5877 58.5443 70.4468 56.8596 70.4468H54.8941C54.7537 70.4468 54.6133 70.4468 54.6133 70.4468C54.6133 70.4468 54.6133 70.4468 54.6133 70.7286V74.2509Z" fill="black"></path><path d="M92.9409 75.3779C92.9409 71.8556 95.3276 69.0377 99.399 69.0377C100.803 69.0377 101.926 69.4604 102.628 69.8831C102.909 70.024 102.909 70.1649 102.909 70.3058C102.909 70.5876 102.628 70.7284 102.488 70.7284C102.347 70.7284 102.347 70.7284 102.066 70.5875C101.084 70.024 99.8202 69.8831 99.399 69.8831C96.1699 69.8831 94.064 72.2783 94.064 75.237C94.064 77.7731 95.7488 80.591 99.5394 80.591C100.663 80.591 101.365 80.4501 102.066 80.0274L102.628 79.7456C102.768 79.7456 103.049 79.8865 103.049 80.1683C103.049 80.4501 102.909 80.591 102.768 80.591C101.645 81.1546 100.241 81.2955 99.399 81.2955C95.1872 81.5772 92.9409 78.7594 92.9409 75.3779Z" fill="black"></path><path d="M99.399 82C95.3276 82 92.6601 79.323 92.6601 75.378C92.6601 71.5739 95.468 68.756 99.399 68.756C100.663 68.756 101.786 69.0378 102.768 69.6013C103.049 69.7422 103.19 70.024 103.19 70.3058C103.19 70.7285 102.768 71.1512 102.347 71.1512C102.067 71.1512 102.067 71.1512 101.786 71.0103H101.645C100.803 70.4467 99.6798 70.4467 99.2586 70.4467C96.3103 70.4467 94.2044 72.5601 94.2044 75.5189C94.2044 78.0549 95.7488 80.591 99.399 80.591C100.522 80.591 101.224 80.3092 101.786 80.1683H101.926C102.347 80.0275 102.488 79.8866 102.628 79.8866C102.909 79.8866 103.47 80.1683 103.47 80.7319C103.47 81.0137 103.33 81.2955 102.909 81.5773C101.505 81.8591 100.101 82 99.399 82ZM99.2586 69.3196C95.7488 69.3196 93.2217 71.7147 93.2217 75.2371C93.2217 78.0549 95.1872 81.1546 99.2586 81.1546C99.9606 81.1546 101.224 81.0137 102.488 80.4501C102.628 80.3092 102.628 80.3092 102.628 80.3092C102.628 80.1683 102.488 80.1683 102.488 80.1683L102.207 80.3092C102.067 80.3092 102.067 80.3092 102.067 80.3092C101.505 80.591 100.663 80.8728 99.399 80.8728C95.3276 80.8728 93.5025 77.9141 93.5025 75.0962C93.5025 71.7147 95.8892 69.3196 99.2586 69.3196C99.9606 69.3196 101.084 69.4605 102.067 70.024H102.207C102.347 70.024 102.347 70.1649 102.347 70.1649C102.347 70.1649 102.488 70.1649 102.488 70.024L102.347 69.8831C101.505 69.6013 100.382 69.3196 99.2586 69.3196Z" fill="black"></path></g><defs><clipPath id="clip0"><rect width="114" height="82" fill="white"></rect></clipPath></defs></svg> 