<?xml version="1.0" encoding="UTF-8"?> <svg xmlns="http://www.w3.org/2000/svg" width="157" height="97" viewBox="0 0 157 97" fill="none"><path d="M157 93.412C157 95.3916 155.399 96.8763 153.552 96.8763H3.44784C1.47765 96.8763 0 95.2679 0 93.412V3.46429C0 1.60842 1.60078 0 3.44784 0H153.429C155.399 0 156.877 1.60842 156.877 3.46429V93.412H157Z" fill="#727171"></path><path d="M110.7 72.0076C110.7 73.9872 109.1 75.4719 107.253 75.4719H46.4227C44.4526 75.4719 42.9749 73.8635 42.9749 72.0076V25.3635C42.9749 23.3839 44.5757 21.8992 46.4227 21.8992H107.129C109.1 21.8992 110.577 23.5076 110.577 25.3635V72.0076H110.7Z" fill="#EFEBE1"></path><path d="M107.129 76.7092H46.4227C43.8369 76.7092 41.7435 74.6059 41.7435 72.0077V25.3635C41.7435 22.7653 43.8369 20.662 46.4227 20.662H107.129C109.715 20.662 111.809 22.7653 111.809 25.3635V72.0077C111.932 74.6059 109.715 76.7092 107.129 76.7092ZM46.4227 23.0128C45.1914 23.0128 44.2063 24.0025 44.2063 25.2398V71.8839C44.2063 73.1212 45.1914 74.111 46.4227 74.111H107.129C108.361 74.111 109.346 73.1212 109.346 71.8839V25.3635C109.346 24.1263 108.361 23.1365 107.129 23.1365H46.4227V23.0128Z" fill="black"></path><path d="M54.6729 40.5816H54.5498C54.4267 40.5816 54.3035 40.4579 54.3035 40.3342C54.3035 40.2104 54.4267 40.2104 54.4267 40.0867L55.5349 39.3444C55.658 39.2206 55.7812 39.2206 55.9043 39.2206C56.1506 39.2206 56.1506 39.4681 56.1506 39.5918V45.0357C56.1506 45.2831 56.0275 45.2831 55.9043 45.2831C55.7812 45.2831 55.658 45.1594 55.658 45.0357V39.8393L54.6729 40.5816Z" fill="black"></path><path d="M55.7812 45.6543C55.4118 45.6543 55.1655 45.4069 55.1655 45.1594V40.5816L54.7961 40.8291C54.6729 40.8291 54.6729 40.9528 54.4267 40.9528C54.0573 40.9528 53.9341 40.7053 53.9341 40.4579C53.9341 40.2105 54.1804 40.0867 54.1804 39.963L55.2886 39.2207C55.5349 39.0969 55.658 38.9732 55.7812 38.9732C56.1506 38.9732 56.2737 39.2207 56.2737 39.5918V45.0357C56.3969 45.5306 56.1506 45.6543 55.7812 45.6543Z" fill="black"></path><path d="M61.4455 39.4681C61.4455 39.3444 61.5686 39.3444 61.6918 39.3444C61.8149 39.3444 61.938 39.4681 61.938 39.4681V39.5918L59.229 45.1594C59.229 45.2831 59.1059 45.2831 59.1059 45.2831C58.9827 45.2831 58.8596 45.1594 58.8596 45.0357V44.912L61.4455 39.4681Z" fill="black"></path><path d="M58.9828 45.6543C58.7365 45.6543 58.4902 45.4069 58.4902 45.1594C58.4902 45.0357 58.6133 44.912 58.6133 44.912L61.3224 39.3444L61.5686 39.4681L61.3224 39.3444C61.3224 39.2207 61.4455 38.9732 61.8149 38.9732C62.0612 38.9732 62.3074 39.2207 62.3074 39.4681C62.3074 39.5918 62.3075 39.7156 62.1843 39.7156L59.4753 45.2832C59.4753 45.4069 59.3522 45.6543 58.9828 45.6543ZM61.5686 39.5918L61.6918 39.7156L61.5686 39.5918Z" fill="black"></path><path d="M64.1545 40.5816H64.0314C63.9082 40.5816 63.7851 40.4579 63.7851 40.3342C63.7851 40.2104 63.9082 40.2104 63.9082 40.0867L65.0165 39.3444C65.1396 39.2206 65.2627 39.2206 65.3859 39.2206C65.6322 39.2206 65.6322 39.4681 65.6322 39.5918V45.0357C65.6322 45.2831 65.509 45.2831 65.3859 45.2831C65.2627 45.2831 65.1396 45.1594 65.1396 45.0357V39.8393L64.1545 40.5816Z" fill="black"></path><path d="M65.2627 45.6543C64.8933 45.6543 64.6471 45.4069 64.6471 45.1594V40.5816L64.2777 40.8291C64.1545 40.8291 64.1545 40.9528 63.9082 40.9528C63.5388 40.9528 63.4157 40.7053 63.4157 40.4579C63.4157 40.2105 63.662 40.0867 63.662 39.963L64.7702 39.2207C65.0165 39.0969 65.1396 38.9732 65.2627 38.9732C65.6322 38.9732 65.7553 39.2207 65.7553 39.5918V45.0357C65.8784 45.5306 65.509 45.6543 65.2627 45.6543Z" fill="black"></path><path d="M68.7106 42.4375C68.5874 42.5613 68.5874 42.685 68.4643 42.685C68.3412 42.685 68.218 42.5613 68.218 42.4375C68.218 42.4375 68.218 42.3138 68.3412 42.1901C68.5875 41.8189 68.9569 41.5715 69.4494 41.5715C69.8188 41.5715 70.1882 41.8189 70.5576 42.0664C71.5427 42.685 71.5427 42.685 71.9122 42.685C72.2816 42.685 72.651 42.3138 72.7741 42.1901C72.8973 41.9426 72.8973 41.9426 73.0204 41.9426C73.1435 41.9426 73.2667 42.0664 73.2667 42.1901C73.2667 42.3138 73.2667 42.3138 73.1435 42.4375C72.651 43.0562 72.2816 43.0562 72.0353 43.0562C71.6659 43.0562 71.4196 42.9324 70.8039 42.5613C69.942 41.9426 69.8188 41.9426 69.4494 41.9426C69.08 41.9426 68.8337 42.3138 68.7106 42.4375Z" fill="black"></path><path d="M72.0353 43.4273C71.5427 43.4273 71.2965 43.3036 70.6808 42.9324C69.8188 42.3138 69.6957 42.3138 69.5725 42.3138C69.3263 42.3138 69.2031 42.4375 69.08 42.685L68.8337 42.4375L69.08 42.685C68.9569 42.8087 68.8337 42.9324 68.5874 42.9324C68.3412 42.9324 68.0949 42.6849 68.0949 42.4375C68.0949 42.3138 68.218 42.1901 68.3412 41.9426C68.5874 41.5714 69.08 41.2003 69.6957 41.2003C70.1882 41.2003 70.5576 41.4477 70.9271 41.6952C71.9122 42.3138 71.9122 42.3138 72.1584 42.3138C72.4047 42.3138 72.5278 42.0663 72.7741 41.9426C72.8973 41.6952 73.0204 41.5714 73.2667 41.5714C73.5129 41.5714 73.7592 41.8189 73.7592 42.0663C73.7592 42.1901 73.6361 42.3138 73.6361 42.4375C72.8973 43.1798 72.5278 43.4273 72.0353 43.4273ZM68.9569 42.685L68.7106 42.4375L68.9569 42.685Z" fill="black"></path><path d="M75.4831 40.5816H75.36C75.2369 40.5816 75.1137 40.4579 75.1137 40.3342C75.1137 40.2104 75.2369 40.2104 75.2369 40.0867L76.3451 39.3444C76.4682 39.2206 76.5914 39.2206 76.7145 39.2206C76.9608 39.2206 76.9608 39.4681 76.9608 39.5918V45.0357C76.9608 45.2831 76.8377 45.2831 76.7145 45.2831C76.5914 45.2831 76.4682 45.1594 76.4682 45.0357V39.8393L75.4831 40.5816Z" fill="black"></path><path d="M76.7145 45.6543C76.3451 45.6543 76.0988 45.4069 76.0988 45.1594V40.5816L75.6063 40.8291C75.4831 40.8291 75.4831 40.9528 75.2369 40.9528C74.8675 40.9528 74.7443 40.7053 74.7443 40.4579C74.7443 40.2105 74.9906 40.0867 74.9906 39.963L76.0988 39.2207C76.3451 39.0969 76.4682 38.9732 76.5914 38.9732C76.9608 38.9732 77.0839 39.2207 77.0839 39.5918V45.0357C77.2071 45.5306 76.9608 45.6543 76.7145 45.6543Z" fill="black"></path><path d="M82.3788 39.4681C82.3788 39.3444 82.502 39.3444 82.6251 39.3444C82.7482 39.3444 82.8714 39.4681 82.8714 39.4681V39.5918L80.0392 45.1594C80.0392 45.2831 79.9161 45.2831 79.9161 45.2831C79.7929 45.2831 79.6698 45.1594 79.6698 45.0357V44.912L82.3788 39.4681Z" fill="black"></path><path d="M79.7929 45.6543C79.5467 45.6543 79.3004 45.4069 79.3004 45.1594C79.3004 45.0357 79.4235 44.912 79.4235 44.912L82.1325 39.3444L82.3788 39.4681L82.1325 39.3444C82.1325 39.2207 82.2557 38.9732 82.6251 38.9732C82.8714 38.9732 83.1177 39.2207 83.1177 39.4681C83.1177 39.5918 83.1177 39.7156 82.9945 39.7156L80.2855 45.2832C80.2855 45.4069 80.1624 45.6543 79.7929 45.6543ZM82.3788 39.5918L82.502 39.7156L82.3788 39.5918Z" fill="black"></path><path d="M84.349 40.2105C84.349 39.963 84.349 39.4681 84.9647 39.4681H87.1812C87.3043 39.4681 87.4274 39.5919 87.4274 39.7156C87.4274 39.8393 87.3043 39.963 87.1812 39.963H85.0878C84.8416 39.963 84.8416 39.963 84.8416 40.2105V41.9426C84.9647 41.8189 85.3341 41.6952 85.9498 41.6952C87.1812 41.6952 87.92 42.4375 87.92 43.551C87.92 44.5408 87.058 45.4069 85.7035 45.4069C85.211 45.4069 84.5953 45.2832 84.2259 45.0357C84.1027 45.0357 83.9796 44.912 83.9796 44.7883C83.9796 44.6646 84.1027 44.5408 84.2259 44.5408L84.4722 44.6646C84.5953 44.7883 85.0878 44.912 85.7035 44.912C86.9349 44.912 87.4274 44.2934 87.4274 43.4273C87.4274 42.5613 86.8118 42.0664 85.9498 42.0664C85.4573 42.0664 85.211 42.1901 84.8416 42.4375C84.8416 42.4375 84.7184 42.5613 84.5953 42.5613C84.349 42.5613 84.349 42.4375 84.349 42.3138V40.2105Z" fill="black"></path><path d="M85.7035 45.6543C85.0878 45.6543 84.5953 45.5306 84.1028 45.2831C83.8565 45.1594 83.7333 45.0357 83.7333 44.7883C83.7333 44.4171 83.9796 44.2934 84.2259 44.2934C84.349 44.2934 84.5953 44.4171 84.5953 44.4171C84.7184 44.5408 85.0878 44.6645 85.5804 44.6645C86.4424 44.6645 87.058 44.2934 87.058 43.551C87.058 42.8087 86.4423 42.4375 85.8267 42.4375C85.4573 42.4375 85.211 42.5612 84.9647 42.6849C84.8416 42.8087 84.7184 42.8087 84.5953 42.8087C84.4722 42.8087 84.1028 42.8087 84.1028 42.19V40.0867C84.1028 39.2206 84.5953 39.0969 85.0878 39.0969H87.3043C87.5506 39.0969 87.7969 39.3444 87.7969 39.5918C87.7969 39.8393 87.5506 40.0867 87.3043 40.0867H85.211V41.324C85.4573 41.2002 85.7035 41.2002 85.9498 41.2002C87.3043 41.2002 88.2894 42.0663 88.2894 43.3036C88.1663 44.7883 87.058 45.6543 85.7035 45.6543Z" fill="black"></path><path d="M53.9341 57.6556C54.3035 57.7793 54.6729 57.903 55.0424 57.903C55.7812 57.903 56.52 57.6556 56.52 56.6658C56.52 55.7997 55.9043 55.676 55.2886 55.4286C54.5498 55.1811 53.6878 54.9337 53.6878 53.8201C53.6878 52.9541 54.3035 52.2117 55.4118 52.2117C55.7812 52.2117 56.1506 52.3355 56.52 52.4592C56.6431 52.4592 56.6431 52.5829 56.6431 52.7066C56.6431 52.8303 56.52 52.9541 56.3969 52.9541C56.3969 52.9541 56.2737 52.9541 56.1506 52.8304C56.0274 52.7066 55.658 52.7066 55.2886 52.7066C54.4267 52.7066 54.0573 53.3252 54.0573 53.8201C54.0573 54.5625 54.6729 54.8099 55.2886 54.9337C56.0275 55.1811 56.8894 55.5523 56.8894 56.5421C56.8894 57.6556 56.0274 58.1505 54.9192 58.1505C54.1804 58.1505 53.811 57.903 53.5647 57.903C53.4416 57.903 53.3184 57.7793 53.3184 57.6556C53.3184 57.5319 53.4416 57.4082 53.5647 57.4082C53.6878 57.5319 53.811 57.6556 53.9341 57.6556Z" fill="black"></path><path d="M55.0424 58.6454C54.3035 58.6454 53.811 58.398 53.5647 58.2742C53.3184 58.1505 53.1953 58.0268 53.1953 57.7793C53.1953 57.5319 53.4416 57.2844 53.6878 57.2844C53.811 57.2844 53.811 57.2844 53.9341 57.4082H54.0573C54.3035 57.5319 54.6729 57.6556 55.0424 57.6556C55.2886 57.6556 56.2737 57.5319 56.2737 56.7895C56.2737 56.1709 55.9043 56.0472 55.2886 55.7997C54.5498 55.5523 53.5647 55.1811 53.5647 53.9439C53.5647 52.8304 54.4267 52.088 55.5349 52.088C55.9043 52.088 56.3969 52.2117 56.7663 52.3355C57.0125 52.4592 57.1357 52.7066 57.1357 52.8304C57.1357 53.0778 56.8894 53.3253 56.6431 53.3253C56.52 53.3253 56.3969 53.3253 56.2737 53.2015C56.1506 53.2015 55.9043 53.0778 55.5349 53.0778C54.9192 53.0778 54.6729 53.449 54.6729 53.9439C54.6729 54.4388 54.9192 54.5625 55.658 54.81C56.3969 55.0574 57.5051 55.4286 57.5051 56.7895C57.2588 57.9031 56.3969 58.6454 55.0424 58.6454Z" fill="black"></path><path d="M58.4902 52.5829C58.4902 52.3355 58.6133 52.3355 58.7365 52.3355C58.8596 52.3355 58.9828 52.4592 58.9828 52.5829V55.676C58.9828 56.5421 58.9828 57.9031 60.9529 57.9031C62.8 57.9031 62.9231 56.5421 62.9231 55.676V52.4592C62.9231 52.2117 63.0463 52.2117 63.1694 52.2117C63.2926 52.2117 63.4157 52.3355 63.4157 52.4592V55.676C63.4157 56.5421 63.4157 58.2742 61.0761 58.2742C58.7365 58.2742 58.7365 56.5421 58.7365 55.676V52.5829H58.4902Z" fill="black"></path><path d="M60.9529 58.6454C58.2439 58.6454 58.2439 56.4184 58.2439 55.676V52.4592C58.2439 52.088 58.4902 51.9643 58.7365 51.9643C59.1059 51.9643 59.229 52.2117 59.229 52.4592V55.676C59.229 56.6658 59.3522 57.5319 60.8298 57.5319C62.3075 57.5319 62.4306 56.6658 62.4306 55.676V52.4592C62.4306 52.088 62.6769 51.9643 62.9231 51.9643C63.2925 51.9643 63.4157 52.2117 63.4157 52.4592V55.676C63.662 56.4184 63.662 58.6454 60.9529 58.6454Z" fill="black"></path><path d="M65.509 58.1505C65.509 58.3979 65.3859 58.3979 65.2627 58.3979C65.1396 58.3979 65.0165 58.2742 65.0165 58.1505V53.2015C65.0165 52.9541 65.0165 52.4592 65.6322 52.4592H66.4941C66.9867 52.4592 67.3561 52.4592 67.7255 52.7066C68.4643 53.0778 68.4643 53.8201 68.4643 54.1913C68.4643 54.6862 68.3412 55.3048 67.6024 55.676C67.2329 55.9235 66.8635 55.9235 66.371 55.9235H65.3859V58.1505H65.509ZM66.371 55.3048C66.8635 55.3048 67.9718 55.3048 67.9718 54.0676C67.9718 52.8303 66.9867 52.8303 66.371 52.8303H65.7553C65.509 52.8303 65.509 52.8303 65.509 53.0778V55.3048H66.371Z" fill="black"></path><path d="M65.2627 58.6454C64.8933 58.6454 64.7702 58.3979 64.7702 58.1505V53.2015C64.7702 52.3355 65.2627 52.2117 65.7553 52.2117H66.4941C66.9867 52.2117 67.3561 52.2117 67.8486 52.4592C68.7106 52.9541 68.8337 53.8201 68.8337 54.1913C68.8337 54.9337 68.4643 55.5523 67.8486 55.9235C67.3561 56.1709 66.9867 56.1709 66.4941 56.1709H65.8784V58.1505C65.8784 58.5217 65.6322 58.6454 65.2627 58.6454ZM65.2627 58.1505H65.6322H65.2627ZM65.8784 55.0574H66.4941C67.3561 55.0574 67.7255 54.9337 67.7255 54.1913C67.7255 53.3252 67.1098 53.2015 66.4941 53.2015H65.8784V55.0574Z" fill="black"></path><path d="M72.8973 55.0574C73.0204 55.0574 73.1435 55.1811 73.1435 55.3048C73.1435 55.4286 73.0204 55.5523 72.8973 55.5523H70.4345V57.6556C70.4345 57.903 70.5576 57.903 70.6808 57.903H73.2667C73.3898 57.903 73.5129 58.0268 73.5129 58.1505C73.5129 58.2742 73.3898 58.3979 73.2667 58.3979H70.5576C69.942 58.3979 69.942 57.903 69.942 57.6556V53.2015C69.942 52.9541 69.942 52.4592 70.5576 52.4592H73.1435C73.2667 52.4592 73.3898 52.5829 73.3898 52.7066C73.3898 52.8303 73.2667 52.9541 73.1435 52.9541H70.6808C70.4345 52.9541 70.4345 52.9541 70.4345 53.2015V55.0574H72.8973Z" fill="black"></path><path d="M73.2667 58.5217H70.5576C70.0651 58.5217 69.5725 58.398 69.5725 57.5319V53.2015C69.5725 52.3355 70.0651 52.2117 70.5576 52.2117H73.1435C73.5129 52.2117 73.6361 52.4592 73.6361 52.7066C73.6361 52.9541 73.3898 53.2015 73.1435 53.2015H70.6808V54.6862H72.8973C73.2667 54.6862 73.3898 54.9337 73.3898 55.1811C73.3898 55.4286 73.1435 55.676 72.8973 55.676H70.6808V57.4082H73.2667C73.6361 57.4082 73.7592 57.6556 73.7592 57.9031C73.7592 58.2742 73.5129 58.5217 73.2667 58.5217Z" fill="black"></path><path d="M78.3153 57.903C78.4384 58.0268 78.4384 58.0268 78.4384 58.1505C78.4384 58.2742 78.3153 58.3979 78.1922 58.3979C78.069 58.3979 78.069 58.2742 77.9459 58.2742L75.9757 55.676H75.36V58.1505C75.36 58.3979 75.2369 58.3979 75.1137 58.3979C74.9906 58.3979 74.8675 58.2742 74.8675 58.1505V53.2015C74.8675 52.9541 74.8675 52.4592 75.4831 52.4592H76.4682C77.6996 52.4592 78.1922 53.2015 78.1922 54.0676C78.1922 54.8099 77.8227 55.676 76.4682 55.676L78.3153 57.903ZM76.3451 55.1811C76.7145 55.1811 77.8227 55.1811 77.8227 54.0676C77.8227 52.9541 76.8376 52.9541 76.3451 52.9541H75.6063C75.36 52.9541 75.36 52.9541 75.36 53.2015V55.1811H76.3451Z" fill="black"></path><path d="M78.1922 58.6454C77.9459 58.6454 77.8227 58.5217 77.6996 58.3979L75.8526 55.9235H75.6063V58.1505C75.6063 58.5217 75.36 58.6454 75.1137 58.6454C74.7443 58.6454 74.6212 58.3979 74.6212 58.1505V53.2015C74.6212 52.3355 75.1137 52.2117 75.6063 52.2117H76.5914C77.8227 52.2117 78.6847 52.9541 78.6847 54.0676C78.6847 54.8099 78.3153 55.676 77.2071 55.9235L78.6847 57.7793L78.4384 58.0268L78.6847 57.903C78.8078 58.0268 78.8078 58.1505 78.8078 58.2742C78.8078 58.3979 78.4384 58.6454 78.1922 58.6454ZM78.1922 58.0268C78.1922 58.0268 78.1922 58.1505 78.1922 58.0268V58.0268ZM75.6063 54.8099H76.3451C77.2071 54.8099 77.4533 54.5625 77.4533 53.9439C77.4533 53.2015 76.9608 53.0778 76.3451 53.0778H75.7294L75.6063 54.8099Z" fill="black"></path><path d="M82.7482 57.6556C83.1176 57.7793 83.4871 57.903 83.8565 57.903C84.5953 57.903 85.3341 57.6556 85.3341 56.6658C85.3341 55.7997 84.7184 55.676 84.1027 55.4286C83.3639 55.1811 82.502 54.9337 82.502 53.8201C82.502 52.9541 83.1176 52.2117 84.2259 52.2117C84.5953 52.2117 84.9647 52.3355 85.3341 52.4592C85.4573 52.4592 85.4573 52.5829 85.4573 52.7066C85.4573 52.8303 85.3341 52.9541 85.211 52.9541C85.211 52.9541 85.0878 52.9541 84.9647 52.8304C84.8416 52.7066 84.4722 52.7066 84.1027 52.7066C83.2408 52.7066 82.8714 53.3252 82.8714 53.8201C82.8714 54.5625 83.4871 54.8099 84.1027 54.9337C84.8416 55.1811 85.7035 55.5523 85.7035 56.5421C85.7035 57.6556 84.8416 58.1505 83.7333 58.1505C82.9945 58.1505 82.6251 57.903 82.3788 57.903C82.2557 57.903 82.1325 57.7793 82.1325 57.6556C82.1325 57.5319 82.2557 57.4082 82.3788 57.4082C82.502 57.5319 82.6251 57.6556 82.7482 57.6556Z" fill="black"></path><path d="M83.8565 58.6454C83.1176 58.6454 82.6251 58.398 82.3788 58.2742C82.1325 58.1505 82.0094 58.0268 82.0094 57.7793C82.0094 57.5319 82.2557 57.2844 82.502 57.2844C82.6251 57.2844 82.6251 57.2844 82.7482 57.4082H82.8714C83.1176 57.5319 83.4871 57.6556 83.8565 57.6556C84.1027 57.6556 85.0878 57.5319 85.0878 56.7895C85.0878 56.1709 84.7184 56.0472 84.1027 55.7997C83.3639 55.5523 82.3788 55.1811 82.3788 53.9439C82.3788 52.8304 83.2408 52.088 84.349 52.088C84.7184 52.088 85.211 52.2117 85.5804 52.3355C85.8267 52.4592 85.9498 52.7066 85.9498 52.8304C85.9498 53.0778 85.7035 53.3253 85.4573 53.3253C85.3341 53.3253 85.211 53.3253 85.0878 53.2015C84.9647 53.2015 84.7184 53.0778 84.349 53.0778C83.7333 53.0778 83.4871 53.449 83.4871 53.9439C83.4871 54.4388 83.7333 54.5625 84.4722 54.81C85.211 55.0574 86.3192 55.4286 86.3192 56.7895C86.0729 57.9031 85.211 58.6454 83.8565 58.6454Z" fill="black"></path><path d="M88.0431 56.4184L87.4274 58.1505C87.4274 58.2742 87.3043 58.398 87.1812 58.398C87.058 58.398 86.9349 58.2742 86.9349 58.1505V58.0268L89.0282 52.7066C89.0282 52.5829 89.1514 52.4592 89.3976 52.4592C89.6439 52.4592 89.7671 52.7066 89.7671 52.7066L91.8604 58.0268C91.8604 58.0268 91.8604 58.1505 91.8604 58.2742C91.8604 58.3979 91.7373 58.5217 91.6141 58.5217C91.491 58.5217 91.3678 58.3979 91.3678 58.2742L90.7522 56.5421H88.0431V56.4184ZM90.629 56.0472L89.3976 52.9541L88.1663 56.0472H90.629Z" fill="black"></path><path d="M91.7373 58.6454C91.3678 58.6454 91.2447 58.398 91.2447 58.2742L90.629 56.6658H88.2894L87.6737 58.1505C87.6737 58.2742 87.5506 58.5217 87.1812 58.5217C86.9349 58.5217 86.5655 58.2743 86.5655 58.0268C86.5655 57.9031 86.5655 57.9031 86.5655 57.7794L88.6588 52.3355C88.782 51.9643 89.1514 51.8406 89.3976 51.8406C89.6439 51.8406 89.8902 51.9643 90.1365 52.3355L92.2298 57.6556C92.2298 57.7793 92.3529 57.9031 92.3529 57.9031C92.3529 58.5217 91.9835 58.6454 91.7373 58.6454ZM88.6588 55.676H90.1365L89.3976 53.6964L88.6588 55.676Z" fill="black"></path><path d="M93.9537 58.2742C93.338 58.2742 93.338 57.7793 93.338 57.5319V52.5829C93.338 52.3355 93.4612 52.3354 93.5843 52.3354C93.7075 52.3354 93.8306 52.4592 93.8306 52.5829V57.5319C93.8306 57.7793 93.9537 57.7793 94.0769 57.7793H95.9239C96.0471 57.7793 96.1702 57.903 96.1702 58.0268C96.1702 58.1505 96.0471 58.2742 95.9239 58.2742H93.9537Z" fill="black"></path><path d="M95.9239 58.5217H93.9537C93.4612 58.5217 92.9686 58.398 92.9686 57.5319V52.5829C92.9686 52.2117 93.2149 52.088 93.4612 52.088C93.8306 52.088 93.9537 52.3355 93.9537 52.5829V57.5319H95.6776C96.0471 57.5319 96.1702 57.7793 96.1702 58.0268C96.4165 58.2742 96.1702 58.5217 95.9239 58.5217Z" fill="black"></path><path d="M100.357 55.0574C100.48 55.0574 100.603 55.1811 100.603 55.3048C100.603 55.4286 100.48 55.5523 100.357 55.5523H97.8941V57.6556C97.8941 57.903 98.0173 57.903 98.1404 57.903H100.726C100.849 57.903 100.973 58.0268 100.973 58.1505C100.973 58.2742 100.849 58.3979 100.726 58.3979H98.0173C97.4016 58.3979 97.4016 57.903 97.4016 57.6556V53.2015C97.4016 52.9541 97.4016 52.4592 98.0173 52.4592H100.603C100.726 52.4592 100.849 52.5829 100.849 52.7066C100.849 52.8303 100.726 52.9541 100.603 52.9541H98.1404C97.8941 52.9541 97.8941 52.9541 97.8941 53.2015V55.0574H100.357Z" fill="black"></path><path d="M100.726 58.5217H98.0173C97.5247 58.5217 97.0322 58.398 97.0322 57.5319V53.2015C97.0322 52.3355 97.5247 52.2117 98.0173 52.2117H100.603C100.973 52.2117 101.096 52.4592 101.096 52.7066C101.096 52.9541 100.849 53.2015 100.603 53.2015H98.1404V54.6862H100.357C100.726 54.6862 100.849 54.9337 100.849 55.1811C100.849 55.4286 100.603 55.676 100.357 55.676H98.1404V57.4082H100.726C101.096 57.4082 101.219 57.6556 101.219 57.9031C101.342 58.2742 101.096 58.5217 100.726 58.5217Z" fill="black"></path><path d="M110.085 28.3329H107.868C105.898 28.3329 104.174 26.6007 104.174 24.6211V22.3941C104.174 20.2908 105.898 18.6824 107.868 18.6824H110.085C112.178 18.6824 113.779 20.2908 113.779 22.3941V24.6211C113.779 26.6007 112.178 28.3329 110.085 28.3329Z" fill="black"></path><path d="M110.7 21.6518C110.7 21.6518 110.824 21.6518 110.7 21.6518C110.947 21.6518 111.07 21.6518 111.07 21.7755V21.8993L109.346 23.6314L111.07 25.3635V25.4873C111.07 25.611 110.947 25.7347 110.824 25.7347H110.7L108.976 24.0026L107.253 25.7347H107.129C107.006 25.7347 106.883 25.611 106.883 25.4873V25.3635L108.607 23.6314L106.883 21.8993V21.7755C106.883 21.6518 107.006 21.5281 107.129 21.5281H107.253L108.976 23.2602L110.7 21.6518Z" fill="white"></path><path d="M110.824 26.1059C110.7 26.1059 110.577 26.1059 110.454 25.9822L108.976 24.4975L107.499 25.9822C107.376 26.1059 107.253 26.1059 107.129 26.1059C106.883 26.1059 106.637 25.8584 106.637 25.611C106.637 25.4873 106.637 25.3635 106.76 25.2398L108.238 23.7551L106.76 22.2704C106.637 22.1467 106.637 22.023 106.637 21.8993C106.637 21.5281 107.129 21.2806 107.499 21.5281L109.1 23.1365L110.7 21.5281C110.824 21.4044 110.947 21.4044 111.07 21.4044C111.316 21.4044 111.562 21.6518 111.562 21.8993C111.562 22.023 111.562 22.1467 111.439 22.2704L109.962 23.7551L111.439 25.2398C111.562 25.3635 111.562 25.4873 111.562 25.611C111.316 25.8584 111.07 26.1059 110.824 26.1059Z" fill="white"></path></svg> 