<?xml version="1.0" encoding="UTF-8"?> <svg xmlns="http://www.w3.org/2000/svg" width="96" height="118" viewBox="0 0 96 118" fill="none"><g clip-path="url(#clip0)"><path d="M27.6865 57.4216H1.95611C0.902821 57.4216 0 56.5197 0 55.4675V17.4369C0 16.3847 0.902821 15.4828 1.95611 15.4828H27.6865C28.7398 15.4828 29.6426 16.3847 29.6426 17.4369V55.4675C29.6426 56.5197 28.7398 57.4216 27.6865 57.4216ZM3.0094 54.4153H26.6332V18.4892H3.0094V54.4153Z" fill="black"></path><path d="M94.0439 57.4216H68.3135C67.2602 57.4216 66.3574 56.5197 66.3574 55.4675V17.4369C66.3574 16.3847 67.2602 15.4828 68.3135 15.4828H94.0439C95.0972 15.4828 96 16.3847 96 17.4369V55.4675C96 56.5197 95.0972 57.4216 94.0439 57.4216ZM69.3668 54.4153H92.9906V18.4892H69.3668V54.4153Z" fill="black"></path><path d="M94.0439 95.3019H68.3135C67.2602 95.3019 66.3574 94.3999 66.3574 93.3477V63.1337C66.3574 62.0815 67.2602 61.1796 68.3135 61.1796H94.0439C95.0972 61.1796 96 62.0815 96 63.1337V93.3477C96 94.3999 95.0972 95.3019 94.0439 95.3019ZM69.3668 92.2955H92.9906V64.1859H69.3668V92.2955Z" fill="black"></path><path d="M27.6865 85.0802H1.95611C0.902821 85.0802 0 84.1783 0 83.1261V63.1337C0 62.0815 0.902821 61.1796 1.95611 61.1796H27.6865C28.7398 61.1796 29.6426 62.0815 29.6426 63.1337V83.1261C29.6426 84.3286 28.7398 85.0802 27.6865 85.0802ZM3.0094 82.0738H26.6332V64.1859H3.0094V82.0738Z" fill="black"></path><path d="M94.0439 118H68.3135C67.2602 118 66.3574 117.098 66.3574 116.046V101.014C66.3574 99.9618 67.2602 99.0599 68.3135 99.0599H94.0439C95.0972 99.0599 96 99.9618 96 101.014V116.046C96 117.098 95.0972 118 94.0439 118ZM69.3668 114.994H92.9906V102.217H69.3668V114.994Z" fill="black"></path><path d="M60.79 39.3834H34.9091C33.8558 39.3834 32.953 38.4815 32.953 37.4293V17.4369C32.953 16.3847 33.8558 15.4828 34.9091 15.4828H60.6395C61.6928 15.4828 62.5956 16.3847 62.5956 17.4369V37.5796C62.7461 38.6318 61.8433 39.3834 60.79 39.3834ZM36.1128 36.3771H59.7367V18.4892H36.1128V36.3771Z" fill="black"></path><path d="M60.79 65.5389H34.9091C33.8558 65.5389 32.953 64.637 32.953 63.5847V45.6968C32.953 44.6446 33.8558 43.7427 34.9091 43.7427H60.6395C61.6928 43.7427 62.5956 44.6446 62.5956 45.6968V63.5847C62.7461 64.637 61.8433 65.5389 60.79 65.5389ZM36.1128 62.5325H59.7367V46.749H36.1128V62.5325Z" fill="black"></path><path d="M27.6865 118H1.95611C0.902821 118 0 117.098 0 116.046V90.9427C0 89.8904 0.902821 88.9885 1.95611 88.9885H27.6865C28.7398 88.9885 29.6426 89.8904 29.6426 90.9427V116.046C29.6426 117.098 28.7398 118 27.6865 118ZM3.0094 114.994H26.6332V91.9949H3.0094V114.994Z" fill="black"></path><path d="M60.79 118H34.9091C33.8558 118 32.953 117.098 32.953 116.046V71.2509C32.953 70.1987 33.8558 69.2968 34.9091 69.2968H60.6395C61.6928 69.2968 62.5956 70.1987 62.5956 71.2509V116.046C62.7461 117.098 61.8433 118 60.79 118ZM36.1128 114.994H59.7367V72.3031H36.1128V114.994Z" fill="black"></path><path d="M16.7022 9.16942H4.66458C2.40752 9.16942 0.451412 7.21528 0.451412 4.9605C0.451412 2.70573 2.40752 0.751587 4.66458 0.751587H16.7022C18.9592 0.751587 20.9154 2.70573 20.9154 4.9605C20.9154 7.3656 19.1097 9.16942 16.7022 9.16942Z" fill="black"></path><path d="M41.3793 9.92102H29.3417C26.6332 9.92102 24.3762 7.66624 24.3762 4.96051C24.3762 2.25478 26.6332 0 29.3417 0H41.3793C44.0878 0 46.3448 2.25478 46.3448 4.96051C46.3448 7.66624 44.2382 9.92102 41.3793 9.92102ZM29.4922 1.50318C27.536 1.50318 26.0313 3.00637 26.0313 4.96051C26.0313 6.91465 27.536 8.41783 29.4922 8.41783H41.5298C43.4859 8.41783 44.9906 6.91465 44.9906 4.96051C44.9906 3.00637 43.4859 1.50318 41.5298 1.50318H29.4922Z" fill="black"></path><path d="M66.2069 9.92102H54.1693C51.4608 9.92102 49.2038 7.66624 49.2038 4.96051C49.2038 2.25478 51.4608 0 54.1693 0H66.2069C68.9154 0 71.1724 2.25478 71.1724 4.96051C71.1724 7.66624 68.9154 9.92102 66.2069 9.92102ZM54.1693 1.50318C52.2132 1.50318 50.7085 3.00637 50.7085 4.96051C50.7085 6.91465 52.2132 8.41783 54.1693 8.41783H66.2069C68.163 8.41783 69.6677 6.91465 69.6677 4.96051C69.6677 3.00637 68.0126 1.50318 66.2069 1.50318H54.1693Z" fill="black"></path><path d="M90.884 9.92102H78.8464C76.1379 9.92102 73.8809 7.66624 73.8809 4.96051C73.8809 2.25478 76.1379 0 78.8464 0H90.884C93.5925 0 95.8495 2.25478 95.8495 4.96051C95.8495 7.66624 93.5925 9.92102 90.884 9.92102ZM78.8464 1.50318C76.8903 1.50318 75.3856 3.00637 75.3856 4.96051C75.3856 6.91465 76.8903 8.41783 78.8464 8.41783H90.884C92.8401 8.41783 94.3448 6.91465 94.3448 4.96051C94.3448 3.00637 92.8401 1.50318 90.884 1.50318H78.8464Z" fill="black"></path><path d="M26.9342 35.1745C12.9404 35.1745 9.17868 21.7962 9.17868 21.6459C9.02821 20.8943 9.47962 19.9924 10.232 19.842C10.9843 19.6917 11.8871 20.1427 12.0376 20.8943C12.1881 21.3452 15.1975 32.1682 26.9342 32.1682C36.7147 32.1682 45.1411 26.3057 48.4514 23.7503C49.0533 23.2994 50.1066 23.2994 50.558 24.051C51.0094 24.6522 51.0094 25.7045 50.2571 26.1554C46.9467 28.8611 37.6176 35.1745 26.9342 35.1745Z" fill="black"></path><path d="M40.326 22.5479L40.0251 24.2014L48.7524 25.2536L47.2477 33.8217L48.9028 34.1224L50.8589 23.6001L40.326 22.5479Z" fill="black"></path></g><defs><clipPath id="clip0"><rect width="96" height="118" fill="white"></rect></clipPath></defs></svg> 