<?xml version="1.0" encoding="UTF-8"?> <svg xmlns="http://www.w3.org/2000/svg" width="152" height="90" viewBox="0 0 152 90" fill="none"><g clip-path="url(#clip0)"><path d="M18.8716 23.5561C23.0548 23.5561 26.446 20.1744 26.446 16.0028C26.446 11.8312 23.0548 8.44946 18.8716 8.44946C14.6884 8.44946 11.2973 11.8312 11.2973 16.0028C11.2973 20.1744 14.6884 23.5561 18.8716 23.5561Z" fill="black"></path><path d="M21.5676 23.5562L24.3919 30.5974L27.8581 28.421L23.4932 22.532L21.5676 23.5562Z" fill="black"></path><path d="M18.8716 20.6117C21.4241 20.6117 23.4932 18.5482 23.4932 16.0029C23.4932 13.4575 21.4241 11.394 18.8716 11.394C16.3192 11.394 14.25 13.4575 14.25 16.0029C14.25 18.5482 16.3192 20.6117 18.8716 20.6117Z" fill="#EFEBE1"></path><path d="M46.6014 75.0214C50.7845 75.0214 54.1757 71.6396 54.1757 67.468C54.1757 63.2964 50.7845 59.9147 46.6014 59.9147C42.4182 59.9147 39.027 63.2964 39.027 67.468C39.027 71.6396 42.4182 75.0214 46.6014 75.0214Z" fill="black"></path><path d="M49.2973 75.0213L52.1216 81.9346L55.5878 79.8862L51.223 73.8691L49.2973 75.0213Z" fill="black"></path><path d="M46.6014 72.0768C49.1538 72.0768 51.223 70.0133 51.223 67.468C51.223 64.9226 49.1538 62.8591 46.6014 62.8591C44.0489 62.8591 41.9797 64.9226 41.9797 67.468C41.9797 70.0133 44.0489 72.0768 46.6014 72.0768Z" fill="#EFEBE1"></path><path d="M35.5608 38.1508H4.87838C2.18243 38.1508 0 35.9744 0 33.2859V4.86486C0 2.17639 2.18243 0 4.87838 0H35.5608C38.2568 0 40.4392 2.17639 40.4392 4.86486V33.2859C40.5676 35.9744 38.2568 38.1508 35.5608 38.1508ZM4.87838 2.56046C3.59459 2.56046 2.56757 3.58464 2.56757 4.86486V33.2859C2.56757 34.5661 3.59459 35.5903 4.87838 35.5903H35.5608C36.8446 35.5903 37.8716 34.5661 37.8716 33.2859V4.86486C37.8716 3.58464 36.8446 2.56046 35.5608 2.56046H4.87838Z" fill="black"></path><path d="M147.122 90H33.1216C30.4257 90 28.2433 87.8236 28.2433 85.1352V56.7141C28.2433 54.0256 30.4257 51.8492 33.1216 51.8492H147.25C149.946 51.8492 152.128 54.0256 152.128 56.7141V85.1352C152 87.8236 149.818 90 147.122 90ZM33.1216 54.4097C31.8378 54.4097 30.8108 55.4339 30.8108 56.7141V85.1352C30.8108 86.4154 31.8378 87.4396 33.1216 87.4396H147.25C148.534 87.4396 149.561 86.4154 149.561 85.1352V56.7141C149.561 55.4339 148.534 54.4097 147.25 54.4097H33.1216Z" fill="black"></path><path d="M66.3716 81.9346C65.9865 81.9346 65.7297 81.6786 65.7297 81.2945V61.1949C65.7297 60.8109 65.9865 60.5548 66.3716 60.5548C66.7568 60.5548 67.0135 60.8109 67.0135 61.1949V81.2945C67.0135 81.6786 66.6284 81.9346 66.3716 81.9346Z" fill="black"></path><path d="M61.8784 26.7568C61.4933 26.7568 61.2365 26.3727 61.2365 26.1167C61.2365 26.1167 61.2365 25.8606 61.3649 25.3485C61.4933 24.9644 61.75 24.8364 62.1352 24.8364C62.5203 24.9644 62.6487 25.2205 62.6487 25.6046C62.5203 25.8606 62.5203 26.1167 62.5203 26.1167C62.5203 26.5007 62.1352 26.7568 61.8784 26.7568Z" fill="black"></path><path d="M63.8041 22.7879C63.6757 22.7879 63.5473 22.7879 63.4189 22.6599C63.1622 22.4039 63.1622 22.0198 63.4189 21.7638C63.6757 21.3797 64.0608 21.1236 64.446 20.8676C64.7027 20.6115 65.0879 20.7396 65.3446 20.9956C65.6014 21.2517 65.473 21.6357 65.2162 21.8918C64.9595 22.1478 64.5743 22.4039 64.3176 22.6599C64.0608 22.7879 63.9325 22.7879 63.8041 22.7879Z" fill="black"></path><path d="M91.277 28.1649C91.0203 28.1649 90.7635 28.0369 90.6351 27.7809C90.5067 27.3968 90.3784 27.0127 90.1216 26.6287C89.9932 26.3726 90.1216 25.9886 90.3784 25.7325C90.6351 25.6045 91.0203 25.7325 91.277 25.9886C91.5338 26.3726 91.6621 26.7567 91.7905 27.1408C91.9189 27.5248 91.7905 27.7809 91.4054 27.9089C91.4054 28.1649 91.277 28.1649 91.277 28.1649ZM88.4527 23.9402C88.3243 23.9402 88.0676 23.9402 88.0676 23.8122C87.8108 23.5561 87.4257 23.3001 87.1689 23.044C86.9122 22.788 86.7838 22.4039 87.0405 22.1479C87.2973 21.8918 87.6824 21.7638 87.9392 22.0199C88.3243 22.2759 88.5811 22.66 88.9662 22.916C89.223 23.1721 89.223 23.5561 88.9662 23.8122C88.8378 23.9402 88.5811 23.9402 88.4527 23.9402ZM84.2162 21.2517C84.0878 21.2517 84.0878 21.2517 83.9595 21.2517C83.5743 21.1237 83.1892 20.9957 82.804 20.8676C82.4189 20.7396 82.2905 20.3556 82.4189 20.0995C82.5473 19.7154 82.9324 19.5874 83.1892 19.7154C83.5743 19.8435 84.0878 19.9715 84.473 20.2275C84.8581 20.3556 84.9865 20.7396 84.8581 21.1237C84.7297 21.1237 84.473 21.2517 84.2162 21.2517ZM68.0405 20.2275C67.7838 20.2275 67.527 20.0995 67.3986 19.8435C67.2703 19.4594 67.527 19.2034 67.7838 19.0753C68.1689 18.9473 68.5541 18.8193 69.0676 18.6913C69.4527 18.5632 69.7095 18.8193 69.8378 19.2034C69.9662 19.5874 69.7095 19.8435 69.3243 19.9715C68.9392 20.0995 68.5541 20.2275 68.1689 20.3556C68.1689 20.2275 68.0405 20.2275 68.0405 20.2275ZM79.3378 19.8435C79.3378 19.8435 79.2095 19.8435 79.3378 19.8435C79.0811 19.8435 78.8243 19.7154 78.6959 19.7154L78.054 19.5874C77.6689 19.5874 77.4122 19.2034 77.5405 18.8193C77.5405 18.4352 77.9257 18.1792 78.3108 18.3072L78.9527 18.4352C79.2095 18.4352 79.3378 18.4352 79.5946 18.5632C79.9797 18.5632 80.2365 18.9473 80.1081 19.3314C79.8513 19.5874 79.5946 19.8435 79.3378 19.8435ZM73.0473 19.3314C72.6622 19.3314 72.4054 19.0753 72.4054 18.6913C72.4054 18.3072 72.6622 18.0511 73.0473 18.0511C73.3041 18.0511 73.6892 18.0511 73.9459 18.0511H74.3311C74.7162 18.0511 74.973 18.3072 74.973 18.6913C74.973 19.0753 74.7162 19.3314 74.3311 19.3314H73.9459C73.5608 19.3314 73.3041 19.3314 73.0473 19.3314Z" fill="black"></path><path d="M92.1757 32.5177C91.7906 32.5177 91.5338 32.2617 91.5338 31.8776C91.5338 31.6216 91.5338 31.4935 91.5338 31.2375C91.5338 30.8534 91.7906 30.5974 92.0473 30.4694C92.4325 30.4694 92.6892 30.7254 92.8176 30.9815C92.8176 31.2375 92.8176 31.3655 92.8176 31.6216C92.8176 32.1337 92.5608 32.5177 92.1757 32.5177Z" fill="black"></path><path d="M87.9392 30.3413L91.5338 37.8947L96.2838 30.9814L87.9392 30.3413Z" fill="black"></path></g><defs><clipPath id="clip0"><rect width="152" height="90" fill="white"></rect></clipPath></defs></svg> 