<?xml version="1.0" encoding="UTF-8"?> <svg xmlns="http://www.w3.org/2000/svg" width="103" height="113" viewBox="0 0 103 113" fill="none"><path d="M97.0061 18.6505H5.99387C2.68147 18.6505 0 15.9861 0 12.6949V5.95562C0 2.66436 2.68147 0 5.99387 0H97.0061C100.319 0 103 2.66436 103 5.95562V12.6949C103 15.9861 100.319 18.6505 97.0061 18.6505ZM5.99387 3.13454C4.41654 3.13454 3.15467 4.38835 3.15467 5.95562V12.6949C3.15467 14.2621 4.41654 15.5159 5.99387 15.5159H97.0061C98.5835 15.5159 99.8453 14.2621 99.8453 12.6949V5.95562C99.8453 4.38835 98.5835 3.13454 97.0061 3.13454H5.99387Z" fill="black"></path><path d="M90.2236 6.26909C90.2236 6.11237 90.3813 6.11237 90.3813 6.11237C90.5391 6.11237 90.5391 6.11237 90.5391 6.26909V8.61999H93.0628C93.2205 8.61999 93.2205 8.77672 93.2205 8.77672C93.2205 8.93345 93.2205 8.93345 93.0628 8.93345H90.6968V11.2843C90.6968 11.4411 90.5391 11.4411 90.5391 11.4411C90.3813 11.4411 90.3813 11.4411 90.3813 11.2843V9.09018H88.0153C87.8576 9.09018 87.8576 8.93345 87.8576 8.93345C87.8576 8.77672 87.8576 8.77672 88.0153 8.77672H90.3813V6.26909H90.2236Z" fill="black"></path><path d="M90.539 12.5382C89.9081 12.5382 89.5926 12.068 89.5926 11.5978V10.0305H88.0153C87.3844 10.0305 87.0689 9.56036 87.0689 9.09018C87.0689 8.46327 87.5421 8.14982 88.0153 8.14982H89.5926V6.2691C89.5926 5.64219 90.0658 5.32874 90.539 5.32874C91.0122 5.32874 91.4854 5.79892 91.4854 6.2691V7.83636H93.0628C93.6937 7.83636 94.0092 8.30654 94.0092 8.77672C94.0092 9.40363 93.536 9.71708 93.0628 9.71708H91.4854V11.2844C91.4854 12.068 91.0122 12.5382 90.539 12.5382Z" fill="black"></path><path d="M97.0061 113H5.99387C2.68147 113 0 110.336 0 107.044V100.305C0 97.0138 2.68147 94.3495 5.99387 94.3495H97.0061C100.319 94.3495 103 97.0138 103 100.305V107.044C103 110.336 100.319 113 97.0061 113ZM5.99387 97.484C4.41654 97.484 3.15467 98.7378 3.15467 100.305V107.044C3.15467 108.612 4.41654 109.865 5.99387 109.865H97.0061C98.5835 109.865 99.8453 108.612 99.8453 107.044V100.305C99.8453 98.7378 98.5835 97.484 97.0061 97.484H5.99387Z" fill="black"></path><path d="M90.2236 100.619C90.2236 100.462 90.3813 100.462 90.3813 100.462C90.5391 100.462 90.5391 100.462 90.5391 100.619V102.97H93.0628C93.2205 102.97 93.2205 103.126 93.2205 103.126C93.2205 103.283 93.2205 103.283 93.0628 103.283H90.6968V105.634C90.6968 105.791 90.5391 105.791 90.5391 105.791C90.3813 105.791 90.3813 105.791 90.3813 105.634V103.44H88.0153C87.8576 103.44 87.8576 103.283 87.8576 103.283C87.8576 103.126 87.8576 103.126 88.0153 103.126H90.3813V100.619H90.2236Z" fill="black"></path><path d="M90.539 106.888C89.9081 106.888 89.5926 106.417 89.5926 105.947V104.38H88.0153C87.3844 104.38 87.0689 103.91 87.0689 103.44C87.0689 102.813 87.5421 102.499 88.0153 102.499H89.5926V100.932C89.5926 100.305 90.0658 99.9917 90.539 99.9917C91.0122 99.9917 91.4854 100.462 91.4854 100.932V102.499H93.0628C93.6937 102.499 94.0092 102.97 94.0092 103.44C94.0092 104.067 93.536 104.38 93.0628 104.38H91.4854V105.947C91.4854 106.417 91.0122 106.888 90.539 106.888Z" fill="black"></path><path d="M97.0061 88.0804H5.99387C2.68147 88.0804 0 85.4161 0 82.1248V27.8973C0 24.6061 2.68147 21.9417 5.99387 21.9417H97.0061C100.319 21.9417 103 24.6061 103 27.8973V81.9681C103 85.416 100.319 88.0804 97.0061 88.0804ZM5.99387 25.0762C4.41654 25.0762 3.15467 26.3301 3.15467 27.8973V81.9681C3.15467 83.5353 4.41654 84.7891 5.99387 84.7891H97.0061C98.5835 84.7891 99.8453 83.5353 99.8453 81.9681V27.8973C99.8453 26.3301 98.5835 25.0762 97.0061 25.0762H5.99387Z" fill="black"></path><path d="M93.0628 30.5618C93.2205 30.5618 93.2205 30.7185 93.2205 30.7185C93.2205 30.8752 93.2205 30.8752 93.0628 30.8752H87.8576C87.6999 30.8752 87.6999 30.7185 87.6999 30.7185C87.6999 30.5618 87.6999 30.5618 87.8576 30.5618H93.0628Z" fill="black"></path><path d="M93.0628 31.8155H87.8576C87.2267 31.8155 86.9112 31.3454 86.9112 30.8752C86.9112 30.2483 87.3844 29.9348 87.8576 29.9348H93.0628C93.6937 29.9348 94.0092 30.405 94.0092 30.8752C94.1669 31.5021 93.6937 31.8155 93.0628 31.8155Z" fill="black"></path><path d="M101.423 36.9875H1.57733V40.122H101.423V36.9875Z" fill="black"></path><path d="M49.6861 33.6963C49.0551 33.853 48.5819 34.3232 48.2665 34.7934C48.1087 35.1068 47.951 35.2635 47.7933 35.577C47.6355 35.8904 47.6355 36.2039 47.6355 36.5173V45.294C47.3201 44.9806 47.0046 44.5104 46.2159 43.8835C45.9005 43.5701 45.585 43.4133 45.2695 43.0999C44.9541 42.9431 44.6386 42.7864 44.1654 42.7864C43.8499 42.7864 43.5345 42.7864 43.3767 42.9431C42.9035 43.0999 42.4303 43.5701 42.1149 44.0402C41.7994 44.5104 41.6417 44.9806 41.6417 45.6075C41.6417 46.2344 41.7994 46.7046 42.1149 47.1748C42.1149 47.1748 42.2726 47.3315 42.4303 47.4882C42.9035 48.1151 43.6922 49.5257 44.6386 50.7795C45.4273 52.0333 46.2159 53.2871 46.8469 54.0707C46.5314 54.5409 46.2159 55.1678 46.2159 55.7947V56.2649C46.2159 57.0486 46.5314 57.6755 47.0046 58.1456C47.4778 58.6158 48.1087 58.9293 48.8974 58.9293H56.6264C57.415 58.9293 58.046 58.6158 58.5192 58.1456C58.9924 57.6755 59.3078 57.0486 59.3078 56.2649V55.7947C59.3078 55.1678 59.1501 54.6977 58.6769 54.2275L60.5697 48.5853C60.7274 48.1151 60.8852 47.645 60.8852 47.1748C60.8852 45.294 59.781 43.7268 58.046 42.9431L53.7871 41.0624V36.5173C53.7871 35.7337 53.4717 34.9501 52.8407 34.3232C52.2098 33.6963 51.4211 33.3828 50.6325 33.3828C50.4747 33.3828 50.1593 33.5395 49.6861 33.6963ZM52.0521 35.4203C52.3675 35.7337 52.5253 36.0472 52.5253 36.5173V41.2192C52.5253 41.6893 52.8407 42.3162 53.3139 42.473L57.7305 44.3537C58.3614 44.6671 58.6769 44.9806 58.9924 45.4508C59.3078 45.921 59.4656 46.5479 59.4656 47.018C59.4656 47.3315 59.4656 47.645 59.3078 47.9584L57.415 53.7573H52.3675C52.2098 53.7573 51.8943 53.914 51.8943 54.2275C51.8943 54.3842 52.0521 54.6977 52.3675 54.6977H57.0996V54.8544L57.2573 55.0111C57.415 55.1678 57.5728 55.1678 57.5728 55.3246C57.7305 55.4813 57.7305 55.638 57.7305 55.7947V56.2649C57.7305 56.5784 57.5728 56.8918 57.415 57.0486C57.2573 57.2053 56.9418 57.362 56.6264 57.362H48.8974C48.5819 57.362 48.2665 57.2053 48.1087 57.0486C47.951 56.8918 47.7933 56.5784 47.7933 56.2649V55.7947C47.7933 55.4813 47.7933 55.3246 47.951 55.1678C48.1087 55.0111 48.2665 54.8544 48.4242 54.8544L48.7397 54.6977V54.2275V54.0707C48.7397 54.0707 47.4778 52.19 46.2159 50.3093C45.585 49.3689 44.9541 48.4286 44.4809 47.6449C44.1654 47.3315 44.0077 46.8613 43.8499 46.7046C43.6922 46.5479 43.6922 46.3911 43.6922 46.3911C43.6922 46.2344 43.5345 46.2344 43.5345 46.2344C43.5345 46.0777 43.3767 46.0777 43.3767 45.921C43.3767 45.7642 43.3767 45.7642 43.3767 45.6075C43.3767 45.4508 43.3767 45.294 43.3767 45.1373C43.3767 44.9806 43.5345 44.6671 43.6922 44.6671L43.8499 44.5104C44.0077 44.5104 44.0077 44.5104 44.1654 44.5104C44.3231 44.5104 44.3231 44.5104 44.4809 44.6671C44.6386 44.6671 44.7963 44.8239 44.9541 44.9806C45.7427 45.7642 46.2159 46.2344 46.5314 46.5479C46.8469 46.8613 47.0046 46.8613 47.0046 46.8613C47.3201 47.018 47.6355 47.1748 47.951 47.1748C48.1087 47.1748 48.2665 47.1748 48.4242 47.018C48.8974 46.8613 49.2129 46.3911 49.2129 45.7642V36.3606C49.2129 36.2039 49.2129 36.0472 49.3706 35.8904C49.5283 35.577 49.6861 35.4203 50.0015 35.2635C50.317 35.1068 50.4747 34.9501 50.7902 34.9501C51.2634 35.1068 51.7366 35.2635 52.0521 35.4203Z" fill="#4C4B4C"></path><path d="M52.4706 36.8307H49.3706V40.9057H52.4706V36.8307Z" fill="#FDFBF5"></path></svg> 