<?xml version="1.0" encoding="UTF-8"?> <svg xmlns="http://www.w3.org/2000/svg" width="195" height="55" viewBox="0 0 195 55" fill="none"><path d="M181.384 47.4543C181.047 47.4543 180.543 47.1189 180.543 46.6158V34.2073C180.543 33.8719 180.879 33.3689 181.384 33.3689C181.72 33.3689 182.224 33.7043 182.224 34.2073V46.6158C182.224 47.1189 181.888 47.4543 181.384 47.4543Z" fill="black"></path><path d="M181.384 47.9573C180.711 47.9573 180.207 47.4543 180.207 46.7836V34.375C180.207 33.7043 180.711 33.2012 181.384 33.2012C182.056 33.2012 182.56 33.7043 182.56 34.375V46.7836C182.56 47.2866 182.056 47.9573 181.384 47.9573ZM181.384 33.872C181.216 33.872 181.047 34.0396 181.047 34.2073V46.6159C181.047 46.7836 181.216 46.9512 181.384 46.9512C181.552 46.9512 181.72 46.7836 181.72 46.6159V34.2073C181.72 34.0396 181.552 33.872 181.384 33.872Z" fill="black"></path><path d="M175.332 41.753L176.341 40.7469L181.384 46.1128L186.427 40.7469L187.435 41.753L181.384 48.2927L175.332 41.753Z" fill="black"></path><path d="M181.384 48.9634L174.659 41.753L176.341 40.2439L181.384 45.6098L186.427 40.2439L188.108 41.753L181.384 48.9634ZM175.836 41.753L181.384 47.6219L186.931 41.753L186.427 41.25L181.384 46.6158L176.341 41.25L175.836 41.753Z" fill="black"></path><path d="M181.552 7.37799C181.888 7.37799 182.392 7.71336 182.392 8.21641V20.6249C182.392 20.9603 182.056 21.4634 181.552 21.4634C181.216 21.4634 180.711 21.128 180.711 20.6249V8.21641C180.711 7.71336 181.047 7.37799 181.552 7.37799Z" fill="black"></path><path d="M181.552 21.7988C180.879 21.7988 180.375 21.2957 180.375 20.625V8.21644C180.375 7.54571 180.879 7.04266 181.552 7.04266C182.224 7.04266 182.728 7.54571 182.728 8.21644V20.625C182.728 21.2957 182.224 21.7988 181.552 21.7988ZM181.552 7.88108C181.384 7.88108 181.216 8.04876 181.216 8.21644V20.625C181.216 20.7927 181.384 20.9603 181.552 20.9603C181.72 20.9603 181.888 20.7927 181.888 20.625V8.21644C181.888 8.04876 181.72 7.88108 181.552 7.88108Z" fill="black"></path><path d="M187.603 13.0793L186.427 14.0854L181.552 8.71955L176.509 14.0854L175.5 13.0793L181.552 6.53967L187.603 13.0793Z" fill="black"></path><path d="M186.427 14.7561L181.384 9.39022L176.341 14.7561L174.659 13.2469L181.384 6.03656L188.108 13.2469L186.427 14.7561ZM181.552 8.04876L186.595 13.4146L187.099 12.9116L181.552 7.21034L176.004 13.0792L176.509 13.5823L181.552 8.04876Z" fill="black"></path><path d="M14.4569 26.6616C14.4569 26.4939 14.625 26.4939 14.625 26.4939C14.7931 26.4939 14.7931 26.6616 14.7931 26.6616V31.8597C14.7931 32.0274 14.7931 32.5305 14.2888 32.5305C13.9526 32.5305 13.9526 32.3628 13.7845 32.1951L10.4224 26.8292V32.1951C10.4224 32.3628 10.2543 32.3628 10.2543 32.3628C10.0862 32.3628 10.0862 32.3628 10.0862 32.1951V26.8292C10.0862 26.6616 10.0862 26.1585 10.5906 26.1585C10.9268 26.1585 10.9268 26.3262 11.0949 26.4939L14.7931 31.8597V26.6616H14.4569Z" fill="#040000"></path><path d="M14.625 32.8659C14.1207 32.8659 13.9526 32.5305 13.7845 32.3628L10.9267 28.1707V32.1951C10.9267 32.6982 10.5905 32.8659 10.2543 32.8659C9.91812 32.8659 9.58191 32.5305 9.58191 32.1951V26.8293C9.58191 25.9909 10.0862 25.8232 10.4224 25.8232C10.9267 25.8232 11.0948 26.1585 11.2629 26.3262L14.1207 30.5183V26.4939C14.1207 25.9909 14.4569 25.8232 14.7931 25.8232C15.1293 25.8232 15.4655 26.1585 15.4655 26.4939V31.8598C15.4655 32.8659 14.9612 32.8659 14.625 32.8659Z" fill="#040000"></path><path d="M20.6767 29.0091C20.8448 29.0091 20.8448 29.1768 20.8448 29.1768C20.8448 29.3445 20.8448 29.3445 20.6767 29.3445H18.1552V31.5244C18.1552 31.6921 18.3233 31.8597 18.4914 31.8597H21.181C21.3491 31.8597 21.3491 32.0274 21.3491 32.0274C21.3491 32.1951 21.3491 32.1951 21.181 32.1951H18.4914C17.819 32.1951 17.819 31.6921 17.819 31.5244V27.1646C17.819 26.9969 17.819 26.4939 18.4914 26.4939H21.181C21.3491 26.4939 21.3491 26.6616 21.3491 26.6616C21.3491 26.8293 21.3491 26.8293 21.181 26.8293H18.6595C18.4914 26.8293 18.3233 26.8293 18.3233 27.1646V29.0091H20.6767Z" fill="#040000"></path><path d="M21.0129 32.8659H18.3233C17.9871 32.8659 17.1465 32.6982 17.1465 31.6921V27.3323C17.1465 26.3263 17.819 26.1586 18.3233 26.1586H21.0129C21.3491 26.1586 21.6853 26.4939 21.6853 26.8293C21.6853 27.1647 21.3491 27.5 21.0129 27.5H18.4914V28.8415H20.6767C21.0129 28.8415 21.3491 29.1769 21.3491 29.5122C21.3491 29.8476 21.0129 30.183 20.6767 30.183H18.4914V31.6921H21.0129C21.3491 31.6921 21.6853 32.0275 21.6853 32.3628C21.6853 32.5305 21.3491 32.8659 21.0129 32.8659Z" fill="#040000"></path><path d="M30.5949 26.4939C30.5949 26.3262 30.5949 26.3262 30.763 26.3262C30.9311 26.3262 31.0992 26.3262 31.0992 26.4939V26.6616L29.4181 32.1951C29.4181 32.3628 29.25 32.5305 29.0819 32.5305C28.7457 32.5305 28.7457 32.3628 28.7457 32.1951L27.0647 26.8293L25.5518 32.0274C25.5518 32.1951 25.3836 32.3628 25.2155 32.3628C24.8793 32.3628 24.8793 32.1951 24.8793 32.0274L23.1983 26.4939C23.1983 26.4939 23.1983 26.4939 23.1983 26.3262C23.1983 26.1585 23.3664 26.1585 23.5345 26.1585C23.7026 26.1585 23.7026 26.1585 23.7026 26.3262L25.3836 31.6921L26.8966 26.3262C26.8966 25.9908 27.0647 25.9908 27.2328 25.9908C27.4009 25.9908 27.569 25.9908 27.569 26.3262L29.0819 31.6921L30.5949 26.4939Z" fill="#040000"></path><path d="M29.0819 32.8659C28.4095 32.8659 28.2414 32.3628 28.2414 32.1952L27.0647 28.3384L25.8879 32.1952C25.8879 32.3628 25.7198 32.8659 25.0474 32.8659C24.375 32.8659 24.375 32.3628 24.2069 32.1952L22.5259 26.6616V26.4939C22.5259 26.1586 22.8621 25.8232 23.1983 25.8232C23.3664 25.8232 23.7026 25.9909 23.8707 26.3262L25.0474 30.3506L26.2242 26.3262C26.2242 25.9909 26.5604 25.6555 27.0647 25.6555C27.2328 25.6555 27.7371 25.6555 27.9052 26.3262L29.0819 30.3506L30.2586 26.3262C30.4267 25.9909 30.5948 25.8232 30.931 25.8232C31.2673 25.8232 31.6035 26.1586 31.6035 26.4939C31.6035 26.6616 31.6035 26.6616 31.6035 26.8293L29.9224 32.1952C29.7543 32.5305 29.5862 32.8659 29.0819 32.8659ZM30.5948 26.4939L30.931 26.6616L30.5948 26.4939Z" fill="#040000"></path><path d="M33.2845 31.8598C33.6207 32.0275 33.9569 32.0275 34.4612 32.0275C35.1337 32.0275 35.9742 31.6922 35.9742 30.8538C35.9742 30.0153 35.3018 29.8477 34.6293 29.5123C33.9569 29.3446 32.9483 29.0092 32.9483 27.8355C32.9483 26.997 33.6207 26.1586 34.6293 26.1586C34.9655 26.1586 35.4699 26.3263 35.8061 26.3263C35.8061 26.3263 35.9742 26.3263 35.9742 26.494C35.9742 26.6617 35.8061 26.6617 35.8061 26.6617H35.638C35.4699 26.6617 35.1337 26.494 34.7974 26.494C33.9569 26.494 33.6207 26.997 33.6207 27.6678C33.6207 28.3385 34.2931 28.6739 34.9655 28.8416C35.638 29.1769 36.6466 29.3446 36.6466 30.5184C36.6466 31.6922 35.8061 32.1952 34.6293 32.1952C33.9569 32.1952 33.4526 32.0275 33.2845 31.8598C33.1164 31.8598 33.1164 31.6922 33.1164 31.6922C33.1164 31.5245 33.2845 31.5245 33.2845 31.5245C33.1164 31.6922 33.1164 31.6922 33.2845 31.8598Z" fill="#040000"></path><path d="M34.4612 32.8659C33.6207 32.8659 33.1164 32.6982 32.9483 32.5306C32.6121 32.3629 32.444 32.1952 32.444 31.8598C32.444 31.3568 32.9483 31.0214 33.4526 31.3568H33.6207C33.9569 31.5245 34.2931 31.5245 34.4612 31.5245C34.7974 31.5245 35.6379 31.5245 35.6379 30.686C35.6379 30.183 35.3017 30.0153 34.6293 29.8476C33.9569 29.6799 32.7802 29.1769 32.7802 27.8354C32.7802 26.3263 34.4612 25.3202 36.3104 26.1586C36.6466 26.3263 36.8147 26.6616 36.8147 26.8293C36.8147 27.1647 36.4785 27.5001 36.1422 27.5001C35.9741 27.5001 35.9741 27.5001 35.806 27.3324C35.6379 27.3324 35.4698 27.1647 35.1336 27.1647C34.6293 27.1647 34.2931 27.5001 34.2931 27.8354C34.2931 28.1708 34.6293 28.3385 35.3017 28.6738C36.1422 29.0092 37.1509 29.3446 37.1509 30.8537C36.8147 32.0275 35.806 32.8659 34.4612 32.8659Z" fill="#040000"></path><path d="M54.9698 32.0275C55.1379 32.0275 55.1379 32.1951 55.1379 32.1951C55.1379 32.3628 55.1379 32.3628 54.9698 32.3628H51.7758C51.4396 32.3628 51.1034 32.3628 51.1034 32.0275C51.1034 31.8598 51.1034 31.6921 51.6077 31.3567C51.9439 31.0214 52.9525 30.1829 53.6249 29.3445C54.1293 28.8415 54.2974 28.3384 54.2974 28.0031C54.2974 27.3323 53.7931 26.8293 53.1206 26.8293C52.6163 26.8293 52.112 26.997 51.7758 27.3323C51.6077 27.5 51.6077 27.5 51.4396 27.5C51.2715 27.5 51.2715 27.3323 51.2715 27.3323C51.2715 27.1646 51.9439 26.3262 52.9525 26.3262C53.7931 26.3262 54.6336 26.8293 54.6336 28.0031C54.6336 28.6738 54.2974 29.1768 53.9612 29.5122C53.2887 30.1829 51.9439 31.3567 51.2715 32.0275H54.9698Z" fill="black"></path><path d="M54.9698 33.0336H51.7758C51.4396 33.0336 50.7672 33.0336 50.7672 32.1952C50.7672 31.6921 50.9353 31.5244 51.4396 31.1891L51.6077 31.0214C51.9439 30.686 52.9526 29.8476 53.4569 29.1769C53.9612 28.6738 53.9612 28.3384 53.9612 28.1708C53.9612 27.8354 53.625 27.3323 53.1207 27.3323C52.7845 27.3323 52.4482 27.5 52.112 27.8354C51.9439 28.0031 51.7758 28.1708 51.4396 28.1708C51.1034 28.1708 50.7672 27.8354 50.7672 27.5C50.7672 26.997 51.7758 26.1586 52.9526 26.1586C53.9612 26.1586 55.1379 26.8293 55.1379 28.1708C55.1379 29.0092 54.8017 29.5122 54.2974 30.0153C53.7931 30.5183 53.1207 31.1891 52.4482 31.6921H54.8017C55.1379 31.6921 55.4741 32.0275 55.4741 32.3628C55.6422 32.6982 55.306 33.0336 54.9698 33.0336Z" fill="black"></path><path d="M56.3146 29.5123C56.3146 28.8416 56.3146 26.494 58.3319 26.494C60.3491 26.494 60.3491 28.8416 60.3491 29.5123C60.3491 30.183 60.3491 32.5306 58.3319 32.5306C56.3146 32.6983 56.3146 30.183 56.3146 29.5123ZM59.8448 29.5123C59.8448 28.6739 59.6767 26.8294 58.3319 26.8294C56.9871 26.8294 56.8189 28.5062 56.8189 29.5123C56.8189 30.3507 56.9871 32.1952 58.3319 32.1952C59.6767 32.1952 59.8448 30.5184 59.8448 29.5123Z" fill="black"></path><path d="M58.3319 33.0336C57.4913 33.0336 55.8103 32.5305 55.8103 29.5122C55.8103 26.494 57.3232 25.9909 58.3319 25.9909C59.3405 25.9909 60.8534 26.494 60.8534 29.5122C60.8534 32.6982 59.1724 33.0336 58.3319 33.0336ZM58.3319 27.3324C57.9956 27.3324 57.1551 27.3324 57.1551 29.5122C57.1551 31.6921 57.9956 31.6921 58.3319 31.6921C58.6681 31.6921 59.5086 31.6921 59.5086 29.5122C59.5086 27.3324 58.6681 27.3324 58.3319 27.3324Z" fill="black"></path><path d="M65.3922 32.0275C65.5603 32.0275 65.5603 32.1951 65.5603 32.1951C65.5603 32.3628 65.5603 32.3628 65.3922 32.3628H62.1982C61.862 32.3628 61.5258 32.3628 61.5258 32.0275C61.5258 31.8598 61.5258 31.6921 62.0301 31.3567C62.3663 31.0214 63.375 30.1829 64.0474 29.3445C64.5517 28.8415 64.7198 28.3384 64.7198 28.0031C64.7198 27.3323 64.2155 26.8293 63.5431 26.8293C63.0388 26.8293 62.5344 26.997 62.1982 27.3323C62.0301 27.5 62.0301 27.5 61.862 27.5C61.6939 27.5 61.6939 27.3323 61.6939 27.3323C61.6939 27.1646 62.3663 26.3262 63.375 26.3262C64.2155 26.3262 65.056 26.8293 65.056 28.0031C65.056 28.6738 64.7198 29.1768 64.3836 29.5122C63.7112 30.1829 62.3663 31.3567 61.6939 32.0275H65.3922Z" fill="black"></path><path d="M65.3922 33.0336H62.1983C61.862 33.0336 61.1896 33.0336 61.1896 32.1952C61.1896 31.6921 61.3577 31.5244 61.862 31.1891L62.0302 31.0214C62.3664 30.686 63.375 29.8476 63.8793 29.1769C64.3836 28.6738 64.3836 28.3384 64.3836 28.1708C64.3836 27.8354 64.0474 27.3323 63.5431 27.3323C63.2069 27.3323 62.8707 27.5 62.5345 27.8354C62.3664 28.0031 62.1983 28.1708 62.0302 28.1708C61.6939 28.1708 61.3577 27.8354 61.3577 27.5C61.3577 26.997 62.3664 26.1586 63.5431 26.1586C64.5517 26.1586 65.7284 26.8293 65.7284 28.1708C65.7284 29.0092 65.3922 29.5122 64.8879 30.0153C64.3836 30.5183 63.7112 31.1891 63.0388 31.6921H65.3922C65.7284 31.6921 66.0646 32.0275 66.0646 32.3628C65.8965 32.6982 65.7284 33.0336 65.3922 33.0336Z" fill="black"></path><path d="M67.7456 27.8354C67.5775 27.8354 67.5775 27.8354 67.7456 27.8354C67.4094 27.8354 67.4094 27.6677 67.4094 27.6677C67.4094 27.5 67.5775 27.5 67.5775 27.5L68.7543 26.6616C68.9224 26.4939 68.9224 26.4939 69.0905 26.4939C69.2586 26.4939 69.2586 26.6616 69.2586 26.8293V32.3628C69.2586 32.5305 69.0905 32.5305 69.0905 32.5305C68.9224 32.5305 68.7543 32.5305 68.7543 32.3628V27.1646L67.7456 27.8354Z" fill="black"></path><path d="M68.9224 33.0336C68.5862 33.0336 68.25 32.6982 68.25 32.3628V27.8354L67.9138 28.0031C67.9138 28.0031 67.7457 28.1708 67.5776 28.1708C67.2414 28.1708 66.9052 27.8354 66.9052 27.5C66.9052 27.1647 67.2414 26.997 67.2414 26.997L68.4181 26.3263C68.5862 26.1586 68.7543 26.1586 68.9224 26.1586C69.0905 26.1586 69.5948 26.3263 69.5948 26.997V32.5305C69.5948 32.8659 69.2586 33.0336 68.9224 33.0336Z" fill="black"></path><path d="M72.7888 32.1951C72.7888 32.5304 72.6207 32.6981 72.2845 32.6981C71.9483 32.6981 71.7802 32.5304 71.7802 32.1951C71.7802 31.8597 71.9483 31.692 72.2845 31.692C72.6207 31.692 72.7888 31.8597 72.7888 32.1951Z" fill="black"></path><path d="M72.2845 33.0335C71.7802 33.0335 71.444 32.6982 71.444 32.1951C71.444 31.6921 71.7802 31.3567 72.2845 31.3567C72.7888 31.3567 73.125 31.6921 73.125 32.1951C73.125 32.6982 72.7888 33.0335 72.2845 33.0335Z" fill="black"></path><path d="M75.6466 30.3507C74.4698 30.3507 73.7974 29.5123 73.7974 28.5062C73.7974 27.3324 74.6379 26.494 75.8147 26.494C76.6552 26.494 78 26.9971 78 29.1769C78 31.5245 76.8233 32.6983 75.3104 32.6983C74.9741 32.6983 74.4698 32.6983 74.4698 32.3629C74.4698 32.1952 74.6379 32.1952 74.6379 32.1952H74.806C74.806 32.1952 74.9741 32.1952 75.1422 32.1952C76.1509 32.1952 76.8233 31.6922 77.1595 30.8538C77.3276 30.3507 77.4957 29.8477 77.4957 29.3446C76.8233 30.3507 75.9828 30.3507 75.6466 30.3507ZM74.3017 28.5062C74.3017 29.5123 74.9741 30.0154 75.8147 30.0154C76.6552 30.0154 77.3276 29.5123 77.3276 28.5062C77.3276 27.6678 76.8233 26.9971 75.8147 26.9971C74.806 26.9971 74.3017 27.6678 74.3017 28.5062Z" fill="black"></path><path d="M75.1422 33.0336C74.1336 33.0336 73.9655 32.5305 73.9655 32.3629C73.9655 32.0275 74.3017 31.6921 74.6379 31.6921H74.806C74.9741 31.6921 74.9741 31.6921 75.1422 31.6921C75.8147 31.6921 76.4871 31.3568 76.6552 30.686V30.5183C76.319 30.686 75.9828 30.686 75.4785 30.686C74.1336 30.686 73.125 29.6799 73.125 28.3385C73.125 26.997 74.1336 25.9909 75.4785 25.9909C76.6552 25.9909 78 26.8293 78 29.0092C78.3362 32.0275 76.6552 33.0336 75.1422 33.0336ZM75.8147 27.3324C75.1422 27.3324 74.806 27.8354 74.806 28.5061C74.806 29.3446 75.3103 29.5122 75.8147 29.5122C76.319 29.5122 76.9914 29.1769 76.9914 28.5061C76.9914 28.0031 76.6552 27.3324 75.8147 27.3324Z" fill="black"></path><path d="M80.0172 32.1951C80.0172 32.5304 79.8491 32.6981 79.5129 32.6981C79.1766 32.6981 79.0085 32.3627 79.0085 32.1951C79.0085 31.8597 79.1766 31.692 79.5129 31.692C79.8491 31.692 80.0172 31.8597 80.0172 32.1951Z" fill="black"></path><path d="M79.5129 33.0335C79.0086 33.0335 78.6724 32.6982 78.6724 32.1951C78.6724 31.6921 79.0086 31.3567 79.5129 31.3567C80.0172 31.3567 80.3534 31.6921 80.3534 32.1951C80.3534 32.6982 80.0172 33.0335 79.5129 33.0335Z" fill="black"></path><path d="M84.8922 32.0275C85.0603 32.0275 85.0603 32.1951 85.0603 32.1951C85.0603 32.3628 85.0603 32.3628 84.8922 32.3628H81.6982C81.362 32.3628 81.0258 32.3628 81.0258 32.0275C81.0258 31.8598 81.0258 31.6921 81.5301 31.3567C81.8663 31.0214 82.875 30.1829 83.5474 29.3445C84.0517 28.8415 84.2198 28.3384 84.2198 28.0031C84.2198 27.3323 83.7155 26.8293 83.0431 26.8293C82.5387 26.8293 82.0344 26.997 81.6982 27.3323C81.5301 27.5 81.5301 27.5 81.362 27.5C81.1939 27.5 81.1939 27.3323 81.1939 27.3323C81.1939 27.1646 81.8663 26.3262 82.8749 26.3262C83.7155 26.3262 84.556 26.8293 84.556 28.0031C84.556 28.6738 84.2198 29.1768 83.8836 29.5122C83.2112 30.1829 81.8663 31.3567 81.1939 32.0275H84.8922Z" fill="black"></path><path d="M84.8922 33.0336H81.6983C81.362 33.0336 80.6896 33.0336 80.6896 32.1952C80.6896 31.6921 80.8577 31.5244 81.3621 31.1891L81.5302 31.0214C81.8664 30.686 82.875 29.8476 83.3793 29.1769C83.8836 28.6738 83.8836 28.3384 83.8836 28.1708C83.8836 27.8354 83.5474 27.3323 83.0431 27.3323C82.7069 27.3323 82.3707 27.5 82.0345 27.8354C81.8664 28.0031 81.6983 28.1708 81.3621 28.1708C81.0258 28.1708 80.6896 27.8354 80.6896 27.5C80.6896 26.997 81.6983 26.1586 82.875 26.1586C83.8836 26.1586 85.0603 26.8293 85.0603 28.1708C85.0603 29.0092 84.7241 29.5122 84.2198 30.0153C83.7155 30.5183 83.0431 31.1891 82.3707 31.6921H84.7241C85.0603 31.6921 85.3965 32.0275 85.3965 32.3628C85.5646 32.6982 85.2284 33.0336 84.8922 33.0336Z" fill="black"></path><path d="M87.2457 27.8354C86.9095 27.8354 86.9095 27.6677 86.9095 27.6677C86.9095 27.5 87.0776 27.5 87.0776 27.5L88.2543 26.6616C88.4224 26.4939 88.4224 26.4939 88.5905 26.4939C88.7586 26.4939 88.7586 26.6616 88.7586 26.8293V32.3628C88.7586 32.5305 88.5905 32.5305 88.5905 32.5305C88.4224 32.5305 88.2543 32.5305 88.2543 32.3628V27.1646L87.2457 27.8354Z" fill="black"></path><path d="M88.4224 33.0336C88.0862 33.0336 87.75 32.6982 87.75 32.3628V27.8354L87.4138 28.0031C87.4138 28.0031 87.2457 28.1708 87.0776 28.1708C86.7414 28.1708 86.4052 27.8354 86.4052 27.5C86.4052 27.1647 86.7414 26.997 86.7414 26.997L87.9181 26.3263C88.0862 26.1586 88.2543 26.1586 88.4224 26.1586C88.5905 26.1586 89.0948 26.3263 89.0948 26.997V32.5305C89.0948 32.8659 88.7586 33.0336 88.4224 33.0336Z" fill="black"></path><path d="M103.215 26.1585C103.215 25.9908 103.384 25.8231 103.552 25.8231C103.72 25.8231 103.888 25.9908 103.888 26.1585V26.3262L101.871 32.8658C101.871 33.0335 101.703 33.3689 101.366 33.3689C101.03 33.3689 100.862 33.2012 100.862 33.0335L99.0129 26.6615L97.1637 33.0335C97.1637 33.2012 96.9956 33.3689 96.6594 33.3689C96.3232 33.3689 96.1551 33.2012 96.1551 33.0335L94.1379 26.3262V26.1585C94.1379 25.9908 94.306 25.8231 94.4741 25.8231C94.6422 25.8231 94.6422 25.9908 94.8103 26.1585L96.8275 32.6981L98.6767 26.3262C98.8448 25.9908 99.0129 25.9908 99.181 25.9908C99.3491 25.9908 99.5172 25.9908 99.6853 26.3262L101.534 32.6981L103.215 26.1585Z" fill="black"></path><path d="M101.366 33.7042C100.694 33.7042 100.526 33.2012 100.526 33.0335L99.0129 28.1707L97.5 33.2012C97.5 33.3689 97.3319 33.8719 96.6595 33.8719C95.987 33.8719 95.8189 33.3689 95.8189 33.2012L93.8017 26.6616C93.8017 26.6616 93.8017 26.4939 93.8017 26.3262C93.8017 25.8231 94.1379 25.6555 94.4741 25.6555C94.8103 25.6555 94.9784 25.8231 95.1465 26.1585L96.6595 31.3567L98.1724 26.3262C98.3405 25.8231 98.5086 25.6555 99.0129 25.6555C99.181 25.6555 99.6853 25.6555 99.8534 26.3262L101.366 31.3567L102.879 26.1585C103.047 25.8231 103.215 25.6555 103.552 25.6555C103.888 25.6555 104.224 25.9908 104.224 26.3262C104.224 26.4939 104.224 26.4939 104.224 26.6616L102.207 33.2012C102.039 33.2012 101.871 33.7042 101.366 33.7042ZM103.215 26.1585L103.552 26.3262L103.215 26.1585Z" fill="black"></path><path d="M108.763 29.1769C108.931 29.1769 109.099 29.3446 109.099 29.5122C109.099 29.6799 108.931 29.8476 108.763 29.8476H105.737V32.3629C105.737 32.6982 105.905 32.6982 106.073 32.6982H109.267C109.435 32.6982 109.603 32.8659 109.603 33.0336C109.603 33.2013 109.435 33.369 109.267 33.369H105.905C105.065 33.369 105.065 32.6982 105.065 32.5305V26.8293C105.065 26.494 105.065 25.9909 105.905 25.9909H109.099C109.267 25.9909 109.435 26.1586 109.435 26.3263C109.435 26.494 109.267 26.6616 109.099 26.6616H106.073C105.737 26.6616 105.737 26.6616 105.737 26.997V29.1769H108.763Z" fill="black"></path><path d="M109.267 33.5366H105.905C105.401 33.5366 104.728 33.3689 104.728 32.1951V26.8293C104.728 25.8232 105.401 25.4878 105.905 25.4878H109.099C109.603 25.4878 109.771 25.8232 109.771 26.1585C109.771 26.4939 109.435 26.8293 109.099 26.8293H106.073V28.6738H108.763C109.267 28.6738 109.435 29.0091 109.435 29.3445C109.435 29.6799 109.099 30.0152 108.763 30.0152H106.073V32.0274H109.267C109.771 32.0274 109.94 32.3628 109.94 32.6982C109.94 33.2012 109.603 33.5366 109.267 33.5366Z" fill="black"></path><path d="M111.621 33.0336C110.78 33.0336 110.78 32.3629 110.78 32.1952V26.8293C110.78 26.494 110.78 25.9909 111.621 25.9909H112.965C113.638 25.9909 115.319 25.9909 115.319 27.6677C115.319 28.8415 114.646 29.1769 114.31 29.3446C114.646 29.5122 115.655 29.8476 115.655 31.1891C115.655 33.2013 113.806 33.2013 113.134 33.2013H111.621V33.0336ZM112.965 29.1769C113.47 29.1769 114.646 29.1769 114.646 27.8354C114.646 26.494 113.638 26.494 112.797 26.494H111.621C111.284 26.494 111.284 26.494 111.284 26.8293V29.0092H112.965V29.1769ZM111.453 32.1952C111.453 32.5305 111.621 32.5305 111.789 32.5305H112.965C113.638 32.5305 114.983 32.5305 114.983 31.1891C114.983 29.6799 113.638 29.6799 112.965 29.6799H111.284V32.1952H111.453Z" fill="black"></path><path d="M112.965 33.5366H111.621C111.116 33.5366 110.444 33.3689 110.444 32.1951V26.8293C110.444 25.8232 111.116 25.4878 111.621 25.4878H112.965C114.815 25.4878 115.823 26.1585 115.823 27.6677C115.823 28.5061 115.487 29.0091 115.151 29.3445C115.655 29.6799 115.991 30.1829 115.991 31.189C115.991 32.1951 115.487 33.5366 112.965 33.5366ZM111.789 32.1951H112.965C113.974 32.1951 114.646 32.0274 114.646 31.189C114.646 30.3506 114.142 30.0152 113.134 30.0152H111.957V32.1951H111.789ZM111.789 28.6738H112.965C113.974 28.6738 114.31 28.3384 114.31 27.6677C114.31 26.9969 113.974 26.8293 112.965 26.8293H111.957L111.789 28.6738Z" fill="black"></path><path d="M117.168 32.3627C117.672 32.5304 118.009 32.6981 118.513 32.6981C119.353 32.6981 120.362 32.3627 120.362 31.189C120.362 30.1829 119.69 29.8475 118.849 29.6798C118.009 29.3444 117 29.0091 117 27.8353C117 26.8292 117.84 25.9908 119.185 25.9908C119.69 25.9908 120.026 26.1585 120.53 26.3261C120.53 26.3261 120.698 26.4938 120.698 26.6615C120.698 26.8292 120.53 26.9969 120.362 26.9969C120.362 26.9969 120.194 26.9969 120.026 26.8292C119.858 26.8292 119.522 26.6615 119.017 26.6615C118.009 26.6615 117.504 27.3322 117.504 28.003C117.504 28.8414 118.177 29.1768 119.017 29.5121C119.858 29.8475 121.034 30.1829 121.034 31.5243C121.034 32.8658 119.858 33.5365 118.681 33.5365C117.84 33.5365 117.168 33.2012 117 33.2012C116.832 33.2012 116.664 33.0335 116.664 32.8658C116.664 32.6981 116.832 32.5304 117 32.5304C116.832 32.3627 116.832 32.3627 117.168 32.3627Z" fill="black"></path><path d="M118.345 33.7042C117.336 33.7042 116.832 33.3689 116.496 33.3689C116.159 33.2012 115.991 33.0335 115.991 32.6981C115.991 32.3628 116.328 32.0274 116.664 32.0274C116.832 32.0274 116.832 32.0274 117 32.1951C117.336 32.3628 117.672 32.5305 118.177 32.5305C118.513 32.5305 119.522 32.5305 119.522 31.5244C119.522 30.8536 119.017 30.6859 118.345 30.3506C117.504 30.0152 116.159 29.5122 116.159 28.003C116.159 26.6616 117.168 25.6555 118.681 25.6555C119.185 25.6555 119.69 25.8231 120.194 25.9908C120.53 26.1585 120.698 26.3262 120.698 26.6616C120.698 26.9969 120.362 27.3323 120.026 27.3323C119.858 27.3323 119.69 27.3323 119.522 27.1646C119.353 27.1646 119.017 26.9969 118.681 26.9969C118.009 26.9969 117.672 27.5 117.672 28.003C117.672 28.5061 118.009 28.6737 118.849 29.0091C119.69 29.3445 121.034 29.8475 121.034 31.5244C121.203 32.6981 120.194 33.7042 118.345 33.7042Z" fill="black"></path><path d="M122.547 26.1585C122.547 25.9908 122.715 25.8231 122.884 25.8231C123.052 25.8231 123.22 25.9908 123.22 26.1585V32.8658C123.22 33.2012 123.052 33.2012 122.884 33.2012C122.715 33.2012 122.547 33.0335 122.547 32.8658V26.1585Z" fill="black"></path><path d="M122.884 33.7042C122.379 33.7042 122.211 33.3689 122.211 33.0335V26.3262C122.211 25.8231 122.547 25.6555 122.884 25.6555C123.22 25.6555 123.556 25.9908 123.556 26.3262V33.0335C123.556 33.3689 123.22 33.7042 122.884 33.7042ZM122.715 26.1585H122.884H122.379H122.715Z" fill="black"></path><path d="M127.759 33.0335C127.759 33.2012 127.59 33.3688 127.422 33.3688C127.254 33.3688 127.086 33.2012 127.086 33.0335V26.6615H124.733C124.565 26.6615 124.396 26.4938 124.396 26.3261C124.396 26.1585 124.565 25.9908 124.733 25.9908H129.944C130.112 25.9908 130.28 26.1585 130.28 26.3261C130.28 26.4938 130.112 26.6615 129.944 26.6615H127.759V33.0335Z" fill="black"></path><path d="M127.422 33.7042C126.918 33.7042 126.75 33.3689 126.75 33.0335V26.9969H124.901C124.565 26.9969 124.228 26.6616 124.228 26.3262C124.228 25.9908 124.565 25.6555 124.901 25.6555H130.112C130.448 25.6555 130.784 25.9908 130.784 26.3262C130.784 26.6616 130.448 26.9969 130.112 26.9969H128.263V33.0335C128.095 33.3689 127.759 33.7042 127.422 33.7042ZM127.254 33.0335H127.759H127.254Z" fill="black"></path><path d="M134.987 29.1769C135.155 29.1769 135.323 29.3446 135.323 29.5122C135.323 29.6799 135.155 29.8476 134.987 29.8476H131.961V32.3629C131.961 32.6982 132.129 32.6982 132.297 32.6982H135.491C135.659 32.6982 135.828 32.8659 135.828 33.0336C135.828 33.2013 135.659 33.369 135.491 33.369H132.129C131.289 33.369 131.289 32.6982 131.289 32.5305V26.8293C131.289 26.494 131.289 25.9909 132.129 25.9909H135.323C135.491 25.9909 135.659 26.1586 135.659 26.3263C135.659 26.494 135.491 26.6616 135.323 26.6616H132.297C131.961 26.6616 131.961 26.6616 131.961 26.997V29.1769H134.987Z" fill="black"></path><path d="M135.491 33.5366H132.129C131.625 33.5366 130.953 33.3689 130.953 32.1951V26.8293C130.953 25.8232 131.625 25.4878 132.129 25.4878H135.323C135.828 25.4878 135.996 25.8232 135.996 26.1585C135.996 26.4939 135.659 26.8293 135.323 26.8293H132.297V28.6738H134.987C135.491 28.6738 135.659 29.0091 135.659 29.3445C135.659 29.6799 135.323 30.0152 134.987 30.0152H132.297V32.0274H135.491C135.996 32.0274 136.164 32.3628 136.164 32.6982C136.164 33.2012 135.828 33.5366 135.491 33.5366Z" fill="black"></path><path d="M143.728 25.8232C145.746 25.8232 147.427 27.3323 147.427 29.5122C147.427 31.6921 145.746 33.2012 143.728 33.2012C141.711 33.2012 140.03 31.6921 140.03 29.5122C140.03 27.3323 141.711 25.8232 143.728 25.8232ZM143.728 32.6982C145.578 32.6982 146.754 31.3567 146.754 29.5122C146.754 27.6677 145.409 26.3262 143.728 26.3262C142.047 26.3262 140.703 27.6677 140.703 29.5122C140.703 31.3567 142.047 32.6982 143.728 32.6982Z" fill="black"></path><path d="M143.728 33.7043C141.375 33.7043 139.694 31.8598 139.694 29.5122C139.694 27.1646 141.543 25.3201 143.728 25.3201C145.914 25.3201 147.763 27.1646 147.763 29.5122C147.763 31.8598 146.082 33.7043 143.728 33.7043ZM143.728 26.8293C142.215 26.8293 141.039 28.0031 141.039 29.5122C141.039 31.0213 142.215 32.1951 143.728 32.1951C145.241 32.1951 146.418 31.0213 146.418 29.5122C146.418 28.0031 145.241 26.8293 143.728 26.8293Z" fill="black"></path><path d="M149.612 33.0336C149.612 33.2013 149.444 33.369 149.276 33.369C149.108 33.369 148.94 33.2013 148.94 33.0336V26.8293C148.94 26.494 148.94 25.9909 149.78 25.9909H150.789C151.293 25.9909 151.797 25.9909 152.302 26.3263C153.142 26.8293 153.31 27.6677 153.31 28.1708C153.31 28.8415 153.142 29.5122 152.302 30.0153C151.797 30.0153 151.293 30.183 150.789 30.183H149.612V33.0336ZM150.621 29.5122C151.293 29.5122 152.638 29.5122 152.638 28.0031C152.638 26.494 151.461 26.494 150.621 26.494H149.948C149.612 26.494 149.612 26.494 149.612 26.8293V29.5122H150.621Z" fill="black"></path><path d="M149.276 33.7043C148.772 33.7043 148.603 33.3689 148.603 33.0335V26.8293C148.603 25.8232 149.276 25.4878 149.78 25.4878H150.789C151.293 25.4878 151.965 25.4878 152.47 25.8232C153.478 26.3262 153.647 27.5 153.647 28.003C153.647 29.0091 153.142 29.6799 152.47 30.1829C151.965 30.5183 151.461 30.5183 150.789 30.5183H150.116V33.0335C149.948 33.3689 149.612 33.7043 149.276 33.7043ZM149.108 33.0335H149.612H149.108ZM149.948 29.1768H150.621C151.629 29.1768 152.134 29.0091 152.134 28.1707C152.134 27.1646 151.461 26.9969 150.621 26.9969H149.948V29.1768Z" fill="black"></path><path d="M158.353 29.1769C158.522 29.1769 158.69 29.3446 158.69 29.5122C158.69 29.6799 158.522 29.8476 158.353 29.8476H155.328V32.3629C155.328 32.6982 155.496 32.6982 155.664 32.6982H158.858C159.026 32.6982 159.194 32.8659 159.194 33.0336C159.194 33.2013 159.026 33.369 158.858 33.369H155.496C154.655 33.369 154.655 32.6982 154.655 32.5305V26.8293C154.655 26.494 154.655 25.9909 155.496 25.9909H158.69C158.858 25.9909 159.026 26.1586 159.026 26.3263C159.026 26.494 158.858 26.6616 158.69 26.6616H155.664C155.328 26.6616 155.328 26.6616 155.328 26.997V29.1769H158.353Z" fill="black"></path><path d="M158.69 33.5366H155.328C154.823 33.5366 154.151 33.3689 154.151 32.1951V26.8293C154.151 25.8232 154.823 25.4878 155.328 25.4878H158.522C159.026 25.4878 159.194 25.8232 159.194 26.1585C159.194 26.4939 158.858 26.8293 158.522 26.8293H155.496V28.6738H158.185C158.69 28.6738 158.858 29.0091 158.858 29.3445C158.858 29.6799 158.521 30.0152 158.185 30.0152H155.496V32.0274H158.69C159.194 32.0274 159.362 32.3628 159.362 32.6982C159.362 33.2012 159.194 33.5366 158.69 33.5366Z" fill="black"></path><path d="M165.918 26.1585C165.918 25.9908 166.086 25.8231 166.254 25.8231C166.422 25.8231 166.59 25.9908 166.59 26.1585V32.5304C166.59 32.8658 166.59 33.2012 166.086 33.2012C165.75 33.2012 165.582 33.0335 165.414 32.8658L161.043 26.4939V33.0335C161.043 33.2012 160.875 33.3689 160.707 33.3689C160.539 33.3689 160.371 33.2012 160.371 33.0335V26.6615C160.371 26.3262 160.371 25.9908 160.875 25.9908C161.211 25.9908 161.379 26.1585 161.547 26.4939L165.918 32.8658V26.1585Z" fill="black"></path><path d="M165.918 33.7043C165.414 33.7043 165.078 33.3689 164.909 33.0335L161.379 27.8354V33.0335C161.379 33.5366 161.043 33.7043 160.707 33.7043C160.371 33.7043 160.034 33.3689 160.034 33.0335V26.6616C160.034 25.6555 160.539 25.4878 161.043 25.4878C161.547 25.4878 161.884 25.8232 162.052 26.1585L165.75 31.3567V26.1585C165.75 25.6555 166.086 25.4878 166.422 25.4878C166.759 25.4878 167.095 25.8232 167.095 26.1585V32.5305C166.927 33.5366 166.422 33.7043 165.918 33.7043ZM166.086 26.1585H166.254H165.75H166.086Z" fill="black"></path><path d="M188.444 55H6.38793C2.85776 55 0 52.1494 0 48.6281V6.37195C0 2.85061 2.85776 0 6.38793 0H188.444C191.974 0 194.832 2.85061 194.832 6.37195V48.6281C195 52.1494 192.142 55 188.444 55ZM6.38793 3.35366C4.7069 3.35366 3.36207 4.69512 3.36207 6.37195V48.6281C3.36207 50.3049 4.7069 51.6463 6.38793 51.6463H188.444C190.125 51.6463 191.47 50.3049 191.47 48.6281V6.37195C191.47 4.69512 190.125 3.35366 188.444 3.35366H6.38793Z" fill="black"></path><path d="M43.3707 53.4909C42.8664 53.4909 42.5302 53.1555 42.5302 52.6525V1.67685C42.5302 1.17381 42.8664 0.83844 43.3707 0.83844C43.875 0.83844 44.2112 1.17381 44.2112 1.67685V52.6525C44.2112 53.1555 43.875 53.4909 43.3707 53.4909Z" fill="black"></path></svg> 