<?xml version="1.0" encoding="UTF-8"?> <svg xmlns="http://www.w3.org/2000/svg" width="132" height="87" viewBox="0 0 132 87" fill="none"><g clip-path="url(#clip0)"><path d="M11.8504 0H120.15C126.733 0 132 5.25283 132 11.8189V75.3453C132 81.9113 126.733 87.1642 120.15 87.1642H11.8504C5.26683 87.1642 0 81.9113 0 75.3453V11.8189C0 5.25283 5.26683 0 11.8504 0ZM120.15 82.0755C123.935 82.0755 127.062 78.9566 127.062 75.1811V11.8189C127.062 8.0434 123.935 4.92453 120.15 4.92453H11.8504C8.06484 4.92453 4.93766 8.0434 4.93766 11.8189V75.3453C4.93766 79.1208 8.06484 82.0755 11.8504 82.0755H120.15Z" fill="black"></path><path d="M66 57.7811C58.0998 57.7811 51.6808 51.3792 51.6808 43.5C51.6808 35.6208 58.0998 29.2189 66 29.2189C73.9003 29.2189 80.3192 35.6208 80.3192 43.5C80.3192 51.3792 73.9003 57.7811 66 57.7811ZM66 32.5019C59.9102 32.5019 54.9726 37.4264 54.9726 43.5C54.9726 49.5736 59.9102 54.4981 66 54.4981C72.0898 54.4981 77.0274 49.5736 77.0274 43.5C77.0274 37.4264 72.0898 32.5019 66 32.5019Z" fill="black"></path><path d="M64.6833 40.0528C64.025 39.7245 63.5312 39.8887 63.5312 40.7094V46.2906C63.5312 47.1113 64.025 47.4396 64.6833 46.9472L69.4564 44.4849C70.1147 44.1566 70.1147 43.5 69.4564 43.0075L64.6833 40.0528Z" fill="black"></path></g><defs><clipPath id="clip0"><rect width="132" height="87" fill="white"></rect></clipPath></defs></svg> 