<?xml version="1.0" encoding="UTF-8"?> <svg xmlns="http://www.w3.org/2000/svg" width="133" height="88" viewBox="0 0 133 88" fill="none"><path d="M121.06 88H11.9401C5.30673 88 0 82.6868 0 76.0453V11.9547C0 5.31321 5.30673 0 11.9401 0H121.06C127.693 0 133 5.31321 133 11.9547V76.2113C133 82.6868 127.527 88 121.06 88ZM11.9401 4.98113C8.12594 4.98113 4.97506 8.13585 4.97506 11.9547V76.2113C4.97506 80.0302 8.12594 83.0189 11.9401 83.0189H121.06C124.874 83.0189 128.025 79.8642 128.025 76.0453V11.9547C128.025 8.13585 124.874 4.98113 121.06 4.98113H11.9401Z" fill="black"></path><path d="M57.3791 43.502C57.8766 43.502 57.8766 43.8341 57.8766 44.0001C57.8766 44.3322 57.7107 44.4983 57.3791 44.4983H49.7506C48.9215 44.4983 48.2581 44.4983 48.2581 43.502C48.2581 42.8379 48.424 42.6718 49.5848 41.8417C50.414 41.1775 52.7357 39.019 54.5599 37.1926C55.7207 36.0303 56.0524 34.8681 56.0524 33.8718C56.0524 32.2115 54.8915 31.0492 53.2332 31.0492C52.0723 31.0492 50.9115 31.5473 50.2481 32.3775C49.9165 32.7096 49.9165 32.8756 49.5848 32.8756C49.2531 32.8756 49.0873 32.5435 49.0873 32.3775C49.0873 31.8794 50.7456 30.053 53.2332 30.053C55.2232 30.053 57.3791 31.2152 57.3791 34.0379C57.3791 35.6983 56.7157 36.6945 55.7207 37.6907C54.2282 39.5171 50.9115 42.3398 49.419 43.502H57.3791Z" fill="black"></path><path d="M57.3791 44.9963H49.7506C49.0873 44.9963 47.7606 44.9963 47.7606 43.668C47.7606 42.8378 48.0923 42.6718 49.2531 41.6756L49.5848 41.3435C50.5798 40.5133 52.7357 38.6869 54.2282 37.0265C55.2232 36.0303 55.5549 35.0341 55.5549 34.0378C55.5549 32.5435 54.5599 31.5473 53.0674 31.5473C52.0723 31.5473 51.0773 32.0454 50.414 32.7095C50.0823 33.0416 49.9165 33.3737 49.419 33.3737C48.9215 33.3737 48.424 32.8756 48.424 32.3775C48.424 31.5473 50.414 29.5548 53.0674 29.5548C55.389 29.5548 57.7107 31.0491 57.7107 33.8718C57.7107 35.6982 56.8816 36.8605 56.0524 37.8567C54.8915 39.351 52.404 41.3435 50.5798 43.0039H57.7107C58.3741 43.0039 58.7058 43.502 58.7058 44.0001C58.3741 44.6642 57.8766 44.9963 57.3791 44.9963ZM53.0674 30.7171C54.8915 30.7171 56.3841 32.2114 56.3841 34.0378C56.3841 35.2001 55.8866 36.3624 54.7257 37.5246C53.2332 39.185 51.0773 41.0114 50.0823 42.0076L49.7506 42.3397C48.5898 43.3359 48.5898 43.3359 48.5898 43.668C48.5898 44.0001 48.7556 44.1661 49.7506 44.1661H57.3791C57.3791 44.1661 57.5449 44.1661 57.5449 44.0001V43.8341H49.419C49.2531 43.8341 49.0873 43.668 49.0873 43.502C49.0873 43.3359 49.0873 43.1699 49.2531 43.0039C50.414 42.0076 53.8965 39.019 55.5549 37.1925C56.3841 36.1963 57.0474 35.3661 57.0474 33.7058C57.0474 31.2152 55.0574 30.219 53.2332 30.219C51.0773 30.219 49.5848 31.8793 49.419 32.2114L49.5848 32.3775C49.5848 32.3775 49.7506 32.2114 49.9165 32.0454C50.414 31.2152 51.7407 30.7171 53.0674 30.7171Z" fill="black"></path><path d="M63.0175 32.2114C63.0175 31.5473 63.0175 30.385 64.6758 30.385H70.1484C70.6459 30.385 70.6459 30.7171 70.6459 30.8831C70.6459 31.2152 70.4801 31.3812 70.1484 31.3812H65.0075C64.51 31.3812 64.3442 31.5473 64.3442 32.0454V36.5284C64.8417 36.3624 65.505 35.8643 66.9975 35.8643C69.9826 35.8643 71.8067 37.6907 71.8067 40.3473C71.8067 42.8378 69.8167 44.9963 66.5 44.9963C65.1733 44.9963 63.8466 44.6643 62.6858 44.1661C62.52 44.0001 62.1883 44.0001 62.1883 43.502C62.1883 43.1699 62.52 43.0039 62.6858 43.0039C62.6858 43.0039 63.3491 43.1699 63.3491 43.336C63.6808 43.502 64.8417 44.0001 66.1683 44.0001C69.1534 44.0001 70.4801 42.3397 70.4801 40.5133C70.4801 38.3548 68.8217 37.1926 66.8317 37.1926C65.505 37.1926 65.0075 37.5246 64.1783 38.0227C64.0125 38.1888 63.8466 38.1888 63.6808 38.1888C63.1833 38.1888 63.1833 37.8567 63.1833 37.5246V32.2114H63.0175Z" fill="black"></path><path d="M66.1684 45.3284C64.8417 45.3284 63.515 44.9963 62.1883 44.4982C62.0225 44.4982 61.525 44.1661 61.525 43.502C61.525 43.0039 62.0225 42.5057 62.52 42.5057C62.6858 42.5057 63.3492 42.8378 63.3492 42.8378C63.8467 43.0038 64.8417 43.3359 66.0025 43.3359C68.8217 43.3359 69.8167 41.6755 69.8167 40.1812C69.8167 38.1888 68.1584 37.1925 66.5 37.1925C65.3392 37.1925 64.8417 37.5246 64.0125 37.8567C63.8467 38.0227 63.515 38.0227 63.1833 38.0227C62.6858 38.0227 62.1883 37.8567 62.1883 37.0265V31.8793C62.1883 31.3812 62.1883 29.7208 64.1783 29.7208H69.6509C70.3143 29.7208 70.6459 30.2189 70.6459 30.7171C70.6459 31.2152 70.3143 31.7133 69.6509 31.7133H64.51C64.3442 31.7133 64.1783 31.7133 64.1783 31.7133C64.1783 31.7133 64.1783 31.7133 64.1783 32.0454V35.6982C64.6758 35.5321 65.3392 35.2001 66.3342 35.2001C69.4851 35.2001 71.6409 37.1925 71.6409 40.0152C71.9726 43.1699 69.6509 45.3284 66.1684 45.3284ZM62.52 43.3359C62.52 43.3359 62.3541 43.3359 62.52 43.3359C62.52 43.502 62.52 43.502 62.6858 43.668C63.8467 44.1661 65.0075 44.4982 66.3342 44.4982C69.3192 44.4982 71.3093 42.8378 71.3093 40.3472C71.3093 38.0227 69.4851 36.3623 66.8317 36.3623C65.6709 36.3623 64.8417 36.6944 64.51 37.0265C64.3442 37.0265 64.1783 37.0265 64.0125 37.0265C63.8467 37.0265 63.8467 36.8605 63.8467 36.6944V32.3774C63.8467 31.3812 64.51 31.2152 65.0075 31.2152H70.1484C70.3142 31.2152 70.3143 31.2152 70.3143 31.0491C70.3143 30.8831 70.3142 30.8831 70.1484 30.8831H64.6758C63.515 30.8831 63.515 31.5472 63.515 32.2114V37.3586V37.5246C63.515 37.5246 63.515 37.5246 63.6808 37.5246C63.8467 37.5246 63.8467 37.5246 64.0125 37.3586C64.8417 36.8605 65.505 36.5284 66.8317 36.5284C69.3192 36.5284 70.9776 38.0227 70.9776 40.3472C70.9776 42.1737 69.8167 44.3322 66.3342 44.3322C64.8417 44.3322 63.8467 44.0001 63.3492 43.668C63.0175 43.502 62.6858 43.502 62.52 43.3359Z" fill="black"></path><path d="M78.9376 30.053C80.9276 30.053 82.2543 31.5473 82.2543 33.8718C82.2543 36.1964 80.7618 37.6907 78.9376 37.6907C77.1134 37.6907 75.6209 36.1964 75.6209 33.8718C75.6209 31.5473 76.9476 30.053 78.9376 30.053ZM78.9376 36.6945C80.0985 36.6945 81.2593 35.8643 81.2593 33.8718C81.2593 31.8794 80.0985 31.0492 78.9376 31.0492C77.7768 31.0492 76.6159 32.0454 76.6159 33.8718C76.6159 35.8643 77.7768 36.6945 78.9376 36.6945ZM87.0636 30.3851C87.2294 30.219 87.3952 30.053 87.5611 30.053C87.7269 30.053 88.0586 30.219 88.0586 30.5511C88.0586 30.7171 88.0586 30.7171 87.8927 30.8832L78.4401 44.4983C78.2743 44.6643 78.1084 44.8303 77.9426 44.8303C77.7768 44.8303 77.4451 44.6643 77.4451 44.3322C77.4451 44.1662 77.4451 44.1662 77.6109 44.0001L87.0636 30.3851ZM86.5661 37.1926C88.5561 37.1926 89.8828 38.6869 89.8828 41.0115C89.8828 43.336 88.3902 44.8303 86.5661 44.8303C84.576 44.8303 83.2493 43.336 83.2493 41.0115C83.2493 38.853 84.576 37.1926 86.5661 37.1926ZM86.5661 44.0001C87.7269 44.0001 88.8877 43.0039 88.8877 41.1775C88.8877 39.1851 87.7269 38.3549 86.5661 38.3549C85.4052 38.3549 84.2444 39.1851 84.2444 41.1775C84.2444 43.0039 85.4052 44.0001 86.5661 44.0001Z" fill="black"></path><path d="M86.5661 45.3284C84.4102 45.3284 82.7518 43.502 82.7518 41.1775C82.7518 38.8529 84.4102 37.0265 86.5661 37.0265C88.7219 37.0265 90.3803 38.8529 90.3803 41.1775C90.3803 43.502 88.7219 45.3284 86.5661 45.3284ZM86.5661 37.6907C84.9077 37.6907 83.581 39.019 83.581 41.0114C83.581 43.0039 84.7419 44.3322 86.5661 44.3322C88.2244 44.3322 89.5511 43.0039 89.5511 41.0114C89.5511 39.019 88.3903 37.6907 86.5661 37.6907ZM77.9426 45.3284C77.4451 45.3284 77.1134 44.9963 77.1134 44.4982C77.1134 44.1661 77.2793 44.0001 77.4451 43.8341L86.8977 30.219L87.2294 30.385L86.8977 30.0529C87.0636 29.8869 87.2294 29.5548 87.7269 29.5548C88.2244 29.5548 88.5561 29.8869 88.5561 30.385C88.5561 30.7171 88.3903 30.7171 88.3903 31.0492L78.7718 44.8303C78.606 44.9963 78.4401 45.3284 77.9426 45.3284ZM77.9426 44.4982C77.9426 44.4982 78.1085 44.4982 78.1085 44.3322L87.5611 30.7171C87.5611 30.551 87.7269 30.551 87.7269 30.551L87.5611 30.7171L87.2294 30.551L87.5611 30.7171L77.9426 44.4982C77.9426 44.3322 77.9426 44.4982 77.9426 44.4982ZM86.5661 44.3322C85.2394 44.3322 83.7469 43.3359 83.7469 41.0114C83.7469 38.6869 85.0735 37.6907 86.5661 37.6907C88.0586 37.6907 89.3853 38.6869 89.3853 41.0114C89.3853 43.3359 87.8927 44.3322 86.5661 44.3322ZM86.5661 38.6869C85.7369 38.6869 84.576 39.351 84.576 41.1775C84.576 43.0039 85.5711 43.668 86.5661 43.668C87.5611 43.668 88.5561 43.0039 88.5561 41.1775C88.5561 39.351 87.3952 38.6869 86.5661 38.6869ZM78.9376 38.0227C76.7818 38.0227 75.1234 36.1963 75.1234 33.8718C75.1234 31.5473 76.7818 29.7208 78.9376 29.7208C81.0935 29.7208 82.7518 31.5473 82.7518 33.8718C82.7518 36.1963 81.0935 38.0227 78.9376 38.0227ZM78.9376 30.385C77.2793 30.385 75.9526 31.7133 75.9526 33.7058C75.9526 35.6982 77.1134 37.0265 78.9376 37.0265C80.596 37.0265 81.9227 35.6982 81.9227 33.7058C81.9227 31.7133 80.596 30.385 78.9376 30.385ZM78.9376 37.1925C77.6109 37.1925 76.1184 36.1963 76.1184 33.8718C76.1184 31.5473 77.4451 30.551 78.9376 30.551C80.4301 30.551 81.7568 31.5473 81.7568 33.8718C81.7568 36.1963 80.2643 37.1925 78.9376 37.1925ZM78.9376 31.3812C78.1085 31.3812 76.9476 32.0454 76.9476 33.8718C76.9476 35.6982 77.9426 36.3624 78.9376 36.3624C79.9326 36.3624 80.9277 35.6982 80.9277 33.8718C80.9277 32.0454 79.7668 31.3812 78.9376 31.3812Z" fill="black"></path><path d="M19.0711 64.9207C16.4177 64.9207 14.4277 63.4263 14.4277 61.5999C14.4277 59.7735 16.5835 58.2792 19.0711 58.2792H111.441C114.095 58.2792 116.085 59.7735 116.085 61.5999C116.085 63.4263 113.929 64.9207 111.441 64.9207H19.0711Z" fill="#C3B68F"></path><path d="M19.0711 65.2528C16.4177 65.2528 14.4277 63.7585 14.4277 61.9321C14.4277 60.1057 16.5835 58.6113 19.0711 58.6113H30.8454C33.4987 58.6113 35.4888 60.1057 35.4888 61.9321C35.4888 63.7585 33.3329 65.2528 30.8454 65.2528H19.0711Z" fill="black"></path></svg> 