<?xml version="1.0" encoding="UTF-8"?> <svg xmlns="http://www.w3.org/2000/svg" width="35" height="82" viewBox="0 0 35 82" fill="none"><path d="M8.37321 0H5.02392V82H8.37321V0Z" fill="black"></path><path d="M6.19617 41.0845C9.61822 41.0845 12.3923 38.2838 12.3923 34.8289C12.3923 31.3739 9.61822 28.5732 6.19617 28.5732C2.77412 28.5732 0 31.3739 0 34.8289C0 38.2838 2.77412 41.0845 6.19617 41.0845Z" fill="black"></path><path d="M25.1196 13.3567C24.7847 14.0329 24.6172 14.7092 24.6172 15.2165C24.6172 16.4 25.1196 17.9216 26.7943 17.9216C28.3014 17.9216 28.6364 16.9072 28.9713 15.7237C29.4737 14.5402 29.9761 12.8494 31.6507 12.8494C33.1579 12.8494 34.4976 14.0329 34.4976 15.8927C34.4976 16.569 34.3301 17.2453 33.9952 17.7525C33.9952 17.9216 33.8278 18.0907 33.6603 18.0907C33.4928 18.0907 33.3254 17.9216 33.3254 17.7525C33.3254 17.7525 33.3254 17.5835 33.4928 17.2453C33.6603 16.9072 33.8278 16.4 33.8278 15.7237C33.8278 14.202 32.823 13.5257 31.8182 13.5257C30.4785 13.5257 30.1435 14.5402 29.8086 15.7237C29.3062 17.0762 28.8038 18.5979 26.7943 18.5979C24.9522 18.5979 23.9474 17.0762 23.9474 15.0474C23.9474 13.8639 24.2823 13.0185 24.4498 12.6804C24.6172 12.5113 24.6172 12.3422 24.9522 12.3422C25.1196 12.3422 25.2871 12.5113 25.2871 12.6804C25.2871 13.0185 25.2871 13.1876 25.1196 13.3567Z" fill="black"></path><path d="M26.7943 19.2742C24.7847 19.2742 23.445 17.7525 23.445 15.3855C23.445 14.033 23.7799 13.1876 23.9474 12.8494C24.1148 12.6804 24.2823 12.1732 24.7847 12.1732C25.2871 12.1732 25.622 12.5113 25.622 13.0185C25.622 13.1876 25.622 13.3567 25.4545 13.5257V13.6948C25.1196 14.202 25.1196 14.8783 25.1196 15.3855C25.1196 15.8927 25.2871 17.5835 26.7943 17.5835C27.9665 17.5835 28.134 16.9072 28.6364 15.5546C29.1388 14.3711 29.6411 12.5113 31.8182 12.5113C33.3254 12.5113 35 13.6948 35 16.0618C35 16.7381 34.8325 17.4144 34.4976 18.0907C34.3301 18.4288 33.9952 18.5979 33.6603 18.5979C33.1579 18.5979 32.823 18.2598 32.823 17.7525C32.823 17.5835 32.823 17.4144 32.9904 17.0763C33.1579 16.9072 33.3254 16.4 33.3254 15.7237C33.3254 14.5402 32.488 14.033 31.8182 14.033C30.8134 14.033 30.6459 14.7092 30.1435 15.8927C29.8086 17.4144 29.1388 19.2742 26.7943 19.2742ZM25.622 18.0907C25.9569 18.2598 26.2919 18.4288 26.7943 18.4288C27.4641 18.4288 27.9665 18.2598 28.3014 17.9216C27.9665 18.2598 27.4641 18.4288 26.7943 18.4288C26.2919 18.4288 25.9569 18.2598 25.622 18.0907ZM33.8278 17.7525C33.8278 17.9216 33.8278 17.9216 33.8278 17.7525L34.1627 17.9216L33.8278 17.7525ZM31.8182 13.3567C31.1483 13.3567 30.8134 13.5257 30.4785 13.8639C30.8134 13.5257 31.3158 13.3567 31.8182 13.3567C32.3206 13.3567 32.823 13.5257 33.1579 13.6948C32.6555 13.5257 32.3206 13.3567 31.8182 13.3567Z" fill="black"></path><path d="M29.3062 22.8246C32.3206 22.8246 34.6651 24.8535 34.6651 28.235C34.6651 29.4185 34.3301 30.4329 33.9952 30.9401C33.8277 31.1092 33.6603 31.2783 33.6603 31.2783C33.4928 31.2783 33.3254 31.1092 33.3254 30.9401C33.3254 30.771 33.3254 30.771 33.4928 30.602C33.9952 29.7566 33.9952 28.7422 33.9952 28.404C33.9952 25.6989 31.9856 23.8391 29.4737 23.8391C27.2966 23.8391 24.9522 25.3607 24.9522 28.5731C24.9522 29.5875 25.1196 30.0947 25.4545 30.771L25.622 31.2783C25.622 31.4473 25.4545 31.6164 25.2871 31.6164C25.1196 31.6164 24.9522 31.4473 24.9522 31.2783C24.4498 30.2638 24.2823 29.0803 24.2823 28.404C23.9474 24.8535 26.4593 22.8246 29.3062 22.8246Z" fill="black"></path><path d="M24.9522 31.9546C24.7847 31.9546 24.4498 31.7855 24.1148 31.4474C23.6124 30.2639 23.445 29.0804 23.445 28.4041C23.445 24.8536 25.7895 22.4866 29.1388 22.4866C32.488 22.4866 34.8325 25.0227 34.8325 28.4041C34.8325 29.5876 34.4976 30.602 34.1627 31.4474C33.9952 31.7855 33.6603 31.9546 33.4928 31.9546C32.9904 31.9546 32.6555 31.6165 32.6555 31.1093C32.6555 30.9402 32.6555 30.7711 32.823 30.602C33.3254 29.7567 33.3254 28.9113 33.3254 28.4041C33.3254 26.0371 31.6507 24.1773 29.1388 24.1773C27.1292 24.1773 24.9522 25.5299 24.9522 28.4041C24.9522 29.4185 25.1196 29.9257 25.2871 30.433C25.4545 30.9402 25.4545 30.9402 25.4545 31.1093C25.7895 31.6165 25.4545 31.9546 24.9522 31.9546ZM29.3062 23.3319C30.6459 23.3319 31.9856 23.8391 32.823 24.6845C31.9856 23.8391 30.6459 23.3319 29.3062 23.3319C28.134 23.3319 26.9617 23.6701 25.9569 24.5154C26.7943 23.6701 28.134 23.3319 29.3062 23.3319Z" fill="black"></path><path d="M24.6172 41.9298C24.4498 42.0989 24.4498 42.0989 24.2823 42.0989C24.1148 42.0989 23.9474 41.9298 23.9474 41.5917C23.9474 41.4226 24.1148 41.2535 24.2823 41.2535L28.9713 37.703V36.5195H24.4498C24.1148 36.5195 23.9474 36.1814 23.9474 36.0123C23.9474 35.6741 24.1148 35.5051 24.4498 35.5051H33.1579C33.6603 35.5051 34.4976 35.5051 34.4976 36.6886V38.5484C34.4976 40.7463 33.3254 41.5917 31.6507 41.5917C30.4785 41.5917 28.9713 40.9154 28.8038 38.5484L24.6172 41.9298ZM29.6412 38.2102C29.6412 38.8865 29.6412 40.9154 31.6507 40.9154C33.6603 40.9154 33.6603 39.0556 33.6603 38.2102V37.0267C33.6603 36.6886 33.4928 36.5195 33.1579 36.5195H29.6412V38.2102Z" fill="black"></path><path d="M24.2823 42.437C23.7799 42.437 23.445 41.9298 23.445 41.5917C23.445 41.2535 23.7799 41.0845 23.9474 40.9154L28.4689 37.5339V37.0267H24.4498C23.9474 37.0267 23.6124 36.5195 23.6124 36.1814C23.6124 35.6741 23.9474 35.336 24.4498 35.336H33.1579C34.3301 35.336 34.8325 35.8432 34.8325 36.8576V38.7174C34.8325 41.2535 33.1579 42.268 31.6507 42.268C30.311 42.268 28.8038 41.5917 28.4689 39.5628L24.9522 42.268L24.6172 41.9298L24.7847 42.268C24.7847 42.268 24.6172 42.437 24.2823 42.437ZM24.4498 41.5917L24.7847 41.9298L24.4498 41.5917ZM30.9809 41.2535C31.3158 41.2535 31.4833 41.4226 31.6507 41.4226C31.9856 41.4226 32.3206 41.4226 32.6555 41.2535C32.1531 41.2535 31.4833 41.4226 30.9809 41.2535ZM29.9761 36.8576V38.2102C29.9761 39.2247 30.1435 40.4082 31.6507 40.4082C32.9904 40.4082 33.1579 39.5628 33.1579 38.2102V37.0267C33.1579 37.0267 33.1579 37.0267 33.1579 36.8576C33.1579 36.8576 33.1579 36.8576 32.9904 36.8576H29.9761ZM29.1388 36.0123H32.9904C33.4928 36.0123 33.6603 36.1814 33.8278 36.5195C33.6603 36.1814 33.4928 36.0123 32.9904 36.0123H24.2823H29.1388Z" fill="black"></path><path d="M34.4976 50.8906C34.4976 53.9339 32.3206 56.3009 29.1388 56.3009C25.9569 56.3009 23.7799 53.9339 23.7799 50.8906C23.7799 47.8473 25.9569 45.4803 29.1388 45.4803C32.3206 45.4803 34.4976 47.8473 34.4976 50.8906ZM24.6172 50.8906C24.6172 53.4267 26.6268 55.4555 29.1388 55.4555C31.6507 55.4555 33.6603 53.4267 33.6603 50.8906C33.6603 48.3545 31.6507 46.3256 29.1388 46.3256C26.6268 46.3256 24.6172 48.3545 24.6172 50.8906Z" fill="black"></path><path d="M29.3062 56.6391C25.9569 56.6391 23.6124 54.103 23.6124 50.8907C23.6124 47.6783 26.1244 45.1422 29.3062 45.1422C32.488 45.1422 35 47.6783 35 50.8907C35 54.103 32.488 56.6391 29.3062 56.6391ZM25.1196 53.5958C25.9569 54.9484 27.4641 55.7937 29.3062 55.7937C31.1483 55.7937 32.6555 54.9484 33.4928 53.5958C32.6555 54.9484 31.1483 55.7937 29.3062 55.7937C27.4641 55.7937 25.9569 54.9484 25.1196 53.5958ZM29.3062 46.8329C26.9617 46.8329 25.1196 48.5237 25.1196 50.8907C25.1196 53.2577 26.9617 54.9484 29.3062 54.9484C31.6507 54.9484 33.4928 53.0886 33.4928 50.8907C33.4928 48.6927 31.6507 46.8329 29.3062 46.8329ZM29.3062 45.9876C30.9809 45.9876 32.488 46.8329 33.4928 48.1855C32.488 46.8329 30.9809 45.9876 29.3062 45.9876C27.4641 45.9876 25.9569 46.8329 25.1196 48.1855C25.9569 46.8329 27.4641 45.9876 29.3062 45.9876Z" fill="black"></path><path d="M24.1148 61.7113C24.1148 60.5278 24.9521 60.5278 25.4545 60.5278H34.1627C34.4976 60.5278 34.6651 60.6968 34.6651 61.035C34.6651 61.3731 34.4976 61.5422 34.1627 61.5422H25.4545C24.9521 61.5422 24.9521 61.7113 24.9521 62.0494V65.2618C24.9521 65.5999 24.7847 65.5999 24.6172 65.5999C24.4498 65.5999 24.2823 65.4309 24.2823 65.2618V61.7113H24.1148Z" fill="black"></path><path d="M24.4498 65.9382C23.9474 65.9382 23.6124 65.6 23.6124 65.0928V61.7114C23.6124 60.6969 24.1148 60.1897 25.2871 60.1897H33.9952C34.4976 60.1897 34.8325 60.6969 34.8325 61.0351C34.8325 61.5423 34.4976 61.8804 33.9952 61.8804H25.2871C25.2871 61.8804 25.2871 61.8804 25.1196 61.8804C25.1196 61.8804 25.1196 61.8804 25.1196 62.0495V65.2619C25.2871 65.7691 24.9522 65.9382 24.4498 65.9382ZM25.4545 61.0351C24.9522 61.0351 24.6172 61.0351 24.6172 61.5423C24.7847 61.2041 24.9522 61.0351 25.4545 61.0351H34.1627H25.4545Z" fill="black"></path><path d="M24.1148 70.672C24.1148 69.4885 24.9521 69.4885 25.4545 69.4885H34.1627C34.4976 69.4885 34.6651 69.6576 34.6651 69.9957C34.6651 70.3339 34.4976 70.503 34.1627 70.503H25.4545C24.9521 70.503 24.9521 70.672 24.9521 71.0102V74.2226C24.9521 74.5607 24.7847 74.5607 24.6172 74.5607C24.4498 74.5607 24.2823 74.3916 24.2823 74.2226V70.672H24.1148Z" fill="black"></path><path d="M24.4498 74.8989C23.9474 74.8989 23.6124 74.5608 23.6124 74.0535V70.6721C23.6124 69.6577 24.1148 69.1505 25.2871 69.1505H33.9952C34.4976 69.1505 34.8325 69.6577 34.8325 69.9958C34.8325 70.503 34.4976 70.8412 33.9952 70.8412H25.2871C25.2871 70.8412 25.2871 70.8412 25.1196 70.8412C25.1196 70.8412 25.1196 70.8412 25.1196 71.0102V74.2226C25.2871 74.5608 24.9522 74.8989 24.4498 74.8989ZM25.4545 69.8267C24.9522 69.8267 24.6172 69.8267 24.6172 70.334C24.7847 69.9958 24.9522 69.9958 25.4545 69.8267H34.1627H25.4545Z" fill="black"></path></svg> 