<?xml version="1.0" encoding="UTF-8"?> <svg xmlns="http://www.w3.org/2000/svg" width="95" height="90" viewBox="0 0 95 90" fill="none"><path d="M47.6459 27.2639C47.4514 27.2639 47.2569 27.0684 47.2569 26.873V17.101C47.2569 16.9056 47.4514 16.7101 47.6459 16.7101C47.8403 16.7101 48.0348 16.9056 48.0348 17.101V26.873C48.0348 27.0684 47.8403 27.2639 47.6459 27.2639Z" fill="black"></path><path d="M47.6459 27.7524C47.1597 27.7524 46.7708 27.3616 46.7708 26.873V17.101C46.7708 16.6124 47.1597 16.2215 47.6459 16.2215C48.1321 16.2215 48.521 16.6124 48.521 17.101V26.873C48.521 27.3616 48.1321 27.7524 47.6459 27.7524Z" fill="black"></path><path d="M44.4371 24.2345L45.0205 23.7459L47.6459 26.5798L50.174 23.7459L50.7574 24.2345L47.6459 27.6547L44.4371 24.2345Z" fill="black"></path><path d="M47.6459 28.4365L43.7564 24.2345L45.0205 23.0619L47.6459 25.798L50.174 23.0619L51.4381 24.2345L47.6459 28.4365Z" fill="black"></path><path d="M91.306 90H3.79321C1.75125 90 0.0982279 88.3388 0.0982279 86.2867V3.71336C0.000991479 1.66124 1.65401 0 3.69598 0H91.2088C93.2507 0 94.9037 1.66124 94.9037 3.71336V86.2867C95.001 88.3388 93.348 90 91.306 90ZM3.69598 1.9544C2.72361 1.9544 1.94572 2.73616 1.94572 3.71336V86.2867C1.94572 87.2638 2.72361 88.0456 3.69598 88.0456H91.2088C92.1811 88.0456 92.959 87.2638 92.959 86.2867V3.71336C92.959 2.73616 92.1811 1.9544 91.2088 1.9544H3.69598Z" fill="black"></path><path d="M25.7676 10.7492C25.7676 10.8469 25.6704 10.8469 25.6704 10.8469C25.5732 10.8469 25.5732 10.8469 25.5732 10.7492V7.71985H24.5036C24.3091 7.71985 24.3091 7.71985 24.3091 7.62213C24.3091 7.52441 24.3091 7.52441 24.4063 7.52441H26.8372C26.9345 7.52441 26.9345 7.62213 26.9345 7.62213C26.9345 7.71985 26.9345 7.71985 26.8372 7.71985H25.7676V10.7492Z" fill="black"></path><path d="M25.6704 11.0423C25.4759 11.0423 25.3787 10.9446 25.3787 10.7492V7.81758H24.4063C24.2119 7.81758 24.1146 7.71986 24.1146 7.52442C24.1146 7.32898 24.2119 7.23126 24.4063 7.23126H26.8372C27.0317 7.23126 27.129 7.32898 27.129 7.52442C27.129 7.62214 27.0317 7.81758 26.8372 7.81758H25.8649V10.7492C25.9621 10.9446 25.7676 11.0423 25.6704 11.0423ZM24.4063 7.62214H25.5732V10.7492V7.62214H26.74H24.4063Z" fill="black"></path><path d="M29.8516 7.4267C30.8239 7.4267 31.6018 8.11074 31.6018 9.18565C31.6018 10.1629 30.8239 10.9446 29.8516 10.9446C28.8792 10.9446 28.1013 10.2606 28.1013 9.18565C28.1013 8.20846 28.8792 7.4267 29.8516 7.4267ZM29.8516 10.6515C30.6295 10.6515 31.3101 9.96741 31.3101 9.18565C31.3101 8.40389 30.7267 7.71986 29.8516 7.71986C29.0737 7.71986 28.393 8.40389 28.393 9.18565C28.393 9.96741 29.0737 10.6515 29.8516 10.6515Z" fill="black"></path><path d="M29.8516 11.0423C28.782 11.0423 28.0041 10.2606 28.0041 9.18566C28.0041 8.11074 28.782 7.32898 29.8516 7.32898C30.9212 7.32898 31.6991 8.11074 31.6991 9.18566C31.6991 10.2606 30.9212 11.0423 29.8516 11.0423ZM29.8516 7.52442C28.8792 7.52442 28.1986 8.20846 28.1986 9.18566C28.1986 10.0651 28.8792 10.8469 29.8516 10.8469C30.8239 10.8469 31.5046 10.1629 31.5046 9.18566C31.5046 8.20846 30.8239 7.52442 29.8516 7.52442ZM29.8516 10.7492C28.9765 10.7492 28.2958 10.0651 28.2958 9.18566C28.2958 8.30618 28.9765 7.62214 29.8516 7.62214C30.7267 7.62214 31.4074 8.30618 31.4074 9.18566C31.4074 10.0651 30.7267 10.7492 29.8516 10.7492ZM29.8516 7.81758C29.0737 7.81758 28.4903 8.4039 28.4903 9.18566C28.4903 9.96741 29.0737 10.5537 29.8516 10.5537C30.6295 10.5537 31.2129 9.96741 31.2129 9.18566C31.2129 8.4039 30.6295 7.81758 29.8516 7.81758Z" fill="black"></path><path d="M33.2549 10.7492C33.2549 10.8469 33.1576 10.8469 33.1576 10.8469C33.0604 10.8469 33.0604 10.8469 33.0604 10.7492V7.91529C33.0604 7.81757 33.0604 7.52441 33.4493 7.52441H33.9355C34.2272 7.52441 34.4217 7.52441 34.6162 7.62213C34.9079 7.81757 35.0051 8.30617 35.0051 8.50161C35.0051 8.79477 34.9079 9.18565 34.5189 9.38109C34.3245 9.47881 34.13 9.47881 33.8383 9.47881H33.2549V10.7492ZM33.7411 9.18565C34.0328 9.18565 34.6162 9.18565 34.6162 8.50161C34.6162 7.81757 34.0328 7.81757 33.7411 7.81757H33.4493C33.3521 7.81757 33.2549 7.81757 33.2549 8.01301V9.28337H33.7411V9.18565Z" fill="black"></path><path d="M33.1576 11.0423C32.9631 11.0423 32.8659 10.9446 32.8659 10.7492V7.9153C32.8659 7.52442 33.0604 7.32898 33.3521 7.32898H33.8383C34.13 7.32898 34.3245 7.32898 34.6162 7.52442C35.1023 7.81758 35.1023 8.30618 35.1023 8.50162C35.1023 8.99022 34.9079 9.28338 34.6162 9.47881C34.4217 9.57653 34.13 9.57653 33.8383 9.57653H33.4493V10.7492C33.3521 10.9446 33.2549 11.0423 33.1576 11.0423ZM33.3521 7.62214C33.1576 7.62214 33.0604 7.71986 33.0604 7.9153V10.7492V9.28338H33.741C33.9355 9.28338 34.13 9.28337 34.3245 9.18566C34.6162 9.08794 34.7134 8.79478 34.7134 8.4039C34.7134 8.20846 34.6162 7.81758 34.3245 7.71986C34.13 7.62214 33.9355 7.62214 33.741 7.62214H33.3521ZM33.741 9.28338H33.1576V7.9153C33.1576 7.71986 33.2549 7.62214 33.4493 7.62214H33.741C34.0327 7.62214 34.8106 7.62214 34.8106 8.50162C34.8106 9.28338 34.13 9.28338 33.741 9.28338ZM33.3521 9.08794H33.741C34.13 9.08794 34.5189 9.08794 34.5189 8.50162C34.5189 7.9153 34.13 7.9153 33.741 7.9153H33.4493V9.08794H33.3521Z" fill="black"></path><path d="M38.8946 9.77198L38.5056 10.7492C38.5056 10.8469 38.5056 10.8469 38.4084 10.8469C38.3111 10.8469 38.2139 10.8469 38.2139 10.7492V10.6515L39.478 7.52442C39.478 7.4267 39.5752 7.32898 39.6724 7.32898C39.8669 7.32898 39.8669 7.4267 39.8669 7.52442L41.0338 10.6515V10.7492C41.0338 10.8469 40.9365 10.8469 40.8393 10.8469C40.742 10.8469 40.742 10.7492 40.742 10.7492L40.3531 9.77198H38.8946ZM40.4503 9.57654L39.7697 7.81758L39.089 9.57654H40.4503Z" fill="black"></path><path d="M41.0338 11.0423C40.8393 11.0423 40.8393 10.9446 40.742 10.8469L40.3531 9.8697H38.8945L38.5056 10.7492C38.5056 10.8469 38.4084 10.9446 38.2139 10.9446C38.1167 10.9446 37.9222 10.8469 37.9222 10.6515V10.5537L39.1863 7.4267C39.2835 7.23126 39.3807 7.13354 39.478 7.13354C39.6724 7.13354 39.7697 7.23126 39.7697 7.4267L40.9365 10.5537C40.9365 10.6515 40.9365 10.6515 40.9365 10.7492C41.3255 10.9446 41.2282 11.0423 41.0338 11.0423ZM38.8945 9.67426H40.6448L41.0338 10.7492L39.8669 7.62214C39.8669 7.62214 39.8669 7.52442 39.7697 7.52442L40.5476 9.67426H38.8945L39.6724 7.52442C39.6724 7.52442 39.6724 7.52442 39.5752 7.62214L38.4084 10.7492V10.8469L38.8945 9.67426ZM39.1863 9.47882H40.2559L39.7697 8.11074L39.1863 9.47882Z" fill="black"></path><path d="M42.8813 10.8469C42.4923 10.8469 42.4923 10.5537 42.4923 10.456V7.91529C42.4923 7.81757 42.4923 7.52441 42.8813 7.52441H43.4647C43.7564 7.52441 44.5343 7.52441 44.5343 8.30617C44.5343 8.79477 44.2426 8.99021 44.0481 9.08793C44.2426 9.18565 44.6315 9.28337 44.6315 9.96741C44.6315 10.8469 43.7564 10.8469 43.4647 10.8469H42.8813ZM43.4647 8.99021C43.6592 8.99021 44.2426 8.99021 44.2426 8.40389C44.2426 7.81757 43.7564 7.81757 43.3675 7.81757H42.8813C42.784 7.71985 42.784 7.81757 42.784 7.91529V8.99021H43.4647ZM42.784 10.456C42.784 10.5537 42.8813 10.6514 42.9785 10.6514H43.5619C43.8536 10.6514 44.5343 10.6515 44.5343 9.96741C44.5343 9.28337 43.8537 9.28337 43.6592 9.28337H42.784V10.456Z" fill="black"></path><path d="M43.4647 10.9446H42.784C42.4923 10.9446 42.2979 10.7492 42.2979 10.3583V7.9153C42.2979 7.52442 42.4923 7.32898 42.784 7.32898H43.3675C43.6592 7.32898 44.6315 7.32898 44.6315 8.30618C44.6315 8.69706 44.4371 8.8925 44.2426 9.08794C44.4371 9.18566 44.7288 9.47882 44.7288 9.96741C44.826 10.6515 44.3398 10.9446 43.4647 10.9446ZM42.8813 7.62214C42.6868 7.62214 42.5896 7.71986 42.5896 7.9153V10.456C42.5896 10.6515 42.5896 10.7492 42.8813 10.7492H43.5619C44.0481 10.7492 44.6315 10.6515 44.6315 9.96741C44.6315 9.67425 44.5343 9.47882 44.4371 9.3811C44.5343 9.47882 44.6315 9.67425 44.6315 9.96741C44.6315 10.7492 43.8536 10.7492 43.5619 10.7492H42.9785C42.8813 10.7492 42.6868 10.7492 42.6868 10.456V7.9153C42.5896 7.71986 42.6868 7.62214 42.8813 7.62214H43.4647C43.8536 7.62214 44.4371 7.62214 44.4371 8.30618C44.4371 8.4039 44.4371 8.59934 44.3398 8.69706C44.4371 8.59934 44.4371 8.50162 44.4371 8.20846C44.4371 7.62214 43.9509 7.52442 43.4647 7.52442H42.8813V7.62214ZM42.8813 10.456H43.4647C43.8536 10.456 44.3398 10.456 44.3398 9.96741C44.3398 9.47882 43.9509 9.3811 43.5619 9.3811H42.8813V10.456ZM43.5619 9.08794C43.6592 9.08794 43.7564 9.08794 43.7564 9.08794L43.8536 8.99022C43.7564 9.08794 43.6592 9.08794 43.5619 9.08794ZM42.8813 8.8925H43.4647C43.7564 8.8925 44.1453 8.79478 44.1453 8.4039C44.1453 8.01302 43.8536 7.9153 43.3675 7.9153H42.8813V8.8925Z" fill="black"></path><path d="M47.6458 7.4267C48.6182 7.4267 49.3961 8.11074 49.3961 9.18565C49.3961 10.1629 48.6182 10.9446 47.6458 10.9446C46.6735 10.9446 45.8956 10.2606 45.8956 9.18565C45.8956 8.20846 46.6735 7.4267 47.6458 7.4267ZM47.6458 10.6515C48.4237 10.6515 49.1044 9.96741 49.1044 9.18565C49.1044 8.40389 48.521 7.71986 47.6458 7.71986C46.8679 7.71986 46.1873 8.40389 46.1873 9.18565C46.1873 9.96741 46.8679 10.6515 47.6458 10.6515Z" fill="black"></path><path d="M47.6458 11.0423C46.5762 11.0423 45.7983 10.2606 45.7983 9.18566C45.7983 8.11074 46.5762 7.32898 47.6458 7.32898C48.7154 7.32898 49.4933 8.11074 49.4933 9.18566C49.4933 10.2606 48.7154 11.0423 47.6458 11.0423ZM47.6458 7.52442C46.6735 7.52442 45.9928 8.20846 45.9928 9.18566C45.9928 10.0651 46.6735 10.8469 47.6458 10.8469C48.6182 10.8469 49.2989 10.1629 49.2989 9.18566C49.2989 8.20846 48.6182 7.52442 47.6458 7.52442ZM47.6458 10.7492C46.7707 10.7492 46.0901 10.0651 46.0901 9.18566C46.0901 8.30618 46.7707 7.62214 47.6458 7.62214C48.521 7.62214 49.2016 8.30618 49.2016 9.18566C49.2016 10.0651 48.521 10.7492 47.6458 10.7492ZM47.6458 7.81758C46.8679 7.81758 46.2845 8.4039 46.2845 9.18566C46.2845 9.96741 46.8679 10.5537 47.6458 10.5537C48.4237 10.5537 49.0071 9.96741 49.0071 9.18566C49.0071 8.4039 48.4237 7.81758 47.6458 7.81758Z" fill="black"></path><path d="M50.7574 7.62213C50.7574 7.52441 50.8546 7.52441 50.8546 7.52441C50.9519 7.52441 50.9519 7.52441 50.9519 7.62213V9.47881C50.9519 9.96741 50.9519 10.7492 52.0215 10.7492C53.0911 10.7492 53.0911 9.96741 53.0911 9.47881V7.62213C53.0911 7.52441 53.1883 7.52441 53.1883 7.52441C53.2855 7.52441 53.2855 7.52441 53.2855 7.62213V9.47881C53.2855 9.96741 53.2855 11.0423 51.9242 11.0423C50.5629 11.0423 50.5629 10.0651 50.5629 9.47881V7.62213H50.7574Z" fill="black"></path><path d="M52.1187 11.0423C50.6602 11.0423 50.6602 9.86969 50.6602 9.3811V7.62214C50.6602 7.4267 50.7574 7.32898 50.9519 7.32898C51.1463 7.32898 51.2436 7.4267 51.2436 7.62214V9.47881C51.2436 10.0651 51.3408 10.6515 52.2159 10.6515C53.0911 10.6515 53.1883 10.0651 53.1883 9.47881V7.62214C53.1883 7.4267 53.2855 7.32898 53.48 7.32898C53.6745 7.32898 53.7717 7.4267 53.7717 7.62214V9.47881C53.6745 9.86969 53.6745 11.0423 52.1187 11.0423ZM50.8546 7.52442V9.3811C50.8546 10.0651 51.0491 10.7492 52.1187 10.7492C53.1883 10.7492 53.3828 10.0651 53.3828 9.3811V7.62214V9.47881C53.3828 9.96741 53.3828 10.8469 52.1187 10.8469C50.8546 10.8469 50.8546 9.86969 50.8546 9.47881V7.52442Z" fill="black"></path><path d="M56.2999 10.7492C56.2999 10.8469 56.2026 10.8469 56.2026 10.8469C56.1054 10.8469 56.1054 10.8469 56.1054 10.7492V7.71985H55.0358C54.9386 7.71985 54.9386 7.62213 54.9386 7.62213C54.9386 7.52441 54.9386 7.52441 55.0358 7.52441H57.3695C57.4667 7.52441 57.4667 7.62213 57.4667 7.62213C57.4667 7.71985 57.4667 7.71985 57.3695 7.71985H56.2999V10.7492Z" fill="black"></path><path d="M56.1054 11.0423C55.9109 11.0423 55.8137 10.9446 55.8137 10.7492V7.81758H54.8413C54.6469 7.81758 54.5496 7.71986 54.5496 7.52442C54.5496 7.32898 54.6469 7.23126 54.8413 7.23126H57.3695C57.5639 7.23126 57.6612 7.32898 57.6612 7.52442C57.6612 7.62214 57.5639 7.81758 57.3695 7.81758H56.3971V10.7492C56.3971 10.9446 56.2999 11.0423 56.1054 11.0423ZM54.9386 7.62214H56.1054V10.7492V7.62214H57.3695H54.9386Z" fill="black"></path><path d="M60.9672 10.5537C61.1617 10.6514 61.3562 10.6514 61.5507 10.6514C61.9396 10.6514 62.4258 10.456 62.4258 9.96741C62.4258 9.47881 62.0368 9.38109 61.7451 9.28337C61.3562 9.18565 60.87 8.99021 60.87 8.40389C60.87 7.91529 61.259 7.52441 61.8424 7.52441C62.0368 7.52441 62.2313 7.62213 62.4258 7.62213C62.4258 7.62213 62.523 7.62213 62.523 7.71985C62.523 7.81757 62.523 7.81757 62.4258 7.81757H62.3286C62.2313 7.81757 62.0368 7.71985 61.8424 7.71985C61.3562 7.71985 61.1617 8.01301 61.1617 8.40389C61.1617 8.79477 61.5507 8.99021 61.8424 9.08793C62.2313 9.18565 62.7175 9.38109 62.7175 10.0651C62.7175 10.6514 62.2313 11.0423 61.5507 11.0423C61.1617 11.0423 60.87 10.9446 60.7728 10.8469C60.6755 10.8469 60.6755 10.7492 60.6755 10.7492C60.6755 10.6514 60.7728 10.6514 60.7728 10.6514C60.87 10.456 60.87 10.456 60.9672 10.5537Z" fill="black"></path><path d="M61.6479 11.0423C61.259 11.0423 60.9672 10.9446 60.87 10.8469C60.7728 10.8469 60.6755 10.7492 60.6755 10.5537C60.6755 10.456 60.7728 10.2606 60.9672 10.2606C60.9672 10.2606 61.0645 10.2606 61.1617 10.3583C61.3562 10.456 61.5507 10.456 61.7451 10.456C61.9396 10.456 62.523 10.456 62.523 9.8697C62.523 9.47882 62.3286 9.3811 61.8424 9.28338C61.4534 9.18566 60.87 8.99022 60.87 8.30618C60.87 7.81758 61.259 7.23126 61.9396 7.23126C62.1341 7.23126 62.4258 7.32898 62.6203 7.4267C62.6203 7.4267 62.8147 7.52442 62.8147 7.62214C62.8147 7.71986 62.7175 7.9153 62.523 7.9153C62.4258 7.9153 62.4258 7.9153 62.3286 7.81758C62.2313 7.81758 62.1341 7.71986 61.9396 7.71986C61.4534 7.81758 61.259 8.11074 61.259 8.30618C61.259 8.59934 61.4534 8.69706 61.8424 8.8925C62.2313 9.08794 62.8147 9.28338 62.8147 9.96742C62.912 10.6515 62.3286 11.0423 61.6479 11.0423ZM60.87 10.5537C60.87 10.6515 60.87 10.6515 60.87 10.5537C61.0645 10.6515 61.259 10.7492 61.6479 10.7492C62.1341 10.7492 62.6203 10.5537 62.6203 9.96742C62.6203 9.3811 62.2313 9.28338 61.8424 9.08794C61.4534 8.99022 61.0645 8.79478 61.0645 8.30618C61.0645 7.9153 61.3562 7.52442 61.8424 7.52442C62.0368 7.52442 62.2313 7.62214 62.3286 7.62214C62.4258 7.62214 62.4258 7.62214 62.4258 7.62214C62.2313 7.52442 62.0368 7.52442 61.8424 7.52442C61.259 7.52442 60.9672 7.9153 60.9672 8.30618C60.9672 8.79478 61.3562 8.99022 61.7451 9.08794C62.1341 9.18566 62.523 9.3811 62.523 9.96742C62.523 10.5537 62.0368 10.7492 61.5507 10.7492C61.3562 10.7492 61.0645 10.6515 60.87 10.5537C60.87 10.6515 60.87 10.5537 60.87 10.5537Z" fill="black"></path><path d="M65.9263 8.99021C66.0235 8.99021 66.0235 9.08793 66.0235 9.08793C66.0235 9.18565 66.0235 9.18565 65.9263 9.18565H64.4678V10.3583C64.4678 10.456 64.565 10.5537 64.6622 10.5537H66.1208C66.218 10.5537 66.218 10.6514 66.218 10.6514C66.218 10.7492 66.218 10.7492 66.1208 10.7492H64.565C64.1761 10.7492 64.1761 10.456 64.1761 10.3583V7.91529C64.1761 7.81757 64.1761 7.52441 64.565 7.52441H66.0235C66.1208 7.52441 66.1208 7.62213 66.1208 7.62213C66.1208 7.71985 66.1208 7.71985 66.0235 7.71985H64.565C64.4678 7.71985 64.3705 7.71985 64.3705 7.91529V8.99021H65.9263Z" fill="black"></path><path d="M66.1208 10.9446H64.565C64.2733 10.9446 64.0788 10.7492 64.0788 10.3583V7.9153C64.0788 7.52442 64.2733 7.32898 64.565 7.32898H66.0235C66.218 7.32898 66.3152 7.4267 66.3152 7.62214C66.3152 7.71986 66.218 7.9153 66.0235 7.9153H64.565V8.8925H65.9263C66.1208 8.8925 66.1208 8.99022 66.1208 9.18566C66.1208 9.3811 66.0235 9.47882 65.9263 9.47882H64.565V10.5537H66.1208C66.3152 10.5537 66.4125 10.6515 66.4125 10.8469C66.3152 10.8469 66.218 10.9446 66.1208 10.9446ZM64.565 7.62214C64.3705 7.62214 64.2733 7.71986 64.2733 7.9153V10.456C64.2733 10.6515 64.2733 10.7492 64.565 10.7492H66.1208H64.6622C64.565 10.7492 64.3705 10.7492 64.3705 10.456V9.08794H65.9263H64.3705V7.9153C64.3705 7.71986 64.3705 7.62214 64.565 7.62214H66.0235H64.565Z" fill="black"></path><path d="M69.524 10.6514C69.524 10.7492 69.6213 10.7492 69.6213 10.7492C69.6213 10.8469 69.524 10.8469 69.524 10.8469C69.4268 10.8469 69.4268 10.8469 69.4268 10.7492L68.26 9.28337H67.871V10.7492C67.871 10.8469 67.7738 10.8469 67.7738 10.8469C67.6765 10.8469 67.6765 10.8469 67.6765 10.7492V7.91529C67.6765 7.81757 67.6765 7.52441 68.0655 7.52441H68.6489C69.3296 7.52441 69.6213 7.91529 69.6213 8.40389C69.6213 8.79477 69.4268 9.28337 68.6489 9.28337L69.524 10.6514ZM68.3572 9.08793C68.5517 9.08793 69.2323 9.08793 69.2323 8.40389C69.2323 7.71985 68.6489 7.71985 68.3572 7.71985H67.9683C67.871 7.71985 67.7738 7.71985 67.7738 7.91529V9.08793H68.3572Z" fill="black"></path><path d="M69.4268 11.0423C69.3295 11.0423 69.2323 10.9446 69.2323 10.9446L68.1627 9.47881H67.9682V10.7492C67.9682 10.9446 67.871 11.0423 67.6765 11.0423C67.4821 11.0423 67.3848 10.9446 67.3848 10.7492V7.9153C67.3848 7.52442 67.5793 7.32898 67.871 7.32898H68.4544C69.2323 7.32898 69.524 7.81758 69.524 8.4039C69.524 8.8925 69.3295 9.28338 68.6489 9.3811L69.524 10.5537L69.4268 10.6515L69.524 10.5537C69.524 10.6515 69.6213 10.6515 69.6213 10.7492C69.7185 10.9446 69.6213 11.0423 69.4268 11.0423ZM67.6765 9.18566H68.2599L69.4268 10.6515L69.524 10.5537L69.4268 10.7492L68.2599 9.18566H68.4544C69.2323 9.18566 69.3296 8.59934 69.3296 8.4039C69.3296 7.9153 69.0378 7.62214 68.4544 7.62214H67.871C67.6765 7.62214 67.5793 7.71986 67.5793 7.9153V10.7492V9.18566H67.6765ZM68.3572 9.18566H67.6765V7.9153C67.6765 7.71986 67.7738 7.62214 67.9682 7.62214H68.3572C68.5517 7.62214 69.3296 7.62214 69.3296 8.4039C69.3296 8.8925 69.0378 9.18566 68.3572 9.18566ZM67.9682 8.99022H68.4544C68.8434 8.99022 69.2323 8.8925 69.2323 8.4039C69.2323 7.9153 68.8434 7.9153 68.4544 7.9153H68.0655V8.99022H67.9682Z" fill="black"></path><path d="M73.3162 7.52442C73.3162 7.52442 73.3162 7.4267 73.4135 7.4267C73.5107 7.4267 73.6079 7.52442 73.6079 7.52442V7.62214L72.3439 10.7492C72.3439 10.8469 72.2466 10.9446 72.1494 10.9446C72.0522 10.9446 71.9549 10.8469 71.9549 10.7492L70.6909 7.62214V7.52442C70.6909 7.4267 70.7881 7.4267 70.8853 7.4267C70.9826 7.4267 70.9826 7.4267 70.9826 7.52442L72.2466 10.6515L73.3162 7.52442Z" fill="black"></path><path d="M72.1494 11.0423C71.9549 11.0423 71.8577 10.8469 71.8577 10.8469L70.5936 7.71986C70.5936 7.71986 70.5936 7.62214 70.5936 7.52442C70.5936 7.32898 70.6909 7.23126 70.8853 7.23126C71.0798 7.23126 71.0798 7.32898 71.0798 7.4267L72.1494 10.2606L73.219 7.4267H73.3162L73.219 7.32898C73.219 7.32898 73.3162 7.13354 73.4135 7.13354C73.5107 7.13354 73.7052 7.23126 73.7052 7.4267C73.7052 7.52442 73.7052 7.52442 73.7052 7.62214L72.4411 10.6515C72.4411 10.8469 72.3439 11.0423 72.1494 11.0423ZM73.3162 7.52442H73.4135L72.1494 10.7492C72.1494 10.7492 72.1494 10.7492 72.2466 10.6515L73.5107 7.52442C73.5107 7.52442 73.5107 7.52442 73.5107 7.4267L73.3162 7.52442ZM70.7881 7.52442C70.7881 7.52442 70.6909 7.62214 70.7881 7.52442C70.6909 7.62214 70.7881 7.62214 70.7881 7.52442L71.9549 10.7492C71.9549 10.7492 71.9549 10.8469 72.0522 10.8469L70.7881 7.52442Z" fill="black"></path><path d="M74.9693 7.62213C74.9693 7.52441 75.0665 7.52441 75.0665 7.52441C75.1638 7.52441 75.1638 7.62213 75.1638 7.62213V10.7492C75.1638 10.8469 75.0665 10.8469 75.0665 10.8469C74.9693 10.8469 74.9693 10.7492 74.9693 10.7492V7.62213Z" fill="black"></path><path d="M75.0665 11.0423C74.872 11.0423 74.7748 10.9446 74.7748 10.7492V7.62214C74.7748 7.4267 74.872 7.32898 75.0665 7.32898C75.261 7.32898 75.3582 7.4267 75.3582 7.62214V10.7492C75.3582 10.9446 75.261 11.0423 75.0665 11.0423ZM75.0665 7.52442V10.7492V7.52442Z" fill="black"></path><path d="M76.7195 9.18565C76.7195 8.20846 77.4002 7.4267 78.4698 7.4267C78.8588 7.4267 79.1505 7.52442 79.3449 7.62214C79.4422 7.62214 79.4422 7.71986 79.4422 7.71986C79.4422 7.81758 79.3449 7.81758 79.3449 7.81758C79.3449 7.81758 79.2477 7.81758 79.2477 7.71986C78.956 7.52442 78.6643 7.52442 78.567 7.52442C77.6919 7.52442 77.1085 8.20846 77.1085 8.99021C77.1085 9.67425 77.5947 10.456 78.6643 10.456C78.956 10.456 79.1505 10.3583 79.3449 10.3583C79.3449 10.3583 79.4422 10.2606 79.5394 10.2606C79.5394 10.2606 79.6367 10.2606 79.6367 10.3583C79.6367 10.456 79.5394 10.456 79.5394 10.456C79.2477 10.6515 78.8588 10.6515 78.567 10.6515C77.303 10.9446 76.7195 10.1629 76.7195 9.18565Z" fill="black"></path><path d="M78.4698 11.0423C77.303 11.0423 76.5251 10.2606 76.5251 9.18566C76.5251 8.11074 77.303 7.32898 78.3726 7.32898C78.7615 7.32898 79.0532 7.4267 79.3449 7.52442C79.4421 7.62214 79.5394 7.71986 79.5394 7.71986C79.5394 7.81758 79.4421 8.01302 79.2477 8.01302C79.1504 8.01302 79.1504 8.01302 79.0532 7.9153C78.8587 7.81758 78.567 7.81758 78.4698 7.81758C77.6919 7.81758 77.1085 8.4039 77.1085 9.18566C77.1085 9.86969 77.4974 10.5537 78.4698 10.5537C78.7615 10.5537 78.956 10.456 79.1504 10.456C79.2477 10.3583 79.3449 10.3583 79.3449 10.3583C79.4421 10.3583 79.5394 10.456 79.5394 10.6515C79.5394 10.7492 79.5394 10.8469 79.3449 10.8469C79.0532 11.0423 78.6643 11.0423 78.4698 11.0423ZM78.4698 7.52442C77.4974 7.52442 76.8168 8.20846 76.8168 9.18566C76.8168 9.96741 77.303 10.8469 78.4698 10.8469C78.6643 10.8469 79.0532 10.8469 79.3449 10.6515H79.2477C79.0532 10.7492 78.8587 10.7492 78.4698 10.7492C77.303 10.7492 76.8168 9.86969 76.8168 9.18566C76.8168 8.20846 77.4974 7.62214 78.4698 7.52442C78.6643 7.52442 78.956 7.52442 79.2477 7.71986C79.0532 7.62214 78.7615 7.52442 78.4698 7.52442Z" fill="black"></path><path d="M82.5537 8.99021C82.651 8.99021 82.651 9.08793 82.651 9.08793C82.651 9.18565 82.651 9.18565 82.5537 9.18565H81.0952V10.3583C81.0952 10.456 81.1924 10.5537 81.2896 10.5537H82.7482C82.8454 10.5537 82.8454 10.6514 82.8454 10.6514C82.8454 10.7492 82.8454 10.7492 82.7482 10.7492H81.1924C80.8035 10.7492 80.8035 10.456 80.8035 10.3583V7.91529C80.8035 7.81757 80.8035 7.52441 81.1924 7.52441H82.651C82.7482 7.52441 82.7482 7.62213 82.7482 7.62213C82.7482 7.71985 82.7482 7.71985 82.651 7.71985H81.1924C81.0952 7.71985 80.9979 7.71985 80.9979 7.91529V8.99021H82.5537Z" fill="black"></path><path d="M82.7482 10.9446H81.1924C80.9007 10.9446 80.7062 10.7492 80.7062 10.3583V7.9153C80.7062 7.52442 80.9007 7.32898 81.1924 7.32898H82.651C82.8454 7.32898 82.9427 7.4267 82.9427 7.62214C82.9427 7.71986 82.8454 7.9153 82.651 7.9153H81.1924V8.8925H82.5537C82.7482 8.8925 82.7482 8.99022 82.7482 9.18566C82.7482 9.3811 82.651 9.47882 82.5537 9.47882H81.1924V10.5537H82.651C82.8454 10.5537 82.9427 10.6515 82.9427 10.8469C83.0399 10.8469 82.8454 10.9446 82.7482 10.9446ZM81.1924 7.62214C80.9979 7.62214 80.9007 7.71986 80.9007 7.9153V10.456C80.9007 10.6515 80.9007 10.7492 81.1924 10.7492H82.7482H81.2897C81.1924 10.7492 80.9979 10.7492 80.9979 10.456V9.08794H82.5537H80.9979V7.9153C80.9979 7.71986 81.0952 7.62214 81.1924 7.62214H82.651H81.1924Z" fill="black"></path><path d="M38.3112 35.8632L37.825 37.1336C37.825 37.2313 37.7277 37.329 37.6305 37.329C37.5333 37.329 37.436 37.2313 37.436 37.1336V37.0359L38.9918 33.2248C38.9918 33.1271 39.0891 33.0294 39.2835 33.0294C39.478 33.0294 39.5752 33.1271 39.5752 33.2248L41.131 37.0359V37.1336C41.131 37.2313 41.0338 37.329 40.9365 37.329C40.8393 37.329 40.8393 37.2313 40.8393 37.1336L40.3531 35.8632H38.3112ZM40.1587 35.5701L39.2835 33.3225L38.4084 35.5701H40.1587Z" fill="black"></path><path d="M40.9365 37.5244C40.6448 37.5244 40.5476 37.329 40.5476 37.2313L40.1587 36.1563H38.5056L38.1167 37.2313C38.1167 37.329 38.0195 37.5244 37.7277 37.5244C37.5333 37.5244 37.3388 37.329 37.3388 37.1335C37.3388 37.0358 37.3388 37.0358 37.3388 36.9381L38.8946 33.0293C38.9918 32.7361 39.2835 32.6384 39.3808 32.6384C39.5752 32.6384 39.7697 32.7361 39.867 33.0293L41.4227 36.8404C41.4227 36.9381 41.52 36.9381 41.52 37.0358C41.4227 37.329 41.131 37.5244 40.9365 37.5244ZM38.7974 35.3746H39.867L39.3808 34.0065L38.7974 35.3746Z" fill="black"></path><path d="M42.6868 37.2313C42.2006 37.2313 42.2006 36.8404 42.2006 36.7427V33.6157C42.2006 33.4202 42.2006 33.1271 42.6868 33.1271H43.4647C43.8536 33.1271 44.826 33.1271 44.826 34.1043C44.826 34.7883 44.4371 34.9838 44.1454 35.0815C44.4371 35.1792 44.9232 35.3746 44.9232 36.1564C44.9232 37.329 43.7564 37.329 43.4647 37.329H42.6868V37.2313ZM43.4647 34.886C43.7564 34.886 44.4371 34.886 44.4371 34.1043C44.4371 33.3225 43.8536 33.3225 43.3675 33.3225H42.784C42.5896 33.3225 42.5896 33.3225 42.5896 33.518V34.886H43.4647ZM42.5896 36.645C42.5896 36.8404 42.6868 36.8404 42.784 36.8404H43.4647C43.8536 36.8404 44.6315 36.8404 44.6315 36.0587C44.6315 35.1792 43.8536 35.1792 43.4647 35.1792H42.4923V36.645H42.5896Z" fill="black"></path><path d="M43.4647 37.4267H42.6868C42.3951 37.4267 42.0061 37.329 42.0061 36.6449V33.5179C42.0061 32.8339 42.3951 32.7361 42.6868 32.7361H43.4647C44.5343 32.7361 45.1177 33.127 45.1177 34.0065C45.1177 34.4951 44.9232 34.7883 44.7288 34.9837C45.0205 35.1791 45.3122 35.4723 45.3122 36.0586C45.2149 36.6449 44.9232 37.4267 43.4647 37.4267ZM42.784 36.6449H43.4647C44.0481 36.6449 44.4371 36.5472 44.4371 36.0586C44.4371 35.57 44.1453 35.3746 43.5619 35.3746H42.784V36.6449ZM42.784 34.5928H43.4647C44.0481 34.5928 44.2426 34.3974 44.2426 34.0065C44.2426 33.6156 44.0481 33.5179 43.3674 33.5179H42.784V34.5928Z" fill="black"></path><path d="M48.1321 32.9316C49.3961 32.9316 50.2713 33.8111 50.2713 35.0814C50.2713 36.3518 49.2989 37.2313 48.1321 37.2313C46.9652 37.2313 45.9929 36.3518 45.9929 35.0814C45.9929 33.8111 46.9652 32.9316 48.1321 32.9316ZM48.1321 36.9381C49.2017 36.9381 49.9796 36.1563 49.9796 35.0814C49.9796 34.0065 49.2017 33.2247 48.1321 33.2247C47.0625 33.2247 46.2846 34.0065 46.2846 35.0814C46.2846 36.1563 47.0625 36.9381 48.1321 36.9381Z" fill="black"></path><path d="M48.1321 37.5244C46.7707 37.5244 45.7011 36.4495 45.7011 35.0814C45.7011 33.7133 46.7707 32.6384 48.1321 32.6384C49.4934 32.6384 50.563 33.7133 50.563 35.0814C50.563 36.4495 49.4934 37.5244 48.1321 37.5244ZM48.1321 33.5179C47.2569 33.5179 46.5763 34.2019 46.5763 35.1791C46.5763 36.0586 47.2569 36.8404 48.1321 36.8404C49.0072 36.8404 49.6878 36.1563 49.6878 35.1791C49.6878 34.2019 49.0072 33.5179 48.1321 33.5179Z" fill="black"></path><path d="M51.5353 33.127C51.5353 33.0293 51.6326 32.9316 51.7298 32.9316C51.827 32.9316 51.9243 33.0293 51.9243 33.127V35.3746C51.9243 36.0586 51.9243 36.9381 53.2856 36.9381C54.6469 36.9381 54.6469 35.9609 54.6469 35.3746V33.127C54.6469 33.0293 54.7441 32.9316 54.8414 32.9316C54.9386 32.9316 55.0359 33.0293 55.0359 33.127V35.3746C55.0359 35.9609 55.0359 37.2313 53.2856 37.2313C51.6326 37.2313 51.5353 35.9609 51.5353 35.3746V33.127Z" fill="black"></path><path d="M53.1884 37.5244C51.2436 37.5244 51.2436 35.9609 51.2436 35.3746V33.127C51.2436 32.8339 51.4381 32.7361 51.6326 32.7361C51.9243 32.7361 52.0215 32.9316 52.0215 33.127V35.3746C52.0215 36.1563 52.1187 36.7427 53.1884 36.7427C54.258 36.7427 54.3552 36.0586 54.3552 35.3746V33.127C54.3552 32.8339 54.5497 32.7361 54.7441 32.7361C55.0358 32.7361 55.1331 32.9316 55.1331 33.127V35.3746C55.2303 35.9609 55.2303 37.5244 53.1884 37.5244ZM51.6326 33.127H51.7298H51.4381H51.6326Z" fill="black"></path><path d="M57.8557 37.1335C57.8557 37.2313 57.7584 37.329 57.6612 37.329C57.564 37.329 57.4667 37.2313 57.4667 37.1335V33.3225H56.1054C56.0082 33.3225 55.9109 33.2247 55.9109 33.127C55.9109 33.0293 56.0082 32.9316 56.1054 32.9316H59.1198C59.217 32.9316 59.3142 33.0293 59.3142 33.127C59.3142 33.2247 59.217 33.3225 59.1198 33.3225H57.7584V37.1335H57.8557Z" fill="black"></path><path d="M57.6612 37.5244C57.3695 37.5244 57.2723 37.329 57.2723 37.1335V33.6156H56.2027C56.0082 33.6156 55.8137 33.4202 55.8137 33.2247C55.8137 33.0293 56.0082 32.8339 56.2027 32.8339H59.217C59.4115 32.8339 59.6059 33.0293 59.6059 33.2247C59.6059 33.4202 59.4115 33.6156 59.217 33.6156H58.1474V37.1335C58.0502 37.4267 57.8557 37.5244 57.6612 37.5244ZM57.564 37.1335H57.8557H57.564Z" fill="black"></path><path d="M35.783 72.7036C36.0747 72.8013 36.2692 72.899 36.5609 72.899C37.0471 72.899 37.6305 72.7036 37.6305 72.0196C37.6305 71.4332 37.1443 71.2378 36.7554 71.1401C36.2692 70.9446 35.5885 70.7492 35.5885 69.9674C35.5885 69.3811 36.0747 68.7948 36.8526 68.7948C37.1443 68.7948 37.3388 68.8925 37.6305 68.9902C37.6305 68.9902 37.7277 69.088 37.7277 69.1857C37.7277 69.2834 37.6305 69.3811 37.5333 69.3811C37.5333 69.3811 37.436 69.3811 37.3388 69.2834C37.2415 69.2834 37.0471 69.1857 36.7554 69.1857C36.1719 69.1857 35.8802 69.5766 35.8802 69.9674C35.8802 70.456 36.2692 70.6515 36.7554 70.8469C37.2415 71.0424 37.9222 71.2378 37.9222 72.0196C37.9222 72.8013 37.2415 73.1922 36.4637 73.1922C35.9775 73.1922 35.5885 72.9968 35.4913 72.9968C35.3941 72.9968 35.2968 72.899 35.2968 72.8013C35.2968 72.7036 35.3941 72.6059 35.4913 72.6059C35.6858 72.6059 35.6858 72.6059 35.783 72.7036Z" fill="black"></path><path d="M36.5609 73.3876C35.9775 73.3876 35.6858 73.1922 35.4913 73.1922C35.3941 73.1922 35.1996 72.9967 35.1996 72.8013C35.1996 72.6059 35.3941 72.4104 35.5885 72.4104C35.6858 72.4104 35.6858 72.4104 35.8802 72.5081C36.0747 72.6059 36.2692 72.7036 36.5609 72.7036C36.7554 72.7036 37.436 72.7036 37.436 72.1173C37.436 71.7264 37.1443 71.6287 36.6581 71.4332C36.1719 71.2378 35.3941 70.9446 35.3941 70.0652C35.3941 69.2834 35.9775 68.6971 36.8526 68.6971C37.1443 68.6971 37.436 68.7948 37.7277 68.8925C37.9222 68.9902 38.0194 69.088 38.0194 69.2834C38.0194 69.4788 37.825 69.6743 37.6305 69.6743C37.5333 69.6743 37.436 69.6743 37.3388 69.5766C37.2415 69.5766 37.0471 69.4788 36.8526 69.4788C36.4637 69.4788 36.2692 69.772 36.2692 70.0652C36.2692 70.3583 36.4637 70.456 37.0471 70.6515C37.5333 70.8469 38.3111 71.1401 38.3111 72.1173C38.2139 72.899 37.5333 73.3876 36.5609 73.3876Z" fill="black"></path><path d="M41.3255 70.7492C41.4227 70.7492 41.5199 70.8469 41.5199 70.9446C41.5199 71.0424 41.4227 71.1401 41.3255 71.1401H39.478V72.6059C39.478 72.8013 39.5752 72.8013 39.6724 72.8013H41.5199C41.6172 72.8013 41.7144 72.899 41.7144 72.9967C41.7144 73.0945 41.6172 73.1922 41.5199 73.1922H39.5752C39.089 73.1922 39.089 72.8013 39.089 72.7036V69.5766C39.089 69.3811 39.089 69.088 39.5752 69.088H41.4227C41.5199 69.088 41.6172 69.1857 41.6172 69.2834C41.6172 69.3811 41.5199 69.4788 41.4227 69.4788H39.6724C39.478 69.4788 39.478 69.4788 39.478 69.6743V71.0423H41.3255V70.7492Z" fill="black"></path><path d="M41.6172 73.3876H39.6724C39.3807 73.3876 38.9918 73.2899 38.9918 72.6059V69.4788C38.9918 68.7948 39.3807 68.6971 39.6724 68.6971H41.5199C41.8116 68.6971 41.9089 68.8925 41.9089 69.088C41.9089 69.2834 41.7144 69.4788 41.5199 69.4788H39.7697V70.5538H41.3255C41.6172 70.5538 41.7144 70.7492 41.7144 70.9446C41.7144 71.1401 41.5199 71.3355 41.3255 71.3355H39.7697V72.5081H41.6172C41.9089 72.5081 42.0061 72.7036 42.0061 72.899C42.0061 73.1922 41.9089 73.3876 41.6172 73.3876Z" fill="black"></path><path d="M45.4094 72.899C45.4094 72.9967 45.5067 72.9967 45.5067 73.0945C45.5067 73.1922 45.4094 73.2899 45.3122 73.2899C45.215 73.2899 45.215 73.1922 45.1177 73.1922L43.7564 71.1401H43.2702V72.9967C43.2702 73.0945 43.173 73.1922 43.0758 73.1922C42.9785 73.1922 42.8813 73.0945 42.8813 72.9967V69.3811C42.8813 69.1857 42.8813 68.8925 43.3675 68.8925H44.1454C45.0205 68.8925 45.4094 69.3811 45.4094 70.0652C45.4094 70.5537 45.1177 71.2378 44.1454 71.2378L45.4094 72.899ZM43.9509 70.8469C44.2426 70.8469 45.0205 70.8469 45.0205 70.0652C45.0205 69.2834 44.2426 69.2834 43.9509 69.2834H43.4647C43.2702 69.2834 43.2702 69.2834 43.2702 69.4788V70.9446H43.9509V70.8469Z" fill="black"></path><path d="M45.3122 73.3876C45.1177 73.3876 45.0205 73.2899 44.9232 73.1922L43.5619 71.4332H43.4647V72.9968C43.4647 73.2899 43.2702 73.3876 43.0757 73.3876C42.784 73.3876 42.6868 73.1922 42.6868 72.9968V69.3811C42.6868 68.6971 43.0757 68.5994 43.3675 68.5994H44.1453C45.0205 68.5994 45.6039 69.1857 45.6039 69.9674C45.6039 70.456 45.3122 71.1401 44.5343 71.3355L45.6039 72.7036L45.4094 72.899L45.6039 72.8013C45.7011 72.899 45.7011 72.9968 45.7011 73.0945C45.7011 73.2899 45.5067 73.3876 45.3122 73.3876ZM45.215 72.9968C45.3122 72.899 45.3122 72.899 45.215 72.9968V72.9968ZM43.4647 70.6515H43.9509C44.5343 70.6515 44.7288 70.456 44.7288 70.0652C44.7288 69.5766 44.4371 69.4788 43.9509 69.4788H43.4647V70.6515Z" fill="black"></path><path d="M49.5906 68.8925C49.5906 68.8925 49.5906 68.7948 49.7851 68.7948C49.8823 68.7948 49.9795 68.8925 49.9795 68.9902V69.088L48.4237 72.899C48.4237 72.9968 48.3265 73.0945 48.132 73.0945C47.9376 73.0945 47.8403 72.9968 47.8403 72.899L46.2845 69.088V68.9902C46.2845 68.8925 46.3818 68.7948 46.479 68.7948C46.5763 68.7948 46.5763 68.8925 46.6735 68.8925L48.2293 72.7036L49.5906 68.8925Z" fill="black"></path><path d="M48.0348 73.4854C47.6459 73.4854 47.5486 73.1922 47.5486 73.0945L45.9928 69.1857C45.9928 69.088 45.8956 69.088 45.8956 68.9902C45.8956 68.6971 46.0901 68.5994 46.2845 68.5994C46.479 68.5994 46.5763 68.6971 46.6735 68.8925L47.9376 72.215L49.2016 68.8925L49.3961 68.9902L49.2016 68.8925C49.2989 68.6971 49.3961 68.5994 49.5906 68.5994C49.7851 68.5994 49.9795 68.7948 49.9795 68.9902C49.9795 69.088 49.9795 69.1857 49.8823 69.1857L48.3265 72.9968C48.521 73.1922 48.4237 73.3876 48.0348 73.4854ZM49.5906 68.8925L49.7851 68.9902L49.5906 68.8925Z" fill="black"></path><path d="M51.0491 68.9902C51.0491 68.8925 51.1464 68.7948 51.2436 68.7948C51.3408 68.7948 51.4381 68.8925 51.4381 68.9902V72.9968C51.4381 73.1922 51.3408 73.1922 51.2436 73.1922C51.1464 73.1922 51.0491 73.0945 51.0491 72.9968V68.9902Z" fill="black"></path><path d="M51.2436 73.3876C50.9519 73.3876 50.8546 73.1922 50.8546 72.9968V68.9902C50.8546 68.6971 51.0491 68.5994 51.2436 68.5994C51.5353 68.5994 51.6325 68.7948 51.6325 68.9902V72.9968C51.6325 73.2899 51.4381 73.3876 51.2436 73.3876ZM51.1464 68.9902H51.2436H50.9519H51.1464Z" fill="black"></path><path d="M52.7022 71.0424C52.7022 69.8698 53.5773 68.8926 54.9386 68.8926C55.4248 68.8926 55.8137 68.9903 56.1054 69.1857C56.2027 69.2835 56.2027 69.2835 56.2027 69.3812C56.2027 69.4789 56.1054 69.5766 56.0082 69.5766C55.911 69.5766 55.911 69.5766 55.8137 69.4789C55.4248 69.2835 55.0358 69.2835 54.9386 69.2835C53.869 69.2835 53.0911 70.0652 53.0911 71.1401C53.0911 72.0196 53.6745 72.9968 55.0358 72.9968C55.4248 72.9968 55.7165 72.8991 55.911 72.8014L56.1054 72.7037C56.2027 72.7037 56.2999 72.8014 56.2999 72.8991C56.2999 72.9968 56.2027 72.9968 56.2027 73.0945C55.8137 73.29 55.3276 73.3877 55.0358 73.3877C53.4801 73.1922 52.7022 72.215 52.7022 71.0424Z" fill="black"></path><path d="M54.9386 73.3876C53.4801 73.3876 52.5077 72.4104 52.5077 70.9446C52.5077 69.5766 53.5773 68.5016 54.9386 68.5016C55.4248 68.5016 55.8137 68.5994 56.2027 68.7948C56.3971 68.8925 56.3971 69.088 56.3971 69.1857C56.3971 69.3811 56.2027 69.5766 56.0082 69.5766C55.911 69.5766 55.8137 69.5766 55.7165 69.4788C55.4248 69.3811 55.1331 69.3811 54.9386 69.3811C53.9662 69.3811 53.2856 70.0652 53.2856 71.0424C53.2856 71.8241 53.7718 72.7036 54.9386 72.7036C55.3275 72.7036 55.522 72.6059 55.7165 72.5082C55.911 72.4104 55.911 72.4104 56.0082 72.4104C56.2027 72.4104 56.3971 72.6059 56.3971 72.8013C56.3971 72.899 56.3971 73.0945 56.1054 73.1922C55.7165 73.3876 55.2303 73.3876 54.9386 73.3876Z" fill="black"></path><path d="M59.5087 70.7492C59.6059 70.7492 59.7032 70.8469 59.7032 70.9446C59.7032 71.0424 59.6059 71.1401 59.5087 71.1401H57.6612V72.6059C57.6612 72.8013 57.7584 72.8013 57.8557 72.8013H59.7032C59.8004 72.8013 59.8976 72.899 59.8976 72.9967C59.8976 73.0945 59.8004 73.1922 59.7032 73.1922H57.7584C57.2722 73.1922 57.2722 72.8013 57.2722 72.7036V69.5766C57.2722 69.3811 57.2722 69.088 57.7584 69.088H59.6059C59.7032 69.088 59.8004 69.1857 59.8004 69.2834C59.8004 69.3811 59.7032 69.4788 59.6059 69.4788H57.8557C57.6612 69.4788 57.6612 69.4788 57.6612 69.6743V71.0423H59.5087V70.7492Z" fill="black"></path><path d="M59.7032 73.3876H57.7584C57.4667 73.3876 57.0778 73.2899 57.0778 72.6059V69.4788C57.0778 68.7948 57.4667 68.6971 57.7584 68.6971H59.6059C59.8976 68.6971 59.9949 68.8925 59.9949 69.088C59.9949 69.2834 59.8004 69.4788 59.6059 69.4788H57.8557V70.5538H59.4115C59.7032 70.5538 59.8004 70.7492 59.8004 70.9446C59.8004 71.1401 59.6059 71.3355 59.4115 71.3355H57.8557V72.5081H59.7032C59.9949 72.5081 60.0921 72.7036 60.0921 72.899C60.0921 73.1922 59.9949 73.3876 59.7032 73.3876Z" fill="black"></path><path d="M18.4749 5.96094H7.38998V11.8241H18.4749V5.96094Z" fill="black"></path><path d="M94.0276 15.342H1.16684V17.2964H94.0276V15.342Z" fill="black"></path><path d="M80.3173 43.4854H14.4882V44.4626H80.3173V43.4854Z" fill="black"></path><path d="M80.3173 48.6645H14.4882V49.6417H80.3173V48.6645Z" fill="black"></path><path d="M80.3173 53.7459H14.4882V54.7231H80.3173V53.7459Z" fill="black"></path><path d="M80.3173 58.9251H14.4882V59.9023H80.3173V58.9251Z" fill="black"></path></svg> 