<?xml version="1.0" encoding="UTF-8"?> <svg xmlns="http://www.w3.org/2000/svg" width="120" height="79" viewBox="0 0 120 79" fill="none"><g clip-path="url(#clip0)"><path d="M29.3267 1.7887H3.29178V76.317H29.3267V1.7887Z" fill="#C3B68F"></path><path d="M52.2195 40.3943C52.2195 40.8415 51.9202 41.1396 51.4713 41.1396H19.7506C19.3018 41.1396 19.0025 40.8415 19.0025 40.3943C19.0025 39.9472 19.3018 39.649 19.7506 39.649H51.4713C51.9202 39.649 52.2195 39.9472 52.2195 40.3943Z" fill="black"></path><path d="M51.4713 41.8849H19.7506C18.8529 41.8849 18.2544 41.2887 18.2544 40.3944C18.2544 39.5 18.8529 38.9038 19.7506 38.9038H51.4713C52.3691 38.9038 52.9676 39.5 52.9676 40.3944C52.9676 41.2887 52.2195 41.8849 51.4713 41.8849ZM51.4713 40.3944H52.2195H51.4713Z" fill="black"></path><path d="M46.5337 46.3565L45.6359 45.3131L50.8728 40.3943L45.6359 35.4754L46.5337 34.432L53.1172 40.3943L46.5337 46.3565Z" fill="black"></path><path d="M46.5337 47.4L44.5885 45.1641L49.8254 40.3943L44.5885 35.4755L46.5337 33.3887L54.1646 40.3943L46.5337 47.4Z" fill="black"></path><path d="M10.7731 0H109.227C115.212 0 120 4.76981 120 10.7321V68.417C120 74.3793 115.212 79.1491 109.227 79.1491H10.7731C4.78803 79.1491 0 74.3793 0 68.417V10.7321C0 4.76981 4.78803 0 10.7731 0ZM109.227 74.5283C112.668 74.5283 115.511 71.6962 115.511 68.2679V10.7321C115.511 7.30377 112.668 4.4717 109.227 4.4717H10.7731C7.33167 4.4717 4.48878 7.30377 4.48878 10.7321V68.417C4.48878 71.8453 7.33167 74.5283 10.7731 74.5283H109.227Z" fill="black"></path></g><defs><clipPath id="clip0"><rect width="120" height="79" fill="white"></rect></clipPath></defs></svg> 