<?xml version="1.0" encoding="UTF-8"?> <svg xmlns="http://www.w3.org/2000/svg" width="149" height="75" viewBox="0 0 149 75" fill="none"><path d="M143.967 75H5.03289C2.25156 75 0 72.7552 0 69.9824V46.2147C0 43.4419 2.25156 41.1971 5.03289 41.1971H143.967C146.748 41.1971 149 43.4419 149 46.2147V69.9824C149 72.7552 146.748 75 143.967 75ZM5.03289 43.838C3.70844 43.838 2.64889 44.8943 2.64889 46.2147V69.9824C2.64889 71.3028 3.70844 72.3591 5.03289 72.3591H143.967C145.292 72.3591 146.351 71.3028 146.351 69.9824V46.2147C146.351 44.8943 145.292 43.838 143.967 43.838H5.03289Z" fill="black"></path><path d="M50.9911 53.345C50.064 54.4014 49.2694 55.1936 47.68 56.1179C47.4151 56.2499 46.3556 56.7781 46.0907 56.7781C45.8258 56.7781 45.8258 56.514 45.8258 56.382C45.8258 56.2499 45.9583 56.1179 46.0907 56.1179C47.1503 55.7218 48.872 54.9295 50.5938 52.8168C50.8587 52.4207 50.9911 52.4207 51.256 52.4207C51.5209 52.4207 51.6534 52.5528 51.9183 52.8168C52.3156 53.345 53.7725 55.0616 56.4214 56.2499C56.5538 56.382 56.6862 56.382 56.6862 56.514C56.6862 56.6461 56.5538 56.9101 56.2889 56.9101C56.024 56.9101 53.1103 55.4577 51.5209 53.4771C51.3885 53.213 51.3885 53.213 51.256 53.213C51.1236 53.213 51.1236 53.213 50.9911 53.345ZM50.1965 58.7587C49.5343 60.2112 48.7396 61.6637 48.3423 62.0598C49.6667 62.0598 52.9778 61.7957 54.4347 61.6637C53.7725 60.8714 53.1102 60.2112 52.7129 59.9471C52.5805 59.8151 52.5805 59.8151 52.5805 59.683C52.5805 59.551 52.7129 59.419 52.8454 59.419C53.2427 59.419 56.024 62.4559 56.024 62.852C56.024 62.9841 55.8916 63.2482 55.6267 63.2482C55.4943 63.2482 55.4942 63.1161 55.3618 63.1161C55.2294 62.9841 54.832 62.4559 54.832 62.3239C52.1831 62.4559 47.9449 62.852 46.3556 62.852C46.2231 62.852 45.9583 62.8521 45.9583 62.588C45.9583 62.3239 46.0907 62.3239 46.3556 62.3239C46.488 62.3239 46.6205 62.3239 47.4151 62.3239C47.8125 61.6637 48.7396 60.0792 49.2694 59.0228H46.3556C46.2231 59.0228 45.9583 59.0228 45.9583 58.7587C45.9583 58.4947 46.2231 58.4947 46.3556 58.4947H56.024C56.1565 58.4947 56.4214 58.4947 56.4214 58.7587C56.4214 59.0228 56.1565 59.0228 56.024 59.0228H50.1965V58.7587ZM54.0374 55.8538C54.1698 55.8538 54.4347 55.8538 54.4347 56.1179C54.4347 56.382 54.1698 56.382 54.0374 56.382H48.4747C48.3422 56.382 48.2098 56.382 48.2098 56.1179C48.2098 55.8538 48.3422 55.8538 48.4747 55.8538H54.0374Z" fill="black"></path><path d="M55.7591 63.5123C55.4942 63.5123 55.3618 63.3803 55.2294 63.2482C55.2294 63.2482 55.0969 62.9841 54.9645 62.8521C54.9645 62.72 54.832 62.7201 54.832 62.588C51.6534 62.8521 47.9449 63.1162 46.488 63.1162C45.8258 63.1162 45.8258 62.7201 45.8258 62.456C45.8258 61.7958 46.3556 61.7958 46.6205 61.7958C46.7529 61.7958 46.8854 61.7958 47.5476 61.7958C47.9449 61.2676 48.6071 60.0792 49.0045 59.1549H46.3556C45.8258 59.1549 45.6934 58.8908 45.6934 58.4947C45.6934 58.0986 45.9582 57.8345 46.3556 57.8345H56.024C56.4214 57.8345 56.6862 58.0986 56.6862 58.4947C56.6862 58.7588 56.5538 59.1549 56.024 59.1549H53.1102C54.0374 59.6831 56.2889 62.3239 56.2889 62.8521C56.4214 63.2482 56.024 63.5123 55.7591 63.5123ZM54.9645 61.9278C55.0969 61.9278 55.0969 61.9278 55.2294 62.0598C55.2294 62.0598 55.3618 62.3239 55.4942 62.456C55.6267 62.588 55.7591 62.8521 55.7591 62.8521C55.7591 62.72 55.2294 62.0598 54.6996 61.5317C54.832 61.6637 54.832 61.7958 54.6996 61.9278C54.6996 61.9278 54.6996 62.0598 54.5671 62.0598C54.832 61.9278 54.832 61.9278 54.9645 61.9278ZM48.0774 62.0598C48.0774 62.1919 47.9449 62.1919 47.9449 62.3239C47.9449 62.3239 47.9449 62.3239 47.8125 62.456C47.9449 62.456 48.0774 62.456 48.2098 62.456L48.0774 62.3239C48.0774 62.1919 48.0774 62.1919 48.0774 62.0598ZM50.4614 59.1549C50.064 60.2112 49.4018 61.1355 49.0045 61.7958C50.3289 61.7958 52.5805 61.5317 53.7725 61.5317C53.1102 60.8715 52.7129 60.4753 52.5805 60.3433C52.448 60.2113 52.3156 60.0792 52.3156 59.8151C52.3156 59.551 52.448 59.419 52.7129 59.287H50.4614V59.1549ZM49.6667 58.4947C49.6667 58.4947 49.6667 58.6267 49.6667 58.4947C49.7991 58.6267 49.7991 58.7588 49.7991 58.8908C49.6667 59.1549 49.5342 59.419 49.5342 59.551C49.6667 59.287 49.7991 58.8908 49.9316 58.6267C49.9316 58.6267 49.9316 58.4947 50.064 58.4947H49.6667ZM56.2889 57.1743C56.1565 57.1743 55.4942 56.9102 54.6996 56.382C54.5671 56.6461 54.4347 56.7782 54.0374 56.7782H48.4747C48.0774 56.7782 47.9449 56.6461 47.8125 56.382C46.488 57.1743 46.2231 57.1743 46.0907 57.1743C45.6934 57.1743 45.4285 56.7782 45.4285 56.5141C45.4285 56.1179 45.8258 55.9859 45.9582 55.8539C46.6205 55.5898 48.6071 54.7975 50.3289 52.6848C50.5938 52.2887 50.7262 52.1567 51.256 52.1567C51.6534 52.1567 51.9182 52.2887 52.1831 52.6848C52.3156 52.9489 53.7725 54.7975 56.5538 55.9859C56.8187 56.1179 57.0836 56.25 57.0836 56.6461C56.9511 56.9102 56.6862 57.1743 56.2889 57.1743ZM55.3618 56.1179C55.8916 56.382 56.2889 56.5141 56.2889 56.6461C56.2889 56.6461 56.1565 56.6461 56.1565 56.5141C55.8916 56.382 55.6267 56.25 55.3618 56.1179ZM46.0907 56.5141C46.2231 56.5141 46.6205 56.382 47.0178 56.1179C46.6205 56.25 46.3556 56.382 46.0907 56.5141ZM49.1369 55.5898H53.2427C52.448 55.0616 51.7858 54.4014 51.1236 53.6091C51.1236 53.6091 51.1236 53.4771 50.9911 53.4771L50.8587 53.3451L51.1236 53.6091C50.5938 54.2694 50.064 54.9296 49.1369 55.5898ZM51.1236 52.6848C50.9911 52.6848 50.8587 52.8169 50.7262 52.9489C50.1965 53.6091 49.6667 54.1373 49.1369 54.5334C49.6667 54.0053 50.1965 53.6091 50.5938 53.081L50.8587 53.3451L50.5938 53.081C50.8587 52.9489 50.9911 52.8169 51.1236 52.6848C51.256 52.8169 51.3885 52.8169 51.3885 52.8169C51.256 52.6848 51.256 52.6848 51.1236 52.6848Z" fill="black"></path><path d="M62.2489 62.3238C61.3218 62.72 59.9974 63.1161 59.8649 63.1161C59.6 63.1161 59.4676 62.852 59.4676 62.72C59.4676 62.4559 59.6 62.4559 59.9974 62.4559C60.2623 62.4559 61.3218 62.1918 62.1165 61.6636C62.5138 61.5316 62.5138 61.3996 62.6463 61.3996C62.9111 61.3996 63.0436 61.6636 63.0436 61.7957C62.9111 62.0598 62.5138 62.1918 62.2489 62.3238ZM69.0036 60.2112C69.0036 60.8714 68.7387 61.1355 68.0765 61.1355H61.3218C60.6596 61.1355 60.3947 60.8714 60.3947 60.2112V57.1742C60.3947 56.514 60.6596 56.2499 61.3218 56.2499H68.0765C68.7387 56.2499 69.0036 56.514 69.0036 57.1742V60.2112ZM68.7387 54.5334C68.7387 55.1936 68.4738 55.4577 67.8116 55.4577H61.7191C61.0569 55.4577 60.792 55.1936 60.792 54.5334V53.8731C60.792 53.2129 61.0569 52.9489 61.7191 52.9489H67.8116C68.4738 52.9489 68.7387 53.2129 68.7387 53.8731V54.5334ZM68.4738 57.7024V57.3062C68.4738 57.0422 68.3414 56.9101 68.0765 56.9101H61.5867C61.3218 56.9101 61.1894 57.0422 61.1894 57.3062V57.7024H68.4738ZM61.0569 58.2305V59.1548H68.4738V58.2305H61.0569ZM61.0569 59.683V60.2112C61.0569 60.4753 61.1894 60.6073 61.4543 60.6073H67.944C68.2089 60.6073 68.3414 60.4753 68.3414 60.2112V59.683H61.0569ZM68.0765 53.7411C68.0765 53.6091 67.944 53.477 67.8116 53.477H61.8516C61.5867 53.477 61.5867 53.6091 61.5867 53.7411V54.5334C61.5867 54.7974 61.7191 54.7974 61.8516 54.7974H67.8116C68.0765 54.7974 68.0765 54.6654 68.0765 54.5334V53.7411ZM67.2818 61.6636C67.5467 61.7957 68.7387 62.3239 69.6658 62.5879C69.7983 62.5879 69.9307 62.5879 69.9307 62.852C69.9307 62.9841 69.7983 63.2481 69.5334 63.2481C69.2685 63.2481 68.0765 62.852 67.0169 62.3238C66.752 62.1918 66.4871 62.0598 66.4871 61.9277C66.4871 61.7957 66.6196 61.6636 66.8845 61.6636C67.0169 61.5316 67.2818 61.6636 67.2818 61.6636Z" fill="black"></path><path d="M69.6658 63.5123C69.2685 63.5123 67.944 62.9841 67.0169 62.588C66.6196 62.4559 66.2223 62.1918 66.2223 61.7957C66.2223 61.6637 66.2222 61.5316 66.3547 61.5316H63.176C63.3085 61.6637 63.3085 61.9277 63.3085 62.0598C63.3085 62.3239 62.9111 62.588 62.5138 62.72H62.3814C61.4542 63.1161 60.1298 63.5123 59.8649 63.5123C59.4676 63.5123 59.2027 63.1161 59.2027 62.852C59.2027 62.4559 59.4676 62.3239 59.8649 62.1918C59.9974 62.1918 61.0569 61.9277 61.8516 61.5316H61.4543C60.5271 61.5316 60.1298 61.1355 60.1298 60.2112V57.1742C60.1298 56.2499 60.5271 55.8538 61.4543 55.8538H68.2089C69.136 55.8538 69.5334 56.2499 69.5334 57.1742V60.2112C69.5334 61.1355 69.136 61.5316 68.2089 61.5316H67.8116C68.2089 61.7957 69.136 62.0598 69.9307 62.1918C70.328 62.3239 70.4605 62.588 70.4605 62.72C70.328 63.1161 70.0631 63.5123 69.6658 63.5123ZM69.5334 62.852C69.5334 62.852 69.6658 62.852 69.5334 62.852C69.6658 62.852 69.5334 62.852 69.5334 62.852ZM62.6463 61.7957C62.6463 61.7957 62.5138 61.7957 62.6463 61.7957C62.5138 61.7957 62.6463 61.7957 62.6463 61.7957ZM60.6596 60.3432C60.6596 60.6073 60.792 60.7394 60.9245 60.7394C60.792 60.7394 60.792 60.4753 60.6596 60.3432ZM68.7387 60.4753C68.7387 60.6073 68.6063 60.7394 68.4738 60.8714C68.6063 60.7394 68.7387 60.6073 68.7387 60.4753ZM61.4543 60.3432H68.0765H68.2089C68.2089 60.3432 68.2089 60.3432 68.2089 60.2112V60.0792H61.4543V60.3432C61.3218 60.2112 61.3218 60.3432 61.4543 60.3432ZM60.6596 59.1549V59.551C60.6596 59.4189 60.6596 59.4189 60.792 59.4189C60.792 59.2869 60.792 59.2869 60.6596 59.1549ZM68.6062 59.4189L68.7387 59.551V59.2869C68.7387 59.2869 68.7387 59.4189 68.6062 59.4189ZM61.3218 58.7587H68.0765V58.4947H61.3218V58.7587ZM60.6596 57.7024V58.0985C60.6596 57.9665 60.6596 57.9665 60.792 57.9665C60.792 57.8344 60.792 57.8344 60.6596 57.7024ZM68.6062 57.9665L68.7387 58.0985V57.8344C68.7387 57.8344 68.7387 57.9665 68.6062 57.9665ZM61.3218 57.3063H68.0765V57.1742C68.0765 57.0422 68.0765 57.0422 68.0765 57.0422C68.0765 57.0422 68.0765 57.0422 67.944 57.0422H61.4543H61.3218C61.3218 57.1742 61.3218 57.1742 61.3218 57.3063ZM60.9245 56.6461C60.792 56.6461 60.792 56.7781 60.6596 57.0422C60.792 56.9101 60.792 56.7781 60.9245 56.6461ZM68.6062 56.6461C68.7387 56.7781 68.7387 56.7781 68.7387 56.9101C68.7387 56.7781 68.6062 56.6461 68.6062 56.6461ZM67.8116 55.7218H61.7191C60.792 55.7218 60.3947 55.3256 60.3947 54.4013V53.7411C60.3947 52.8168 60.792 52.4207 61.7191 52.4207H67.8116C68.7387 52.4207 69.136 52.8168 69.136 53.7411V54.4013C69.0036 55.3256 68.6063 55.7218 67.8116 55.7218ZM67.6791 53.7411H61.7191V54.5334H67.6791V53.7411ZM68.2089 53.345C68.2089 53.345 68.2089 53.4771 68.3414 53.4771C68.3414 53.4771 68.3414 53.345 68.2089 53.345Z" fill="black"></path><path d="M74.4338 53.213C74.3014 53.213 74.1689 53.213 74.1689 52.9489C74.1689 52.8169 74.3014 52.6848 74.4338 52.6848H77.7449C78.2747 52.6848 78.4072 52.6848 78.8045 53.081C79.3343 53.6091 79.3343 53.7412 79.5992 54.0053C79.9965 53.7412 80.3938 53.213 80.6587 52.8169C80.9236 52.5528 80.9236 52.5528 81.056 52.5528C81.1885 52.5528 81.3209 52.6848 81.3209 52.8169C81.3209 52.9489 81.3209 52.9489 81.056 53.3451C80.5263 53.8732 80.2614 54.1373 79.9965 54.4014C80.2614 54.6655 80.6587 54.9296 80.9236 55.1936C81.1885 54.9296 81.8507 54.4014 82.248 53.8732C82.5129 53.6091 82.5129 53.6091 82.6454 53.6091C82.7778 53.6091 83.0427 53.7412 83.0427 53.8732C83.0427 54.0053 82.9103 54.1373 82.6454 54.4014C82.248 54.7975 81.8507 55.1936 81.4534 55.4577C81.9832 55.8539 82.7778 56.25 83.3076 56.382C83.44 56.382 83.5725 56.5141 83.5725 56.6461C83.5725 56.7782 83.44 57.0422 83.3076 57.0422C83.0427 57.0422 80.2614 55.8539 78.2747 53.3451C76.6854 55.5898 73.6391 57.0422 73.2418 57.0422C72.9769 57.0422 72.8445 56.7782 72.8445 56.6461C72.8445 56.5141 72.9769 56.382 73.1094 56.382C73.6392 56.1179 74.4338 55.7218 75.096 55.3257C74.8312 55.0616 74.5663 54.7975 74.1689 54.4014V54.2693C74.1689 54.1373 74.3014 54.0053 74.4338 54.0053C74.5663 54.0053 74.5663 54.0053 74.6987 54.1373C74.8312 54.2693 75.2285 54.6655 75.7583 55.0616C76.4205 54.5334 76.6854 54.2693 77.2152 53.7412C77.3476 53.6091 77.3476 53.6091 77.3476 53.4771C77.3476 53.4771 77.3476 53.3451 77.0827 53.3451H74.4338V53.213ZM83.0427 62.456C83.1752 62.456 83.3076 62.456 83.3076 62.72C83.3076 62.9841 83.0427 62.9841 83.0427 62.9841H73.6391C73.5067 62.9841 73.2418 62.9841 73.2418 62.72C73.2418 62.456 73.5067 62.456 73.6391 62.456H79.7316C79.9965 61.7958 80.1289 61.6637 80.3938 60.7394C80.3938 60.6074 80.5263 60.4753 80.6587 60.4753C80.7912 60.4753 81.056 60.6074 81.056 60.7394C81.056 60.8715 80.9236 61.1355 80.9236 61.2676C80.7912 61.3996 80.5263 62.1919 80.3938 62.3239H83.0427V62.456ZM82.248 59.419C82.248 60.0792 81.9832 60.3433 81.3209 60.3433H75.3609C74.6987 60.3433 74.4338 60.0792 74.4338 59.419V58.4947C74.4338 57.8345 74.6987 57.5704 75.3609 57.5704H81.3209C81.9832 57.5704 82.248 57.8345 82.248 58.4947V59.419ZM81.5858 58.4947C81.5858 58.2306 81.4534 58.0986 81.1885 58.0986H75.4934C75.2285 58.0986 75.096 58.2306 75.096 58.4947V59.287C75.096 59.551 75.2285 59.6831 75.4934 59.6831H81.1885C81.4534 59.6831 81.5858 59.551 81.5858 59.287V58.4947ZM76.0232 56.382C75.8907 56.382 75.7583 56.382 75.7583 56.1179C75.7583 55.8539 76.0232 55.8539 76.0232 55.8539H80.6587C80.7912 55.8539 81.056 55.8539 81.056 56.1179C81.056 56.382 80.7912 56.382 80.6587 56.382H76.0232ZM76.0232 60.4753C76.1556 60.4753 76.288 60.6074 76.288 60.7394C76.4205 60.8715 76.6854 61.9278 76.6854 62.0598C76.6854 62.3239 76.4205 62.3239 76.288 62.3239C76.1556 62.3239 76.0232 62.1919 76.0232 62.0598C76.0232 61.7958 75.6258 60.8715 75.6258 60.8715C75.6258 60.6074 75.8907 60.4753 76.0232 60.4753Z" fill="black"></path><path d="M83.0427 63.3803H73.6391C73.1094 63.3803 72.9769 62.9841 72.9769 62.7201C72.9769 62.456 73.1094 62.0598 73.6391 62.0598H75.8907C75.8907 61.9278 75.6258 61.3996 75.6258 61.1355C75.6258 61.0035 75.4934 60.8715 75.4934 60.8715C75.4934 60.7394 75.4934 60.7394 75.4934 60.7394C74.5663 60.7394 74.1689 60.3433 74.1689 59.419V58.4947C74.1689 57.5704 74.5663 57.1743 75.4934 57.1743H81.4534C82.3805 57.1743 82.7778 57.5704 82.7778 58.4947V59.419C82.7778 60.3433 82.3805 60.7394 81.5858 60.7394V60.8715C81.5858 61.0035 81.5858 61.1355 81.3209 61.5317C81.3209 61.6637 81.1885 61.9278 81.056 62.1919H83.1751C83.7049 62.1919 83.8374 62.456 83.8374 62.8521C83.7049 62.9841 83.44 63.3803 83.0427 63.3803ZM79.864 62.7201H80.1289C80.1289 62.588 79.9965 62.588 79.864 62.7201C79.9965 62.588 79.9965 62.588 79.864 62.7201C79.9965 62.588 79.9965 62.588 79.864 62.7201C79.9965 62.588 79.9965 62.588 79.864 62.7201ZM77.0827 62.0598H79.4667C79.7316 61.5317 79.7316 61.3996 79.9965 60.6074H76.5529C76.6854 60.8715 77.0827 61.7958 77.0827 62.0598ZM80.6587 60.7394C80.6587 60.8715 80.6587 60.8715 80.6587 60.7394C80.6587 60.8715 80.6587 60.7394 80.6587 60.7394ZM81.8507 59.6831C81.8507 59.8151 81.7182 59.9472 81.5858 60.0792C81.7182 59.9472 81.8507 59.8151 81.8507 59.6831ZM74.6987 59.6831C74.6987 59.8151 74.8311 59.9472 74.9636 59.9472C74.8311 59.9472 74.8311 59.8151 74.6987 59.6831ZM75.3609 59.419H81.1885H81.3209C81.3209 59.419 81.3209 59.419 81.3209 59.287V58.4947C81.3209 58.3627 81.3209 58.3627 81.3209 58.3627C81.3209 58.3627 81.3209 58.3627 81.1885 58.3627H75.4934H75.3609C75.3609 58.3627 75.3609 58.3627 75.3609 58.4947V59.419ZM81.5858 57.8345C81.7182 57.9665 81.8507 58.0986 81.8507 58.2306C81.8507 58.0986 81.7182 57.9665 81.5858 57.8345ZM74.9636 57.8345C74.8311 57.8345 74.6987 57.9665 74.6987 58.0986C74.8311 58.0986 74.8311 57.9665 74.9636 57.8345ZM73.2418 57.4384C72.8445 57.4384 72.5796 57.0422 72.5796 56.7782C72.5796 56.382 72.9769 56.25 73.1094 56.1179C73.5067 55.9859 74.1689 55.7218 74.6987 55.3257C74.5663 55.1937 74.3014 54.9296 74.0365 54.6655C73.904 54.5334 73.7716 54.4014 73.7716 54.1373C73.7716 53.8732 74.0365 53.6091 74.3014 53.4771C73.904 53.4771 73.7716 53.213 73.7716 52.9489C73.7716 52.5528 74.0365 52.2887 74.4338 52.2887H77.7449C78.2747 52.2887 78.5396 52.2887 79.0694 52.8169C79.3343 53.213 79.4667 53.3451 79.5991 53.4771C79.864 53.213 80.1289 52.8169 80.3938 52.5528C80.6587 52.2887 80.7911 52.1567 81.056 52.1567C81.4534 52.1567 81.7183 52.4208 81.7183 52.8169C81.7183 53.081 81.5858 53.213 81.3209 53.4771C80.9236 53.8732 80.6587 54.1373 80.5263 54.2694C80.6587 54.4014 80.7911 54.5334 80.9236 54.5334C81.1885 54.2694 81.7183 53.7412 81.9831 53.3451C82.248 53.081 82.3805 52.9489 82.6454 52.9489C82.9103 52.9489 83.3076 53.213 83.3076 53.6091C83.3076 53.8732 83.1751 54.1373 82.9102 54.4014C82.6454 54.6655 82.3805 54.9296 82.1156 55.1936C82.6454 55.4577 83.1751 55.7218 83.5725 55.8539C83.7049 55.8539 84.1022 55.9859 84.1022 56.5141C84.1022 56.9102 83.8374 57.1743 83.44 57.1743C83.1751 57.1743 82.3805 56.9102 81.3209 56.25C81.1885 56.382 81.056 56.5141 80.7911 56.5141H76.1556C75.7583 56.5141 75.6258 56.382 75.4934 56.1179C74.3014 57.0422 73.5067 57.4384 73.2418 57.4384ZM82.248 56.25C82.7778 56.5141 83.1751 56.6461 83.3076 56.6461C83.3076 56.6461 83.3076 56.6461 83.1751 56.6461C82.9102 56.6461 82.6454 56.5141 82.248 56.25ZM74.0365 56.382C73.7716 56.5141 73.5067 56.6461 73.3743 56.6461H73.2418C73.3743 56.7782 73.6391 56.6461 74.0365 56.382ZM80.9236 55.4577C81.056 55.4577 81.056 55.5898 81.1885 55.5898V55.4577C81.1885 55.4577 81.1885 55.4577 81.1885 55.3257C81.056 55.4577 81.056 55.4577 80.9236 55.4577ZM76.5529 55.4577H79.864C79.3343 55.0616 78.8045 54.4014 78.2747 53.8732C77.7449 54.5334 77.2151 55.0616 76.5529 55.4577ZM75.4934 55.3257C75.4934 55.4577 75.4934 55.4577 75.4934 55.4577C75.6258 55.4577 75.6258 55.4577 75.4934 55.3257C75.6258 55.3257 75.6258 55.3257 75.4934 55.3257ZM74.5663 53.6091C74.6987 53.6091 74.8311 53.7412 74.8311 53.8732C75.096 54.1373 75.3609 54.4014 75.6258 54.6655C76.0231 54.2694 76.288 54.1373 76.6854 53.7412H74.5663V53.6091ZM79.5991 54.4014C79.5991 54.2694 79.5991 54.4014 79.5991 54.4014V54.4014ZM77.48 53.081C77.6125 53.213 77.6125 53.3451 77.6125 53.4771C77.7449 53.3451 77.7449 53.213 77.8774 53.081C77.8774 53.081 77.8774 52.9489 78.0098 52.9489C77.8774 52.9489 77.7449 52.9489 77.6125 52.9489H77.48V53.081Z" fill="black"></path><path d="M88.4729 58.2306H86.7511C86.6186 58.2306 86.3538 58.2306 86.3538 57.9665C86.3538 57.7024 86.6186 57.7024 86.7511 57.7024H88.4729V56.2499H87.2809C87.1484 56.2499 87.016 56.2499 87.016 55.9859C87.016 55.7218 87.2809 55.7218 87.2809 55.7218H90.1946C90.3271 55.7218 90.4595 55.7218 90.4595 55.9859C90.4595 56.2499 90.1946 56.2499 90.1946 56.2499H89.0026V57.7024H90.4595C90.592 57.7024 90.7244 57.7024 90.7244 57.9665C90.7244 58.2306 90.592 58.2306 90.4595 58.2306H89.0026V61.6637C89.4 61.5316 89.5324 61.5316 90.1946 61.3996C90.3271 61.3996 90.3271 61.3996 90.4595 61.3996C90.592 61.3996 90.7244 61.3996 90.7244 61.6637C90.7244 61.9278 90.592 61.9278 90.0622 62.0598C89.1351 62.3239 86.7511 62.852 86.4862 62.852C86.2213 62.852 86.2213 62.72 86.2213 62.588C86.2213 62.3239 86.4862 62.3239 86.4862 62.3239C86.8835 62.1918 87.6782 62.0598 88.3404 61.9278V58.2306H88.4729ZM88.6053 53.4771C87.9431 54.5334 87.016 55.5897 86.6187 55.5897C86.3538 55.5897 86.2213 55.3256 86.2213 55.1936C86.2213 55.0616 86.3538 54.9295 86.3538 54.9295C86.6186 54.7975 87.4133 54.1373 88.208 52.8168C88.3404 52.5528 88.4729 52.4207 88.7378 52.4207C89.0027 52.4207 89.1351 52.5528 89.2675 52.8168C89.6649 53.345 90.0622 53.8732 90.592 54.2693C90.8569 54.5334 90.9893 54.5334 90.9893 54.6654C90.9893 54.7975 90.8569 55.0616 90.7244 55.0616C90.4595 55.0616 89.6649 54.1373 89.4 53.8732C89.2675 53.7411 89.1351 53.4771 89.0026 53.345L88.8702 53.213C88.8702 53.213 88.8702 53.345 88.6053 53.4771ZM87.4133 59.419C87.4133 59.683 87.6782 60.7394 87.6782 61.0035C87.6782 61.2675 87.4133 61.3996 87.2809 61.3996C87.016 61.3996 87.016 61.2675 87.016 60.8714C87.016 60.4753 86.8835 60.2112 86.8835 59.9471C86.8835 59.8151 86.7511 59.419 86.7511 59.2869C86.7511 59.0228 86.8835 59.0228 87.016 59.0228C87.2809 59.0228 87.4133 59.1549 87.4133 59.419ZM90.7244 59.1549C90.7244 59.2869 90.4595 60.2112 90.4595 60.3432C90.3271 60.7394 90.3271 61.0035 90.0622 61.0035C90.0622 61.0035 89.7973 61.0035 89.7973 60.7394C89.7973 60.6073 89.9298 60.3432 89.9298 60.2112C90.0622 59.551 90.0622 59.551 90.1946 59.1549C90.1946 59.0228 90.1947 58.8908 90.4595 58.8908C90.592 58.8908 90.7244 58.8908 90.7244 59.1549ZM93.1084 61.0035C93.1084 61.1355 92.8435 61.3996 92.5787 61.6637C92.1813 61.9278 90.8569 62.852 90.592 62.852C90.4595 62.852 90.3271 62.72 90.3271 62.4559C90.3271 62.3239 90.3271 62.3239 90.8569 62.0598C91.6515 61.6637 92.3138 61.1355 92.5787 61.0035C92.8435 60.8714 92.8435 60.7394 92.976 60.7394C93.1084 60.6073 93.1084 60.8714 93.1084 61.0035ZM94.168 62.1918C94.168 62.4559 94.168 62.8521 93.7707 63.1161C93.5058 63.2482 93.5058 63.2482 92.3138 63.2482C92.1813 63.2482 91.9164 63.2482 91.9164 62.852C91.9164 62.588 92.0489 62.588 92.3138 62.588C92.4462 62.588 92.976 62.588 93.1084 62.588C93.5058 62.588 93.5058 62.4559 93.5058 62.1918V57.4383H91.1218C90.9893 57.4383 90.7244 57.4383 90.7244 57.1742C90.7244 56.9101 90.9893 56.9101 91.1218 56.9101H95.6249V55.5897H91.9164C91.784 55.5897 91.5191 55.5897 91.5191 55.3256C91.5191 55.0616 91.784 55.0616 91.9164 55.0616H95.6249V54.1373C95.6249 53.8732 95.4924 53.7411 95.2275 53.7411H91.784C91.6515 53.7411 91.5191 53.7411 91.5191 53.4771C91.5191 53.213 91.784 53.213 91.784 53.213H95.36C96.0222 53.213 96.2871 53.4771 96.2871 54.1373V56.9101H96.9493C97.0818 56.9101 97.3467 56.9101 97.3467 57.1742C97.3467 57.4383 97.0818 57.4383 96.9493 57.4383H94.168C94.3004 58.2306 94.5653 59.0228 94.8302 59.8151C95.6249 59.1549 96.0222 58.6267 96.1547 58.4947C96.4195 58.2306 96.4195 58.2306 96.552 58.2306C96.6844 58.2306 96.8169 58.3626 96.8169 58.4947C96.8169 58.6267 96.552 59.0228 96.2871 59.1549C95.8898 59.551 95.36 60.0792 95.0951 60.3432C95.4924 61.1355 96.1547 61.6637 96.8169 62.1918C97.0818 62.4559 97.0818 62.4559 97.0818 62.588C97.0818 62.72 96.9493 62.9841 96.6844 62.9841C96.552 62.9841 96.1547 62.72 96.0222 62.4559C95.2275 61.6637 94.4329 60.6073 94.0355 59.2869V62.1918H94.168ZM92.1813 58.3626C92.3138 58.6267 92.8435 59.2869 92.8435 59.419C92.8435 59.551 92.7111 59.683 92.4462 59.683C92.3138 59.683 92.3138 59.683 92.0489 59.2869C91.784 58.8908 91.6515 58.6267 91.5191 58.3626C91.3867 58.0985 91.2542 58.0985 91.2542 57.9665C91.2542 57.8344 91.3867 57.7024 91.5191 57.7024C91.784 57.8344 91.784 57.9665 92.1813 58.3626Z" fill="black"></path><path d="M92.3138 63.3803C91.6516 63.3803 91.6516 62.8521 91.6516 62.7201V62.588C91.2542 62.8521 90.8569 63.1162 90.7245 63.1162C90.3271 63.1162 90.0623 62.8521 90.0623 62.456C89.0027 62.7201 86.8836 63.2482 86.6187 63.2482C86.2214 63.2482 85.9565 62.9841 85.9565 62.588C85.9565 62.3239 86.0889 62.0598 86.4863 61.9278C86.8836 61.7958 87.5458 61.7958 88.0756 61.6637V58.6267H86.6187C86.0889 58.6267 85.9565 58.3627 85.9565 57.9665C85.9565 57.7025 86.0889 57.3063 86.6187 57.3063H88.0756V56.5141H87.2809C86.6187 56.5141 86.6187 55.9859 86.6187 55.8539C86.2214 55.8539 85.9565 55.4577 85.9565 55.1936C85.9565 54.7975 86.2214 54.6655 86.3538 54.6655C86.6187 54.5334 87.4134 53.8732 88.0756 52.6848C88.208 52.4208 88.3405 52.1567 88.8703 52.1567C89.2676 52.1567 89.5325 52.4208 89.6649 52.6848C90.0622 53.213 90.4596 53.7412 90.8569 54.0053C91.1218 54.2694 91.2543 54.4014 91.2543 54.5334C91.3867 54.4014 91.5191 54.4014 91.784 54.4014H95.0951V53.8732V53.7412C95.0951 53.7412 95.0951 53.7412 94.9627 53.7412H91.5191C90.9894 53.7412 90.8569 53.3451 90.8569 53.081C90.8569 52.8169 90.9894 52.4208 91.5191 52.4208H95.0951C96.0223 52.4208 96.4196 52.8169 96.4196 53.7412V56.25H96.8169C97.3467 56.25 97.4791 56.5141 97.4791 56.9102C97.4791 57.1743 97.3467 57.5704 96.8169 57.5704H94.4329C94.5654 58.0986 94.6978 58.6267 94.8302 59.0229C95.36 58.4947 95.6249 58.0986 95.7574 57.9665C96.0223 57.7025 96.1547 57.5704 96.4196 57.5704C96.8169 57.5704 97.0818 57.8345 97.0818 58.2306C97.0818 58.4947 96.8169 58.7588 96.552 59.0229L96.4196 59.287C96.1547 59.551 95.7574 59.9472 95.6249 60.2113C96.0222 60.7394 96.552 61.2676 97.0818 61.7958C97.3467 62.0598 97.4791 62.0598 97.4791 62.456C97.4791 62.8521 97.2142 63.1162 96.8169 63.1162C96.552 63.1162 96.2871 62.8521 95.8898 62.588C95.36 62.0598 94.8303 61.3996 94.4329 60.8715V62.456C94.4329 62.7201 94.4329 63.3803 93.9031 63.6444C93.6383 63.3803 93.5058 63.3803 92.3138 63.3803ZM92.3138 62.7201C92.5787 62.7201 92.7111 62.7201 92.8436 62.7201C92.5787 62.7201 92.3138 62.7201 92.3138 62.7201ZM93.9031 62.3239C93.7707 62.588 93.6383 62.7201 93.3734 62.7201C93.6383 62.7201 93.6383 62.7201 93.7707 62.7201C93.7707 62.7201 93.7707 62.588 93.9031 62.3239ZM92.4463 62.0598C92.5787 62.0598 92.7111 62.0598 92.8436 62.0598C92.976 62.0598 93.1085 62.0598 93.2409 62.0598H93.3734C93.3734 62.0598 93.3734 62.0598 93.3734 61.9278V61.3996C93.2409 61.5317 93.1085 61.6637 92.8436 61.7958C92.7111 61.9278 92.5787 61.9278 92.4463 62.0598ZM88.7378 61.9278C88.7378 62.0598 88.7378 62.0598 88.7378 62.0598C88.8703 62.0598 88.8703 62.0598 89.0027 62.0598C88.8703 62.0598 88.8703 62.0598 88.7378 61.9278ZM90.592 61.0035C90.8569 61.0035 90.9894 61.1355 90.9894 61.3996C91.3867 61.1355 91.784 60.8715 92.3138 60.4753C92.5787 60.3433 92.7111 60.2113 92.8436 60.2113C92.976 60.2113 93.1085 60.2113 93.2409 60.3433V57.4384H91.784C92.0489 57.4384 92.1814 57.7025 92.4463 58.0986C92.5787 58.3627 93.1085 59.0229 93.1085 59.287C93.1085 59.6831 92.8436 59.9472 92.4463 59.9472C92.0489 59.9472 92.0489 59.8151 91.784 59.419C91.5191 59.0229 91.3867 58.7588 91.2543 58.6267L91.1218 58.4947C91.1218 58.3627 90.9894 58.3627 90.9894 58.2306C90.8569 58.3627 90.7245 58.3627 90.592 58.3627C90.8569 58.4947 90.9894 58.6267 90.9894 58.8908C90.9894 58.8908 90.9894 59.1549 90.7245 60.2113C90.7245 60.7394 90.7245 60.8715 90.592 61.0035ZM89.4 58.6267V61.3996C89.5325 61.3996 89.6649 61.3996 89.6649 61.2676C89.5325 61.1356 89.4 61.0035 89.4 60.7394C89.4 60.6074 89.4 60.6074 89.5325 60.3433V60.2113L89.6649 59.8151C89.7974 59.419 89.7974 59.419 89.7974 59.1549C89.7974 58.8908 90.0623 58.7588 90.1947 58.6267H89.4ZM94.8302 59.8151C94.8302 59.9472 94.9627 59.9472 94.8302 59.8151C94.9627 59.9472 94.9627 59.9472 94.8302 59.8151C94.9627 59.8151 94.9627 59.8151 94.8302 59.8151ZM93.9031 57.5704V58.8908C93.9031 58.7588 94.0356 58.7588 94.168 58.7588C94.0356 58.3627 94.0356 57.9665 93.9031 57.5704ZM88.6054 57.9665L88.7378 58.0986L88.8703 57.9665L88.7378 57.8345C88.7378 57.9665 88.6054 57.9665 88.6054 57.9665ZM90.9894 57.5704C91.1218 57.5704 91.1218 57.7024 91.1218 57.8345C91.2543 57.7024 91.3867 57.7025 91.3867 57.7025H90.9894C91.1218 57.5704 90.9894 57.5704 90.9894 57.5704ZM89.4 57.4384H90.592H90.7245C90.592 57.3063 90.4596 57.1743 90.4596 56.9102C90.4596 56.6461 90.592 56.25 91.1218 56.25H95.2276V55.5898H91.9165C91.5191 55.5898 91.2543 55.3257 91.2543 55.0616C91.1218 55.1936 90.9894 55.3257 90.7245 55.3257C90.592 55.3257 90.1947 55.3257 89.1351 54.0053C89.1351 53.8732 89.0027 53.8732 88.8703 53.7412C88.7378 53.8732 88.208 54.7975 87.5458 55.4577H90.1947C90.8569 55.4577 90.8569 55.9859 90.8569 56.1179C90.8569 56.382 90.7245 56.7782 90.1947 56.7782H89.4V57.4384ZM93.7707 56.9102C93.7707 57.0422 93.9031 57.0422 93.7707 56.9102C93.9031 57.0422 93.9031 57.0422 93.9031 56.9102H93.7707ZM95.7574 56.9102H96.0222L95.8898 56.7782C95.8898 56.7782 95.8898 56.9102 95.7574 56.9102ZM88.7378 55.9859C88.7378 56.1179 88.7378 56.1179 88.7378 55.9859C88.7378 56.1179 88.7378 56.1179 88.7378 55.9859ZM87.1485 54.7975C86.8836 54.9296 86.7511 55.0616 86.6187 55.1936C86.7511 55.1936 87.016 55.0616 87.1485 54.7975ZM95.7574 55.0616L95.8898 55.1936V54.9296L95.7574 55.0616ZM88.6054 53.4771L88.8703 53.6091L88.6054 53.4771ZM95.6249 53.213C95.7574 53.3451 95.8898 53.4771 95.8898 53.6091C95.8898 53.3451 95.7574 53.213 95.6249 53.213ZM88.4729 53.3451L88.7378 53.4771L88.4729 53.3451ZM88.8703 52.8169C88.7378 52.8169 88.7378 52.8169 88.7378 52.9489C88.8703 52.9489 89.0027 52.8169 89.1351 52.9489C89.0027 52.8169 89.0027 52.8169 88.8703 52.8169ZM87.2809 61.6637C86.7511 61.6637 86.6187 61.2676 86.6187 60.7394C86.6187 60.4753 86.6187 60.0792 86.4863 59.9472V59.6831C86.4863 59.551 86.4863 59.287 86.4863 59.1549C86.4863 58.7588 86.7511 58.4947 87.1485 58.4947C87.6783 58.4947 87.8107 58.8908 87.8107 59.1549C87.8107 59.419 88.0756 60.4753 88.0756 60.7394C87.9431 61.3996 87.6783 61.6637 87.2809 61.6637ZM87.2809 60.7394C87.2809 60.8715 87.2809 61.0035 87.2809 61.1355C87.2809 61.0035 87.2809 60.8715 87.2809 60.7394Z" fill="black"></path><path d="M148.735 27.993C148.735 30.1056 147.013 31.6901 145.027 31.6901H4.50311C2.384 31.6901 0.794669 29.9736 0.794669 27.993V3.69718C0.662225 1.71655 2.384 0 4.50311 0H145.027C147.146 0 148.735 1.71655 148.735 3.69718V27.993Z" fill="black"></path><path d="M20.264 12.676C20.1316 12.676 19.9991 12.676 19.9991 12.4119C19.9991 12.2799 20.1316 12.1478 20.264 12.1478H23.1778C23.7076 12.1478 23.84 12.1478 24.1049 12.544C24.5022 13.0721 24.6347 13.0721 24.7671 13.3362C25.032 13.0721 25.4294 12.676 25.6942 12.2799C25.9591 12.0158 25.9591 12.0158 26.0916 12.0158C26.224 12.0158 26.3565 12.1479 26.3565 12.2799C26.3565 12.4119 26.3565 12.4119 26.0916 12.676C25.5618 13.2042 25.2969 13.4683 25.1645 13.6003C25.4294 13.8644 25.6942 13.9964 25.9591 14.2605C26.224 13.9964 26.7538 13.4683 27.1511 13.0721C27.416 12.8081 27.416 12.8081 27.5485 12.8081C27.6809 12.8081 27.8134 12.9401 27.8134 13.0721C27.8134 13.2042 27.6809 13.3362 27.416 13.6003C27.1511 13.9964 26.7538 14.2605 26.3565 14.6567C26.8862 15.0528 27.5485 15.3169 28.0782 15.4489C28.2107 15.4489 28.3431 15.5809 28.3431 15.713C28.3431 15.845 28.2107 16.1091 28.0782 16.1091C27.8134 16.1091 25.2969 15.0528 23.5751 12.8081C22.1182 14.7887 19.3369 16.1091 19.072 16.1091C18.8071 16.1091 18.8071 15.845 18.8071 15.713C18.8071 15.5809 18.9396 15.4489 19.072 15.4489C19.6018 15.3169 20.264 14.9207 20.9262 14.5246C20.6614 14.2605 20.3965 13.9964 20.1316 13.7324C19.9991 13.6003 19.9991 13.6003 19.9991 13.4683C19.9991 13.3362 20.1316 13.2042 20.264 13.2042C20.3965 13.2042 20.3965 13.2042 20.5289 13.3362C20.6614 13.4683 21.0587 13.7324 21.456 14.2605C22.1182 13.7324 22.2507 13.6003 22.7805 13.0721C22.9129 12.9401 22.9129 12.9401 22.9129 12.8081C22.9129 12.8081 22.9129 12.676 22.648 12.676H20.264ZM27.9458 20.8626C28.0782 20.8626 28.2107 20.8626 28.2107 21.1267C28.2107 21.3908 27.9458 21.3908 27.9458 21.3908H19.4694C19.3369 21.3908 19.2045 21.3908 19.2045 21.1267C19.2045 20.8626 19.4694 20.8626 19.4694 20.8626H25.032C25.2969 20.2024 25.2969 20.2024 25.6942 19.4102C25.6942 19.2781 25.8267 19.2781 25.9591 19.2781C26.0916 19.2781 26.224 19.4102 26.224 19.5422C26.224 19.6743 26.0916 19.9383 26.0916 19.9383C26.0916 20.0704 25.6942 20.7306 25.6942 20.9947H27.9458V20.8626ZM27.1511 18.2218C27.1511 18.882 26.8862 19.014 26.3565 19.014H21.0587C20.3965 19.014 20.264 18.75 20.264 18.2218V17.4295C20.264 16.7693 20.5289 16.6373 21.0587 16.6373H26.3565C27.0187 16.6373 27.1511 16.9014 27.1511 17.4295V18.2218ZM26.6214 17.4295C26.6214 17.1655 26.4889 17.0334 26.224 17.0334H21.0587C20.7938 17.0334 20.6614 17.1655 20.6614 17.4295V18.0898C20.6614 18.3538 20.7938 18.4859 21.0587 18.4859H26.224C26.4889 18.4859 26.6214 18.3538 26.6214 18.0898V17.4295ZM21.5885 15.4489C21.456 15.4489 21.3236 15.4489 21.3236 15.1848C21.3236 14.9207 21.5885 14.9207 21.5885 14.9207H25.8267C25.9591 14.9207 26.0916 14.9207 26.0916 15.1848C26.0916 15.4489 25.8267 15.4489 25.8267 15.4489H21.5885ZM21.5885 19.1461C21.7209 19.1461 21.8534 19.1461 21.8534 19.4102C21.8534 19.5422 22.2507 20.4665 22.2507 20.5986C22.2507 20.8626 21.9858 20.8626 21.9858 20.8626C21.8534 20.8626 21.7209 20.7306 21.7209 20.5986C21.7209 20.4665 21.3236 19.5422 21.3236 19.5422C21.3236 19.2781 21.456 19.1461 21.5885 19.1461Z" fill="white"></path><path d="M27.9458 21.787H19.4693C18.9396 21.787 18.8071 21.5229 18.8071 21.1268C18.8071 20.8627 18.9396 20.5986 19.4693 20.5986H21.456C21.456 20.4666 21.3236 20.0704 21.1911 19.8063C21.1911 19.6743 21.0587 19.5423 21.0587 19.5423V19.4102C20.264 19.4102 19.8667 19.0141 19.8667 18.2218V17.4296C19.8667 16.6373 20.264 16.2412 21.0587 16.2412H26.3565C27.1511 16.2412 27.5485 16.6373 27.5485 17.4296V18.2218C27.5485 19.0141 27.1511 19.4102 26.4889 19.4102C26.4889 19.4102 26.4889 19.4102 26.4889 19.5423C26.4889 19.5423 26.4889 19.6743 26.3565 20.2025C26.3565 20.3345 26.224 20.4666 26.0916 20.7306H27.9458C28.3431 20.7306 28.608 20.9947 28.608 21.2588C28.608 21.5229 28.3431 21.787 27.9458 21.787ZM25.1645 21.1268C25.2969 21.1268 25.1645 21.1268 25.1645 21.1268V21.1268ZM22.648 20.5986H24.7671C24.8996 20.2025 25.032 20.0704 25.2969 19.4102H22.3831C22.3831 19.6743 22.648 20.3345 22.648 20.5986ZM26.3565 17.2975H21.1911V17.4296V18.0898V18.2218H26.3565V18.0898V17.2975C26.3565 17.4296 26.3565 17.2975 26.3565 17.2975ZM19.2045 16.5053C18.8071 16.5053 18.5422 16.1092 18.5422 15.8451C18.5422 15.449 18.9396 15.3169 19.072 15.1849C19.4693 15.0528 19.9991 14.7887 20.5289 14.5247C20.3965 14.3926 20.1316 14.1285 19.9991 13.9965C19.8667 13.8644 19.7342 13.7324 19.7342 13.4683C19.7342 13.2042 19.8667 13.0722 20.1316 12.9402C19.8667 12.8081 19.7342 12.6761 19.7342 12.412C19.6018 12.1479 19.8667 11.8838 20.264 11.8838H23.1778C23.7076 11.8838 23.9725 11.8838 24.3698 12.412C24.6347 12.6761 24.7671 12.8081 24.8996 12.9402C25.1645 12.6761 25.4293 12.412 25.5618 12.1479C25.8267 11.8838 25.9591 11.7518 26.224 11.7518C26.6213 11.7518 26.8862 12.0159 26.8862 12.2799C26.8862 12.544 26.7538 12.6761 26.4889 12.9402C26.224 13.3363 25.9591 13.4683 25.8267 13.6004C25.9591 13.7324 26.0916 13.7324 26.0916 13.8644C26.3565 13.6004 26.7538 13.2042 27.0187 12.8081C27.2836 12.544 27.2836 12.412 27.5485 12.412C27.8133 12.412 28.2107 12.6761 28.2107 12.9402C28.2107 13.2042 28.0782 13.3363 27.8133 13.6004C27.5485 13.8644 27.2836 14.1285 27.0187 14.3926C27.416 14.6567 27.9458 14.9208 28.3431 14.9208C28.4756 14.9208 28.8729 15.0528 28.8729 15.449C28.8729 15.713 28.608 16.1092 28.2107 16.1092C27.9458 16.1092 27.2836 15.8451 26.3565 15.1849C26.224 15.3169 26.0916 15.449 25.8267 15.449H21.5885C21.3236 15.449 21.0587 15.3169 21.0587 15.1849C20.1316 16.1092 19.3369 16.5053 19.2045 16.5053ZM19.3369 15.8451C19.3369 15.8451 19.2045 15.8451 19.3369 15.8451C19.2045 15.8451 19.2045 15.9771 19.2045 15.9771C19.2045 15.8451 19.2045 15.8451 19.3369 15.8451ZM26.0916 14.6567C26.0916 14.6567 26.224 14.6567 26.0916 14.6567C26.224 14.6567 26.224 14.6567 26.0916 14.6567C26.224 14.6567 26.224 14.6567 26.0916 14.6567C26.224 14.6567 26.0916 14.6567 26.0916 14.6567ZM22.2507 14.6567H25.032C24.5022 14.2606 24.1049 13.8644 23.7076 13.3363C23.1778 13.8644 22.7805 14.2606 22.2507 14.6567ZM21.3236 14.5247C21.3236 14.6567 21.3236 14.6567 21.3236 14.5247C21.3236 14.6567 21.3236 14.6567 21.3236 14.5247ZM20.5289 13.0722L20.6613 13.2042C20.9262 13.4683 21.1911 13.6004 21.3236 13.8644C21.7209 13.6004 21.8533 13.3363 22.2507 13.0722H20.5289ZM23.0453 12.544C23.0453 12.6761 23.1778 12.6761 23.1778 12.8081C23.1778 12.6761 23.3102 12.6761 23.3102 12.544C23.3102 12.544 23.3102 12.544 23.0453 12.544Z" fill="white"></path><path d="M32.5814 17.1655H30.992C30.992 17.1655 30.7271 17.1655 30.7271 16.9014C30.7271 16.6373 30.992 16.6373 30.992 16.6373H32.5814V15.3169H31.5218C31.3894 15.3169 31.2569 15.3169 31.2569 15.0528C31.2569 14.7887 31.5218 14.7887 31.5218 14.7887H34.1707C34.3031 14.7887 34.4356 14.7887 34.4356 15.0528C34.4356 15.3169 34.3031 15.3169 34.1707 15.3169H33.1111V16.6373H34.4356C34.568 16.6373 34.7005 16.6373 34.7005 16.9014C34.7005 17.1655 34.7005 17.1655 34.568 17.1655H33.2436V20.3345C33.6409 20.2024 33.7734 20.2024 34.3031 20.0704C34.4356 20.0704 34.4356 20.0704 34.568 20.0704C34.7005 20.0704 34.8329 20.0704 34.8329 20.3345C34.8329 20.4665 34.7005 20.5986 34.3031 20.7306C33.5085 20.9947 31.3894 21.3908 31.1245 21.3908C30.992 21.3908 30.8596 21.2588 30.8596 21.1267C30.8596 20.8627 30.992 20.8627 31.1245 20.8627C31.5218 20.7306 32.184 20.5986 32.7138 20.4665V17.1655H32.5814ZM32.8463 12.9401C32.184 13.8644 31.3894 14.7887 30.992 14.7887C30.7271 14.7887 30.7271 14.5246 30.7271 14.3926C30.7271 14.2605 30.8596 14.1285 30.8596 14.1285C31.1245 13.9965 31.7867 13.4683 32.5814 12.2799C32.7138 12.0158 32.8463 11.8838 33.1111 11.8838C33.376 11.8838 33.376 12.0158 33.6409 12.1479C34.0383 12.676 34.3031 13.0722 34.8329 13.4683C35.0978 13.7324 35.0978 13.7324 35.0978 13.8644C35.0978 13.9965 34.9654 14.1285 34.8329 14.1285C34.568 14.1285 33.9058 13.3363 33.6409 13.0722C33.5085 12.9401 33.376 12.8081 33.376 12.676L33.2436 12.544C32.9787 12.676 32.9787 12.676 32.8463 12.9401ZM31.6543 18.2218C31.6543 18.4859 31.9191 19.4102 31.9191 19.6743C31.9191 19.9384 31.6543 19.9384 31.5218 19.9384C31.2569 19.9384 31.2569 19.8063 31.2569 19.4102C31.2569 19.0141 31.2569 18.75 31.1245 18.6179C31.1245 18.4859 30.992 18.0898 30.992 18.0898C30.992 17.8257 31.1245 17.8257 31.2569 17.8257C31.6543 17.8257 31.6543 17.9577 31.6543 18.2218ZM34.7005 17.9577C34.7005 18.0898 34.4356 18.882 34.4356 19.0141C34.3031 19.4102 34.3031 19.5422 34.0383 19.5422C34.0383 19.5422 33.7734 19.5422 33.7734 19.2782C33.7734 19.1461 33.9058 18.882 33.9058 18.882C34.0383 18.3539 34.0383 18.2218 34.1707 17.9577C34.1707 17.8257 34.1707 17.6936 34.4356 17.6936C34.568 17.6936 34.7005 17.8257 34.7005 17.9577ZM36.8196 19.5422C36.8196 19.6743 36.6871 19.8063 36.2898 20.0704C35.8925 20.3345 34.8329 21.1267 34.568 21.1267C34.4356 21.1267 34.3031 20.9947 34.3031 20.8627C34.3031 20.7306 34.3031 20.7306 34.7005 20.4665C35.3627 20.0704 36.0249 19.6743 36.1574 19.4102C36.4223 19.2782 36.4223 19.1461 36.5547 19.1461C36.8196 19.2782 36.8196 19.5422 36.8196 19.5422ZM37.7467 20.7306C37.7467 20.9947 37.7467 21.3908 37.3494 21.5229C37.2169 21.6549 37.0845 21.6549 36.0249 21.6549C35.8925 21.6549 35.6276 21.6549 35.6276 21.3908C35.6276 21.1267 35.76 21.1267 36.0249 21.1267C36.1574 21.1267 36.6871 21.1267 36.6871 21.1267C36.952 21.1267 37.0845 20.9947 37.0845 20.7306V16.3732H34.8329C34.7005 16.3732 34.568 16.3732 34.568 16.1091C34.568 15.8451 34.8329 15.8451 34.8329 15.8451H38.8063V14.5246H35.76C35.6276 14.5246 35.4951 14.5246 35.4951 14.2605C35.4951 13.9965 35.76 13.9965 35.76 13.9965H39.0711V13.2042C39.0711 12.9401 38.9387 12.8081 38.6738 12.8081H35.4951C35.3627 12.8081 35.2303 12.8081 35.2303 12.544C35.2303 12.2799 35.4951 12.2799 35.4951 12.2799H38.6738C39.336 12.2799 39.4685 12.544 39.4685 13.0722V15.581H40.1307C40.2631 15.581 40.3956 15.581 40.3956 15.8451C40.3956 16.1091 40.1307 16.1091 40.1307 16.1091H37.6143C37.7467 16.9014 37.8791 17.5616 38.2765 18.2218C38.9387 17.5616 39.336 17.1655 39.4685 17.0334C39.6009 16.7694 39.7334 16.7694 39.8658 16.7694C39.9983 16.7694 40.1307 16.9014 40.1307 17.0334C40.1307 17.1655 39.8658 17.4296 39.7334 17.6936C39.336 18.0898 38.9387 18.6179 38.6738 18.75C39.0711 19.4102 39.6009 19.9384 40.2631 20.4665C40.528 20.5986 40.528 20.7306 40.528 20.7306C40.528 20.8627 40.3956 20.9947 40.2631 20.9947C40.1307 20.9947 39.8658 20.7306 39.6009 20.5986C38.8063 19.9384 38.144 18.882 37.7467 17.8257V20.7306ZM36.0249 17.2975C36.1574 17.4296 36.5547 18.0898 36.5547 18.2218C36.5547 18.3539 36.4223 18.4859 36.2898 18.4859C36.1574 18.4859 36.1574 18.4859 36.0249 18.2218C35.76 17.9577 35.6276 17.6936 35.4951 17.4296C35.3627 17.1655 35.2303 17.1655 35.2303 17.0334C35.2303 16.9014 35.3627 16.7694 35.4951 16.7694C35.6276 16.7694 35.6276 16.9014 36.0249 17.2975Z" fill="white"></path><path d="M36.1574 21.919C35.4951 21.919 35.4951 21.3908 35.4951 21.2588C35.0978 21.5229 34.8329 21.6549 34.7005 21.6549C34.3031 21.6549 34.1707 21.3908 34.0382 21.1267C33.1111 21.3908 31.2569 21.7869 30.992 21.7869C30.5947 21.7869 30.4622 21.5229 30.4622 21.1267C30.4622 20.9947 30.5947 20.5986 30.992 20.5986C31.1245 20.5986 31.3894 20.4665 31.6542 20.4665C31.1245 20.4665 31.1245 20.0704 30.992 19.6743C30.992 19.4102 30.992 19.1461 30.8596 19.014V18.75C30.8596 18.6179 30.8596 18.3538 30.8596 18.2218C30.8596 17.9577 31.1245 17.6936 31.3894 17.6936H31.1245C30.5947 17.6936 30.4622 17.4295 30.4622 17.1655C30.4622 16.9014 30.5947 16.6373 31.1245 16.6373H32.3165V15.9771H31.6542C31.1245 15.9771 30.992 15.4489 30.992 15.4489C30.5947 15.4489 30.4622 15.0528 30.4622 14.7887C30.4622 14.5246 30.7271 14.2605 30.7271 14.2605C30.992 14.1285 31.6542 13.6003 32.3165 12.544C32.4489 12.4119 32.5814 12.0158 33.1111 12.0158C33.5085 12.0158 33.7734 12.2799 33.9058 12.544C34.3031 13.0721 34.568 13.4683 34.9654 13.7324C35.2302 13.9964 35.3627 13.9964 35.3627 14.2605C35.4951 14.1285 35.6276 14.1285 35.76 14.1285H38.8062V13.2042H38.6738H35.4951C35.0978 13.2042 34.8329 12.9401 34.8329 12.676C34.8329 12.4119 34.9654 12.1478 35.4951 12.1478H38.6738C39.4685 12.1478 39.8658 12.544 39.8658 13.3362V15.5809H40.1307C40.6605 15.5809 40.7929 15.845 40.7929 16.1091C40.7929 16.3732 40.6605 16.7693 40.1307 16.7693H39.9982C40.2631 16.9014 40.3956 17.0334 40.3956 17.2975C40.3956 17.5616 40.1307 17.8257 39.8658 18.0898L39.7334 18.2218C39.4685 18.4859 39.2036 18.75 38.9387 19.014C39.336 19.5422 39.7334 19.9383 40.2631 20.3345C40.528 20.5986 40.6605 20.5986 40.6605 20.8626C40.6605 21.2588 40.3956 21.5228 39.9982 21.5228C39.7334 21.5228 39.4685 21.3908 39.2036 20.9947C38.6738 20.4665 38.2765 20.0704 38.0116 19.5422V20.8626C38.0116 21.1267 38.0116 21.6549 37.4818 21.919C37.3494 21.919 37.2169 21.919 36.1574 21.919ZM37.3494 21.1267L37.2169 21.2588C37.3494 21.1267 37.3494 21.1267 37.3494 21.1267ZM36.2898 20.5986C36.4222 20.5986 36.4222 20.5986 36.5547 20.5986C36.6871 20.5986 36.8196 20.5986 36.952 20.5986L37.0845 20.4665V20.0704C36.952 20.2024 36.8196 20.2024 36.6871 20.3345C36.4222 20.4665 36.4222 20.4665 36.2898 20.5986ZM32.9787 20.5986C32.9787 20.5986 32.8462 20.5986 32.9787 20.5986V20.5986ZM31.5218 17.5616C31.9191 17.6936 31.9191 17.9577 32.0516 18.2218C32.0516 18.3538 32.3165 19.4102 32.3165 19.6743C32.3165 19.9383 32.184 20.2024 31.9191 20.2024C32.0516 20.2024 32.184 20.2024 32.3165 20.0704V17.4295H31.5218V17.5616ZM34.568 19.6743C34.7005 19.6743 34.8329 19.8063 34.9654 20.0704C35.3627 19.8063 35.76 19.5422 36.0249 19.2781C36.2898 19.1461 36.4222 19.014 36.5547 19.014C36.6871 19.014 36.8196 19.014 36.8196 19.1461V16.6373H35.76C35.8925 16.7693 36.0249 16.9014 36.2898 17.1655C36.4222 17.4295 36.952 17.9577 36.952 18.3538C36.952 18.75 36.6871 19.014 36.2898 19.014C36.0249 19.014 35.8925 18.882 35.6276 18.4859C35.3627 18.2218 35.2302 17.9577 35.0978 17.6936V17.5616L34.9654 17.4295C34.9654 17.4295 34.8329 17.5616 34.7005 17.5616C34.8329 17.6936 34.9654 17.8257 34.9654 18.0898C34.9654 18.2218 34.8329 18.882 34.7005 19.2781C34.7005 19.4102 34.7005 19.5422 34.568 19.6743ZM33.5085 19.4102V19.8063H33.6409C33.5085 19.8063 33.5085 19.6743 33.5085 19.4102ZM33.5085 17.5616V19.4102C33.5085 19.2781 33.5085 19.2781 33.6409 19.014V18.882L33.7734 18.4859C33.9058 18.2218 33.9058 18.0898 33.9058 17.8257C33.9058 17.5616 34.0382 17.4295 34.1707 17.4295H33.5085V17.5616ZM38.144 16.6373C38.2765 17.0334 38.4089 17.4295 38.5414 17.8257C38.9387 17.4295 39.2036 17.0334 39.336 16.9014C39.4685 16.7693 39.6009 16.6373 39.7334 16.5052H38.144V16.6373ZM37.6142 16.9014V17.6936L37.7467 17.5616C37.7467 17.2975 37.6142 17.1655 37.6142 16.9014ZM32.8462 16.9014C32.8462 17.0334 32.8462 17.0334 32.8462 16.9014C32.8462 17.0334 32.9787 17.0334 32.8462 16.9014C32.9787 16.9014 32.8462 16.9014 32.8462 16.9014ZM34.9654 16.6373C34.9654 16.6373 35.0978 16.6373 34.9654 16.6373C35.0978 16.6373 35.0978 16.6373 35.0978 16.6373H34.9654ZM33.5085 16.3732H34.568C34.4356 16.2412 34.4356 16.1091 34.4356 15.9771C34.4356 15.845 34.4356 15.713 34.568 15.713C34.4356 15.713 34.4356 15.713 34.3031 15.713H33.6409V16.3732H33.5085ZM37.4818 15.9771C37.4818 16.1091 37.4818 16.1091 37.4818 15.9771C37.4818 16.1091 37.4818 16.1091 37.4818 15.9771ZM39.336 15.9771C39.336 15.845 39.336 15.845 39.336 15.9771C39.336 15.845 39.336 15.845 39.336 15.9771ZM31.9191 14.5246H34.1707C34.8329 14.5246 34.8329 15.0528 34.8329 15.0528C34.8329 15.1848 34.8329 15.3169 34.7005 15.3169C34.8329 15.3169 34.8329 15.3169 34.9654 15.3169H38.6738V14.7887H35.76C35.3627 14.7887 35.2302 14.5246 35.0978 14.3926C34.9654 14.5246 34.8329 14.5246 34.7005 14.5246C34.568 14.5246 34.3031 14.5246 33.2436 13.3362C33.2436 13.3362 33.1111 13.2042 33.1111 13.0721C32.9787 13.3362 32.4489 13.9964 31.9191 14.5246ZM32.8462 12.9401L32.9787 13.0721C32.9787 13.0721 32.9787 13.0721 32.8462 12.9401C32.9787 13.0721 32.9787 13.0721 32.9787 13.0721L32.8462 12.9401ZM32.5814 12.8081L32.7138 12.9401L32.5814 12.8081ZM32.9787 12.2799C32.9787 12.4119 33.1111 12.4119 32.9787 12.2799C33.1111 12.2799 33.1111 12.2799 32.9787 12.2799Z" fill="white"></path><path d="M49.1369 17.9578C49.1369 19.2782 48.6071 19.9384 48.4747 20.2025C47.8125 20.9948 46.6205 21.5229 46.3556 21.5229C46.0907 21.5229 46.0907 21.2589 46.0907 21.2589C46.0907 21.1268 46.0907 21.1268 46.7529 20.7307C47.4151 20.4666 48.4747 19.9384 48.6071 18.2219C48.4747 18.486 48.0774 19.1462 47.0178 19.1462C45.9582 19.1462 45.1636 18.3539 45.1636 17.1656C45.1636 15.9772 46.0907 15.1849 47.1502 15.1849C47.4151 15.1849 48.2098 15.1849 48.6071 15.9772V14.2606L45.0311 14.3927C44.7662 14.3927 43.7067 14.3927 43.4418 14.3927C43.3094 14.3927 43.0445 14.3927 43.0445 14.1286C43.0445 13.8645 43.3094 13.8645 43.4418 13.8645H45.0311L48.6071 13.7325V12.412C48.6071 12.1479 48.872 12.1479 48.872 12.1479C49.0045 12.1479 49.1369 12.28 49.1369 12.412V13.7325H50.4613C50.7262 13.7325 51.7858 13.7325 51.9182 13.7325C52.1831 13.7325 52.1831 13.8645 52.1831 13.9965C52.1831 14.2606 51.9182 14.2606 51.7858 14.2606H50.3289H49.1369V17.9578ZM47.0178 15.7131C46.2231 15.7131 45.5609 16.2413 45.5609 17.1656C45.5609 18.2219 46.2231 18.618 46.8854 18.618C47.8125 18.618 48.3422 17.8258 48.3422 17.1656C48.4747 16.6374 48.0774 15.7131 47.0178 15.7131Z" fill="white"></path><path d="M46.3556 21.919C45.9582 21.919 45.6934 21.6549 45.6934 21.2588C45.6934 20.8627 45.8258 20.8627 46.6205 20.4666C47.0178 20.3345 47.5476 19.9384 47.9449 19.2782C47.68 19.4102 47.2827 19.5423 46.8854 19.5423C45.5609 19.5423 44.6338 18.4859 44.6338 17.2975C44.6338 15.9771 45.6934 14.9208 47.0178 14.9208C47.5476 14.9208 47.9449 15.0528 48.2098 15.1849V14.6567H45.0311C44.7662 14.6567 43.7067 14.6567 43.4418 14.6567C42.912 14.6567 42.7796 14.2606 42.7796 13.9965C42.7796 13.7324 42.912 13.3363 43.4418 13.3363H45.0311L48.2098 13.2042V12.2799C48.2098 12.0159 48.3422 11.8838 48.3422 11.8838C48.4747 11.7518 48.6071 11.7518 48.872 11.7518C49.2694 11.7518 49.5342 12.0159 49.5342 12.412V13.3363H50.7262C51.1236 13.3363 51.7858 13.3363 51.9182 13.3363C52.3156 13.3363 52.5805 13.6004 52.5805 13.9965C52.5805 14.1285 52.448 14.6567 51.7858 14.6567H49.4018V18.0898C49.4018 19.5423 48.872 20.2025 48.7396 20.4666C48.0773 21.2588 46.6205 21.919 46.3556 21.919ZM47.0178 16.1092C46.3556 16.1092 45.9582 16.5053 45.9582 17.2975C45.9582 18.0898 46.488 18.3539 47.0178 18.3539C47.68 18.3539 48.2098 17.8257 48.2098 17.1655C48.2098 16.7694 47.8125 16.1092 47.0178 16.1092ZM48.6071 17.9578C48.7396 17.9578 48.7396 17.9578 48.7396 18.0898C48.7396 18.0898 48.7396 18.0898 48.7396 17.9578V17.4296C48.7396 17.5616 48.7396 17.8257 48.6071 17.9578ZM48.6071 16.3732C48.7396 16.5053 48.7396 16.7694 48.7396 16.9014V16.2412C48.7396 16.3732 48.7396 16.3732 48.6071 16.3732ZM48.6071 13.9965C48.7396 13.9965 48.7396 14.1285 48.6071 13.9965C48.7396 14.1285 48.872 13.9965 48.872 13.9965C48.872 13.9965 48.872 13.9965 48.872 13.8644C48.7396 13.8644 48.7396 13.8644 48.6071 13.9965C48.7396 13.9965 48.7396 13.9965 48.6071 13.9965Z" fill="white"></path><path d="M56.8187 13.4684C56.6863 13.4684 56.5538 13.4684 56.5538 13.2043C56.5538 12.9402 56.8187 12.9402 56.9512 12.9402C57.7458 12.9402 59.2027 12.9402 60.1298 12.8082C60.3947 12.8082 61.4543 12.6761 61.7191 12.6761C62.1165 12.6761 62.2489 12.9402 62.2489 13.0723C62.2489 13.2043 62.2489 13.2043 61.4543 13.8645C60.1298 14.7888 59.2027 15.7131 58.408 16.3733C59.2027 15.9772 59.9974 15.8452 60.792 15.8452C62.6463 15.8452 63.7058 16.9015 63.7058 18.354C63.7058 20.0705 62.2489 21.3909 59.9974 21.3909C58.6729 21.3909 57.3485 20.8628 57.3485 19.6744C57.3485 18.8821 58.1432 18.2219 59.0703 18.2219C60.2623 18.2219 61.3218 19.1462 61.5867 20.4666C62.7787 19.9385 63.0436 18.8821 63.0436 18.354C63.0436 17.4297 62.5138 16.2413 60.5272 16.2413C58.6729 16.2413 57.0836 17.4297 56.8187 17.6938C56.024 18.354 56.024 18.486 55.8916 18.486C55.7592 18.486 55.6267 18.354 55.6267 18.2219C55.6267 18.0899 55.6267 18.0899 56.1565 17.5617C56.1565 17.5617 60.5272 13.8645 61.3218 13.2043C59.8649 13.3364 58.1432 13.4684 56.8187 13.4684ZM58.9378 18.7501C58.2756 18.7501 57.8783 19.1462 57.8783 19.5423C57.8783 20.3346 58.9378 20.7307 59.9974 20.7307C60.5272 20.7307 60.792 20.5987 60.9245 20.5987C60.6596 19.4103 59.8649 18.7501 58.9378 18.7501Z" fill="white"></path><path d="M59.9974 21.655C58.5405 21.655 56.9511 20.9948 56.9511 19.6744C56.9511 18.618 57.7458 17.9578 58.9378 17.9578C60.1298 17.9578 61.1894 18.7501 61.7191 20.0705C62.6463 19.5423 62.6463 18.7501 62.6463 18.3539C62.6463 17.8258 62.3814 16.6374 60.3947 16.6374C58.6729 16.6374 57.216 17.6937 56.9511 18.0898C56.1565 18.8821 56.024 18.8821 55.7591 18.8821C55.3618 18.8821 55.0969 18.618 55.0969 18.2219C55.0969 17.9578 55.2294 17.8258 55.6267 17.4296L55.7591 17.2976C55.7591 17.2976 55.7591 17.2976 60.1298 13.6004C58.9378 13.7325 57.7458 13.7325 56.8187 13.7325C56.4214 13.7325 56.1565 13.4684 56.1565 13.0722C56.1565 12.9402 56.1565 12.5441 56.8187 12.412C57.4809 12.412 59.0703 12.412 59.9974 12.28C60.1298 12.28 60.2623 12.28 60.3947 12.28C60.9245 12.28 61.4543 12.1479 61.5867 12.1479C62.1165 12.1479 62.3814 12.5441 62.3814 12.9402C62.3814 13.3363 62.3814 13.3363 61.4543 13.9965C60.792 14.5247 60.2623 14.9208 59.7325 15.449C59.9974 15.449 60.3947 15.317 60.6596 15.317C62.6463 15.317 63.9707 16.5053 63.9707 18.2219C63.9707 20.2025 62.2489 21.655 59.9974 21.655ZM61.1894 20.5987V20.7307C61.3218 20.7307 61.3218 20.7307 61.1894 20.5987C61.3218 20.7307 61.3218 20.7307 61.1894 20.5987C61.3218 20.7307 61.3218 20.7307 61.1894 20.5987ZM58.9378 19.0141C58.408 19.0141 58.1431 19.2782 58.1431 19.5423C58.1431 20.0705 59.0703 20.3346 59.9974 20.3346C60.2623 20.3346 60.3947 20.3346 60.5271 20.3346C60.2623 19.5423 59.6 19.0141 58.9378 19.0141ZM57.8783 16.3733C57.7458 16.5053 57.4809 16.6374 57.3485 16.7694C57.6134 16.7694 57.7458 16.6374 57.8783 16.3733C58.0107 16.5053 58.0107 16.5053 57.8783 16.3733ZM61.4543 12.9402C61.4543 12.9402 61.4543 13.0722 61.4543 12.9402C61.5867 13.0722 61.5867 13.0722 61.5867 13.2043C61.7191 13.0722 61.7191 13.0722 61.7191 13.0722C61.7191 13.0722 61.7191 12.9402 61.4543 12.9402Z" fill="white"></path><path d="M70.7254 14.5246C70.8578 15.1848 70.9902 15.581 70.9902 15.845C72.4471 15.3169 74.5663 14.7887 74.8311 14.7887C75.096 14.7887 75.096 15.0528 75.096 15.1848C75.096 15.4489 75.096 15.4489 74.1689 15.581C71.3876 16.2412 68.3414 17.1655 68.3414 18.882C68.3414 19.9384 69.6658 20.4665 71.9174 20.4665C72.8445 20.4665 73.6391 20.3345 74.3014 20.3345C74.4338 20.3345 75.096 20.2024 75.2285 20.2024C75.3609 20.2024 75.4934 20.3345 75.4934 20.4665C75.4934 20.7306 75.2285 20.8627 74.9636 20.8627C74.8311 20.8627 73.6391 20.9947 72.1823 20.9947C70.5929 20.9947 67.6791 20.8627 67.6791 18.882C67.6791 17.6936 68.6062 16.7693 70.328 16.1091C70.1956 15.713 70.0631 15.0528 70.0631 14.6567L69.6658 12.8081C69.6658 12.676 69.6658 12.676 69.6658 12.544C69.6658 12.4119 69.7983 12.2799 70.0631 12.2799C70.328 12.2799 70.328 12.4119 70.4605 12.676L70.7254 14.5246Z" fill="white"></path><path d="M72.1822 21.3908C70.8578 21.3908 67.4142 21.3908 67.4142 18.882C67.4142 17.6936 68.2089 16.6373 70.0631 15.8451C69.9307 15.4489 69.7982 15.0528 69.7982 14.6567L69.4009 12.8081C69.4009 12.676 69.4009 12.544 69.4009 12.544C69.4009 12.1479 69.6658 11.8838 70.0631 11.8838C70.5929 11.8838 70.7254 12.2799 70.7254 12.544L70.9902 14.2606C71.1227 14.6567 71.1227 15.0528 71.2551 15.1848C72.5796 14.6567 74.5662 14.1285 74.8311 14.1285C75.2285 14.1285 75.4934 14.5246 75.4934 14.7887C75.4934 15.3169 75.2285 15.3169 74.3014 15.581C70.5929 16.3732 68.7387 17.4296 68.7387 18.6179C68.7387 19.4102 69.7982 19.8063 72.0498 19.8063C73.1094 19.8063 74.0365 19.6743 74.3014 19.6743H74.4338C74.8311 19.5422 75.096 19.5422 75.2285 19.5422C75.4934 19.5422 75.8907 19.8063 75.8907 20.2025C75.8907 20.8627 75.3609 20.8627 75.096 20.8627C74.9636 21.1267 73.6391 21.3908 72.1822 21.3908ZM75.096 20.4665C74.9636 20.4665 74.6987 20.5986 74.4338 20.5986C74.6987 20.5986 74.8311 20.5986 74.8311 20.5986C74.9636 20.4665 75.096 20.4665 75.096 20.4665ZM70.7254 16.1091V16.2412C70.7254 16.2412 70.7254 16.2412 70.7254 16.1091C70.8578 16.1091 70.8578 16.1091 70.7254 16.1091ZM69.9307 12.676L70.0631 13.2042L69.9307 12.8081C70.0631 12.8081 69.9307 12.676 69.9307 12.676Z" fill="white"></path><path d="M79.4667 14.2606C79.4667 14.2606 79.3342 14.3927 79.2018 14.3927C78.9369 14.3927 78.9369 14.1286 78.9369 13.9966C78.9369 13.8645 79.0693 13.7325 79.2018 13.7325L80.7911 12.6761C81.056 12.5441 81.056 12.412 81.1885 12.412C81.4533 12.412 81.4533 12.6761 81.4533 12.9402V20.5987C81.4533 20.8628 81.1885 20.9948 81.056 20.9948C80.7911 20.9948 80.6587 20.8628 80.6587 20.5987V13.3363L79.4667 14.2606Z" fill="white"></path><path d="M81.056 21.2589C80.6587 21.2589 80.3938 20.9948 80.3938 20.5987V13.9965L79.5991 14.5247C79.4667 14.5247 79.3342 14.6568 79.2018 14.6568C78.8044 14.6568 78.5396 14.2606 78.5396 13.9965C78.5396 13.7325 78.8044 13.4684 78.9369 13.4684L80.5262 12.412C80.7911 12.28 80.9236 12.1479 81.1884 12.1479C81.8507 12.1479 81.8507 12.8082 81.8507 12.9402V20.5987C81.7182 21.1268 81.4533 21.2589 81.056 21.2589ZM80.6587 13.0722H80.7911C80.9236 13.0722 80.9235 13.2043 80.9235 13.3363V20.5987V12.9402C80.9235 12.8082 80.9235 12.8082 80.9235 12.6761L80.7911 12.8082L80.6587 13.0722ZM79.2018 13.9965C79.2018 13.9965 79.2018 14.1286 79.2018 13.9965L79.3342 14.2606L79.2018 13.9965Z" fill="white"></path><path d="M86.3538 16.7694C86.3538 15.8451 86.3538 12.544 89.1352 12.544C91.9165 12.544 91.9165 15.8451 91.9165 16.7694C91.9165 17.6937 91.9165 20.9947 89.1352 20.9947C86.3538 20.9947 86.3538 17.6937 86.3538 16.7694ZM91.2543 16.7694C91.2543 15.581 91.1218 13.0722 89.1352 13.0722C87.1485 13.0722 87.016 15.4489 87.016 16.7694C87.016 17.9577 87.1485 20.4665 89.1352 20.4665C91.1218 20.3345 91.2543 17.9577 91.2543 16.7694Z" fill="white"></path><path d="M89.1351 21.2588C87.6783 21.2588 85.9565 20.4665 85.9565 16.6373C85.9565 12.8081 87.6783 12.0158 89.1351 12.0158C90.592 12.0158 92.3138 12.8081 92.3138 16.6373C92.3138 20.4665 90.592 21.2588 89.1351 21.2588ZM89.1351 13.4683C87.9431 13.4683 87.4134 14.5246 87.4134 16.7693C87.4134 19.014 87.9431 20.0704 89.1351 20.0704C90.3271 20.0704 90.8569 19.014 90.8569 16.7693C90.8569 14.5246 90.3271 13.4683 89.1351 13.4683ZM90.7245 13.4683C91.2543 13.9964 91.6516 15.0528 91.6516 16.7693C91.6516 18.4859 91.2543 19.5422 90.7245 20.0704C91.2543 19.4102 91.6516 18.3538 91.6516 16.7693C91.6516 15.1848 91.3867 14.1285 90.7245 13.4683ZM87.6783 13.4683C87.1485 14.1285 86.7511 15.1848 86.7511 16.7693C86.7511 18.3538 87.016 19.4102 87.6783 20.0704C87.1485 19.5422 86.7511 18.4859 86.7511 16.7693C86.7511 15.0528 87.1485 13.9964 87.6783 13.4683Z" fill="white"></path><path d="M96.552 12.5441C97.6116 12.5441 98.5387 13.4684 98.5387 14.7888C98.5387 16.1092 97.744 17.0335 96.552 17.0335C95.4925 17.0335 94.5654 16.1092 94.5654 14.7888C94.5654 13.4684 95.4925 12.5441 96.552 12.5441ZM96.552 16.2413C97.2143 16.2413 97.8765 15.7131 97.8765 14.6568C97.8765 13.6004 97.2143 13.0723 96.552 13.0723C95.8898 13.0723 95.2276 13.6004 95.2276 14.6568C95.2276 15.8451 95.8898 16.2413 96.552 16.2413ZM101.188 12.6761C101.32 12.5441 101.32 12.412 101.452 12.412C101.585 12.412 101.717 12.5441 101.717 12.6761C101.717 12.8082 101.717 12.8082 101.585 12.9402L96.1547 20.7307C96.0223 20.8628 96.0223 20.9948 95.8898 20.9948C95.7574 20.9948 95.6249 20.8628 95.6249 20.7307C95.6249 20.5987 95.6249 20.5987 95.7574 20.4666L101.188 12.6761ZM100.923 16.6374C101.982 16.6374 102.909 17.5617 102.909 18.8821C102.909 20.2025 102.115 21.1268 100.923 21.1268C99.8631 21.1268 98.936 20.2025 98.936 18.8821C99.0685 17.5617 99.8631 16.6374 100.923 16.6374ZM100.923 20.4666C101.585 20.4666 102.247 19.9385 102.247 18.8821C102.247 17.8258 101.585 17.2976 100.923 17.2976C100.26 17.2976 99.5983 17.8258 99.5983 18.8821C99.5983 19.9385 100.26 20.4666 100.923 20.4666Z" fill="white"></path><path d="M100.923 21.2589C99.5983 21.2589 98.6711 20.2025 98.6711 18.7501C98.6711 17.2976 99.5983 16.2413 100.923 16.2413C102.247 16.2413 103.174 17.2976 103.174 18.7501C103.174 20.2025 102.247 21.2589 100.923 21.2589ZM100.923 17.5617C100.393 17.5617 99.8632 17.9578 99.8632 18.8821C99.8632 19.6744 100.26 20.2025 100.923 20.2025C101.452 20.2025 101.982 19.8064 101.982 18.8821C101.982 17.8258 101.452 17.5617 100.923 17.5617ZM96.0223 21.2589C95.7574 21.2589 95.36 20.9948 95.36 20.7307C95.36 20.5987 95.4925 20.4666 95.4925 20.3346L100.923 12.5441L101.188 12.6761L100.923 12.412C101.055 12.28 101.188 12.1479 101.452 12.1479C101.717 12.1479 102.115 12.412 102.115 12.6761C102.115 12.8082 101.982 12.9402 101.982 13.0722L96.552 20.8627C96.4196 21.1268 96.2871 21.2589 96.0223 21.2589ZM101.188 12.6761L101.32 12.8082L101.188 12.6761ZM96.552 17.1656C95.2276 17.1656 94.3005 16.1092 94.3005 14.6568C94.3005 13.2043 95.2276 12.1479 96.552 12.1479C97.8765 12.1479 98.8036 13.2043 98.8036 14.6568C98.8036 16.1092 97.8765 17.1656 96.552 17.1656ZM96.552 13.3363C96.0223 13.3363 95.4925 13.7325 95.4925 14.6568C95.4925 15.581 96.0223 15.9772 96.552 15.9772C97.0818 15.9772 97.6116 15.581 97.6116 14.6568C97.4791 13.7325 96.9494 13.3363 96.552 13.3363Z" fill="white"></path><path d="M109.664 12.544C112.048 12.544 113.902 14.3926 113.902 16.7694C113.902 19.2782 112.048 20.9947 109.664 20.9947C107.28 20.9947 105.426 19.2782 105.426 16.7694C105.426 14.2606 107.28 12.544 109.664 12.544ZM109.664 20.3345C111.651 20.3345 113.24 18.75 113.24 16.6373C113.24 14.6567 111.651 12.9401 109.664 12.9401C107.677 12.9401 106.088 14.5246 106.088 16.6373C106.088 18.75 107.677 20.3345 109.664 20.3345Z" fill="white"></path><path d="M109.664 21.2588C107.015 21.2588 105.028 19.2781 105.028 16.6373C105.028 13.9964 107.015 12.0158 109.664 12.0158C112.313 12.0158 114.3 13.9964 114.3 16.6373C114.3 19.4102 112.313 21.2588 109.664 21.2588ZM107.81 13.2042C106.618 13.8644 105.823 15.0528 105.823 16.6373C105.823 18.2218 106.618 19.4102 107.81 20.0704C106.618 19.4102 105.823 18.0898 105.823 16.6373C105.823 15.1848 106.618 13.9964 107.81 13.2042ZM111.651 13.3362C112.843 13.9964 113.637 15.3169 113.637 16.7693C113.637 18.2218 112.843 19.5422 111.651 20.2024C112.843 19.5422 113.637 18.3538 113.637 16.7693C113.637 15.1848 112.843 13.8644 111.651 13.3362ZM109.664 13.4683C107.81 13.4683 106.353 14.9207 106.353 16.7693C106.353 18.6179 107.81 20.0704 109.664 20.0704C111.518 20.0704 112.975 18.6179 112.975 16.7693C112.975 14.9207 111.518 13.4683 109.664 13.4683Z" fill="white"></path><path d="M121.187 16.3732C121.452 16.3732 121.452 16.5053 121.452 16.6373C121.452 16.7694 121.319 16.9014 121.187 16.9014H117.611V20.5986C117.611 20.8627 117.346 20.9947 117.213 20.9947C116.948 20.9947 116.816 20.8627 116.816 20.5986V13.6003C116.816 13.2042 116.816 12.544 117.743 12.544H121.452C121.849 12.676 121.849 12.8081 121.849 12.9401C121.849 13.0722 121.716 13.2042 121.584 13.2042H118.14C117.876 13.2042 117.743 13.3363 117.743 13.6003V16.2412H121.187V16.3732Z" fill="white"></path><path d="M117.346 21.2588C116.948 21.2588 116.684 20.9948 116.684 20.5986V13.6004C116.684 12.6761 117.081 12.28 118.008 12.28H121.716C122.114 12.28 122.379 12.6761 122.379 12.9402C122.379 13.3363 122.114 13.6004 121.716 13.6004H118.273H118.14C118.14 13.6004 118.14 13.6004 118.14 13.7324V16.1092H121.319C121.716 16.1092 121.981 16.3733 121.981 16.7694C121.981 17.1655 121.716 17.4296 121.319 17.4296H118.14V20.8627C118.008 21.1268 117.611 21.2588 117.346 21.2588ZM117.743 12.9402C117.346 12.9402 117.346 13.2043 117.346 13.6004V20.5986V16.9014C117.346 16.7694 117.478 16.6374 117.611 16.6374C117.478 16.6374 117.346 16.5053 117.346 16.3733V13.7324C117.346 13.3363 117.478 13.0722 117.743 12.9402Z" fill="white"></path><path d="M129.133 16.3732C129.398 16.3732 129.398 16.5053 129.398 16.6373C129.398 16.7694 129.266 16.9014 129.133 16.9014H125.557V20.5986C125.557 20.8627 125.292 20.9947 125.16 20.9947C124.895 20.9947 124.763 20.8627 124.763 20.5986V13.6003C124.763 13.2042 124.763 12.544 125.69 12.544H129.398C129.663 12.544 129.663 12.8081 129.663 12.8081C129.663 12.9401 129.531 13.0722 129.398 13.0722H125.955C125.69 13.0722 125.557 13.2042 125.557 13.4683V16.1091H129.133V16.3732Z" fill="white"></path><path d="M125.16 21.2588C124.763 21.2588 124.498 20.9948 124.498 20.5986V13.6004C124.498 12.6761 124.895 12.28 125.822 12.28H129.531C129.928 12.28 130.193 12.6761 130.193 12.9402C130.193 13.3363 129.928 13.6004 129.531 13.6004H126.087H125.955C125.955 13.6004 125.955 13.6004 125.955 13.7324V16.1092H129.133C129.531 16.1092 129.796 16.3733 129.796 16.7694C129.796 17.1655 129.531 17.4296 129.133 17.4296H125.822V20.8627C125.822 21.1268 125.557 21.2588 125.16 21.2588ZM125.557 12.9402C125.16 12.9402 125.16 13.2043 125.16 13.6004V20.5986V16.9014C125.16 16.7694 125.292 16.6374 125.425 16.6374C125.292 16.6374 125.16 16.5053 125.16 16.3733V13.7324C125.16 13.3363 125.292 13.0722 125.557 12.9402Z" fill="white"></path><path d="M69.4009 31.6901L73.3742 37.5L77.2151 31.6901H69.4009Z" fill="black"></path></svg> 