<svg width="80" height="99" viewBox="0 0 80 99" fill="none" xmlns="http://www.w3.org/2000/svg">
<path d="M78.0669 99H1.80618C0.802745 99 0 98.2011 0 97.2024V2.66308C0 2.52993 0 2.39677 0.0668954 2.26362C0 2.13046 0 1.99731 0 1.79758C0 0.798924 0.802745 0 1.80618 0H64.2865C64.8885 0 65.4906 0.332885 65.8251 0.798924L79.6055 21.4378C79.8062 21.7707 79.94 22.1036 79.94 22.4364V97.2024C79.94 98.2011 79.0703 99 78.0669 99ZM3.67925 95.3383H76.2607V22.9691L63.3499 3.66174H3.67925V95.3383Z" fill="black"/>
<path d="M78.0669 27.9623H59.2693C58.7341 27.9623 58.199 27.696 57.8645 27.2966C57.53 26.8971 57.3962 26.2979 57.4631 25.7653L62.4803 1.46469C62.681 0.466037 63.6844 -0.133156 64.6209 0.0665747C65.6244 0.266306 66.2264 1.26496 66.0257 2.19704L61.5438 24.3006H78.0669C79.0703 24.3006 79.8731 25.0995 79.8731 26.0982C79.94 27.1634 79.0703 27.9623 78.0669 27.9623Z" fill="black"/>
<path d="M78.0669 74.4997H1.80615V97.1358H78.0669V74.4997Z" fill="black"/>
<path d="M27.8285 92.6752C24.0824 92.6752 22.41 89.879 22.41 86.7498C22.41 83.7539 23.9486 80.6247 28.0292 80.6247C31.3071 80.6247 32.7119 82.7552 32.8457 84.5528H30.6381C30.1698 82.4223 28.3637 82.4223 28.0961 82.4223C26.2899 82.4223 24.6844 83.8204 24.6844 86.6833C24.6844 89.3463 26.0892 90.811 27.8954 90.811C28.6312 90.811 29.3671 90.5447 29.9692 89.9455C30.5043 89.4795 30.5712 89.08 30.705 88.4143H32.7788C32.5781 90.4116 31.1733 92.6752 27.8285 92.6752Z" fill="white"/>
<path d="M40.2042 92.6752C38.2642 92.6752 35.4546 92.1426 35.3208 88.8803H37.4615C37.5283 90.6779 39.2007 90.8776 40.0704 90.8776C40.6055 90.8776 42.88 90.811 42.88 89.2132C42.88 88.4143 42.4117 88.0814 41.3414 87.8151L38.5987 87.2159C37.127 86.883 35.5215 86.0841 35.5215 83.887C35.5215 81.4237 37.8628 80.4916 40.1373 80.4916C41.0738 80.4916 42.5455 80.6913 43.5489 81.6234C44.2179 82.2226 44.4855 82.7552 44.6862 84.0868H42.5455C42.4786 82.3558 40.6724 82.2892 40.0704 82.2892C39.669 82.2892 37.5952 82.2892 37.5952 83.8204C37.5952 84.4862 37.9966 85.0188 39.2007 85.2186L42.1441 85.8843C43.0138 86.0841 45.0206 86.7498 45.0206 88.9469C44.9537 91.1439 43.2145 92.6752 40.2042 92.6752Z" fill="white"/>
<path d="M52.1115 92.6752C50.1715 92.6752 47.3619 92.1426 47.2281 88.8803H49.3688C49.4357 90.6779 51.1081 90.8776 51.9777 90.8776C52.5129 90.8776 54.7873 90.811 54.7873 89.2132C54.7873 88.4143 54.3191 88.0814 53.2487 87.8151L50.506 87.2159C49.0343 86.883 47.4288 86.0841 47.4288 83.887C47.4288 81.4237 49.7702 80.4916 52.0446 80.4916C52.9812 80.4916 54.4528 80.6913 55.4563 81.6234C56.1252 82.2226 56.3928 82.7552 56.5935 84.0868H54.4528C54.386 82.3558 52.5798 82.2892 51.9777 82.2892C51.5763 82.2892 49.5026 82.2892 49.5026 83.8204C49.5026 84.4862 49.904 85.0188 51.1081 85.2186L54.0515 85.8843C54.9211 86.0841 56.928 86.7498 56.928 88.9469C56.8611 91.1439 55.1218 92.6752 52.1115 92.6752Z" fill="white"/>
<path d="M16.9914 46.9368C18.1955 46.8702 19.801 46.271 19.5334 44.3403L18.6638 38.881C18.5969 38.4815 18.0617 34.5535 23.8816 32.8225L25.4871 35.1527C24.0823 35.9516 22.4099 37.0168 22.4099 38.9475C22.4099 39.2804 22.4768 39.6799 22.5437 39.813L23.3465 44.6066C23.4134 44.8063 23.4133 45.0061 23.4133 45.3389C23.4133 47.4028 21.9417 48.2017 21.1389 48.6678C22.0085 49.2004 23.4133 49.9993 23.4133 52.0632C23.4133 52.3295 23.3465 52.5958 23.3465 52.729L22.5437 57.5225C22.4768 57.7223 22.4099 58.0551 22.4099 58.4546C22.4099 60.4519 24.4168 61.5837 25.4871 62.1829L23.8816 64.5131C18.7307 63.0484 18.4631 59.7861 18.6638 58.4546L19.5334 52.9953C19.801 51.1977 18.2624 50.5319 16.9914 50.3988V46.9368Z" fill="black"/>
<path d="M24.0823 65.0457L23.7478 64.9791C17.7272 63.2481 18.0617 59.2535 18.1955 58.4546L19.0652 52.9953C19.1321 52.4627 19.0652 52.0632 18.7976 51.7303C18.3293 51.1311 17.3259 50.9314 16.9245 50.9314L16.5231 50.8648V46.5373H16.9245C17.3259 46.5373 18.2624 46.4042 18.7307 45.805C18.9983 45.4721 19.0652 45.0061 18.9983 44.4734L18.1286 39.0141C18.0617 38.5481 17.5266 34.2206 23.6809 32.4896L24.0154 32.423L26.0892 35.419L25.6878 35.6853C24.283 36.5508 22.8782 37.4829 22.8782 39.0807C22.8782 39.4136 22.9451 39.6799 22.9451 39.8796L23.7478 44.7397C23.8147 45.006 23.8147 45.2724 23.8147 45.5387C23.8147 47.3362 22.8113 48.3349 21.9417 48.8675C22.8113 49.4667 23.8147 50.4654 23.8147 52.2629C23.8147 52.5292 23.7478 52.8621 23.7478 53.0619L22.9451 57.8554C22.8782 58.0551 22.8113 58.388 22.8113 58.7209C22.8113 60.3853 24.4837 61.384 25.554 61.9832L26.0892 62.3161L24.0823 65.0457ZM17.4597 50.0659C18.3293 50.1991 19.1321 50.5985 19.5334 51.1977C19.9348 51.7303 20.1355 52.3961 20.0017 53.195L19.1321 58.5878C18.9983 59.2535 18.7976 62.4492 23.7478 63.9805L24.8851 62.3161C23.7478 61.6503 22.0086 60.4519 22.0086 58.4546C22.0086 57.9886 22.0754 57.6557 22.1423 57.4559L22.9451 52.6624C22.9451 52.5292 23.012 52.2629 23.012 52.0632C23.012 50.3988 22.0086 49.6664 20.9382 49.0672L20.2024 48.6678L20.9382 48.2683C22.0086 47.7357 23.012 47.0034 23.012 45.3389C23.012 45.0726 22.9451 44.8729 22.9451 44.7397L22.1423 39.9462C22.0754 39.7465 22.0086 39.4136 22.0086 38.9475C22.0086 36.9502 23.614 35.7518 24.8851 35.0195L23.7478 33.3551C18.7976 34.8863 19.0652 38.1486 19.1321 38.7478L20.0017 44.2071C20.1355 45.0061 19.9348 45.7384 19.5334 46.271C18.9983 46.9368 18.0617 47.2031 17.4597 47.3362V50.0659Z" fill="black"/>
<path d="M63.0823 50.4654C61.8782 50.5985 60.2727 51.1977 60.6072 53.0619L61.4768 58.5212C61.5437 58.9207 62.0789 62.8487 56.259 64.5797L54.5866 62.2495C55.9914 61.4506 57.6638 60.3853 57.6638 58.5212C57.6638 58.1883 57.5969 57.7888 57.5969 57.6557L56.7941 52.8621C56.7272 52.6624 56.7272 52.3961 56.7272 52.1298C56.7272 49.9993 58.1989 49.267 59.0017 48.8009C58.132 48.3349 56.7272 47.4694 56.7272 45.4055C56.7272 45.1392 56.7941 44.9395 56.7941 44.7397L57.5969 39.9462C57.6638 39.7465 57.6638 39.347 57.6638 39.0141C57.6638 37.0168 55.7238 35.885 54.5866 35.2858L56.259 32.9556C61.4099 34.4203 61.6775 37.6826 61.4768 39.0141L60.6072 44.4734C60.3396 46.3376 61.8782 46.9368 63.0823 47.0699V50.4654Z" fill="black"/>
<path d="M56.0583 65.0457L53.9176 62.0498L54.3859 61.7835C55.7907 60.9845 57.1955 60.0525 57.1955 58.4546C57.1955 58.1217 57.1955 57.7888 57.1286 57.6557L56.3259 52.7956C56.259 52.5958 56.259 52.2629 56.259 51.9966C56.259 50.1325 57.2624 49.2004 58.132 48.6678C57.3293 48.1352 56.259 47.1365 56.259 45.2724C56.259 44.9395 56.3259 44.6732 56.3259 44.54L57.1286 39.7465C57.1286 39.5467 57.1955 39.2139 57.1955 38.881C57.1955 37.15 55.3893 36.0847 54.3859 35.5521L53.9176 35.2858L56.0583 32.2898L56.3928 32.3564C62.4133 34.0874 62.0789 38.082 61.9451 38.881L61.0754 44.3403C61.0085 44.8729 61.0754 45.2724 61.343 45.6052C61.8113 46.2044 62.7478 46.3376 63.1492 46.4042L63.5506 46.4707V50.7983L63.1492 50.8648C62.7478 50.9314 61.8113 51.0646 61.343 51.6638C61.0754 51.9966 61.0085 52.3961 61.0754 52.9287L61.9451 58.388C62.012 58.8541 62.5471 63.1816 56.3928 64.9126L56.0583 65.0457ZM55.2555 62.3826L56.3928 64.0471C61.343 62.5158 61.0754 59.2535 61.0085 58.6543L60.1389 53.195C60.0051 52.3961 60.2058 51.7303 60.6072 51.1977C61.1423 50.5319 62.012 50.1991 62.6809 50.1325V47.4694C62.012 47.3362 61.2092 47.0699 60.6072 46.4042C60.2058 45.8716 60.0051 45.2058 60.1389 44.4069L61.0085 38.9475C61.1423 38.2818 61.343 35.0861 56.3928 33.5548L55.2555 35.2192C56.3928 35.885 58.0651 37.0834 58.0651 39.0807C58.0651 39.4802 57.9982 39.8796 57.9982 40.0794L57.1955 44.8729C57.1286 45.0061 57.1286 45.2058 57.1286 45.4721C57.1286 47.2031 58.1989 47.9354 59.2024 48.4681L59.9382 48.8675L59.2024 49.267C58.3327 49.733 57.1286 50.3988 57.1286 52.1964C57.1286 52.3961 57.1286 52.6624 57.1955 52.8621L57.9982 57.6557C58.0651 57.8554 58.0651 58.1883 58.0651 58.5878C58.0651 60.4519 56.4597 61.6503 55.2555 62.3826Z" fill="black"/>
<path d="M27.8954 59.7196V54.7929H32.7118V59.7196H27.8954Z" fill="black"/>
<path d="M37.1938 59.7196V54.7929H42.0103V59.7196H37.1938Z" fill="black"/>
<path d="M46.4254 59.7196V54.7929H51.2418V59.7196H46.4254Z" fill="black"/>
</svg>
