<svg width="214" height="136" viewBox="0 0 214 136" fill="none" xmlns="http://www.w3.org/2000/svg">
<path d="M212.067 136H135.806C134.803 136 134 135.201 134 134.202V39.6631C134 39.5299 134 39.3968 134.067 39.2636C134 39.1305 134 38.9973 134 38.7976C134 37.7989 134.803 37 135.806 37H198.286C198.888 37 199.491 37.3329 199.825 37.7989L213.605 58.4378C213.806 58.7707 213.94 59.1036 213.94 59.4364V134.202C213.94 135.201 213.07 136 212.067 136ZM137.679 132.338H210.261V59.9691L197.35 40.6617H137.679V132.338Z" fill="black"/>
<path d="M212.067 64.9623H193.269C192.734 64.9623 192.199 64.696 191.864 64.2966C191.53 63.8971 191.396 63.2979 191.463 62.7653L196.48 38.4647C196.681 37.4661 197.684 36.8669 198.621 37.0666C199.624 37.2663 200.226 38.265 200.026 39.1971L195.544 61.3006H212.067C213.07 61.3006 213.873 62.0995 213.873 63.0982C213.94 64.1634 213.07 64.9623 212.067 64.9623Z" fill="black"/>
<path d="M212.066 111.5H135.806V134.136H212.066V111.5Z" fill="black"/>
<path d="M161.829 129.675C158.083 129.675 156.41 126.879 156.41 123.75C156.41 120.754 157.949 117.625 162.029 117.625C165.307 117.625 166.712 119.756 166.846 121.553H164.638C164.17 119.423 162.364 119.423 162.096 119.423C160.29 119.423 158.685 120.821 158.685 123.684C158.685 126.347 160.089 127.811 161.896 127.811C162.631 127.811 163.367 127.545 163.969 126.946C164.504 126.48 164.571 126.08 164.705 125.415H166.779C166.578 127.412 165.173 129.675 161.829 129.675Z" fill="white"/>
<path d="M174.204 129.675C172.264 129.675 169.454 129.142 169.32 125.88H171.461C171.528 127.678 173.2 127.877 174.07 127.877C174.605 127.877 176.88 127.811 176.88 126.213C176.88 125.414 176.411 125.081 175.341 124.815L172.598 124.216C171.127 123.883 169.521 123.084 169.521 120.887C169.521 118.423 171.862 117.491 174.137 117.491C175.073 117.491 176.545 117.691 177.548 118.623C178.217 119.222 178.485 119.755 178.686 121.086H176.545C176.478 119.355 174.672 119.289 174.07 119.289C173.669 119.289 171.595 119.289 171.595 120.82C171.595 121.486 171.996 122.018 173.2 122.218L176.144 122.884C177.013 123.084 179.02 123.749 179.02 125.947C178.953 128.144 177.214 129.675 174.204 129.675Z" fill="white"/>
<path d="M186.112 129.675C184.172 129.675 181.362 129.142 181.229 125.88H183.369C183.436 127.678 185.109 127.877 185.978 127.877C186.513 127.877 188.788 127.811 188.788 126.213C188.788 125.414 188.32 125.081 187.249 124.815L184.506 124.216C183.035 123.883 181.429 123.084 181.429 120.887C181.429 118.423 183.771 117.491 186.045 117.491C186.982 117.491 188.453 117.691 189.457 118.623C190.126 119.222 190.393 119.755 190.594 121.086H188.453C188.386 119.355 186.58 119.289 185.978 119.289C185.577 119.289 183.503 119.289 183.503 120.82C183.503 121.486 183.904 122.018 185.109 122.218L188.052 122.884C188.922 123.084 190.928 123.749 190.928 125.947C190.862 128.144 189.122 129.675 186.112 129.675Z" fill="white"/>
<path d="M150.991 83.9366C152.195 83.87 153.801 83.2708 153.533 81.3401L152.664 75.8808C152.597 75.4813 152.062 71.5533 157.881 69.8223L159.487 72.1525C158.082 72.9514 156.41 74.0166 156.41 75.9473C156.41 76.2802 156.477 76.6797 156.544 76.8128L157.346 81.6064C157.413 81.8061 157.413 82.0059 157.413 82.3387C157.413 84.4026 155.942 85.2015 155.139 85.6676C156.008 86.2002 157.413 86.9991 157.413 89.063C157.413 89.3293 157.346 89.5956 157.346 89.7288L156.544 94.5223C156.477 94.7221 156.41 95.0549 156.41 95.4544C156.41 97.4517 158.417 98.5835 159.487 99.1827L157.881 101.513C152.731 100.048 152.463 96.7859 152.664 95.4544L153.533 89.9951C153.801 88.1975 152.262 87.5317 150.991 87.3986V83.9366Z" fill="black"/>
<path d="M158.083 102.046L157.748 101.979C151.728 100.248 152.062 96.2534 152.196 95.4545L153.066 89.9952C153.132 89.4626 153.066 89.0631 152.798 88.7302C152.33 88.131 151.326 87.9313 150.925 87.9313L150.523 87.8647V83.5372H150.925C151.326 83.5372 152.263 83.4041 152.731 82.8049C152.999 82.472 153.066 82.006 152.999 81.4733L152.129 76.014C152.062 75.548 151.527 71.2205 157.681 69.4895L158.016 69.4229L160.09 72.4188L159.688 72.6852C158.283 73.5507 156.879 74.4828 156.879 76.0806C156.879 76.4135 156.945 76.6798 156.945 76.8795L157.748 81.7396C157.815 82.0059 157.815 82.2723 157.815 82.5386C157.815 84.3361 156.812 85.3348 155.942 85.8674C156.812 86.4666 157.815 87.4653 157.815 89.2628C157.815 89.5291 157.748 89.862 157.748 90.0618L156.945 94.8553C156.879 95.055 156.812 95.3879 156.812 95.7208C156.812 97.3852 158.484 98.3839 159.554 98.9831L160.09 99.316L158.083 102.046ZM151.46 87.0658C152.33 87.199 153.132 87.5984 153.534 88.1976C153.935 88.7302 154.136 89.396 154.002 90.1949L153.132 95.5877C152.999 96.2534 152.798 99.4491 157.748 100.98L158.885 99.316C157.748 98.6502 156.009 97.4518 156.009 95.4545C156.009 94.9885 156.076 94.6555 156.143 94.4557L156.945 89.6623C156.945 89.5291 157.012 89.2628 157.012 89.0631C157.012 87.3987 156.009 86.6663 154.939 86.0671L154.203 85.6677L154.939 85.2682C156.009 84.7356 157.012 84.0033 157.012 82.3388C157.012 82.0725 156.945 81.8728 156.945 81.7396L156.143 76.9461C156.076 76.7464 156.009 76.4134 156.009 75.9473C156.009 73.95 157.614 72.7517 158.885 72.0194L157.748 70.3549C152.798 71.8862 153.066 75.1485 153.132 75.7477L154.002 81.207C154.136 82.006 153.935 82.7383 153.534 83.2709C152.999 83.9367 152.062 84.203 151.46 84.3361V87.0658Z" fill="black"/>
<path d="M197.083 87.4659C195.879 87.599 194.273 88.1982 194.608 90.0624L195.477 95.5217C195.544 95.9212 196.079 99.8492 190.259 101.58L188.587 99.25C189.992 98.4511 191.664 97.3858 191.664 95.5217C191.664 95.1888 191.597 94.7893 191.597 94.6562L190.794 89.8626C190.728 89.6629 190.728 89.3966 190.728 89.1303C190.728 86.9998 192.199 86.2675 193.002 85.8014C192.132 85.3354 190.728 84.4699 190.728 82.406C190.728 82.1397 190.794 81.94 190.794 81.7402L191.597 76.9467C191.664 76.747 191.664 76.3475 191.664 76.0146C191.664 74.0173 189.724 72.8855 188.587 72.2863L190.259 69.9561C195.41 71.4208 195.678 74.6831 195.477 76.0146L194.608 81.4739C194.34 83.3381 195.879 83.9373 197.083 84.0704V87.4659Z" fill="black"/>
<path d="M190.059 102.046L187.918 99.05L188.386 98.7837C189.791 97.9847 191.196 97.0527 191.196 95.4548C191.196 95.1219 191.196 94.789 191.129 94.6559L190.326 89.7958C190.259 89.596 190.259 89.2631 190.259 88.9968C190.259 87.1327 191.263 86.2006 192.132 85.668C191.33 85.1354 190.259 84.1367 190.259 82.2726C190.259 81.9397 190.326 81.6734 190.326 81.5402L191.129 76.7467C191.129 76.5469 191.196 76.2141 191.196 75.8812C191.196 74.1502 189.39 73.0849 188.386 72.5523L187.918 72.286L190.059 69.29L190.393 69.3566C196.414 71.0876 196.079 75.0822 195.945 75.8812L195.076 81.3405C195.009 81.8731 195.076 82.2726 195.343 82.6054C195.812 83.2046 196.748 83.3378 197.15 83.4044L197.551 83.4709V87.7985L197.15 87.865C196.748 87.9316 195.812 88.0648 195.343 88.664C195.076 88.9968 195.009 89.3963 195.076 89.9289L195.945 95.3882C196.012 95.8543 196.547 100.182 190.393 101.913L190.059 102.046ZM189.256 99.3828L190.393 101.047C195.343 99.516 195.076 96.2537 195.009 95.6545L194.139 90.1952C194.005 89.3963 194.206 88.7305 194.608 88.1979C195.143 87.5321 196.012 87.1993 196.681 87.1327V84.4696C196.012 84.3364 195.21 84.0701 194.608 83.4044C194.206 82.8718 194.005 82.206 194.139 81.4071L195.009 75.9477C195.143 75.282 195.343 72.0863 190.393 70.555L189.256 72.2194C190.393 72.8852 192.065 74.0836 192.065 76.0809C192.065 76.4804 191.999 76.8798 191.999 77.0796L191.196 81.8731C191.129 82.0063 191.129 82.206 191.129 82.4723C191.129 84.2033 192.199 84.9356 193.203 85.4683L193.939 85.8677L193.203 86.2672C192.333 86.7332 191.129 87.399 191.129 89.1966C191.129 89.3963 191.129 89.6626 191.196 89.8623L191.999 94.6559C192.065 94.8556 192.065 95.1885 192.065 95.588C192.065 97.4521 190.46 98.6505 189.256 99.3828Z" fill="black"/>
<path d="M161.896 96.7197V91.793H166.712V96.7197H161.896Z" fill="black"/>
<path d="M171.193 96.7197V91.793H176.01V96.7197H171.193Z" fill="black"/>
<path d="M180.426 96.7197V91.793H185.242V96.7197H180.426Z" fill="black"/>
<path d="M76.1724 97.0322H1.76234C0.783262 97.0322 0 96.249 0 95.2699V2.58369C0 2.45315 -5.97537e-06 2.32261 0.065266 2.19206C0.065266 2.06152 0 1.93097 0 1.80043C0 0.821349 0.783262 0.0380859 1.76234 0.0380859H62.7264C63.3138 0.0380859 63.9013 0.364445 64.2276 0.821349L77.6736 21.0557C77.8695 21.382 78 21.7084 78 22.0347V95.2699C77.9347 96.249 77.1515 97.0322 76.1724 97.0322ZM3.52468 93.4423H74.3448V22.4917L61.7473 3.56277H3.52468V93.4423Z" fill="black"/>
<path d="M76.1728 27.3865H57.8314C57.3092 27.3865 56.787 27.1254 56.4607 26.7338C56.1343 26.3421 56.0038 25.7547 56.069 25.2325L60.9644 1.40823C61.1602 0.42915 62.1393 -0.158297 63.0531 0.0375186C64.0322 0.233335 64.6196 1.21241 64.4238 2.12622L59.9853 23.7965H76.1075C77.0866 23.7965 77.8699 24.5798 77.8699 25.5589C77.9351 26.6032 77.1519 27.3865 76.1728 27.3865Z" fill="black"/>
<path d="M76.1728 73.0117H1.7627V95.2041H76.1728V73.0117Z" fill="black"/>
<path d="M34.9203 89.8513C34.0718 90.6999 32.9621 90.8304 32.1136 90.8304C29.7638 90.8304 28.5889 89.4597 28.5889 87.4363V86.2614H30.6776V87.4363C30.6776 88.807 31.722 88.9375 32.2441 88.9375C33.2232 88.9375 33.8107 88.5459 33.8107 87.0446V79.2773H35.8994V87.1752C35.8341 88.1543 35.6383 89.1334 34.9203 89.8513Z" fill="white"/>
<path d="M43.2756 90.8305C41.3827 90.8305 38.6413 90.3083 38.5107 87.11H40.5994C40.6647 88.8723 42.2965 89.0681 43.145 89.0681C43.6672 89.0681 45.8865 89.0028 45.8865 87.4363C45.8865 86.653 45.4296 86.3267 44.3852 86.0656L41.7091 85.4782C40.2731 85.1518 38.7065 84.3685 38.7065 82.2146C38.7065 79.7995 40.9911 78.8857 43.2103 78.8857C44.1241 78.8857 45.5601 79.0815 46.5392 79.9953C47.1919 80.5828 47.453 81.1049 47.6488 82.4104H45.5601C45.4948 80.7133 43.7325 80.648 43.145 80.648C42.7534 80.648 40.73 80.648 40.73 82.1493C40.73 82.802 41.1216 83.3242 42.2965 83.52L45.1685 84.1727C46.017 84.3685 47.9752 85.0213 47.9752 87.1752C47.9099 89.3292 46.2128 90.8305 43.2756 90.8305Z" fill="white"/>
<path d="M17.623 46.903C18.7979 46.8378 20.3644 46.2503 20.1033 44.3574L19.2548 39.0051C19.1895 38.6135 18.6674 34.7625 24.346 33.0654L25.9126 35.3499C24.5418 36.1332 22.91 37.1775 22.91 39.0704C22.91 39.3968 22.9753 39.7884 23.0406 39.9189L23.8238 44.6185C23.8891 44.8143 23.8891 45.0102 23.8891 45.3365C23.8891 47.3599 22.4531 48.1432 21.6699 48.6001C22.5184 49.1223 23.8891 49.9056 23.8891 51.929C23.8891 52.1901 23.8238 52.4512 23.8238 52.5817L23.0406 57.2813C22.9753 57.4771 22.91 57.8035 22.91 58.1951C22.91 60.1532 24.8682 61.2629 25.9126 61.8503L24.346 64.1348C19.3201 62.6989 19.059 59.5005 19.2548 58.1951L20.1033 52.8428C20.3644 51.0804 18.8632 50.4277 17.623 50.2972V46.903Z" fill="black"/>
<path d="M24.5417 64.657L24.2154 64.5918C18.3409 62.8947 18.6673 58.9784 18.7978 58.1951L19.6463 52.8428C19.7116 52.3206 19.6463 51.929 19.3853 51.6027C18.9284 51.0152 17.9493 50.8194 17.5576 50.8194L17.166 50.7541V46.5114H17.5576C17.9493 46.5114 18.8631 46.3809 19.32 45.7934C19.5811 45.4671 19.6463 45.0102 19.5811 44.488L18.7325 39.1357C18.6673 38.6788 18.1451 34.4361 24.1501 32.7391L24.4765 32.6738L26.4999 35.611L26.1083 35.8721C24.7376 36.7206 23.3668 37.6345 23.3668 39.201C23.3668 39.5273 23.4321 39.7884 23.4321 39.9842L24.2154 44.7491C24.2806 45.0102 24.2807 45.2713 24.2807 45.5324C24.2807 47.2947 23.3016 48.2738 22.453 48.796C23.3016 49.3834 24.2807 50.3625 24.2807 52.1248C24.2807 52.3859 24.2154 52.7123 24.2154 52.9081L23.4321 57.6077C23.3668 57.8035 23.3016 58.1299 23.3016 58.4562C23.3016 60.088 24.9334 61.0671 25.9777 61.6545L26.4999 61.9809L24.5417 64.657ZM18.0798 49.9056C18.9284 50.0361 19.7116 50.4278 20.1032 51.0152C20.4949 51.5374 20.6907 52.1901 20.5602 52.9734L19.7116 58.3257C19.5811 58.9784 19.3853 62.1114 24.2154 63.6127L25.325 61.9809C24.2154 61.3282 22.5183 60.1533 22.5183 58.1951C22.5183 57.7382 22.5836 57.4119 22.6489 57.216L23.4321 52.5165C23.4321 52.3859 23.4974 52.1248 23.4974 51.929C23.4974 50.2972 22.5183 49.5792 21.474 48.9918L20.756 48.6001L21.474 48.2085C22.5183 47.6863 23.4974 46.9683 23.4974 45.3365C23.4974 45.0755 23.4321 44.8796 23.4321 44.7491L22.6489 39.9842C22.5836 39.7884 22.5183 39.4621 22.5183 39.0052C22.5183 37.047 24.0848 35.8721 25.325 35.1541L24.2154 33.5223C19.3853 35.0236 19.6463 38.2219 19.7116 38.8093L20.5602 44.1616C20.6907 44.9449 20.4949 45.6629 20.1032 46.1851C19.5811 46.8378 18.6673 47.0989 18.0798 47.2294V49.9056Z" fill="black"/>
<path d="M41.7738 40.6367V45.4668H37.0742V40.6367H41.7738ZM41.7738 54.6049V59.174C41.7738 59.8267 41.7085 63.6777 37.0742 64.1346V61.7848C39.424 61.6543 39.6198 60.153 39.685 59.435H37.0742V54.6049H41.7738Z" fill="black"/>
<path d="M36.6172 64.6567V61.3931H37.0741C38.6406 61.3278 39.0322 60.6098 39.1628 59.9571H36.6172V54.1479H42.2305V59.1086C42.2305 60.2835 41.8389 64.004 37.1393 64.5261L36.6172 64.6567ZM37.4657 62.1763V63.6123C40.7946 63.0249 41.3167 60.6098 41.3167 59.1738V55.0617H37.4657V58.978H40.0766L40.0113 59.5002C40.0113 60.1529 39.8155 61.9153 37.4657 62.1763ZM42.2305 45.9236H36.6172V40.1797H42.2305V45.9236ZM37.4657 45.0098H41.3167V41.0935H37.4657V45.0098Z" fill="black"/>
<path d="M61.1596 50.2974C59.9847 50.4279 58.4182 51.0154 58.7446 52.843L59.5931 58.1953C59.6584 58.5869 60.1806 62.438 54.5019 64.1351L52.8701 61.8505C54.2408 61.0673 55.8726 60.0229 55.8726 58.1953C55.8726 57.8689 55.8073 57.4773 55.8073 57.3468L55.0241 52.6472C54.9588 52.4514 54.9588 52.1903 54.9588 51.9292C54.9588 49.8405 56.3948 49.1225 57.1781 48.6656C56.3295 48.2087 54.9588 47.3602 54.9588 45.3367C54.9588 45.0756 55.0241 44.8798 55.0241 44.684L55.8073 39.9844C55.8726 39.7886 55.8726 39.397 55.8726 39.0706C55.8726 37.1125 53.9797 36.0028 52.8701 35.4154L54.5019 33.1309C59.5278 34.5669 59.7889 37.7652 59.5931 39.0706L58.7446 44.4229C58.4835 46.2505 59.9847 46.838 61.1596 46.9685V50.2974Z" fill="black"/>
<path d="M54.241 64.6568L52.1523 61.7195L52.6092 61.4584C53.9799 60.6752 55.3506 59.7614 55.3506 58.1948C55.3506 57.8685 55.3506 57.5421 55.2853 57.4116L54.5021 52.6467C54.4368 52.4509 54.4368 52.1246 54.4368 51.8635C54.4368 50.0359 55.4159 49.122 56.2644 48.5999C55.4811 48.0777 54.4368 47.0986 54.4368 45.271C54.4368 44.9446 54.5021 44.6836 54.5021 44.553L55.2853 39.8534C55.2853 39.6576 55.3506 39.3313 55.3506 39.0049C55.3506 37.3078 53.5883 36.2635 52.6092 35.7413L52.1523 35.4802L54.241 32.543L54.5673 32.6082C60.4418 34.3053 60.1155 38.2216 59.9849 39.0049L59.1364 44.3572C59.0711 44.8794 59.1364 45.271 59.3975 45.5974C59.8544 46.1848 60.7682 46.3154 61.1598 46.3806L61.5514 46.4459V50.6886L61.1598 50.7538C60.7682 50.8191 59.8544 50.9497 59.3975 51.5371C59.1364 51.8635 59.0711 52.2551 59.1364 52.7773L59.9849 58.1296C60.0502 58.5865 60.5724 62.8292 54.5673 64.5262L54.241 64.6568ZM53.523 61.9806L54.6326 63.6124C59.4627 62.1112 59.2017 58.9128 59.1364 58.3254L58.2878 52.9731C58.1573 52.1898 58.3531 51.5371 58.7448 51.0149C59.2669 50.3622 60.1155 50.0359 60.7682 49.9706V47.3597C60.1155 47.2292 59.3322 46.9681 58.7448 46.3154C58.3531 45.7932 58.1573 45.1405 58.2878 44.3572L59.1364 39.0049C59.2669 38.3522 59.4627 35.2191 54.6326 33.7179L53.523 35.3497C54.6326 36.0024 56.2644 37.1773 56.2644 39.1354C56.2644 39.5271 56.1992 39.9187 56.1992 40.1145L55.4159 44.8141C55.3506 44.9446 55.3506 45.1405 55.3506 45.4015C55.3506 47.0986 56.395 47.8166 57.374 48.3388L58.092 48.7304L57.374 49.122C56.5255 49.579 55.3506 50.2317 55.3506 51.994C55.3506 52.1898 55.3506 52.4509 55.4159 52.6467L56.1992 57.3463C56.2644 57.5421 56.2644 57.8685 56.2644 58.2601C56.2644 60.153 54.6979 61.2626 53.523 61.9806Z" fill="black"/>
<path d="M91.564 97.522L101.071 87.8423L91.6216 78.1914L95.0498 74.6479L104.528 84.2988L114.006 74.6479L117.434 78.1914L107.985 87.8423L117.492 97.522L114.063 101.065L104.528 91.3569L94.9922 101.065L91.564 97.522Z" fill="black"/>
</svg>
