<svg width="215" height="139" viewBox="0 0 215 139" fill="none" xmlns="http://www.w3.org/2000/svg">
<rect x="4" y="4" width="207" height="131" rx="16" stroke="black" stroke-width="8"/>
<path d="M15 51H197.5" stroke="black" stroke-width="6"/>
<circle cx="29" cy="30" r="5" fill="black"/>
<circle cx="43" cy="30" r="5" fill="black"/>
<circle cx="57" cy="30" r="5" fill="black"/>
<path d="M95.7727 73.2719C100.151 71.2358 102.027 70.3631 107.109 66C111.409 69.9995 113.056 70.1725 118.055 73.2719C122.745 76.1806 125.482 76.9078 129 77.635V102.359C124.961 106.844 114.145 115.667 109.455 117.994C106.64 118.285 92.9061 107.935 86 102.359V77.635C87.1727 77.029 91.3945 75.308 95.7727 73.2719Z" fill="#C3B68F"/>
<path d="M98.5091 92.1788L103.982 97.2691L116.882 85.9977M107.109 66C102.027 70.3631 100.151 71.2358 95.7727 73.2719C91.3945 75.308 87.1727 77.029 86 77.635V102.359C92.9061 107.935 106.64 118.285 109.455 117.994C114.145 115.667 124.961 106.844 129 102.359V77.635C125.482 76.9078 122.745 76.1806 118.055 73.2719C113.056 70.1725 111.409 69.9995 107.109 66Z" stroke="black" stroke-width="5" stroke-linejoin="round"/>
</svg>
