<?xml version="1.0" encoding="UTF-8"?> <svg xmlns="http://www.w3.org/2000/svg" width="608" height="326" viewBox="0 0 608 326" fill="none"><path d="M261.959 190.779H26.7286C12.3268 190.779 0.325195 178.777 0.325195 164.375V26.5939C0.325195 12.1917 12.3268 0.189819 26.7286 0.189819H261.959C276.361 0.189819 288.363 12.1917 288.363 26.5939V164.375C288.363 178.777 276.361 190.779 261.959 190.779ZM26.7286 11.2315C18.0875 11.2315 11.3666 17.9525 11.3666 26.5939V164.375C11.3666 173.016 18.0875 179.737 26.7286 179.737H261.959C270.6 179.737 277.321 173.016 277.321 164.375V26.5939C277.321 17.9525 270.6 11.2315 261.959 11.2315H26.7286Z" fill="black"></path><path d="M318.609 68.3603C317.169 68.3603 316.209 66.92 316.209 65.4798C316.209 65.4798 316.209 64.5197 316.689 62.1194C317.169 60.6791 318.129 59.719 319.569 60.1991C321.01 60.6792 321.49 62.1194 321.49 63.5596C321.01 64.9998 321.01 65.9599 321.01 65.9599C321.01 67.4001 320.049 68.3603 318.609 68.3603Z" fill="black"></path><path d="M325.814 51.5578C325.334 51.5578 324.853 51.5578 324.373 51.0777C323.413 50.1176 323.413 48.1972 324.373 47.2371C325.334 45.7969 326.774 44.3567 328.214 42.9165C329.174 41.9563 330.614 41.9563 331.574 43.3966C332.534 44.3567 332.054 46.2769 331.094 47.2371C330.134 48.1972 328.694 49.6375 327.734 50.5977C327.254 51.0777 326.774 51.5578 325.814 51.5578Z" fill="black"></path><path d="M428.063 74.6013C427.103 74.6013 426.143 74.1211 425.663 72.6809C425.183 71.2407 424.703 69.3204 423.743 67.8802C423.263 66.44 423.743 64.9997 424.703 64.0396C425.663 63.5595 427.103 64.0396 428.063 64.9998C429.023 66.9201 429.503 68.3603 429.984 70.2806C430.464 71.7208 429.984 73.161 428.543 74.1212C429.023 74.6012 428.543 74.6013 428.063 74.6013ZM417.982 56.3585C417.502 56.3585 416.542 55.8784 416.542 55.3983C415.582 54.4382 414.141 52.9979 413.181 52.0377C412.221 51.0776 411.741 49.1574 412.701 48.1972C413.661 46.757 415.102 46.757 416.062 47.7171C417.502 49.1573 418.462 50.1175 419.902 51.5577C420.862 52.5179 420.862 54.4382 419.902 55.3983C418.942 55.8784 418.462 56.3585 417.982 56.3585ZM402.14 44.3566C401.66 44.3566 401.66 44.3566 401.18 44.3566C399.74 43.8765 398.299 42.9164 396.859 42.4363C395.419 41.9562 394.939 40.516 395.419 39.0758C395.899 37.6356 397.339 36.6754 398.299 37.1555C399.74 37.6356 401.66 38.5957 403.1 39.0758C404.54 39.5559 405.02 41.4762 404.54 42.9164C404.06 43.8765 403.1 44.3566 402.14 44.3566ZM341.652 40.0359C340.692 40.0359 339.732 39.0758 339.252 38.1157C338.772 36.6754 339.732 35.2352 340.692 34.7552C342.132 34.2751 343.572 33.795 345.493 33.3149C346.933 32.8348 347.893 33.795 348.373 35.2352C348.853 36.6754 347.893 38.1157 346.453 38.5958C345.012 39.0758 343.572 39.5558 342.132 40.0359C342.132 40.0359 342.132 40.0359 341.652 40.0359ZM383.898 38.1157C382.937 38.1157 381.977 37.6355 381.497 37.6355L379.097 37.1555C377.657 37.1555 376.697 35.7153 377.177 34.275C377.177 32.8348 378.617 31.8747 380.057 31.8747L382.457 32.3548C383.417 32.3548 383.898 32.8348 384.858 32.8348C386.298 33.3149 387.258 34.7552 386.778 36.1954C386.298 37.1555 385.338 38.1157 383.898 38.1157ZM360.374 36.1954C358.934 36.1954 357.974 35.2352 357.974 33.3149C357.974 31.8747 358.934 30.4344 360.374 30.4344C361.335 30.4344 362.295 30.4344 363.735 30.4344H365.175C366.615 30.4344 367.575 31.8747 367.575 33.3149C367.575 34.7551 366.615 36.1954 365.175 36.1954H363.735C362.295 36.1954 361.335 36.1954 360.374 36.1954Z" fill="black"></path><path d="M431.902 93.324C430.462 93.324 429.502 92.3639 429.502 90.9237C429.502 89.9635 429.502 89.0034 429.502 88.0432C429.502 86.603 430.462 85.1628 431.422 85.1628C432.862 85.1628 433.822 86.123 434.303 87.5632C434.303 88.5233 434.303 89.4834 434.303 90.4436C434.303 91.8838 433.342 93.324 431.902 93.324Z" fill="black"></path><path d="M416.064 84.2028L429.506 116.848L447.268 86.6031L416.064 84.2028Z" fill="black"></path><path d="M581.2 325.2H345.97C331.568 325.2 319.566 313.198 319.566 298.796V161.015C319.566 146.612 331.568 134.61 345.97 134.61H581.2C595.602 134.61 607.604 146.612 607.604 161.015V298.796C607.604 313.678 595.602 325.2 581.2 325.2ZM345.97 146.132C337.329 146.132 330.608 152.853 330.608 161.495V299.276C330.608 307.917 337.329 314.638 345.97 314.638H581.2C589.842 314.638 596.562 307.917 596.562 299.276V161.495C596.562 152.853 589.842 146.132 581.2 146.132H345.97Z" fill="black"></path><path d="M168.828 77.9618C167.388 75.5614 164.988 74.6013 162.108 74.6013C159.707 74.6013 156.827 76.0415 155.387 77.9618L130.423 115.888L116.502 100.045C115.061 98.1248 112.661 97.1647 110.261 97.6448C107.86 97.6448 105.46 99.085 104.5 101.005L81.457 136.531H207.233L168.828 77.9618Z" fill="#4C4B4C"></path><path d="M116.023 85.6429C124.664 85.6429 131.865 78.4419 131.865 69.8006C131.865 61.1592 124.664 53.9581 116.023 53.9581C107.382 53.9581 100.181 61.1592 100.181 69.8006C100.661 78.922 107.382 85.6429 116.023 85.6429Z" fill="#4C4B4C"></path><path d="M491.371 213.004C489.931 210.603 487.531 209.643 484.65 209.643C482.25 209.643 479.37 211.083 477.93 213.004L452.966 250.929L439.045 235.087C437.604 233.167 435.204 232.206 432.804 232.687C430.403 232.687 428.003 234.127 427.043 236.047L404 271.572H529.776L491.371 213.004Z" fill="#CECECE"></path><path d="M438.566 220.685C447.207 220.685 454.408 213.484 454.408 204.842C454.408 196.201 447.207 189 438.566 189C429.925 189 422.724 196.201 422.724 204.842C423.204 213.964 429.925 220.685 438.566 220.685Z" fill="#CECECE"></path></svg> 