<svg width="78" height="98" viewBox="0 0 78 98" fill="none" xmlns="http://www.w3.org/2000/svg">
<path d="M76.1724 97.0317H1.76234C0.783262 97.0317 0 96.2485 0 95.2694V2.5832C0 2.45266 -5.9768e-06 2.32212 0.065266 2.19157C0.065266 2.06103 0 1.93048 0 1.79994C0 0.820861 0.783262 0.0375977 1.76234 0.0375977H62.7264C63.3138 0.0375977 63.9013 0.363957 64.2276 0.820861L77.6736 21.0552C77.8695 21.3815 78 21.7079 78 22.0342V95.2694C77.9347 96.2485 77.1515 97.0317 76.1724 97.0317ZM3.52468 93.4418H74.3448V22.4912L61.7473 3.56228H3.52468V93.4418Z" fill="black"/>
<path d="M76.1724 27.3865H57.831C57.3088 27.3865 56.7866 27.1254 56.4603 26.7338C56.1339 26.3421 56.0034 25.7547 56.0686 25.2325L60.964 1.40823C61.1598 0.42915 62.1389 -0.158297 63.0527 0.0375187C64.0318 0.233335 64.6192 1.21241 64.4234 2.12622L59.9849 23.7965H76.1071C77.0862 23.7965 77.8695 24.5798 77.8695 25.5589C77.9347 26.6032 77.1515 27.3865 76.1724 27.3865Z" fill="black"/>
<path d="M76.1724 73.0115H1.76233V95.2039H76.1724V73.0115Z" fill="black"/>
<path d="M34.9205 89.8516C34.072 90.7002 32.9623 90.8307 32.1138 90.8307C29.764 90.8307 28.5891 89.46 28.5891 87.4366V86.2617H30.6778V87.4366C30.6778 88.8073 31.7222 88.9378 32.2443 88.9378C33.2234 88.9378 33.8109 88.5462 33.8109 87.0449V79.2776H35.8996V87.1755C35.8343 88.1546 35.6385 89.1337 34.9205 89.8516Z" fill="white"/>
<path d="M43.2753 90.8308C41.3824 90.8308 38.641 90.3086 38.5104 87.1103H40.5991C40.6644 88.8726 42.2962 89.0684 43.1447 89.0684C43.6669 89.0684 45.8862 89.0031 45.8862 87.4366C45.8862 86.6533 45.4293 86.327 44.3849 86.0659L41.7088 85.4785C40.2728 85.1521 38.7062 84.3688 38.7062 82.2149C38.7062 79.7998 40.9908 78.886 43.21 78.886C44.1238 78.886 45.5598 79.0818 46.5389 79.9956C47.1916 80.5831 47.4527 81.1052 47.6485 82.4107H45.5598C45.4945 80.7136 43.7322 80.6483 43.1447 80.6483C42.7531 80.6483 40.7297 80.6483 40.7297 82.1496C40.7297 82.8023 41.1213 83.3245 42.2962 83.5203L45.1682 84.173C46.0167 84.3688 47.9749 85.0216 47.9749 87.1755C47.9096 89.3295 46.2125 90.8308 43.2753 90.8308Z" fill="white"/>
<path d="M17.6234 46.9028C18.7983 46.8376 20.3648 46.2501 20.1037 44.3572L19.2552 39.0049C19.1899 38.6133 18.6678 34.7623 24.3464 33.0652L25.913 35.3497C24.5422 36.133 22.9104 37.1773 22.9104 39.0702C22.9104 39.3966 22.9757 39.7882 23.041 39.9187L23.8242 44.6183C23.8895 44.8141 23.8895 45.01 23.8895 45.3363C23.8895 47.3597 22.4535 48.143 21.6703 48.5999C22.5188 49.1221 23.8895 49.9054 23.8895 51.9288C23.8895 52.1899 23.8242 52.451 23.8242 52.5815L23.041 57.2811C22.9757 57.4769 22.9104 57.8033 22.9104 58.1949C22.9104 60.153 24.8686 61.2627 25.913 61.8501L24.3464 64.1346C19.3205 62.6987 19.0594 59.5003 19.2552 58.1949L20.1037 52.8426C20.3648 51.0802 18.8636 50.4275 17.6234 50.297V46.9028Z" fill="black"/>
<path d="M24.5422 64.6568L24.2159 64.5916C18.3414 62.8945 18.6678 58.9782 18.7983 58.1949L19.6468 52.8426C19.7121 52.3204 19.6468 51.9288 19.3858 51.6025C18.9289 51.015 17.9498 50.8192 17.5581 50.8192L17.1665 50.7539V46.5112H17.5581C17.9498 46.5112 18.8636 46.3807 19.3205 45.7932C19.5816 45.4669 19.6468 45.01 19.5816 44.4878L18.733 39.1355C18.6678 38.6786 18.1456 34.4359 24.1506 32.7389L24.477 32.6736L26.5004 35.6108L26.1088 35.8719C24.7381 36.7204 23.3673 37.6343 23.3673 39.2008C23.3673 39.5271 23.4326 39.7882 23.4326 39.984L24.2159 44.7489C24.2811 45.01 24.2812 45.2711 24.2812 45.5322C24.2812 47.2945 23.3021 48.2736 22.4535 48.7958C23.3021 49.3832 24.2812 50.3623 24.2812 52.1246C24.2812 52.3857 24.2159 52.7121 24.2159 52.9079L23.4326 57.6075C23.3673 57.8033 23.3021 58.1297 23.3021 58.456C23.3021 60.0878 24.9339 61.0669 25.9782 61.6543L26.5004 61.9807L24.5422 64.6568ZM18.0803 49.9054C18.9289 50.0359 19.7121 50.4276 20.1037 51.015C20.4954 51.5372 20.6912 52.1899 20.5607 52.9732L19.7121 58.3255C19.5816 58.9782 19.3858 62.1112 24.2159 63.6125L25.3255 61.9807C24.2159 61.328 22.5188 60.1531 22.5188 58.1949C22.5188 57.738 22.5841 57.4117 22.6494 57.2158L23.4326 52.5163C23.4326 52.3857 23.4979 52.1246 23.4979 51.9288C23.4979 50.297 22.5188 49.579 21.4745 48.9916L20.7565 48.5999L21.4745 48.2083C22.5188 47.6861 23.4979 46.9681 23.4979 45.3363C23.4979 45.0753 23.4326 44.8794 23.4326 44.7489L22.6494 39.984C22.5841 39.7882 22.5188 39.4619 22.5188 39.005C22.5188 37.0468 24.0853 35.8719 25.3255 35.1539L24.2159 33.5221C19.3858 35.0234 19.6468 38.2217 19.7121 38.8091L20.5607 44.1614C20.6912 44.9447 20.4954 45.6627 20.1037 46.1849C19.5816 46.8376 18.6678 47.0987 18.0803 47.2292V49.9054Z" fill="black"/>
<path d="M41.7741 40.6367V45.4668H37.0745V40.6367H41.7741ZM41.7741 54.6049V59.174C41.7741 59.8267 41.7088 63.6777 37.0745 64.1346V61.7848C39.4243 61.6543 39.6201 60.153 39.6853 59.435H37.0745V54.6049H41.7741Z" fill="black"/>
<path d="M36.6176 64.6567V61.3931H37.0745C38.641 61.3278 39.0326 60.6098 39.1632 59.9571H36.6176V54.1479H42.2309V59.1086C42.2309 60.2835 41.8393 64.004 37.1397 64.5261L36.6176 64.6567ZM37.4661 62.1763V63.6123C40.795 63.0249 41.3171 60.6098 41.3171 59.1738V55.0617H37.4661V58.978H40.077L40.0117 59.5002C40.0117 60.1529 39.8159 61.9153 37.4661 62.1763ZM42.2309 45.9236H36.6176V40.1797H42.2309V45.9236ZM37.4661 45.0098H41.3171V41.0935H37.4661V45.0098Z" fill="black"/>
<path d="M61.1598 50.2969C59.9849 50.4274 58.4184 51.0149 58.7448 52.8425L59.5933 58.1948C59.6586 58.5864 60.1808 62.4375 54.5021 64.1346L52.8703 61.85C54.241 61.0668 55.8728 60.0224 55.8728 58.1948C55.8728 57.8684 55.8075 57.4768 55.8075 57.3463L55.0243 52.6467C54.959 52.4509 54.959 52.1898 54.959 51.9287C54.959 49.84 56.395 49.122 57.1783 48.6651C56.3297 48.2082 54.959 47.3597 54.959 45.3362C54.959 45.0751 55.0243 44.8793 55.0243 44.6835L55.8075 39.9839C55.8728 39.7881 55.8728 39.3965 55.8728 39.0701C55.8728 37.112 53.9799 36.0023 52.8703 35.4149L54.5021 33.1304C59.528 34.5664 59.7891 37.7647 59.5933 39.0701L58.7448 44.4224C58.4837 46.25 59.9849 46.8375 61.1598 46.968V50.2969Z" fill="black"/>
<path d="M54.241 64.6568L52.1523 61.7195L52.6092 61.4584C53.9799 60.6752 55.3506 59.7614 55.3506 58.1948C55.3506 57.8685 55.3506 57.5421 55.2853 57.4116L54.5021 52.6467C54.4368 52.4509 54.4368 52.1246 54.4368 51.8635C54.4368 50.0359 55.4159 49.122 56.2644 48.5999C55.4811 48.0777 54.4368 47.0986 54.4368 45.271C54.4368 44.9446 54.5021 44.6836 54.5021 44.553L55.2853 39.8534C55.2853 39.6576 55.3506 39.3313 55.3506 39.0049C55.3506 37.3078 53.5883 36.2635 52.6092 35.7413L52.1523 35.4802L54.241 32.543L54.5673 32.6082C60.4418 34.3053 60.1155 38.2216 59.9849 39.0049L59.1364 44.3572C59.0711 44.8794 59.1364 45.271 59.3975 45.5974C59.8544 46.1848 60.7682 46.3154 61.1598 46.3806L61.5514 46.4459V50.6886L61.1598 50.7538C60.7682 50.8191 59.8544 50.9497 59.3975 51.5371C59.1364 51.8635 59.0711 52.2551 59.1364 52.7773L59.9849 58.1296C60.0502 58.5865 60.5724 62.8292 54.5673 64.5262L54.241 64.6568ZM53.523 61.9806L54.6326 63.6124C59.4627 62.1112 59.2017 58.9128 59.1364 58.3254L58.2878 52.9731C58.1573 52.1898 58.3531 51.5371 58.7448 51.0149C59.2669 50.3622 60.1155 50.0359 60.7682 49.9706V47.3597C60.1155 47.2292 59.3322 46.9681 58.7448 46.3154C58.3531 45.7932 58.1573 45.1405 58.2878 44.3572L59.1364 39.0049C59.2669 38.3522 59.4627 35.2191 54.6326 33.7179L53.523 35.3497C54.6326 36.0024 56.2644 37.1773 56.2644 39.1354C56.2644 39.5271 56.1992 39.9187 56.1992 40.1145L55.4159 44.8141C55.3506 44.9446 55.3506 45.1405 55.3506 45.4015C55.3506 47.0986 56.395 47.8166 57.374 48.3388L58.092 48.7304L57.374 49.122C56.5255 49.579 55.3506 50.2317 55.3506 51.994C55.3506 52.1898 55.3506 52.4509 55.4159 52.6467L56.1992 57.3463C56.2644 57.5421 56.2644 57.8685 56.2644 58.2601C56.2644 60.153 54.6979 61.2626 53.523 61.9806Z" fill="black"/>
</svg>
