<?xml version="1.0" encoding="UTF-8"?> <svg xmlns="http://www.w3.org/2000/svg" width="253" height="207" viewBox="0 0 253 207" fill="none"><path d="M227.318 206.872H224.249C222.407 206.872 221.179 205.644 221.179 203.802C221.179 201.961 222.407 200.733 224.249 200.733H227.318C228.853 200.733 230.388 201.961 230.388 203.802C230.388 205.337 229.16 206.872 227.625 206.872H227.318ZM208.595 206.872H205.525C203.684 206.872 202.456 205.644 202.456 203.802C202.456 201.961 203.684 200.733 205.525 200.733H208.595C210.437 200.733 211.664 201.961 211.664 203.802C211.664 205.644 210.437 206.872 208.595 206.872ZM190.178 206.872H187.109C185.267 206.872 184.04 205.644 184.04 203.802C184.04 201.961 185.267 200.733 187.109 200.733H190.178C192.02 200.733 193.248 201.961 193.248 203.802C193.248 205.644 191.713 206.872 190.178 206.872ZM171.455 206.872H168.385C166.544 206.872 165.316 205.644 165.316 203.802C165.316 201.961 166.544 200.733 168.385 200.733H171.455C173.297 200.733 174.524 201.961 174.524 203.802C174.524 205.644 173.297 206.872 171.455 206.872ZM153.038 206.872H149.969C148.127 206.872 146.9 205.644 146.9 203.802C146.9 201.961 148.127 200.733 149.969 200.733H153.038C154.88 200.733 156.108 201.961 156.108 203.802C156.108 205.644 154.573 206.872 153.038 206.872ZM134.315 206.872H131.246C129.404 206.872 128.176 205.644 128.176 203.802C128.176 201.961 129.404 200.733 131.246 200.733H134.315C136.157 200.733 137.384 201.961 137.384 203.802C137.384 205.644 136.157 206.872 134.315 206.872ZM115.899 206.872H112.829C110.988 206.872 109.76 205.644 109.76 203.802C109.76 201.961 110.988 200.733 112.829 200.733H115.899C117.74 200.733 118.968 201.961 118.968 203.802C118.968 205.644 117.433 206.872 115.899 206.872ZM97.175 206.872H94.1056C92.264 206.872 91.0362 205.644 91.0362 203.802C91.0362 201.961 92.264 200.733 94.1056 200.733H97.175C99.0167 200.733 100.244 201.961 100.244 203.802C100.244 205.644 99.0167 206.872 97.175 206.872ZM78.7586 206.872H75.6891C73.8475 206.872 72.6197 205.644 72.6197 203.802C72.6197 201.961 73.8475 200.733 75.6891 200.733H78.7586C80.6002 200.733 81.828 201.961 81.828 203.802C81.828 205.644 80.2933 206.872 78.7586 206.872ZM60.0352 206.872H56.9658C55.1241 206.872 53.8964 205.644 53.8964 203.802C53.8964 201.961 55.1241 200.733 56.9658 200.733H60.0352C61.8769 200.733 63.1046 201.961 63.1046 203.802C63.1046 205.644 61.8769 206.872 60.0352 206.872ZM41.6187 206.872H38.5493C36.7077 206.872 35.4799 205.644 35.4799 203.802C35.4799 201.961 36.7077 200.733 38.5493 200.733H41.6187C43.4604 200.733 44.6881 201.961 44.6881 203.802C44.6881 205.644 43.4604 206.872 41.6187 206.872ZM23.2022 206.872C22.8953 206.872 22.8953 206.872 23.2022 206.872C21.6675 206.872 20.4397 206.565 19.5189 206.258C17.9842 205.951 16.7564 204.109 17.3703 202.575C17.6772 201.04 19.5189 199.812 21.0536 200.426C21.9744 200.733 22.8953 200.733 23.8162 200.733C25.3509 201.04 26.8855 202.268 26.5785 204.109C25.9646 205.644 24.7369 206.872 23.2022 206.872ZM241.745 201.654C240.824 201.654 239.903 201.347 239.289 200.733C238.061 199.505 238.368 197.663 239.596 196.436C240.21 195.822 240.824 195.208 241.437 194.594C242.665 193.366 244.507 193.059 245.735 194.287C246.962 195.515 247.269 197.357 246.042 198.584C245.121 199.505 244.507 200.426 243.586 201.04C242.972 201.347 242.358 201.654 241.745 201.654ZM7.54831 197.97C6.62748 197.97 5.70651 197.663 5.09263 196.743C4.47874 195.822 3.86494 194.901 3.25105 193.673C2.33023 192.138 2.94419 190.297 4.47889 189.376C6.0136 188.455 7.85514 189.069 8.77596 190.604C9.0829 191.525 9.69679 192.138 10.3107 192.752C11.2315 193.98 10.9245 196.129 9.69675 197.05C8.77592 197.663 8.16219 197.97 7.54831 197.97ZM249.111 185.386C247.269 185.386 246.042 183.851 246.042 182.316V179.247C246.042 177.405 247.269 176.177 249.111 176.177C250.953 176.177 252.18 177.405 252.18 179.247V182.009V182.316C252.18 183.851 250.953 185.386 249.111 185.386ZM3.25105 180.168C1.40941 180.168 0.181641 178.94 0.181641 177.098V174.029C0.181641 172.187 1.40941 170.959 3.25105 170.959C5.0927 170.959 6.32047 172.187 6.32047 174.029V177.098C6.32047 178.94 4.78576 180.168 3.25105 180.168ZM249.111 166.662C247.269 166.662 246.042 165.434 246.042 163.592V160.523C246.042 158.681 247.269 157.454 249.111 157.454C250.953 157.454 252.18 158.681 252.18 160.523V163.592C252.18 165.434 250.953 166.662 249.111 166.662ZM3.25105 161.751C1.40941 161.751 0.181641 160.523 0.181641 158.681V155.612C0.181641 153.77 1.40941 152.542 3.25105 152.542C5.0927 152.542 6.32047 153.77 6.32047 155.612V158.681C6.32047 160.216 4.78576 161.751 3.25105 161.751ZM249.111 148.245C247.269 148.245 246.042 147.017 246.042 145.176V142.106C246.042 140.265 247.269 139.037 249.111 139.037C250.953 139.037 252.18 140.265 252.18 142.106V145.176C252.18 146.71 250.953 148.245 249.111 148.245ZM3.25105 143.027C1.40941 143.027 0.181641 141.799 0.181641 139.958V136.888C0.181641 135.046 1.40941 133.819 3.25105 133.819C5.0927 133.819 6.32047 135.046 6.32047 136.888V139.958C6.32047 141.799 4.78576 143.027 3.25105 143.027ZM249.111 129.521C247.269 129.521 246.042 128.294 246.042 126.452V123.383C246.042 121.541 247.269 120.313 249.111 120.313C250.953 120.313 252.18 121.541 252.18 123.383V126.452C252.18 128.294 250.953 129.521 249.111 129.521ZM3.25105 124.61C1.40941 124.61 0.181641 123.383 0.181641 121.541V118.471C0.181641 116.63 1.40941 115.402 3.25105 115.402C5.0927 115.402 6.32047 116.63 6.32047 118.471V121.541C6.32047 123.076 4.78576 124.61 3.25105 124.61ZM249.111 111.105C247.269 111.105 246.042 109.877 246.042 108.035V104.966C246.042 103.124 247.269 101.896 249.111 101.896C250.953 101.896 252.18 103.124 252.18 104.966V108.035C252.18 109.57 250.953 111.105 249.111 111.105ZM3.25105 105.887C1.40941 105.887 0.181641 104.659 0.181641 102.817V99.7477C0.181641 97.906 1.40941 96.6782 3.25105 96.6782C5.0927 96.6782 6.32047 97.906 6.32047 99.7477V102.817C6.32047 104.659 4.78576 105.887 3.25105 105.887ZM249.111 92.381C247.269 92.381 246.042 91.1532 246.042 89.3115V86.242C246.042 84.4004 247.269 83.1726 249.111 83.1726C250.953 83.1726 252.18 84.4004 252.18 86.242V89.3115C252.18 91.1532 250.953 92.381 249.111 92.381ZM3.25105 87.4698C1.40941 87.4698 0.181641 86.242 0.181641 84.4004V81.3309C0.181641 79.4892 1.40941 78.2614 3.25105 78.2614C5.0927 78.2614 6.32047 79.4892 6.32047 81.3309V84.4004C6.32047 86.242 4.78576 87.4698 3.25105 87.4698ZM249.111 73.9642C247.269 73.9642 246.042 72.7364 246.042 70.8947V67.8253C246.042 65.9836 247.269 64.7558 249.111 64.7558C250.953 64.7558 252.18 65.9836 252.18 67.8253V70.8947C252.18 72.4295 250.953 73.9642 249.111 73.9642ZM3.25105 69.0531C1.40941 69.0531 0.181641 67.8253 0.181641 65.9836V62.9141C0.181641 61.0725 1.71635 59.8447 3.25105 59.8447C5.0927 59.8447 6.32047 61.3794 6.32047 62.9141V65.9836C6.32047 67.5183 4.78576 69.0531 3.25105 69.0531ZM246.656 55.8544C245.428 55.8544 244.507 55.2405 243.893 54.3197C243.586 53.3988 242.972 52.7849 242.358 52.171C241.438 50.9432 241.744 48.7946 242.972 47.8738C244.2 46.9529 246.349 47.2599 247.269 48.4877C247.883 49.4085 248.497 50.3294 249.111 51.5571C250.032 53.0919 249.418 54.9335 247.883 55.8544C247.576 55.5474 246.962 55.8544 246.656 55.8544ZM8.77596 51.5571C8.16208 51.5571 7.24122 51.2502 6.62733 50.9432C5.39957 49.7155 5.0927 47.8738 6.32047 46.646C7.24129 45.7252 7.85514 44.8043 8.77596 44.1904C10.0037 42.9627 12.1524 43.2696 13.0732 44.4974C14.301 45.7252 13.9939 47.8738 12.7662 48.7946C12.1523 49.4085 11.5385 50.0224 10.9246 50.6363C10.3107 51.2502 9.69679 51.5571 8.77596 51.5571ZM232.229 44.8043C231.922 44.8043 231.616 44.8043 231.616 44.8043C230.695 44.4974 229.774 44.4974 228.853 44.4974C227.318 44.1904 225.783 42.9627 226.09 41.121C226.09 39.2793 227.625 38.3585 229.467 38.3585C230.695 38.3585 231.922 38.6654 232.843 38.9724C234.378 39.2793 235.606 41.121 234.992 42.6557C234.992 43.8835 233.764 44.8043 232.229 44.8043ZM213.813 44.1904H210.743C208.902 44.1904 207.674 42.9627 207.674 41.121C207.674 39.2793 208.902 38.0515 210.743 38.0515H213.813C215.654 38.0515 216.882 39.2793 216.882 41.121C216.882 42.9627 215.347 44.1904 213.813 44.1904ZM195.089 44.1904H192.02C190.178 44.1904 188.951 42.9627 188.951 41.121C188.951 39.2793 190.178 38.0515 192.02 38.0515H195.089C196.931 38.0515 198.159 39.2793 198.159 41.121C198.159 42.9627 196.931 44.1904 195.089 44.1904ZM176.673 44.1904H173.604C171.762 44.1904 170.534 42.9627 170.534 41.121C170.534 39.2793 171.762 38.0515 173.604 38.0515H176.673C178.515 38.0515 179.742 39.2793 179.742 41.121C179.742 42.9627 178.515 44.1904 176.673 44.1904ZM158.256 44.1904H155.187C153.345 44.1904 152.118 42.9627 152.118 41.121C152.118 39.2793 153.345 38.0515 155.187 38.0515H158.256C160.098 38.0515 161.326 39.2793 161.326 41.121C161.326 42.9627 159.791 44.1904 158.256 44.1904ZM139.533 44.1904H136.464C134.622 44.1904 133.394 42.9627 133.394 41.121C133.394 39.2793 134.622 38.0515 136.464 38.0515H139.533C141.375 38.0515 142.603 39.2793 142.603 41.121C142.603 42.9627 141.375 44.1904 139.533 44.1904ZM121.117 44.1904H118.047C116.206 44.1904 114.978 42.9627 114.978 41.121C114.978 39.2793 116.206 38.0515 118.047 38.0515H121.117C122.958 38.0515 124.186 39.2793 124.186 41.121C124.186 42.9627 122.651 44.1904 121.117 44.1904ZM102.393 44.1904H99.3237C97.482 44.1904 96.2543 42.9627 96.2543 41.121C96.2543 39.2793 97.482 38.0515 99.3237 38.0515H102.393C104.235 38.0515 105.462 39.2793 105.462 41.121C105.462 42.9627 104.235 44.1904 102.393 44.1904ZM83.9766 44.1904H80.9072C79.0655 44.1904 77.8378 42.9627 77.8378 41.121C77.8378 39.2793 79.0655 38.0515 80.9072 38.0515H83.9766C85.8182 38.0515 87.046 39.2793 87.046 41.121C87.046 42.9627 85.5113 44.1904 83.9766 44.1904ZM65.2532 44.1904H62.1838C60.3422 44.1904 59.1144 42.9627 59.1144 41.121C59.1144 39.2793 60.3422 38.0515 62.1838 38.0515H65.2532C67.0949 38.0515 68.3227 39.2793 68.3227 41.121C68.3227 42.9627 67.0949 44.1904 65.2532 44.1904ZM46.8368 44.1904H43.7674C41.9257 44.1904 40.6979 42.9627 40.6979 41.121C40.6979 39.2793 41.9257 38.0515 43.7674 38.0515H46.8368C48.6784 38.0515 49.9062 39.2793 49.9062 41.121C49.9062 42.9627 48.3715 44.1904 46.8368 44.1904ZM28.1132 44.1904H25.0438C23.2022 44.1904 21.9744 42.9627 21.9744 41.121C21.9744 39.2793 23.2023 38.0515 25.3509 38.0515H28.1132C29.9549 38.0515 31.1826 39.2793 31.1826 41.121C31.1826 42.9627 29.9549 44.1904 28.1132 44.1904Z" fill="black"></path><path d="M128.791 84.4004C129.711 84.4004 130.325 85.0143 130.325 85.9351V185.386C130.325 186.306 129.711 186.92 128.791 186.92C127.87 186.92 127.256 186.306 127.256 185.386V85.9351C127.256 85.0143 127.87 84.4004 128.791 84.4004Z" fill="black"></path><path d="M128.79 188.455C126.949 188.455 125.721 187.227 125.721 185.386V85.9352C125.721 84.0935 126.949 82.8657 128.79 82.8657C130.632 82.8657 131.86 84.0935 131.86 85.9352V185.386C131.86 186.92 130.632 188.455 128.79 188.455ZM128.79 84.4005V85.9352V84.4005Z" fill="black"></path><path d="M141.067 96.0645L138.918 97.9061L128.789 87.163L118.66 97.9061L116.512 96.0645L128.789 82.5588L141.067 96.0645Z" fill="black"></path><path d="M138.919 100.055L128.79 89.3116L118.967 100.055L114.363 96.0644L128.79 80.4102L143.216 96.0644L138.919 100.055Z" fill="black"></path><path d="M226.704 163.899H24.7366C12.4589 163.899 2.63672 154.077 2.63672 141.799V23.0113C2.63672 10.7334 12.4589 0.911133 24.7366 0.911133H226.704C238.982 0.911133 248.804 10.7334 248.804 23.0113V141.799C248.804 154.077 238.982 163.899 226.704 163.899ZM24.7366 10.4265C17.6769 10.4265 11.845 16.2584 11.845 23.3182V142.106C11.845 149.166 17.6769 154.998 24.7366 154.998H226.704C233.764 154.998 239.596 149.166 239.596 142.106V23.0113C239.596 15.9515 233.764 10.1195 226.704 10.1195H24.7366V10.4265Z" fill="black"></path></svg> 