<?xml version="1.0" encoding="UTF-8"?> <svg xmlns="http://www.w3.org/2000/svg" width="545" height="377" viewBox="0 0 545 377" fill="none"><path d="M3.79523 343.624C3.03726 343.624 2.2793 343.624 2.2793 342.107C2.2793 340.59 3.79523 340.59 3.79523 340.59H52.305C53.0629 340.59 53.8209 340.59 53.8209 342.107C53.8209 343.624 52.305 343.624 52.305 343.624H31.082C31.082 351.21 29.566 359.554 24.2603 365.622C19.7125 370.932 12.8908 373.208 12.1328 373.208C10.6169 373.208 10.6169 371.691 10.6169 370.932C10.6169 370.174 10.6169 370.174 12.8908 368.656C26.5342 363.347 27.2921 351.968 27.2921 343.624H3.79523V343.624ZM44.7253 323.902C45.4833 323.902 46.2412 323.902 46.2412 325.419C46.2412 326.936 44.7253 326.936 44.7253 326.936H10.6169C9.85894 326.936 9.10098 326.936 9.10098 325.419C9.10098 323.902 9.85894 323.902 10.6169 323.902H44.7253Z" fill="black"></path><path d="M12.1274 374.725C9.85354 374.725 8.33761 372.449 8.33761 370.932C8.33761 368.656 9.85354 367.898 12.1274 367.139C23.4969 362.588 25.7708 354.244 25.7708 345.141H3.78982C1.51593 345.141 0 343.624 0 341.348C0 339.831 0.757965 337.556 3.78982 337.556H52.2996C54.5735 337.556 56.0894 339.073 56.0894 341.348C56.0894 343.624 54.5735 345.141 52.2996 345.141H33.3504C33.3504 352.727 31.8345 360.312 25.7708 366.38C20.465 371.69 13.6434 374.725 12.1274 374.725ZM28.0447 341.348C28.0447 342.107 28.8027 342.107 28.0447 341.348C28.8027 342.107 29.5606 342.865 29.5606 342.865C29.5606 343.624 29.5606 344.382 29.5606 345.141C29.5606 344.382 29.5606 343.624 29.5606 342.107C29.5606 341.348 30.3186 340.59 31.0765 340.59L28.0447 341.348ZM44.7199 329.211H10.6115C7.57965 329.211 6.82168 326.936 6.82168 325.419C6.82168 323.143 8.33761 321.626 10.6115 321.626H44.7199C47.7518 321.626 48.5097 323.143 48.5097 325.419C48.5097 327.694 47.7518 329.211 44.7199 329.211Z" fill="black"></path><path d="M92.4707 323.142C91.7128 320.867 93.9867 320.867 93.9867 320.867C94.7446 320.867 95.5026 321.625 95.5026 322.384L97.0185 332.245L114.452 329.211C115.21 329.211 116.726 329.211 116.726 330.728C116.726 331.486 115.968 332.245 115.21 332.245L98.5345 336.038L100.808 348.175L121.273 345.14C123.547 345.14 123.547 346.657 123.547 346.657C123.547 348.175 122.789 348.175 122.031 348.175L101.566 351.209L105.356 370.173C106.114 372.448 103.84 372.448 103.082 372.448C101.566 372.448 101.566 371.69 101.566 370.931L97.7765 351.209L74.2796 355.002C72.7637 355.002 72.7637 353.484 72.7637 353.484C72.7637 351.967 73.5216 351.967 74.2796 351.967L97.7765 348.175L95.5026 336.038L78.0694 339.072C75.7955 339.072 75.7955 337.555 75.7955 337.555C75.7955 336.038 76.5535 336.038 77.3115 336.038L94.7446 333.004L92.4707 323.142Z" fill="black"></path><path d="M103.079 374.724C101.563 374.724 100.047 373.966 99.2891 371.69L96.2573 354.243L74.2763 358.036C72.7604 358.036 72.0024 358.036 71.2444 357.278C70.4865 356.519 69.7285 355.76 69.7285 354.243C69.7285 352.726 70.4865 351.209 72.7604 351.209L94.7413 347.416L93.2254 339.072L78.0661 341.348C76.5502 341.348 75.7922 341.348 75.0343 340.589C74.2763 339.831 73.5183 339.072 73.5183 337.555C73.5183 335.28 75.0343 334.521 76.5502 333.762L92.4675 331.487L90.9515 323.901C90.9515 322.384 90.9515 321.626 91.7095 320.867C92.4675 319.35 94.7413 319.35 94.7413 319.35C95.4993 319.35 97.7732 319.35 98.5312 322.384L100.047 330.728L115.206 328.453C115.964 328.453 117.48 328.453 118.238 329.211C118.996 329.97 119.754 330.728 119.754 332.245C119.754 334.521 118.238 335.28 116.722 336.038L101.563 338.314L103.079 346.658L122.028 343.624C123.544 343.624 124.302 343.624 125.06 344.382C125.818 345.141 126.576 345.899 126.576 347.416C126.576 348.933 125.06 350.451 123.544 351.209L105.353 354.243L108.385 371.69C108.385 373.207 108.385 373.966 107.627 374.724C105.353 374.724 104.595 374.724 103.079 374.724ZM98.5312 350.451C99.2891 350.451 99.2891 351.209 100.047 351.209V350.451C100.047 350.451 100.047 350.451 100.805 349.692C100.047 349.692 100.047 348.933 99.2891 348.933C99.2891 348.933 99.2891 349.692 98.5312 350.451C98.5312 350.451 98.5312 349.692 98.5312 350.451ZM95.4993 334.521C96.2573 334.521 96.2573 335.28 97.0152 335.28V334.521C97.0152 334.521 97.0152 334.521 97.7732 333.762C97.0152 333.762 97.0152 333.004 96.2573 333.004C96.2573 333.762 96.2573 333.762 95.4993 334.521Z" fill="black"></path><path d="M148.561 328.453C147.803 328.453 147.046 328.453 147.046 326.936C147.046 325.419 148.561 325.419 148.561 325.419H178.88C181.154 325.419 184.186 325.419 184.186 329.211C184.186 333.004 178.88 342.865 174.332 348.934C177.364 351.209 184.944 358.036 192.523 366.38C193.281 367.898 194.039 367.898 194.039 368.656C194.039 369.415 193.281 370.932 191.765 370.932C191.007 370.932 190.25 370.173 189.492 369.415C181.912 360.312 175.848 355.002 172.058 351.968C160.689 365.622 146.288 371.69 145.53 371.69C144.014 371.69 144.014 370.932 144.014 369.415C144.014 368.656 144.014 368.656 146.288 367.139C173.574 353.485 180.396 330.729 180.396 329.97C180.396 329.211 179.638 328.453 178.122 328.453H148.561V328.453Z" fill="black"></path><path d="M145.524 373.207C143.25 373.207 141.734 371.69 141.734 369.414C141.734 367.139 143.25 366.38 144.766 365.622C169.021 354.243 176.601 334.521 177.359 329.97H148.556C145.524 329.97 144.766 328.453 144.766 326.177C144.766 325.418 144.766 322.384 148.556 322.384H178.875C181.149 322.384 186.454 322.384 186.454 328.453C186.454 333.004 181.149 342.107 177.359 348.175C181.149 351.209 187.97 357.278 194.034 364.863C194.792 366.38 195.55 367.139 195.55 367.897C195.55 370.173 194.034 371.69 191.76 371.69C189.486 371.69 188.728 370.173 187.97 369.414C181.906 361.829 176.601 356.519 172.811 353.485C160.683 367.897 147.04 373.207 145.524 373.207ZM187.212 364.105C187.97 365.622 189.486 366.38 190.244 367.897L191.002 368.656L190.244 367.897C189.486 366.38 188.728 364.863 187.212 364.105ZM172.811 348.934C172.811 349.692 172.053 349.692 172.053 350.451C172.053 350.451 172.053 350.451 172.811 350.451H173.569C172.811 349.692 172.053 348.934 172.811 348.934ZM180.391 326.936C181.149 326.936 182.664 328.453 182.664 329.97C182.664 329.97 181.906 332.245 180.391 336.038C181.906 333.004 182.664 330.728 182.664 329.211C182.664 327.694 181.906 326.936 180.391 326.936Z" fill="black"></path><path d="M232.704 372.449C232.704 373.208 232.704 373.966 231.188 373.966C229.672 373.966 228.914 373.208 228.914 372.449V322.385C228.914 321.626 228.914 320.868 230.43 320.868C231.946 320.868 232.704 321.626 232.704 322.385V338.314C246.347 344.383 252.411 348.934 258.475 352.727C259.991 354.244 260.749 354.244 260.749 355.002C260.749 355.761 259.991 357.278 259.233 357.278C258.475 357.278 258.475 357.278 255.443 355.002C247.863 349.693 239.526 345.141 233.462 342.107V372.449H232.704Z" fill="black"></path><path d="M230.425 375.483C228.909 375.483 226.635 375.483 226.635 371.69V321.626C226.635 319.35 228.151 317.833 230.425 317.833C232.698 317.833 234.214 319.35 234.214 321.626V336.797C246.342 342.107 253.164 346.658 258.469 350.451L259.227 351.209C260.743 351.968 262.259 353.485 262.259 355.002C262.259 357.278 260.743 358.795 258.469 358.795C256.953 358.795 256.195 358.036 253.922 356.519C247.1 351.209 239.52 347.417 234.972 345.141V371.69C234.214 374.725 232.698 375.483 230.425 375.483ZM230.425 371.69V342.107C230.425 341.348 230.425 340.59 231.183 340.59H231.941H231.183C230.425 340.59 229.667 339.831 229.667 339.073V323.143L230.425 371.69ZM252.406 351.209C253.164 351.968 254.679 352.727 255.437 353.485C256.953 355.002 257.711 355.761 258.469 355.761C258.469 355.761 257.711 355.002 256.953 355.002L256.195 354.244C254.679 353.485 253.922 351.968 252.406 351.209Z" fill="black"></path><path d="M298.642 335.28C299.4 335.28 299.4 335.28 298.642 335.28C300.158 331.487 300.916 327.694 300.916 323.901C300.916 321.626 300.916 320.867 303.189 320.867C303.947 320.867 305.463 321.626 305.463 322.384C305.463 323.143 304.705 327.694 303.189 334.521C303.947 334.521 304.705 334.521 306.221 334.521C319.107 334.521 319.865 342.107 319.865 349.692C319.865 368.656 314.559 371.69 306.979 371.69C300.916 371.69 300.916 370.173 300.916 369.414C300.916 368.656 301.674 367.897 302.432 367.897H303.947C305.463 367.897 306.221 367.897 306.979 367.897C312.285 367.897 316.075 366.38 316.075 348.934C316.075 342.107 315.317 336.797 306.221 336.797C304.705 336.797 303.19 336.797 302.432 336.797C298.642 353.485 294.094 362.587 290.304 368.656C288.788 370.932 288.788 371.69 288.03 371.69C288.03 371.69 285.756 371.69 285.756 370.173C285.756 369.414 285.756 369.414 287.272 367.139C291.82 359.553 295.61 348.934 298.642 338.314C296.368 338.314 285.756 340.589 284.998 340.589C284.24 340.589 283.482 339.831 283.482 339.072C283.482 337.555 284.24 337.555 286.514 337.555L298.642 335.28ZM328.202 337.555C332.75 344.382 334.266 351.209 334.266 352.726C334.266 354.243 333.508 354.243 331.992 354.243C330.476 354.243 330.476 353.485 330.476 351.209C328.96 344.382 325.17 337.555 319.865 332.245C317.591 329.97 317.591 329.97 317.591 329.211C317.591 328.453 318.349 327.694 319.107 327.694C321.381 329.211 325.928 334.521 328.202 337.555ZM333.508 330.728C333.508 331.487 332.75 332.245 331.234 332.245C330.476 332.245 330.476 332.245 327.444 328.453C326.686 327.694 324.412 325.418 322.897 323.901C322.139 323.143 322.139 323.143 322.139 322.384C322.139 321.626 322.897 320.867 323.655 320.867C326.686 320.867 333.508 329.97 333.508 330.728ZM340.33 325.418C340.33 326.177 339.572 326.936 338.056 326.936C337.298 326.936 337.298 326.936 334.266 323.143C333.508 322.384 331.234 320.109 329.718 318.591C328.96 317.833 328.96 317.833 328.96 317.074C328.96 316.316 329.718 315.557 330.476 315.557C333.508 316.316 340.33 324.66 340.33 325.418Z" fill="black"></path><path d="M306.223 373.966C303.95 373.966 297.886 373.966 297.886 369.415C297.886 367.139 299.402 365.622 300.918 365.622C301.676 365.622 302.434 365.622 303.192 365.622C303.95 365.622 305.466 365.622 306.223 365.622C310.013 365.622 313.803 365.622 313.803 348.934C313.803 342.107 313.045 339.073 306.223 339.073C305.466 339.073 304.708 339.073 303.95 339.073C300.918 351.968 297.128 361.829 291.822 370.173C291.064 371.69 290.306 373.207 288.032 373.207C286.516 373.207 284.242 372.449 284.242 369.415C284.242 367.898 284.243 367.898 285.758 365.622C289.548 358.795 293.338 349.692 296.37 339.831C294.854 339.831 292.58 340.59 291.064 340.59C285.758 341.348 285.758 341.348 285.758 341.348C283.485 341.348 282.727 339.831 282.727 337.555C282.727 334.521 285 334.521 288.032 333.763L299.402 332.246C300.16 329.211 300.918 326.177 300.918 322.384C300.918 320.867 301.676 317.833 304.708 317.833C306.981 317.833 308.497 319.35 308.497 321.626C308.497 322.384 307.739 326.936 306.981 331.487C322.141 331.487 322.141 342.107 322.141 348.934C320.625 367.139 316.835 373.966 306.223 373.966ZM299.402 336.797C299.402 336.797 300.16 336.797 299.402 336.797C300.16 337.555 300.16 337.555 299.402 336.797C300.16 337.555 300.16 337.555 299.402 336.797C300.16 336.797 300.918 336.038 301.676 336.038C301.676 336.038 301.676 336.038 301.676 335.28C300.918 336.038 300.16 336.797 299.402 336.797ZM303.192 322.384C303.192 322.384 303.192 323.143 303.192 322.384V322.384ZM331.994 356.519C328.962 356.519 328.962 354.244 328.204 351.968C326.689 345.141 323.657 339.073 318.351 333.763C316.077 331.487 315.319 330.729 315.319 329.97C315.319 328.453 316.835 326.936 319.109 326.936C322.899 326.936 328.204 335.28 328.962 336.797C333.51 343.624 335.026 351.209 335.026 352.727C335.784 355.002 334.268 356.519 331.994 356.519ZM331.994 334.521C330.478 334.521 329.72 333.763 327.446 330.729L326.689 329.97C325.931 329.211 323.657 326.936 322.899 325.419C322.141 324.66 321.383 323.902 321.383 323.143C321.383 321.626 322.899 319.35 325.173 319.35C328.204 319.35 335.784 329.211 335.784 330.729C335.784 332.246 333.51 334.521 331.994 334.521ZM338.816 329.211C337.3 329.211 336.542 328.453 333.51 324.66C332.752 323.902 330.478 321.626 329.72 320.109C328.962 319.35 328.962 318.592 328.962 317.833C328.962 315.558 330.478 314.04 332.752 314.04C335.784 314.04 343.364 323.143 343.364 325.419C342.606 327.694 340.332 329.211 338.816 329.211Z" fill="black"></path><path d="M353.2 336.038C354.715 336.038 359.263 339.072 360.779 340.589C363.053 342.107 363.053 342.107 363.053 342.865C363.053 343.624 362.295 345.141 361.537 345.141C360.779 345.141 360.779 345.141 358.505 343.624C356.989 341.348 356.231 341.348 353.2 339.072C351.684 338.314 351.684 338.314 351.684 336.797C351.684 336.797 352.442 336.038 353.2 336.038ZM366.085 352.726C366.085 354.243 360.779 364.863 356.989 371.69C355.473 373.966 354.715 374.724 353.957 374.724C353.2 374.724 351.684 373.966 351.684 372.449C351.684 371.69 351.684 371.69 352.442 370.931C357.747 363.346 360.021 358.036 362.295 351.968C363.053 350.451 363.053 350.451 363.811 350.451C364.569 351.209 366.085 351.209 366.085 352.726ZM356.231 320.109C357.747 320.109 363.811 324.66 364.569 324.66C366.843 326.177 366.843 326.935 366.843 326.935C366.843 327.694 366.085 329.211 365.327 329.211C364.569 329.211 364.569 329.211 362.295 327.694C360.021 326.177 359.263 325.418 356.231 323.901C355.473 323.901 355.473 323.143 355.473 322.384C354.715 320.867 355.473 320.109 356.231 320.109ZM377.454 348.933C377.454 361.829 374.423 367.139 372.149 370.173C370.633 372.449 367.601 375.483 366.085 375.483C365.327 375.483 364.569 374.724 364.569 373.966C364.569 373.207 365.327 373.207 365.327 372.449C372.907 367.139 373.665 359.553 374.423 349.692C374.423 348.933 374.423 347.416 375.938 347.416C377.454 346.658 377.454 348.175 377.454 348.933ZM369.875 327.694C369.117 327.694 368.359 327.694 368.359 326.177C368.359 324.66 369.875 324.66 369.875 324.66H385.792V320.867C385.792 320.109 385.792 319.35 387.308 319.35C388.824 319.35 388.824 320.109 388.824 320.867V324.66H405.499C406.257 324.66 407.015 324.66 407.015 326.177C407.015 327.694 405.499 327.694 405.499 327.694H384.276C382.002 333.004 379.728 336.797 378.212 339.072C385.034 339.072 393.372 338.314 399.435 337.555C397.919 336.038 397.919 336.038 394.13 333.004C394.13 333.004 394.13 333.004 394.13 332.245C394.13 331.487 394.888 330.728 395.646 330.728C396.404 330.728 398.677 333.004 399.435 333.762C400.951 335.28 407.015 342.107 407.015 343.624C407.015 344.382 406.257 345.141 405.499 345.141C404.741 345.141 404.741 344.382 403.983 344.382C402.467 342.107 402.467 342.107 401.709 340.589C396.404 341.348 374.423 342.107 369.875 342.107C369.117 342.107 368.359 342.107 368.359 340.589C368.359 339.831 368.359 339.831 369.117 339.072C369.117 339.072 369.875 339.072 374.423 339.072C375.938 336.038 378.97 331.487 380.486 326.935H369.875V327.694ZM388.066 372.449C388.066 373.207 388.066 373.966 386.55 373.966C385.034 373.966 385.034 372.449 385.034 372.449V348.933C385.034 348.175 385.034 347.416 386.55 347.416C388.066 347.416 388.066 348.175 388.066 348.933V372.449ZM398.677 370.173C398.677 371.69 399.435 371.69 400.951 371.69C403.225 371.69 403.983 371.69 403.983 366.38C403.983 362.587 403.983 362.587 405.499 362.587C406.257 362.587 407.015 362.587 407.015 364.105C407.015 366.38 407.015 371.69 405.499 373.207C403.983 374.724 400.193 374.724 398.677 374.724C395.646 373.966 395.646 371.69 395.646 370.173V348.933C395.646 348.175 395.646 347.416 397.162 347.416C398.677 347.416 398.677 348.175 398.677 348.933V370.173V370.173Z" fill="black"></path><path d="M366.091 377C363.817 377 362.301 375.483 362.301 373.207C362.301 371.69 363.817 370.173 363.817 370.173C369.881 365.622 371.397 358.795 371.397 348.934C371.397 345.141 373.671 345.141 375.187 345.141C375.945 345.141 378.976 345.141 378.976 348.934C378.976 363.346 375.187 367.897 372.913 370.932C373.671 371.69 369.123 377 366.091 377ZM400.957 376.241C400.199 376.241 398.684 376.241 398.684 376.241C395.652 375.483 393.378 373.207 393.378 369.414V348.175C393.378 345.141 394.894 344.382 397.168 344.382C398.684 344.382 400.957 345.141 400.957 348.175V369.414C401.715 369.414 402.473 369.414 402.473 369.414C402.473 369.414 402.473 367.139 402.473 366.38C402.473 362.587 402.473 360.312 406.263 360.312C408.537 360.312 410.053 361.829 410.053 364.105C410.053 364.105 410.053 372.449 408.537 374.724C406.263 376.241 403.231 376.241 400.957 376.241ZM353.964 376.241C352.448 376.241 350.174 374.724 350.174 372.449C350.174 370.931 350.932 370.173 350.932 370.173C356.238 363.346 358.511 357.278 360.785 351.968C361.543 350.451 362.301 348.934 364.575 348.934C366.091 348.934 368.365 350.451 368.365 352.726C368.365 355.002 363.059 366.38 358.511 372.449C356.238 375.483 355.48 376.241 353.964 376.241ZM353.964 371.69C353.964 372.449 353.964 372.449 353.964 371.69C353.964 372.449 353.964 372.449 353.964 371.69ZM386.556 375.483C385.04 375.483 382.766 374.724 382.766 371.69V348.934C382.766 345.899 384.282 345.141 386.556 345.141C388.83 345.141 390.346 345.899 390.346 348.934V372.449C389.588 374.724 388.072 375.483 386.556 375.483ZM405.505 347.416C403.989 347.416 403.231 345.899 402.473 345.899C401.715 345.141 400.957 344.382 400.957 343.624C394.136 344.382 374.429 345.141 369.881 345.141C366.849 345.141 366.091 342.865 366.091 341.348C366.091 339.831 366.849 339.072 367.607 338.314C368.365 338.314 368.365 338.314 372.913 337.555C374.429 335.28 375.945 332.245 377.461 329.211H369.123C368.365 329.211 367.607 329.211 366.849 328.453C366.091 329.211 365.333 329.97 363.817 329.97C362.301 329.97 362.301 329.97 359.269 327.694C356.996 326.177 356.238 325.418 353.206 323.901C352.448 323.901 350.932 322.384 351.69 320.109C351.69 318.591 353.206 317.074 355.48 317.074C357.753 317.074 364.575 321.626 364.575 321.626C365.333 322.384 365.333 322.384 366.091 323.143C366.849 322.384 367.607 321.626 369.123 321.626H383.524V319.35C383.524 316.316 385.04 315.557 387.314 315.557C388.072 315.557 391.104 315.557 391.104 319.35V321.626H405.505C407.779 321.626 409.295 323.143 409.295 325.418C409.295 326.936 408.537 329.211 405.505 329.211H397.926C398.684 329.97 399.442 330.728 400.957 332.245C403.231 334.521 409.295 341.348 409.295 343.624C409.295 345.899 407.779 347.416 405.505 347.416ZM375.945 340.589C375.945 340.589 376.703 340.589 375.945 340.589C376.703 340.589 376.703 340.589 375.945 340.589C375.945 340.589 376.703 340.589 375.945 340.589ZM400.957 339.072C401.715 339.072 401.715 339.072 400.957 339.072C401.715 339.072 400.957 339.072 400.957 339.072ZM385.798 329.97C384.282 333.004 382.766 335.28 382.008 337.555C386.556 337.555 391.104 337.555 395.652 336.797C394.894 336.038 394.136 335.28 393.378 334.521C392.62 333.762 391.862 333.004 391.862 332.245C391.862 331.487 392.62 330.728 392.62 329.97H385.798V329.97ZM382.008 326.936C382.008 326.936 382.766 326.936 382.008 326.936C382.766 326.936 382.766 326.936 382.008 326.936ZM387.314 326.177C387.314 326.177 387.314 325.418 387.314 326.177C387.314 325.418 387.314 326.177 387.314 326.177ZM361.543 346.658C360.027 346.658 360.027 346.658 357.753 344.382C356.238 342.865 355.48 342.865 353.206 341.348H352.448C350.932 340.589 350.174 339.831 350.174 337.555C350.174 336.038 351.69 333.762 353.964 333.762C355.48 333.762 358.511 335.28 362.301 338.314C364.575 339.831 365.333 340.589 365.333 342.107C364.575 344.382 363.059 346.658 361.543 346.658Z" fill="black"></path><path d="M435.828 348.934C433.554 352.727 430.523 358.036 428.249 362.588C427.491 363.346 427.491 364.105 426.733 364.105C425.975 364.105 425.217 363.346 425.217 362.588C425.217 361.829 425.217 361.829 426.733 358.795C429.765 353.485 433.554 348.175 436.586 342.865V336.797C433.554 336.797 429.007 337.556 427.491 337.556C425.975 337.556 425.975 336.797 425.975 336.038C425.975 334.521 426.733 334.521 428.249 334.521C431.281 334.521 434.312 334.521 436.586 333.763V324.66C436.586 323.143 436.586 321.626 438.102 321.626C439.618 321.626 439.618 323.143 439.618 323.143C439.618 324.66 438.86 339.831 438.86 342.865C441.134 340.59 449.472 329.211 458.567 329.211C463.115 329.211 468.421 331.487 468.421 338.314C468.421 339.831 467.663 345.141 466.905 350.451C466.147 355.761 465.389 360.312 465.389 362.588C465.389 364.105 465.389 366.38 468.421 366.38C470.695 366.38 472.969 364.863 472.969 364.105C473.727 363.346 474.484 363.346 474.484 363.346C475.242 363.346 476 364.105 476 364.863C476 366.38 471.453 369.415 467.663 369.415C461.599 369.415 461.599 363.346 461.599 362.588C461.599 360.312 462.357 355.761 463.115 350.451C463.873 345.141 464.631 340.59 464.631 338.314C464.631 333.004 460.083 332.246 457.809 332.246C451.746 332.246 444.924 338.314 438.102 346.658C438.102 354.244 438.102 362.588 438.102 370.173C438.102 372.449 438.102 373.207 436.586 373.207C435.07 373.207 435.07 372.449 435.07 370.173L435.828 348.934Z" fill="black"></path><path d="M436.583 375.483C435.825 375.483 434.309 375.483 434.309 374.724C433.551 373.966 433.551 372.449 433.551 370.932V356.519C432.035 358.795 430.519 361.829 429.003 364.105C428.245 364.863 427.487 366.38 425.971 366.38C424.456 366.38 422.182 364.863 422.182 362.588C422.182 361.07 422.94 360.312 424.456 358.036C427.487 353.485 430.519 348.175 433.551 343.624L434.309 342.865V339.072C431.277 339.072 428.245 339.831 426.729 339.831C424.456 339.831 422.94 338.314 422.94 336.038C422.94 332.245 425.971 332.245 427.487 332.245C429.761 332.245 432.035 332.245 434.309 331.487V323.901C434.309 322.384 434.309 318.592 438.099 318.592C439.615 318.592 441.889 319.35 441.889 322.384C441.889 323.143 441.889 327.694 441.889 333.004C441.889 334.521 441.889 336.038 441.889 336.797C446.436 332.245 452.5 326.936 459.322 326.936C465.386 326.936 471.449 330.728 471.449 338.314C471.449 339.831 470.691 343.624 470.691 348.175V350.451C469.933 355.002 469.175 360.312 469.175 361.829C469.175 364.105 469.933 364.105 470.691 364.105C471.449 364.105 472.965 364.105 474.481 362.588C475.239 361.829 475.997 361.07 477.513 361.07C479.029 361.07 481.303 362.588 481.303 364.863C481.303 367.897 475.239 371.69 470.691 371.69C465.386 371.69 462.354 368.656 462.354 362.588C462.354 361.07 463.112 358.036 463.112 354.243L463.87 350.451C464.628 344.382 465.386 339.831 465.386 339.072C465.386 335.28 461.596 334.521 460.08 334.521C455.532 334.521 449.468 339.072 442.647 348.175C442.647 355.761 442.647 363.346 442.647 370.932C440.373 371.69 440.373 375.483 436.583 375.483ZM435.825 347.417C436.583 347.417 436.583 347.417 437.341 348.175V347.417C437.341 346.658 437.341 346.658 438.099 345.899C438.857 345.141 438.857 345.141 439.615 344.382C439.615 344.382 438.857 344.382 438.857 343.624L438.099 345.141C436.583 345.899 435.825 346.658 435.825 347.417ZM436.583 335.28C436.583 335.28 437.341 335.28 436.583 335.28C437.341 335.28 437.341 335.28 436.583 335.28C437.341 335.28 437.341 335.28 436.583 335.28C437.341 335.28 437.341 335.28 436.583 335.28Z" fill="black"></path><path d="M504.038 327.695C503.28 327.695 502.522 327.695 502.522 326.178C502.522 324.661 504.038 324.661 504.796 324.661C510.102 324.661 517.681 324.661 522.987 323.902C524.503 323.902 530.567 323.144 532.083 323.144C534.357 323.144 535.115 324.661 535.115 325.419C535.115 326.178 535.115 326.178 530.567 329.971C522.987 336.039 517.681 340.59 513.134 344.383C517.681 342.107 522.229 341.349 526.777 341.349C537.389 341.349 544.21 347.417 544.21 356.52C544.21 366.381 535.873 373.966 522.987 373.966C515.408 373.966 507.828 370.932 507.828 364.105C507.828 358.795 512.376 355.761 517.681 355.761C524.503 355.761 530.567 361.071 532.083 368.657C538.904 365.622 541.178 359.554 541.178 356.52C541.178 351.21 538.146 344.383 526.777 344.383C515.408 344.383 507.07 351.21 505.554 352.727C501.006 356.52 500.248 357.278 500.248 357.278C499.49 357.278 498.732 356.52 498.732 355.761C498.732 355.003 498.732 355.003 501.764 351.969C501.764 351.969 526.777 330.729 531.325 326.936C522.229 326.936 511.618 327.695 504.038 327.695ZM516.923 358.037C513.134 358.037 510.102 360.313 510.102 362.588C510.102 367.14 516.166 369.415 522.229 369.415C525.261 369.415 526.777 368.657 527.535 368.657C526.019 361.83 522.229 358.037 516.923 358.037Z" fill="black"></path><path d="M522.234 374.725C513.897 374.725 504.801 370.932 504.801 363.347C504.801 357.278 509.349 353.485 516.171 353.485C522.992 353.485 529.056 358.037 532.088 365.622C537.394 362.588 537.394 358.037 537.394 355.761C537.394 352.727 535.878 345.9 524.508 345.9C513.897 345.9 505.559 352.727 504.043 354.244C499.495 358.795 498.737 358.795 497.221 358.795C494.948 358.795 493.432 357.278 493.432 355.002C493.432 353.485 494.19 352.727 496.464 350.451L497.221 349.693C497.221 349.693 499.495 348.176 522.234 328.453C515.413 329.212 508.591 329.212 502.527 329.212C500.253 329.212 498.737 327.695 498.737 325.419C498.737 324.66 498.737 321.626 502.527 321.626C508.591 321.626 516.171 321.626 520.718 320.868C521.476 320.868 522.234 320.868 522.992 320.868C526.024 320.868 529.056 320.109 529.814 320.109C532.846 320.109 534.362 322.385 534.362 324.66C534.362 326.936 534.362 326.936 529.056 330.729C525.266 333.763 522.234 336.797 519.202 339.073C520.718 339.073 522.992 338.314 524.508 338.314C535.878 338.314 543.457 345.141 543.457 355.002C545.731 367.139 535.878 374.725 522.234 374.725ZM529.814 369.415V370.174H530.572C530.572 369.415 530.572 369.415 529.814 369.415C529.814 369.415 530.572 369.415 529.814 369.415ZM516.929 360.312C513.897 360.312 512.381 361.829 512.381 363.347C512.381 366.381 517.686 367.898 522.992 367.898C524.508 367.898 525.266 367.898 526.024 367.898C523.75 362.588 520.718 360.312 516.929 360.312ZM510.865 344.383C510.107 345.141 508.591 345.9 507.833 347.417C508.591 346.658 510.107 345.9 510.865 344.383C510.865 345.141 510.865 345.141 510.865 344.383C510.865 344.383 510.865 345.141 510.865 344.383ZM531.33 324.66C532.088 325.419 532.088 325.419 532.088 326.178C532.846 325.419 532.846 325.419 532.846 325.419C532.088 324.66 532.088 324.66 531.33 324.66Z" fill="black"></path><path d="M296.362 130.471C294.088 130.471 292.572 128.953 292.572 126.678V122.885C292.572 120.609 294.088 119.092 296.362 119.092C298.636 119.092 300.152 120.609 300.152 122.885V126.678C300.152 128.953 298.636 130.471 296.362 130.471Z" fill="black"></path><path d="M296.362 185.086C294.088 185.086 292.572 183.569 292.572 181.293V174.466C292.572 172.191 294.088 170.673 296.362 170.673C298.636 170.673 300.152 172.191 300.152 174.466V181.293C300.152 182.81 298.636 185.086 296.362 185.086ZM296.362 157.778C294.088 157.778 292.572 156.261 292.572 153.985V147.158C292.572 144.883 294.088 143.366 296.362 143.366C298.636 143.366 300.152 144.883 300.152 147.158V153.985C300.152 156.261 298.636 157.778 296.362 157.778Z" fill="black"></path><path d="M296.362 208.602C294.088 208.602 292.572 207.085 292.572 204.809V201.016C292.572 198.74 294.088 197.223 296.362 197.223C298.636 197.223 300.152 198.74 300.152 201.016V204.809C300.152 207.085 298.636 208.602 296.362 208.602Z" fill="black"></path><path d="M277.412 199.499L296.361 232.116L315.31 199.499H277.412Z" fill="black"></path><path d="M28.8056 28.0663C28.8056 28.0663 29.5636 28.8248 29.5636 29.5834C29.5636 30.3419 29.5636 31.1005 29.5636 31.859C29.5636 31.1005 29.5636 30.3419 29.5636 28.8248C29.5636 28.0663 30.3216 27.3077 31.0795 27.3077L28.8056 28.0663C28.8056 28.0663 28.0477 27.3077 28.8056 28.0663Z" fill="black"></path><path d="M52.2996 23.5149H3.78982C0.757965 23.5149 0 25.7905 0 27.3076C0 29.5833 1.51593 31.1004 3.78982 31.1004H25.7708C25.7708 40.203 23.4969 47.7885 12.1274 53.0984C9.85354 53.8569 8.33761 54.6155 8.33761 56.8912C8.33761 58.4083 9.85354 60.6839 12.1274 60.6839C13.6434 60.6839 20.465 58.4083 25.7708 52.3398C31.0765 46.2714 32.5925 38.6859 33.3504 31.1004H52.2996C54.5735 31.1004 56.0894 29.5833 56.0894 27.3076C55.3314 25.032 54.5735 23.5149 52.2996 23.5149ZM29.5606 29.5833C29.5606 30.3419 29.5606 31.1004 29.5606 32.6175C29.5606 31.1004 29.5606 30.3419 29.5606 29.5833C29.5606 28.8248 29.5606 28.8248 28.8027 28.0662C28.8027 28.0662 28.0447 28.0662 28.0447 27.3076H30.3186C29.5606 28.0662 29.5606 28.0662 29.5606 29.5833Z" fill="black"></path><path d="M10.614 15.1711H44.7224C47.7543 15.1711 48.5123 13.654 48.5123 11.3783C48.5123 9.86123 47.7543 7.58557 44.7224 7.58557H10.614C8.34015 7.58557 6.82422 9.10267 6.82422 11.3783C6.82422 13.654 7.58218 15.1711 10.614 15.1711Z" fill="black"></path><path d="M100.051 37.1688V36.4103C100.051 36.4103 100.051 36.4103 100.809 35.6517C100.051 35.6517 100.051 34.8932 99.2931 34.8932V35.6517C99.2931 35.6517 99.2931 36.4103 98.5352 36.4103C99.2931 36.4103 99.2931 36.4103 100.051 37.1688Z" fill="black"></path><path d="M96.2618 19.7223C95.5039 20.4808 95.5039 20.4808 96.2618 19.7223C96.2618 20.4808 97.0198 20.4808 97.0198 21.2394V20.4808C97.0198 20.4808 97.0198 20.4808 97.7778 19.7223C97.0198 19.7223 97.0198 18.9637 96.2618 18.9637C96.2618 19.7223 96.2618 19.7223 96.2618 19.7223Z" fill="black"></path><path d="M121.28 28.8248L102.331 31.859L100.815 23.5149L115.974 21.2393C118.248 21.2393 119.006 19.7222 119.006 17.4465C119.006 15.9294 118.248 15.1709 117.49 14.4123C116.732 13.6538 115.216 13.6538 114.458 13.6538L99.2988 15.9294L97.7828 7.58535C97.0249 4.55115 94.751 4.55115 93.993 4.55115C93.993 4.55115 91.7191 4.55115 90.9611 6.06825C90.9611 6.8268 90.2032 7.58535 90.9611 9.10246L92.4771 16.688L76.5598 18.9636C74.2859 18.9636 73.5279 20.4807 73.5279 22.7564C73.5279 24.2735 74.2859 25.032 75.0439 25.7906C75.8018 26.5491 76.5598 26.5491 78.0757 26.5491L93.993 24.2735L95.5089 32.6175L73.5279 36.4103C71.2541 36.4103 70.4961 38.686 70.4961 39.4445C70.4961 40.9616 71.2541 41.7202 72.012 42.4787C72.77 43.2373 73.5279 43.2373 75.0439 43.2373L97.0249 39.4445L100.057 56.8912C100.057 60.6839 101.573 60.6839 103.089 60.6839C104.605 60.6839 105.362 60.6839 106.12 59.9254C106.878 59.1668 106.878 58.4083 106.878 56.8912L103.847 39.4445L122.038 36.4103C123.554 36.4103 125.07 34.8932 125.07 32.6175C125.07 31.1004 124.312 30.3419 123.554 29.5833C123.554 28.8248 122.796 28.8248 121.28 28.8248ZM99.2988 35.6518V34.8932C99.2988 35.6518 100.057 35.6518 100.815 35.6518C100.815 35.6518 100.815 35.6518 100.057 36.4103V37.1689C99.2987 36.4103 99.2988 36.4103 99.2988 35.6518C98.5408 35.6518 98.5408 35.6518 99.2988 35.6518ZM97.0249 20.4807V21.2393C97.0249 20.4807 96.2669 20.4807 95.5089 20.4807C95.5089 20.4807 96.2669 20.4807 96.2669 19.7222V18.9636C96.2669 19.7222 97.0249 20.4807 97.0249 20.4807C97.0249 20.4807 97.7828 20.4807 97.0249 20.4807Z" fill="black"></path><path d="M149.317 12.8953V12.1367L148.559 12.8953H149.317Z" fill="black"></path><path d="M180.4 12.895C181.158 12.895 182.674 14.4121 182.674 15.9292C182.674 15.9292 181.916 18.2049 180.4 21.9976C181.916 18.9634 182.674 16.6878 182.674 15.1707C182.674 13.6536 181.916 12.895 180.4 12.895Z" fill="black"></path><path d="M172.811 34.8932C172.811 35.6517 172.053 35.6517 172.053 36.4103C172.053 36.4103 172.053 36.4103 172.811 36.4103H173.569C172.811 35.6517 172.053 34.8932 172.811 34.8932Z" fill="black"></path><path d="M191.77 54.6155L191.012 53.857C190.254 52.3399 188.738 51.5813 187.98 50.0642C188.738 51.5813 190.254 52.3399 191.012 53.857C191.012 53.857 191.77 54.6155 191.77 54.6155Z" fill="black"></path><path d="M176.603 34.1346C180.393 28.0662 185.698 18.9636 185.698 14.4123C185.698 8.34387 180.393 8.34387 178.119 8.34387H147.8C144.01 8.34387 144.01 11.3781 144.01 12.1366C144.01 13.6537 144.768 15.9294 147.8 15.9294H176.603C175.087 19.7221 167.507 39.4445 144.01 51.5813C142.494 52.3398 140.979 53.0984 140.979 55.3741C140.979 57.6497 142.494 59.1668 144.768 59.1668C146.284 59.1668 159.928 53.0984 171.297 40.203C175.087 43.2372 180.393 48.5471 186.456 56.1326C187.214 56.8912 187.972 58.4083 190.246 58.4083C192.52 58.4083 194.036 56.8912 194.036 54.6155C194.036 53.0984 193.278 52.3398 192.52 51.5813C187.972 43.9958 181.151 37.9274 176.603 34.1346ZM191.004 53.0984L191.762 53.8569C191.762 54.6155 191.004 53.8569 191.004 53.0984C190.246 51.5813 188.73 50.8227 187.972 49.3056C188.73 50.8227 189.488 52.3398 191.004 53.0984ZM171.297 35.6517C171.297 34.8932 172.055 34.8932 172.055 34.1346C172.055 34.8932 172.055 34.8932 172.055 35.6517C172.813 35.6517 172.055 35.6517 171.297 35.6517C171.297 35.6517 172.055 35.6517 171.297 35.6517ZM179.635 21.9978C181.909 18.205 181.909 15.9294 181.909 15.9294C181.909 14.4123 181.151 12.8952 179.635 12.8952C181.909 12.8952 181.909 13.6537 181.909 15.1708C182.667 16.6879 181.151 18.9636 179.635 21.9978ZM149.316 12.8952C149.316 12.1366 149.316 12.8952 149.316 12.8952V12.8952Z" fill="black"></path><path d="M258.46 41.7205C258.46 41.7205 257.702 40.9619 256.944 40.9619L256.186 40.2034C254.671 39.4448 253.155 37.9277 251.639 37.1692C252.397 37.9277 253.913 38.6863 254.671 39.4448C256.944 40.2034 257.702 40.9619 258.46 41.7205Z" fill="black"></path><path d="M231.94 26.5491C231.94 26.5491 231.94 25.7906 231.94 26.5491C230.424 25.7906 230.424 25.032 230.424 24.2734V8.34387V57.6497V28.0662C230.424 27.3077 230.424 26.5491 231.182 26.5491C231.94 26.5491 231.94 26.5491 231.94 26.5491Z" fill="black"></path><path d="M259.227 37.169C253.164 32.6177 247.1 28.8249 234.214 22.7565V7.58548C234.214 5.30983 232.698 3.79272 230.425 3.79272C228.151 3.79272 226.635 5.30983 226.635 7.58548V57.6499C226.635 60.6841 229.667 61.4426 230.425 61.4426C232.698 61.4426 234.214 59.9255 234.214 57.6499V31.1006C238.762 33.3762 246.342 37.169 253.164 42.4788C256.195 44.7545 256.953 45.513 258.469 45.513C260.743 45.513 262.259 43.2374 262.259 41.7203C262.259 39.4446 260.743 37.9275 259.227 37.169ZM230.425 57.6499V8.34403V24.2736C230.425 25.0322 231.183 25.7907 231.941 25.7907H232.698H231.941C231.183 25.7907 231.183 26.5493 231.183 27.3078V57.6499H230.425ZM256.195 40.2032C256.953 40.9617 257.711 41.7203 258.469 41.7203C258.469 41.7203 256.953 40.9617 255.437 39.4446C254.679 38.6861 253.164 37.9275 252.406 37.169C253.164 37.9275 254.679 38.6861 256.195 40.2032Z" fill="black"></path><path d="M300.147 23.5154C300.147 22.7568 300.905 21.9983 301.663 21.9983C301.663 21.9983 301.663 21.9983 301.663 21.2397C300.905 21.9983 300.147 22.7568 300.147 23.5154C300.147 22.7568 299.389 22.7568 300.147 23.5154C300.147 23.5154 300.147 22.7568 300.147 23.5154Z" fill="black"></path><path d="M326.685 15.9293C329.716 19.722 330.474 20.4806 331.99 20.4806C334.264 20.4806 335.78 18.9635 335.78 16.6878C335.78 15.1707 328.201 5.30957 325.169 5.30957C322.895 5.30957 321.379 6.82667 321.379 9.10233C321.379 9.86088 322.137 10.6194 322.895 11.378C323.653 12.8951 325.927 15.1707 326.685 15.9293Z" fill="black"></path><path d="M305.458 18.2051C306.216 13.6538 306.974 9.10246 306.974 8.3439C306.974 6.06825 305.458 4.55115 303.184 4.55115C300.152 4.55115 299.394 6.8268 299.394 9.10246C298.636 12.8952 298.636 15.9294 297.878 18.9636L286.509 20.4807C284.235 20.4807 281.203 21.2393 281.203 24.2735C281.203 26.5491 282.719 28.0662 284.235 28.0662C284.235 28.0662 284.993 28.0662 290.299 27.3077C291.815 27.3077 294.089 26.5491 295.604 26.5491C293.331 36.4103 289.541 45.5129 284.993 52.3399C283.477 54.6155 283.477 55.3741 283.477 56.1326C283.477 58.4083 285.751 59.9254 287.267 59.9254C289.541 59.9254 290.299 58.4083 291.057 56.8912C296.362 48.5471 300.152 37.9274 303.184 25.7906C303.942 25.7906 304.7 25.7906 305.458 25.7906C312.28 25.7906 313.038 28.8248 313.038 35.6518C313.038 52.3399 309.248 52.3399 305.458 52.3399C304.7 52.3399 303.942 52.3399 302.426 52.3399C302.426 52.3399 300.91 52.3399 300.152 52.3399C298.636 52.3399 297.12 53.857 297.12 56.1326C297.12 60.6839 302.426 60.6839 305.458 60.6839C316.07 60.6839 319.859 53.857 319.859 36.4103C320.617 28.8248 320.617 18.2051 305.458 18.2051ZM300.91 21.2393C301.668 21.9978 301.668 21.9978 300.91 21.2393C300.91 21.9978 300.152 22.7564 300.152 23.5149C300.152 23.5149 300.152 23.5149 300.152 22.7564C300.152 22.7564 300.91 21.9978 300.91 21.2393Z" fill="black"></path><path d="M331.993 0C329.719 0 328.203 1.5171 328.203 3.79276C328.203 4.55131 328.961 5.30986 328.961 6.06841C330.477 7.58551 332.751 9.86117 333.509 10.6197C336.541 14.4125 337.299 15.171 338.815 15.171C341.089 15.171 342.604 13.6539 342.604 11.3783C342.604 9.10262 335.025 0 331.993 0Z" fill="black"></path><path d="M329.71 22.7562C328.952 21.2391 322.888 12.895 319.856 12.895C317.582 12.895 316.066 14.4121 316.066 16.6878C316.066 18.2049 316.824 18.9634 319.098 20.4805C323.646 25.7904 327.436 31.8588 328.952 38.6858C329.71 40.9614 329.71 43.2371 332.742 43.2371C335.016 43.2371 336.531 41.72 336.531 39.4443C335.773 37.1687 334.258 29.5831 329.71 22.7562Z" fill="black"></path><path d="M376.709 26.5494C376.709 26.5494 375.951 25.7909 376.709 26.5494C375.951 26.5494 375.951 26.5494 376.709 26.5494C375.951 26.5494 375.951 26.5494 376.709 26.5494C376.709 26.5494 375.951 26.5494 376.709 26.5494Z" fill="black"></path><path d="M382.777 12.1367C382.019 12.1367 382.019 12.8953 382.777 12.1367C382.019 12.8953 382.777 12.8953 382.777 12.1367C382.777 12.8953 382.777 12.8953 382.777 12.1367Z" fill="black"></path><path d="M363.821 34.8932C361.547 34.8932 360.789 36.4103 360.031 37.9274C357.758 43.2373 355.484 49.3057 350.178 56.1326C349.42 56.8912 349.42 57.6497 349.42 58.4083C349.42 60.6839 351.694 62.201 353.21 62.201C354.726 62.201 356.242 60.6839 357.758 58.4083C361.547 52.3399 367.611 40.203 367.611 38.6859C367.611 36.4103 365.337 34.8932 363.821 34.8932ZM353.968 57.6497C353.968 58.4083 353.968 58.4083 353.968 57.6497C353.968 58.4083 353.968 57.6497 353.968 57.6497Z" fill="black"></path><path d="M375.954 31.1005C375.196 31.1005 372.164 31.1005 372.164 34.8932C372.164 44.7544 370.648 51.5814 364.584 56.1327C363.826 56.1327 363.068 57.6498 363.068 59.1669C363.068 61.4425 364.584 62.9596 366.858 62.9596C369.89 62.9596 373.68 57.6498 374.438 56.8912C376.712 53.857 380.502 48.5471 380.502 34.8932C379.744 31.1005 376.712 31.1005 375.954 31.1005Z" fill="black"></path><path d="M352.456 26.549C355.488 28.8247 356.246 28.8247 357.762 30.3418C360.036 31.8589 360.036 32.6174 361.552 32.6174C363.825 32.6174 365.341 30.3418 365.341 28.8247C365.341 27.3076 364.583 26.549 362.309 25.0319C359.278 22.7562 355.488 20.4806 353.972 20.4806C351.698 20.4806 350.182 21.9977 350.182 24.2733C349.424 25.0319 350.94 25.7904 352.456 26.549Z" fill="black"></path><path d="M385.81 22.7565C384.294 22.7565 382.778 22.7565 382.02 22.7565C383.536 20.4809 384.294 18.2052 385.81 15.171V3.79272C385.052 4.55128 384.294 5.30983 384.294 6.82693V9.10258H369.893C368.377 9.10258 367.619 9.86113 366.861 10.6197C366.103 10.6197 366.103 9.86113 365.345 9.86113C365.345 9.86113 358.523 5.30983 356.249 5.30983C354.733 5.30983 353.217 6.82693 352.459 8.34403C351.701 10.6197 353.975 11.3782 353.975 12.1368C357.007 13.6539 357.765 14.4124 360.039 15.9295C363.071 18.2052 363.071 18.2052 364.587 18.2052C366.103 18.2052 366.861 17.4466 367.619 16.6881C368.377 16.6881 369.135 17.4466 369.893 17.4466H378.23C376.714 20.4809 375.198 23.5151 373.682 25.7907C369.135 25.7907 369.135 25.7907 368.377 26.5493C367.619 27.3078 366.861 28.0664 366.861 29.5835C366.861 30.342 366.861 33.3762 370.651 33.3762C372.924 33.3762 379.746 33.3762 386.568 32.6177V22.7565H385.81ZM382.02 12.1368C382.778 12.8953 382.778 12.8953 382.02 12.1368C382.778 12.8953 382.02 12.8953 382.02 12.1368C382.02 12.1368 382.02 12.8953 382.02 12.1368ZM375.956 26.5493C375.956 25.7907 376.714 26.5493 375.956 26.5493C376.714 26.5493 376.714 26.5493 375.956 26.5493C375.956 26.5493 376.714 26.5493 375.956 26.5493Z" fill="black"></path><path d="M385.803 31.1005C384.287 31.1005 382.771 32.6176 382.771 34.8932V58.4083C382.771 60.684 384.287 61.4425 385.803 62.2011V31.1005Z" fill="black"></path></svg> 